<?xml version="1.0" encoding="utf-8"?>
<!-- Generator: Adobe Illustrator 24.2.1, SVG Export Plug-In . SVG Version: 6.00 Build 0)  -->
<svg version="1.1"
	 xmlns:cc="http://creativecommons.org/ns#" xmlns:dc="http://purl.org/dc/elements/1.1/" xmlns:rdf="http://www.w3.org/1999/02/22-rdf-syntax-ns#" xmlns:svg="http://www.w3.org/2000/svg"
	 xmlns="http://www.w3.org/2000/svg" xmlns:xlink="http://www.w3.org/1999/xlink" x="0px" y="0px" viewBox="0 0 835.3 293.6"
	 style="enable-background:new 0 0 835.3 293.6;" xml:space="preserve">
<style type="text/css">
	.st0{fill:#C20020;}
</style>
<polygon class="st0" points="600.9,293.6 650.9,58.1 356.1,58.2 368.4,1.5 835.3,1.5 823.3,58.1 731.9,58.1 681.8,293.6 "/>
<polygon class="st0" points="536.2,175.9 548.3,119.3 341.5,119.3 329.2,176 "/>
<path class="st0" d="M153.2,1.2h-0.7L140,59.3h32.8c25.9,0,53,2.9,45.7,32.6c-7.4,30-32.9,32-58.8,32h-32.9l-13.7,56.4h31.7
	c31.5,0.1,40.6,20,40.6,51.1c0,21.4,0.6,40.4-1.5,61.7H264l42.1-0.2h207l12-56.7H318.3l-54.4,0.1c0.1-4.5,0.2-9.2,0.3-13.8
	c0.3-20.8,0.7-63.9-41.6-70l0.3-1.6c43.9-8.1,66.6-23.4,81.4-74.4c8.8-57.6-40.3-76.1-97.3-75.3H153.2z"/>
<polygon class="st0" points="62.1,0 62.1,0 0,292.1 18.8,292.1 80.9,0 "/>
</svg>
