<svg id="svg" version="1.1" xmlns="http://www.w3.org/2000/svg" xmlns:xlink="http://www.w3.org/1999/xlink" width="400" height="124.02464065708419" viewBox="0, 0, 400,124.02464065708419"><g id="svgg"><path id="path0" d="M324.912 0.461 C 324.543 0.712,323.893 1.202,323.468 1.550 L 322.695 2.183 320.306 2.233 C 318.308 2.275,317.807 2.338,317.250 2.619 C 316.883 2.804,316.283 3.007,315.917 3.071 C 315.550 3.135,314.912 3.361,314.500 3.572 C 314.087 3.784,313.511 4.009,313.220 4.073 C 312.928 4.136,312.601 4.295,312.492 4.426 C 312.383 4.557,312.022 4.738,311.689 4.829 C 310.962 5.026,310.107 5.769,310.283 6.052 C 310.351 6.161,310.429 6.392,310.456 6.565 C 310.526 7.013,320.409 16.894,321.409 17.515 L 322.239 18.031 322.536 17.664 C 322.700 17.462,322.833 17.169,322.833 17.014 C 322.833 16.859,323.021 16.477,323.250 16.167 C 323.479 15.856,323.669 15.485,323.672 15.343 C 323.675 15.200,323.900 14.635,324.172 14.088 C 324.444 13.540,324.667 12.918,324.667 12.706 C 324.667 12.494,324.835 12.092,325.042 11.813 C 325.389 11.344,325.421 11.100,325.473 8.543 C 325.531 5.732,325.661 5.180,326.393 4.646 C 326.472 4.588,326.697 4.277,326.893 3.953 C 327.089 3.630,327.560 2.965,327.939 2.474 C 328.429 1.840,328.660 1.355,328.740 0.792 L 328.854 0.000 327.219 0.003 C 325.715 0.006,325.529 0.043,324.912 0.461 M286.563 17.154 C 286.186 17.216,285.698 17.382,285.480 17.524 C 285.262 17.665,284.673 17.829,284.170 17.887 C 283.668 17.945,283.068 18.133,282.837 18.304 C 282.606 18.475,282.123 18.669,281.764 18.737 C 281.405 18.804,280.844 19.041,280.517 19.263 C 280.190 19.485,279.846 19.668,279.753 19.669 C 279.390 19.673,275.773 22.112,274.842 22.980 C 274.608 23.197,274.042 23.657,273.583 24.002 C 272.447 24.855,270.642 26.660,269.417 28.167 C 268.859 28.854,268.188 29.642,267.928 29.917 C 265.858 32.102,266.920 34.539,269.417 33.333 C 269.783 33.156,270.332 33.009,270.636 33.006 C 270.940 33.003,271.540 32.851,271.969 32.670 C 272.482 32.453,273.437 32.285,274.750 32.180 C 275.850 32.093,277.029 31.904,277.370 31.761 C 278.176 31.421,280.027 31.419,280.680 31.757 C 281.502 32.182,283.269 32.276,283.667 31.916 C 284.116 31.510,285.376 31.510,286.372 31.915 C 287.606 32.418,287.641 32.379,290.209 27.500 C 290.571 26.813,291.000 26.025,291.162 25.750 C 291.325 25.475,291.757 24.688,292.122 24.000 C 292.488 23.313,293.057 22.252,293.388 21.643 C 294.472 19.644,294.588 19.240,294.229 18.707 C 294.059 18.456,293.844 18.025,293.752 17.750 C 293.521 17.065,289.264 16.712,286.563 17.154 M298.833 28.841 C 298.512 29.013,297.487 29.737,296.555 30.451 C 291.994 33.945,290.478 35.193,289.260 36.458 C 287.639 38.142,287.587 38.146,286.000 36.667 C 283.845 34.658,283.444 35.767,285.250 38.742 C 286.119 40.173,286.098 40.440,285.018 41.583 C 284.155 42.498,282.077 45.009,281.031 46.400 C 278.996 49.107,280.737 48.199,285.560 44.039 C 287.808 42.099,288.059 42.018,289.319 42.820 C 290.069 43.298,291.909 44.000,292.411 44.000 C 293.013 44.000,292.540 43.232,290.875 41.502 C 289.966 40.557,289.964 40.565,291.292 39.309 C 292.524 38.143,293.638 36.878,295.011 35.083 C 295.503 34.442,296.545 33.090,297.327 32.079 C 299.812 28.870,300.153 28.136,298.833 28.841 M306.833 34.343 C 306.146 34.715,304.787 35.462,303.815 36.004 C 302.842 36.546,301.567 37.241,300.981 37.550 C 295.506 40.436,295.468 40.468,296.063 41.633 C 296.537 42.561,296.553 43.130,296.130 43.964 C 295.668 44.874,295.667 44.902,296.061 45.641 C 296.501 46.465,296.408 52.358,295.945 53.064 C 295.777 53.320,295.684 53.572,295.737 53.626 C 295.790 53.679,295.833 53.672,295.833 53.611 C 295.833 53.550,295.991 53.657,296.183 53.850 C 296.874 54.541,296.881 55.359,296.215 58.043 C 296.007 58.878,295.984 59.217,296.123 59.357 C 296.580 59.814,299.292 57.590,302.721 53.944 C 304.729 51.810,305.990 50.833,306.738 50.833 C 307.113 50.833,309.833 45.417,309.833 44.671 C 309.833 44.491,310.002 44.023,310.208 43.630 C 310.565 42.951,310.586 42.706,310.633 38.540 L 310.682 34.164 310.248 33.999 C 309.045 33.542,308.147 33.633,306.833 34.343 M329.417 51.655 C 328.397 52.081,328.225 54.659,328.443 66.250 C 328.454 66.800,328.459 70.175,328.455 73.750 C 328.451 77.325,328.484 81.900,328.529 83.917 C 328.619 87.947,328.568 88.890,328.274 88.722 C 328.169 88.662,328.139 88.675,328.207 88.750 C 328.275 88.825,328.237 89.001,328.124 89.142 C 327.959 89.346,327.959 89.372,328.125 89.272 C 328.289 89.173,328.333 90.002,328.334 93.198 C 328.334 97.825,328.425 98.249,329.500 98.616 C 330.401 98.923,340.827 98.910,341.567 98.601 C 342.731 98.115,342.667 98.831,342.667 86.262 C 342.667 75.437,342.680 74.949,342.958 75.314 C 343.119 75.525,343.408 75.896,343.602 76.140 C 343.796 76.384,344.007 76.751,344.071 76.956 C 344.135 77.161,344.509 77.724,344.903 78.207 C 345.296 78.690,345.673 79.258,345.741 79.471 C 345.808 79.683,346.185 80.252,346.579 80.736 C 346.972 81.219,347.347 81.781,347.412 81.986 C 347.477 82.190,347.861 82.763,348.265 83.260 C 348.669 83.756,349.000 84.250,349.000 84.357 C 349.000 84.464,349.187 84.798,349.416 85.098 C 349.646 85.398,349.910 85.818,350.003 86.030 C 350.097 86.243,350.400 86.717,350.675 87.083 C 350.951 87.450,351.300 87.938,351.451 88.167 C 351.783 88.672,352.750 90.124,353.061 90.583 C 353.185 90.767,353.535 91.310,353.838 91.792 C 354.141 92.273,354.447 92.667,354.517 92.667 C 354.587 92.667,354.695 92.825,354.756 93.019 C 354.817 93.213,355.273 93.965,355.767 94.692 C 356.262 95.418,356.667 96.044,356.667 96.081 C 356.667 96.201,357.626 97.561,358.137 98.167 L 358.630 98.750 364.432 98.798 C 370.607 98.849,370.972 98.810,371.312 98.064 C 371.449 97.764,371.500 91.476,371.500 74.985 L 371.500 52.318 371.083 51.901 L 370.666 51.484 364.735 51.534 L 358.804 51.583 358.402 52.051 L 358.000 52.519 358.000 63.926 C 358.000 74.947,357.955 75.933,357.507 74.850 C 357.397 74.584,357.125 74.196,356.903 73.987 C 356.681 73.779,356.500 73.536,356.500 73.447 C 356.500 73.229,355.420 71.613,355.094 71.342 C 354.950 71.223,354.833 71.049,354.833 70.955 C 354.833 70.731,353.761 69.119,353.427 68.842 C 353.284 68.723,353.167 68.541,353.166 68.438 C 353.166 68.335,352.868 67.837,352.505 67.333 C 352.141 66.829,351.729 66.165,351.590 65.858 C 351.450 65.551,351.046 64.951,350.691 64.525 C 350.335 64.099,349.993 63.582,349.929 63.377 C 349.865 63.173,349.480 62.596,349.073 62.097 C 348.666 61.598,348.333 61.084,348.333 60.955 C 348.333 60.826,348.142 60.465,347.907 60.152 C 347.673 59.839,347.186 59.133,346.825 58.583 C 346.463 58.033,346.067 57.433,345.943 57.250 C 344.960 55.794,344.333 54.831,343.833 54.012 C 343.512 53.485,342.973 52.724,342.634 52.319 L 342.018 51.583 335.884 51.549 C 332.510 51.530,329.600 51.578,329.417 51.655 M373.726 51.665 C 372.776 52.049,372.833 50.541,372.833 75.167 C 372.833 100.265,372.740 98.319,373.963 98.659 C 374.365 98.771,379.061 98.832,387.292 98.832 L 400.000 98.833 400.000 93.357 L 400.000 87.880 399.125 87.775 C 398.644 87.717,395.719 87.669,392.625 87.668 L 387.000 87.667 387.000 70.242 C 387.000 51.064,387.055 52.059,385.980 51.685 C 385.342 51.462,374.273 51.445,373.726 51.665 M120.903 56.250 C 120.903 58.083,120.928 58.856,120.957 57.967 C 120.987 57.078,120.988 55.578,120.958 54.634 C 120.928 53.689,120.904 54.417,120.903 56.250 M139.833 54.750 C 139.833 55.743,139.881 56.508,139.939 56.450 C 140.055 56.334,140.024 53.135,139.906 53.017 C 139.866 52.977,139.833 53.757,139.833 54.750 M218.413 65.750 C 218.413 72.808,218.433 75.672,218.458 72.113 C 218.483 68.554,218.483 62.779,218.458 59.279 C 218.433 55.780,218.413 58.692,218.413 65.750 M254.023 54.042 C 254.010 54.660,254.057 55.167,254.126 55.167 C 254.196 55.167,254.230 54.810,254.202 54.375 C 254.116 53.005,254.046 52.876,254.023 54.042 M120.894 62.750 C 120.895 63.667,120.923 64.020,120.956 63.536 C 120.990 63.052,120.990 62.302,120.956 61.869 C 120.921 61.437,120.894 61.833,120.894 62.750 M120.894 66.917 C 120.895 67.833,120.923 68.187,120.956 67.703 C 120.990 67.218,120.990 66.468,120.956 66.036 C 120.921 65.604,120.894 66.000,120.894 66.917 M120.913 83.417 C 120.913 91.117,120.933 94.242,120.958 90.363 C 120.983 86.483,120.983 80.183,120.958 76.363 C 120.933 72.542,120.913 75.717,120.913 83.417 M288.395 75.167 C 288.395 76.129,288.423 76.523,288.456 76.042 C 288.490 75.560,288.490 74.773,288.456 74.292 C 288.423 73.810,288.395 74.204,288.395 75.167 M271.500 75.050 C 271.500 75.934,271.425 76.509,271.292 76.643 C 271.125 76.811,271.141 76.831,271.375 76.742 C 271.651 76.637,271.852 73.667,271.583 73.667 C 271.537 73.667,271.500 74.289,271.500 75.050 M139.912 86.333 C 139.912 92.429,139.933 94.923,139.958 91.875 C 139.984 88.827,139.984 83.840,139.958 80.792 C 139.933 77.744,139.912 80.237,139.912 86.333 M44.385 80.917 C 44.386 81.467,44.417 81.672,44.454 81.372 C 44.491 81.072,44.490 80.622,44.452 80.372 C 44.414 80.122,44.384 80.367,44.385 80.917 M308.711 86.953 C 308.964 86.991,309.339 86.990,309.544 86.951 C 309.749 86.911,309.542 86.880,309.083 86.881 C 308.625 86.882,308.457 86.915,308.711 86.953 M254.079 106.917 C 254.079 113.425,254.100 116.112,254.125 112.887 C 254.150 109.663,254.150 104.338,254.125 101.054 C 254.100 97.770,254.079 100.408,254.079 106.917 M218.296 96.208 C 218.387 97.376,218.460 97.476,218.481 96.458 C 218.491 95.931,218.442 95.500,218.371 95.500 C 218.299 95.500,218.266 95.819,218.296 96.208 " stroke="none" fill="#1e191d" fill-rule="evenodd"></path><path id="path1" d="M281.250 35.436 C 280.608 36.145,279.925 36.880,279.732 37.071 C 279.539 37.261,278.803 38.129,278.096 39.000 C 277.389 39.871,276.272 41.178,275.614 41.906 C 274.955 42.633,274.213 43.458,273.963 43.739 C 273.714 44.020,273.370 44.400,273.199 44.583 C 273.029 44.767,272.425 45.494,271.857 46.200 C 270.978 47.294,269.558 48.889,268.245 50.256 C 267.917 50.598,267.915 50.624,268.202 51.096 C 268.629 51.799,268.582 52.021,267.785 53.048 C 267.094 53.937,260.756 61.261,258.458 63.827 C 257.838 64.518,256.563 65.976,255.624 67.067 C 251.774 71.540,244.961 79.400,241.784 83.036 C 239.392 85.774,239.157 85.941,238.321 85.493 C 238.047 85.347,237.876 85.445,237.207 86.131 C 235.409 87.975,235.221 88.244,234.673 89.750 C 233.884 91.921,233.347 92.773,231.337 95.050 C 229.060 97.628,229.013 97.667,227.417 98.323 C 225.976 98.915,225.624 99.224,223.712 101.583 C 222.781 102.733,221.435 104.260,219.612 106.238 C 219.352 106.520,218.560 107.466,217.851 108.342 C 217.142 109.218,216.079 110.451,215.489 111.082 C 214.899 111.713,214.213 112.459,213.963 112.740 C 213.714 113.020,213.408 113.362,213.284 113.500 C 213.159 113.638,212.573 114.350,211.982 115.083 C 211.390 115.817,210.721 116.606,210.495 116.838 C 210.268 117.069,209.596 117.813,209.000 118.490 C 208.404 119.167,207.804 119.842,207.667 119.991 C 207.529 120.139,207.154 120.617,206.833 121.053 C 206.512 121.488,206.044 122.115,205.792 122.445 C 205.538 122.777,205.333 123.259,205.333 123.523 L 205.333 124.000 206.818 124.000 L 208.303 124.000 209.514 122.989 C 210.743 121.962,211.153 121.586,213.960 118.917 C 215.652 117.308,216.823 116.231,218.423 114.810 C 220.369 113.082,222.219 111.408,223.063 110.612 C 226.055 107.791,227.779 106.196,228.841 105.269 C 230.333 103.966,232.788 101.713,234.333 100.227 C 235.204 99.390,236.343 98.340,236.865 97.894 C 237.616 97.252,237.903 96.858,238.249 96.000 C 238.489 95.404,238.812 94.656,238.967 94.336 C 239.143 93.975,241.706 91.500,245.750 87.783 C 254.239 79.983,253.474 80.594,254.806 80.548 C 255.861 80.512,255.922 80.486,256.739 79.705 C 257.204 79.261,258.183 78.378,258.917 77.743 C 259.650 77.107,260.850 76.017,261.583 75.321 C 265.287 71.805,267.410 69.857,268.535 68.943 C 269.206 68.397,269.306 68.239,269.228 67.850 C 268.972 66.570,269.205 66.282,274.117 61.792 C 279.835 56.565,279.476 56.833,280.748 56.833 C 281.755 56.833,281.776 56.824,282.758 55.897 C 284.183 54.553,287.219 51.775,288.747 50.417 C 289.983 49.318,290.468 48.873,292.907 46.595 C 294.350 45.247,294.256 44.891,292.326 44.408 C 291.734 44.259,290.582 43.807,289.765 43.402 C 287.798 42.428,288.105 42.320,284.634 45.208 C 277.758 50.931,277.183 50.176,283.160 43.272 C 285.879 40.131,285.805 40.331,284.851 38.696 C 284.494 38.084,284.043 37.096,283.849 36.500 C 283.654 35.904,283.252 35.131,282.956 34.782 L 282.417 34.147 281.250 35.436 " stroke="none" fill="#fcfaf9" fill-rule="evenodd"></path><path id="path2" d="M309.312 6.042 C 308.999 6.248,308.257 6.668,307.663 6.976 C 307.069 7.283,306.171 7.788,305.667 8.096 C 305.162 8.405,304.449 8.800,304.081 8.973 C 303.713 9.146,303.310 9.411,303.186 9.561 C 303.061 9.711,302.887 9.833,302.799 9.833 C 302.600 9.833,301.361 10.685,300.250 11.585 C 299.792 11.956,299.026 12.552,298.549 12.908 C 298.072 13.265,297.722 13.621,297.770 13.699 C 297.819 13.778,297.759 13.821,297.637 13.796 C 297.516 13.771,297.437 13.849,297.462 13.971 C 297.488 14.092,297.432 14.144,297.339 14.087 C 297.139 13.963,294.001 16.966,294.050 17.233 C 294.068 17.334,293.988 17.397,293.872 17.374 C 293.583 17.315,293.786 18.123,294.192 18.647 C 294.361 18.866,294.500 19.131,294.500 19.236 C 294.500 19.497,292.169 24.047,291.162 25.750 C 291.000 26.025,290.571 26.813,290.209 27.500 C 287.641 32.379,287.606 32.418,286.372 31.915 C 284.926 31.326,283.186 31.682,283.172 32.570 C 283.169 32.746,283.052 33.017,282.912 33.172 C 282.632 33.481,282.271 34.558,282.492 34.422 C 282.742 34.267,283.516 35.489,283.921 36.678 C 284.140 37.322,284.585 38.287,284.909 38.821 C 285.804 40.294,285.860 40.153,283.160 43.272 C 277.183 50.176,277.758 50.931,284.634 45.208 C 288.105 42.320,287.798 42.428,289.765 43.402 C 290.582 43.807,291.734 44.259,292.326 44.408 C 293.424 44.683,294.072 45.082,293.892 45.373 C 293.834 45.467,293.924 45.497,294.104 45.444 C 294.276 45.394,294.743 45.269,295.142 45.166 C 295.541 45.062,295.826 44.937,295.775 44.886 C 295.725 44.836,295.874 44.431,296.106 43.986 C 296.555 43.128,296.545 42.576,296.063 41.633 C 295.464 40.460,295.455 40.468,301.167 37.452 C 301.854 37.089,302.979 36.474,303.667 36.084 C 308.039 33.610,308.322 33.510,309.838 33.903 C 310.753 34.140,311.298 34.014,311.056 33.622 C 310.997 33.527,311.027 33.497,311.122 33.556 C 311.334 33.687,311.713 33.269,311.540 33.096 C 311.472 33.028,311.498 32.997,311.597 33.028 C 311.842 33.103,313.839 30.978,313.714 30.776 C 313.660 30.687,313.694 30.664,313.789 30.723 C 313.885 30.782,314.077 30.657,314.216 30.445 C 314.355 30.233,314.851 29.652,315.317 29.155 C 315.784 28.657,316.209 28.119,316.261 27.958 C 316.313 27.798,316.417 27.667,316.493 27.667 C 316.568 27.667,316.789 27.329,316.982 26.917 C 317.176 26.504,317.397 26.167,317.473 26.167 C 317.633 26.167,318.667 24.615,318.667 24.375 C 318.667 24.285,318.892 23.929,319.167 23.583 C 319.442 23.237,319.667 22.882,319.667 22.794 C 319.667 22.707,319.809 22.434,319.984 22.189 C 320.158 21.944,320.327 21.595,320.359 21.414 C 320.391 21.232,320.544 20.971,320.699 20.833 C 320.854 20.696,321.004 20.433,321.032 20.250 C 321.060 20.067,321.223 19.767,321.395 19.583 C 322.320 18.593,322.290 18.019,321.283 17.424 C 320.304 16.847,310.524 6.985,310.432 6.482 C 310.391 6.263,310.344 6.046,310.326 6.000 C 310.308 5.954,310.303 5.860,310.314 5.792 C 310.352 5.551,309.875 5.670,309.312 6.042 M309.700 16.190 C 309.955 16.372,310.240 16.474,310.332 16.417 C 310.424 16.360,310.500 16.427,310.500 16.565 C 310.500 16.704,310.606 16.877,310.736 16.950 C 310.866 17.023,311.227 17.405,311.538 17.799 L 312.104 18.515 312.046 20.216 C 311.970 22.407,311.982 22.333,311.722 22.333 C 311.600 22.333,311.500 22.400,311.500 22.481 C 311.500 22.751,310.260 23.839,309.572 24.172 C 308.662 24.613,307.125 24.613,306.261 24.172 C 305.907 23.992,305.561 23.879,305.493 23.921 C 305.424 23.963,305.323 23.881,305.269 23.738 C 305.214 23.596,305.092 23.527,304.997 23.585 C 304.902 23.644,304.846 23.592,304.871 23.471 C 304.896 23.349,304.823 23.269,304.708 23.292 C 304.594 23.315,304.517 23.277,304.537 23.208 C 304.581 23.061,304.001 22.138,303.754 21.961 C 303.660 21.894,303.642 21.837,303.714 21.836 C 303.786 21.834,303.752 21.665,303.639 21.458 C 303.407 21.035,303.172 19.333,303.346 19.333 C 303.408 19.333,303.614 18.977,303.804 18.542 C 303.994 18.106,304.359 17.526,304.616 17.253 C 304.873 16.980,305.063 16.693,305.038 16.616 C 305.012 16.539,305.055 16.514,305.133 16.562 C 305.294 16.662,306.334 16.069,306.333 15.877 C 306.332 15.584,309.226 15.853,309.700 16.190 M299.136 29.696 C 298.924 29.996,298.110 31.068,297.327 32.079 C 296.545 33.090,295.503 34.442,295.011 35.083 C 293.638 36.878,292.524 38.143,291.292 39.309 C 289.964 40.565,289.966 40.557,290.875 41.502 C 292.540 43.232,293.013 44.000,292.411 44.000 C 291.909 44.000,290.069 43.298,289.319 42.820 C 288.059 42.018,287.808 42.099,285.560 44.039 C 280.737 48.199,278.996 49.107,281.031 46.400 C 282.077 45.009,284.155 42.498,285.018 41.583 C 286.098 40.440,286.119 40.173,285.250 38.742 C 283.444 35.767,283.845 34.658,286.000 36.667 C 287.587 38.146,287.639 38.142,289.260 36.458 C 290.478 35.193,291.994 33.945,296.555 30.451 C 299.263 28.377,300.280 28.080,299.136 29.696 M17.739 38.833 C 17.321 39.101,16.876 39.170,15.319 39.209 C 13.733 39.250,13.313 39.317,12.831 39.607 C 12.511 39.800,11.880 40.005,11.429 40.063 C 10.977 40.121,10.480 40.284,10.324 40.426 C 10.167 40.567,9.749 40.761,9.395 40.857 C 9.040 40.953,8.600 41.166,8.417 41.329 C 8.233 41.492,7.808 41.714,7.472 41.821 C 7.135 41.929,6.760 42.144,6.638 42.300 C 6.435 42.560,6.444 42.563,6.750 42.341 C 7.009 42.153,7.037 42.151,6.877 42.331 C 6.763 42.459,6.558 42.580,6.421 42.600 C 5.963 42.667,4.996 43.359,5.108 43.540 C 5.172 43.643,5.140 43.670,5.032 43.603 C 4.660 43.373,1.269 47.158,1.574 47.463 C 1.619 47.508,1.476 47.685,1.257 47.857 C 1.038 48.030,0.806 48.414,0.741 48.710 C 0.676 49.007,0.483 49.429,0.312 49.647 C 0.019 50.021,0.000 50.455,0.000 56.815 L -0.000 63.586 0.440 64.418 C 0.683 64.876,1.058 65.462,1.274 65.721 C 1.490 65.980,1.667 66.293,1.667 66.415 C 1.667 66.786,4.339 69.667,4.682 69.667 C 4.752 69.667,4.910 69.767,5.033 69.891 C 5.463 70.320,6.631 70.980,6.758 70.866 C 6.829 70.802,6.838 70.836,6.778 70.940 C 6.678 71.115,7.573 71.667,7.958 71.667 C 8.044 71.667,8.249 71.815,8.414 71.997 C 8.578 72.178,8.965 72.374,9.274 72.432 C 9.583 72.490,10.004 72.667,10.210 72.825 C 10.541 73.081,11.740 73.493,12.284 73.539 C 12.395 73.548,12.449 73.614,12.405 73.685 C 12.329 73.808,13.350 74.164,13.782 74.166 C 13.891 74.166,14.229 74.310,14.532 74.484 C 14.835 74.659,15.412 74.855,15.813 74.919 C 16.214 74.984,16.783 75.178,17.076 75.351 C 17.369 75.524,17.996 75.685,18.470 75.708 C 18.944 75.731,19.331 75.804,19.332 75.871 C 19.334 76.061,20.278 76.500,20.683 76.500 C 21.172 76.500,24.203 77.929,24.978 78.525 C 25.195 78.692,25.450 78.781,25.545 78.722 C 25.642 78.663,25.669 78.695,25.606 78.796 C 25.545 78.896,25.633 79.076,25.803 79.197 C 26.738 79.863,27.500 82.388,26.936 82.953 C 26.880 83.009,26.833 83.204,26.833 83.386 C 26.833 83.568,26.553 83.986,26.211 84.316 C 25.868 84.647,25.606 84.973,25.627 85.042 C 25.649 85.110,25.610 85.153,25.542 85.135 C 25.211 85.053,23.857 85.405,23.372 85.699 C 22.698 86.109,20.913 86.079,20.484 85.650 C 20.337 85.504,19.916 85.336,19.547 85.277 C 19.178 85.218,18.783 85.057,18.669 84.920 C 18.555 84.783,18.377 84.719,18.273 84.779 C 18.169 84.838,18.136 84.828,18.201 84.756 C 18.266 84.684,18.079 84.373,17.785 84.064 C 16.760 82.989,16.697 82.869,16.579 81.767 C 16.505 81.075,16.398 80.710,16.288 80.778 C 16.193 80.837,16.164 80.805,16.225 80.707 C 16.407 80.412,16.156 80.004,15.605 79.702 C 15.039 79.392,3.867 79.171,1.208 79.417 L 0.000 79.528 0.002 83.473 C 0.004 86.618,0.054 87.501,0.247 87.833 C 0.381 88.063,0.574 88.456,0.678 88.708 C 0.781 88.960,0.934 89.167,1.016 89.167 C 1.099 89.167,1.158 89.223,1.147 89.292 C 1.090 89.652,1.188 89.841,1.375 89.733 C 1.490 89.667,1.530 89.673,1.464 89.745 C 1.229 90.006,2.730 92.083,3.023 91.903 C 3.106 91.851,3.158 91.870,3.137 91.946 C 3.048 92.262,3.720 93.196,4.299 93.562 C 4.641 93.778,5.023 94.077,5.146 94.225 C 5.270 94.374,5.429 94.460,5.500 94.417 C 5.571 94.373,5.670 94.494,5.720 94.685 C 5.778 94.907,5.885 94.988,6.015 94.908 C 6.145 94.827,6.175 94.851,6.099 94.975 C 6.027 95.091,6.142 95.229,6.390 95.323 C 6.616 95.409,6.854 95.565,6.919 95.670 C 6.984 95.775,7.347 96.007,7.727 96.185 C 8.106 96.363,8.604 96.610,8.833 96.735 C 9.882 97.305,11.141 97.819,11.750 97.926 C 12.117 97.990,12.544 98.154,12.700 98.290 C 12.856 98.426,13.569 98.615,14.284 98.709 C 14.999 98.804,15.918 99.035,16.327 99.223 C 17.483 99.753,26.874 99.747,28.006 99.215 C 28.415 99.022,29.200 98.813,29.750 98.750 C 30.300 98.686,31.158 98.442,31.657 98.207 C 32.155 97.972,32.762 97.763,33.004 97.744 C 33.247 97.725,33.972 97.363,34.617 96.938 C 35.261 96.514,35.878 96.167,35.989 96.167 C 36.100 96.167,36.692 95.756,37.304 95.254 C 37.916 94.752,38.727 94.096,39.105 93.795 C 39.484 93.495,39.930 93.025,40.097 92.750 C 40.263 92.475,40.715 91.862,41.101 91.387 C 41.487 90.912,41.858 90.350,41.924 90.137 C 41.991 89.924,42.223 89.538,42.439 89.279 C 42.656 89.020,42.833 88.682,42.833 88.528 C 42.833 88.373,43.016 87.905,43.238 87.486 C 43.469 87.054,43.695 86.264,43.763 85.654 C 43.829 85.065,44.003 84.399,44.150 84.174 C 44.571 83.527,44.581 78.349,44.163 77.383 C 43.996 76.998,43.808 76.270,43.745 75.766 C 43.675 75.204,43.476 74.639,43.232 74.309 C 43.013 74.012,42.833 73.652,42.833 73.509 C 42.832 73.218,42.366 72.424,41.895 71.910 C 41.724 71.723,41.559 71.461,41.529 71.327 C 41.452 70.985,39.047 68.644,38.177 68.064 C 37.780 67.800,37.264 67.456,37.031 67.301 C 36.797 67.145,36.533 67.063,36.444 67.118 C 36.355 67.173,36.330 67.140,36.390 67.044 C 36.450 66.946,36.185 66.713,35.790 66.517 C 35.402 66.323,34.821 66.014,34.500 65.829 C 34.179 65.645,33.805 65.515,33.669 65.541 C 33.532 65.566,33.291 65.458,33.133 65.300 C 32.976 65.142,32.437 64.894,31.937 64.749 C 31.437 64.603,30.939 64.377,30.831 64.247 C 30.722 64.116,30.360 63.958,30.027 63.895 C 29.694 63.833,29.045 63.606,28.586 63.392 C 28.126 63.178,27.560 63.003,27.329 63.002 C 27.097 63.001,26.748 62.888,26.553 62.752 C 26.358 62.615,25.753 62.400,25.209 62.273 C 24.664 62.146,24.038 61.928,23.818 61.790 C 23.597 61.651,23.117 61.485,22.750 61.420 C 22.383 61.356,21.995 61.231,21.888 61.142 C 21.662 60.955,20.014 60.309,19.716 60.290 C 19.605 60.283,19.553 60.215,19.601 60.139 C 19.681 60.008,19.603 59.973,19.138 59.933 C 19.030 59.924,18.743 59.729,18.499 59.500 C 18.255 59.271,17.748 58.806,17.373 58.467 C 16.827 57.975,16.667 57.696,16.574 57.082 C 16.125 54.087,17.543 52.586,20.750 52.662 C 22.837 52.711,23.056 52.746,23.427 53.083 C 23.628 53.267,24.173 53.748,24.639 54.153 C 25.104 54.559,25.445 54.955,25.396 55.034 C 25.347 55.113,25.463 55.442,25.653 55.765 C 25.844 56.088,26.000 56.442,26.001 56.551 C 26.010 58.514,26.010 58.514,34.905 58.462 L 42.480 58.417 42.532 61.453 C 42.597 65.295,42.421 65.064,45.334 65.138 L 47.490 65.193 47.537 74.812 C 47.578 83.279,47.615 84.481,47.849 84.841 C 48.015 85.096,48.155 85.823,48.221 86.778 C 48.328 88.308,48.588 89.235,48.862 89.066 C 48.942 89.016,48.990 89.037,48.968 89.113 C 48.864 89.463,49.410 91.351,49.688 91.603 C 49.860 91.758,50.000 91.986,50.000 92.109 C 50.000 92.232,50.079 92.333,50.177 92.333 C 50.274 92.333,50.311 92.402,50.259 92.485 C 50.134 92.687,51.871 94.816,52.549 95.292 C 52.843 95.499,53.358 95.852,53.694 96.077 C 54.030 96.302,54.350 96.559,54.405 96.648 C 54.460 96.736,54.785 96.900,55.127 97.012 C 55.470 97.124,55.918 97.346,56.124 97.505 C 56.329 97.665,56.767 97.846,57.097 97.908 C 57.426 97.970,58.008 98.185,58.390 98.385 C 59.070 98.743,59.213 98.750,65.806 98.750 L 72.528 98.750 72.931 98.282 L 73.333 97.815 73.333 92.707 C 73.333 87.735,73.396 87.195,73.819 88.522 C 73.926 88.854,74.160 89.260,74.340 89.422 C 74.519 89.585,74.667 89.850,74.667 90.012 C 74.667 90.174,75.079 90.809,75.583 91.424 C 76.088 92.039,76.500 92.598,76.500 92.667 C 76.500 92.932,78.701 94.998,78.871 94.893 C 78.979 94.827,79.003 94.860,78.933 94.974 C 78.867 95.080,78.881 95.167,78.963 95.167 C 79.045 95.167,79.572 95.536,80.134 95.987 C 80.697 96.439,81.328 96.860,81.537 96.923 C 81.746 96.986,82.067 97.173,82.250 97.337 C 82.628 97.675,83.749 98.022,83.932 97.858 C 83.999 97.799,84.008 97.830,83.952 97.928 C 83.809 98.180,84.618 98.602,85.500 98.735 C 85.912 98.797,86.587 99.013,87.000 99.215 C 88.151 99.780,96.038 99.783,97.110 99.219 C 97.492 99.018,98.092 98.802,98.444 98.738 C 98.796 98.674,99.390 98.444,99.765 98.228 C 100.139 98.011,100.552 97.831,100.681 97.829 C 101.049 97.822,102.673 96.730,102.538 96.580 C 102.471 96.507,102.502 96.495,102.607 96.555 C 102.711 96.615,103.236 96.322,103.773 95.904 L 104.750 95.145 104.837 96.572 C 104.910 97.760,104.988 98.062,105.300 98.374 L 105.676 98.750 112.707 98.797 C 119.860 98.845,120.517 98.798,120.738 98.222 C 120.790 98.086,120.841 87.654,120.852 75.038 L 120.872 52.101 120.501 51.801 C 120.156 51.521,119.620 51.500,112.913 51.500 L 105.696 51.500 105.265 52.013 C 104.882 52.468,104.833 52.671,104.833 53.818 C 104.833 54.839,104.782 55.111,104.591 55.111 C 104.457 55.111,104.385 55.052,104.430 54.979 C 104.525 54.824,102.676 53.334,102.388 53.333 C 102.280 53.333,101.964 53.142,101.686 52.907 C 101.407 52.673,100.973 52.467,100.720 52.449 C 100.467 52.431,100.108 52.246,99.922 52.037 C 99.680 51.765,99.322 51.626,98.667 51.551 C 98.142 51.491,97.548 51.297,97.278 51.098 C 96.510 50.532,86.758 50.474,87.107 51.038 C 87.175 51.149,87.140 51.170,87.015 51.093 C 86.904 51.024,86.686 51.077,86.531 51.211 C 86.377 51.346,85.845 51.501,85.349 51.556 C 84.782 51.620,84.315 51.782,84.088 51.995 C 83.890 52.181,83.632 52.333,83.514 52.333 C 83.146 52.333,82.167 52.862,82.167 53.061 C 82.166 53.165,81.978 53.261,81.747 53.274 C 81.198 53.306,80.458 53.797,80.604 54.033 C 80.667 54.136,80.643 54.172,80.550 54.114 C 80.458 54.057,80.132 54.233,79.828 54.505 C 79.523 54.777,79.210 55.000,79.133 55.000 C 78.944 55.000,76.500 57.414,76.499 57.602 C 76.499 57.683,76.156 58.125,75.737 58.583 C 74.880 59.520,74.455 60.227,74.632 60.422 C 74.697 60.494,74.659 60.501,74.549 60.438 C 74.417 60.362,74.224 60.610,73.989 61.156 C 73.281 62.801,73.247 62.622,73.297 57.533 C 73.361 50.974,73.802 51.500,68.242 51.500 L 64.333 51.500 64.324 46.542 C 64.313 40.816,64.265 40.532,63.258 40.202 C 62.152 39.840,49.092 39.988,48.393 40.370 C 47.560 40.826,47.500 41.242,47.500 46.608 L 47.500 51.500 45.489 51.500 C 44.383 51.500,43.333 51.578,43.156 51.673 C 42.916 51.801,42.833 51.791,42.833 51.633 C 42.833 51.517,42.656 51.045,42.439 50.586 C 42.223 50.126,41.922 49.465,41.771 49.116 C 41.600 48.722,41.425 48.527,41.306 48.600 C 41.188 48.673,41.161 48.644,41.234 48.526 C 41.299 48.420,41.290 48.333,41.212 48.333 C 41.134 48.333,41.059 48.176,41.045 47.985 C 40.955 46.798,35.278 41.333,34.717 41.894 C 34.660 41.951,34.511 41.852,34.386 41.673 C 34.169 41.364,32.236 40.539,31.946 40.631 C 31.870 40.655,31.854 40.602,31.909 40.513 C 32.023 40.328,30.983 40.002,30.270 40.001 C 30.005 40.000,29.523 39.836,29.198 39.635 C 28.702 39.328,28.296 39.258,26.678 39.200 C 25.169 39.145,24.637 39.062,24.230 38.815 C 23.438 38.335,18.495 38.349,17.739 38.833 M161.262 40.248 C 160.069 40.673,160.044 40.803,160.020 46.708 L 160.000 51.500 157.909 51.500 C 155.911 51.500,155.800 51.518,155.409 51.909 L 155.000 52.318 155.000 58.151 C 155.000 64.538,155.058 64.982,155.875 64.853 C 155.944 64.842,156.000 64.908,156.000 65.000 C 156.000 65.102,156.778 65.167,158.000 65.167 L 160.000 65.167 160.007 74.458 C 160.014 82.515,160.050 83.839,160.278 84.417 C 160.422 84.783,160.617 85.815,160.711 86.708 C 160.804 87.602,160.950 88.333,161.034 88.333 C 161.118 88.333,161.139 88.410,161.081 88.503 C 161.024 88.596,161.132 88.924,161.322 89.231 C 161.511 89.538,161.667 89.987,161.667 90.228 C 161.667 90.469,161.739 90.667,161.828 90.667 C 161.917 90.667,161.953 90.762,161.908 90.879 C 161.863 90.997,162.015 91.349,162.246 91.662 C 162.478 91.975,162.667 92.320,162.667 92.428 C 162.667 92.925,164.775 95.216,165.075 95.046 C 165.171 94.991,165.196 95.006,165.130 95.079 C 165.065 95.152,165.281 95.426,165.612 95.689 C 166.179 96.140,166.399 96.238,166.721 96.182 C 166.796 96.169,166.814 96.230,166.760 96.318 C 166.642 96.509,167.298 97.000,167.671 97.000 C 167.816 97.000,168.179 97.180,168.477 97.400 C 168.775 97.620,169.274 97.848,169.586 97.906 C 169.897 97.965,170.512 98.178,170.951 98.381 C 171.733 98.742,171.889 98.750,178.389 98.750 L 185.028 98.750 185.434 98.278 L 185.840 97.807 185.829 91.908 C 185.822 88.289,185.756 85.972,185.656 85.910 C 185.567 85.855,185.540 85.737,185.595 85.648 C 185.756 85.387,185.174 84.628,184.896 84.735 C 184.760 84.787,184.690 84.764,184.739 84.684 C 184.789 84.603,183.293 84.509,181.394 84.474 L 177.959 84.409 177.399 83.746 L 176.838 83.083 176.836 74.133 L 176.833 65.183 180.931 65.133 L 185.029 65.083 185.431 64.616 L 185.833 64.148 185.833 58.324 C 185.833 54.336,185.778 52.500,185.657 52.500 C 185.560 52.500,185.527 52.425,185.583 52.333 C 185.640 52.242,185.602 52.167,185.500 52.167 C 185.398 52.167,185.360 52.092,185.417 52.000 C 185.648 51.625,184.474 51.500,180.739 51.500 L 176.833 51.500 176.833 46.525 C 176.833 40.973,176.778 40.599,175.899 40.232 C 175.087 39.893,162.220 39.907,161.262 40.248 M149.456 50.848 C 149.110 50.929,148.660 51.100,148.456 51.228 C 148.251 51.356,147.745 51.503,147.332 51.555 C 146.521 51.657,144.297 52.726,143.359 53.463 C 143.042 53.712,142.363 54.204,141.850 54.555 C 140.956 55.167,140.083 55.980,140.083 56.201 C 140.083 56.258,140.027 56.362,139.958 56.431 C 139.890 56.499,139.833 55.602,139.833 54.437 C 139.833 52.415,139.815 52.300,139.428 51.913 L 139.022 51.507 131.876 51.507 C 123.926 51.507,124.162 51.474,123.841 52.630 C 123.579 53.573,123.621 97.062,123.884 97.829 C 124.233 98.843,124.189 98.838,132.057 98.792 L 139.196 98.750 139.515 98.357 C 139.821 97.978,139.833 97.539,139.833 86.666 C 139.833 76.995,139.868 75.356,140.073 75.277 C 140.390 75.155,140.665 74.125,140.666 73.052 C 140.666 72.576,140.748 72.136,140.847 72.075 C 140.946 72.013,141.162 71.653,141.327 71.273 C 141.713 70.384,142.185 69.960,143.550 69.273 C 144.160 68.966,144.623 68.679,144.580 68.635 C 144.440 68.496,144.833 68.471,149.008 68.359 C 152.502 68.266,153.164 68.207,153.544 67.958 C 154.071 67.613,154.395 67.068,154.232 66.804 C 154.160 66.688,154.190 66.661,154.308 66.734 C 154.655 66.949,154.574 51.935,154.225 51.402 C 154.067 51.162,153.851 51.021,153.717 51.073 C 153.588 51.122,153.523 51.098,153.572 51.018 C 153.785 50.673,150.734 50.547,149.456 50.848 M262.333 50.811 C 262.104 50.869,261.729 51.039,261.500 51.188 C 261.271 51.338,260.708 51.506,260.250 51.562 C 259.681 51.632,259.311 51.784,259.083 52.043 C 258.900 52.251,258.619 52.396,258.458 52.365 C 258.298 52.334,258.167 52.394,258.167 52.498 C 258.167 52.601,258.088 52.638,257.993 52.579 C 257.897 52.520,257.565 52.665,257.254 52.902 C 256.943 53.139,256.610 53.333,256.513 53.333 C 256.417 53.333,255.852 53.746,255.257 54.250 C 253.910 55.393,254.000 55.430,254.000 53.742 C 254.000 52.456,253.961 52.279,253.595 51.913 L 253.189 51.507 246.043 51.507 C 238.093 51.507,238.328 51.474,238.007 52.630 C 237.736 53.606,237.770 85.436,238.042 85.472 C 238.156 85.488,238.522 85.545,238.854 85.599 L 239.458 85.698 241.771 83.052 C 244.958 79.404,251.764 71.551,255.624 67.067 C 256.563 65.976,257.838 64.518,258.458 63.827 C 260.756 61.261,267.094 53.937,267.785 53.048 C 268.576 52.029,268.614 51.871,268.246 51.158 L 267.991 50.667 265.371 50.686 C 263.929 50.697,262.563 50.753,262.333 50.811 M306.667 50.822 C 305.429 51.255,304.734 51.804,302.730 53.935 C 299.292 57.589,296.581 59.814,296.123 59.357 C 295.984 59.217,296.007 58.878,296.215 58.043 C 296.968 55.009,296.750 53.429,295.603 53.598 C 294.614 53.743,290.221 58.301,290.632 58.756 C 290.697 58.828,290.656 58.833,290.542 58.767 C 290.427 58.701,290.333 58.726,290.333 58.823 C 290.333 59.125,290.282 59.242,290.044 59.480 C 289.918 59.606,289.854 59.812,289.902 59.938 C 289.950 60.064,289.917 60.167,289.828 60.167 C 289.739 60.167,289.667 60.292,289.667 60.445 C 289.667 60.598,289.538 60.866,289.380 61.041 C 289.222 61.215,289.082 61.521,289.068 61.720 C 289.054 61.920,288.989 62.212,288.922 62.370 C 288.484 63.410,289.011 71.167,289.519 71.167 C 289.592 71.167,289.700 71.425,289.759 71.740 C 289.864 72.299,290.542 73.403,290.690 73.255 C 290.730 73.214,290.775 73.334,290.789 73.520 C 290.821 73.943,291.153 74.361,291.356 74.236 C 291.440 74.184,291.488 74.241,291.462 74.363 C 291.437 74.484,291.510 74.565,291.625 74.542 C 291.740 74.519,291.815 74.594,291.792 74.708 C 291.769 74.823,291.862 74.892,292.000 74.861 C 292.137 74.831,292.194 74.861,292.126 74.929 C 291.953 75.102,292.333 75.520,292.545 75.389 C 292.640 75.330,292.671 75.358,292.614 75.450 C 292.460 75.699,293.264 76.394,293.529 76.241 C 293.651 76.171,293.698 76.171,293.634 76.242 C 293.404 76.497,295.830 78.125,296.147 77.929 C 296.234 77.875,296.330 77.904,296.361 77.994 C 296.392 78.083,296.655 78.174,296.947 78.196 C 297.238 78.218,297.443 78.291,297.400 78.360 C 297.255 78.594,298.567 79.092,299.618 79.201 C 299.728 79.213,299.783 79.281,299.738 79.352 C 299.634 79.521,300.758 79.831,301.480 79.832 C 301.790 79.833,302.301 79.992,302.616 80.187 C 302.988 80.417,303.576 80.569,304.302 80.624 C 305.009 80.677,305.625 80.833,305.985 81.051 C 306.362 81.278,306.903 81.409,307.586 81.439 C 308.307 81.470,308.858 81.611,309.417 81.908 C 309.857 82.142,310.426 82.333,310.682 82.333 C 310.938 82.333,311.194 82.410,311.252 82.503 C 311.309 82.596,311.445 82.621,311.553 82.559 C 311.661 82.497,311.694 82.508,311.626 82.583 C 311.492 82.731,312.161 83.276,312.387 83.203 C 312.463 83.178,312.482 83.227,312.430 83.312 C 312.378 83.396,312.443 83.506,312.575 83.557 C 313.389 83.869,312.611 86.153,311.686 86.164 C 311.560 86.165,311.185 86.335,310.853 86.542 C 310.016 87.062,307.734 87.069,307.036 86.553 C 306.783 86.366,306.391 86.156,306.163 86.086 C 305.475 85.875,304.320 84.826,303.976 84.100 C 303.363 82.807,302.916 82.172,302.499 81.999 C 302.011 81.797,288.449 81.849,287.917 82.055 C 287.409 82.251,287.525 78.151,288.042 77.628 C 288.563 77.101,288.392 72.000,287.854 72.000 C 287.791 72.000,287.719 71.156,287.694 70.125 C 287.643 68.088,287.470 67.154,287.082 66.832 C 286.926 66.702,286.833 66.333,286.833 65.836 C 286.833 65.269,286.716 64.874,286.417 64.433 C 286.188 64.095,286.000 63.704,286.000 63.565 C 286.000 62.997,284.450 60.171,283.508 59.018 C 282.953 58.341,282.500 57.736,282.500 57.675 C 282.500 56.822,280.191 56.493,279.226 57.208 C 278.948 57.415,276.649 59.477,274.117 61.792 C 269.191 66.295,268.972 66.567,269.233 67.872 C 269.290 68.156,269.264 68.310,269.169 68.252 C 269.082 68.197,269.420 68.763,269.922 69.507 C 270.608 70.527,270.834 71.013,270.837 71.473 C 270.843 72.377,271.113 73.382,271.408 73.597 C 271.839 73.913,271.774 76.443,271.325 76.807 C 271.078 77.007,270.956 77.359,270.884 78.083 C 270.828 78.633,270.647 79.339,270.482 79.652 C 270.316 79.964,270.214 80.275,270.256 80.343 C 270.297 80.410,270.223 80.507,270.090 80.558 C 269.825 80.660,269.082 81.999,269.288 82.002 C 269.359 82.004,269.229 82.100,269.000 82.216 C 268.771 82.332,268.583 82.530,268.583 82.656 C 268.583 82.782,268.445 82.905,268.276 82.930 C 268.107 82.955,267.535 83.272,267.006 83.636 C 266.442 84.023,265.740 84.346,265.313 84.416 C 264.912 84.482,264.349 84.677,264.064 84.851 C 263.769 85.030,263.237 85.167,262.833 85.167 C 262.430 85.167,261.898 85.030,261.603 84.851 C 261.317 84.677,260.746 84.480,260.333 84.413 C 259.921 84.346,259.404 84.150,259.186 83.979 C 258.967 83.807,258.662 83.667,258.507 83.667 C 258.352 83.667,257.808 83.259,257.297 82.760 C 256.786 82.262,256.311 81.905,256.241 81.968 C 256.171 82.032,256.159 82.003,256.214 81.905 C 256.270 81.807,256.151 81.457,255.949 81.127 C 255.413 80.246,254.085 80.278,252.985 81.197 C 250.350 83.397,239.208 93.843,238.969 94.336 C 238.815 94.656,238.496 95.390,238.261 95.969 L 237.833 97.022 237.833 107.669 C 237.833 118.945,237.880 119.729,238.595 120.444 L 238.985 120.833 245.920 120.833 C 250.569 120.833,252.966 120.774,253.192 120.653 C 253.996 120.223,254.000 120.164,254.000 107.255 C 254.000 100.607,254.063 95.167,254.139 95.167 C 254.216 95.167,254.746 95.542,255.317 96.000 C 255.888 96.458,256.415 96.833,256.488 96.833 C 256.561 96.833,256.910 97.063,257.263 97.343 C 257.634 97.638,258.030 97.821,258.202 97.776 C 258.366 97.733,258.500 97.766,258.500 97.849 C 258.500 97.932,258.603 98.000,258.730 98.000 C 258.856 98.000,259.049 98.108,259.159 98.241 C 259.269 98.373,259.773 98.568,260.279 98.673 C 260.785 98.778,261.473 99.026,261.808 99.224 C 262.753 99.782,270.879 99.778,271.944 99.219 C 272.325 99.018,272.925 98.803,273.277 98.741 C 274.160 98.584,275.019 98.166,274.889 97.956 C 274.830 97.860,274.857 97.828,274.948 97.885 C 275.213 98.048,276.255 97.696,276.584 97.332 C 276.750 97.150,277.029 97.000,277.205 97.000 C 277.381 97.000,277.742 96.784,278.005 96.520 C 278.269 96.256,278.526 96.082,278.577 96.132 C 278.730 96.285,279.497 95.465,279.385 95.267 C 279.327 95.166,279.340 95.138,279.414 95.205 C 279.488 95.271,279.793 95.121,280.094 94.871 C 280.394 94.621,280.834 94.281,281.073 94.115 C 281.312 93.949,281.456 93.731,281.394 93.631 C 281.330 93.527,281.358 93.496,281.459 93.558 C 281.627 93.662,282.500 92.785,282.500 92.512 C 282.500 92.399,282.818 92.014,283.757 90.987 C 283.889 90.843,284.084 90.475,284.190 90.171 C 284.296 89.866,284.525 89.475,284.698 89.302 C 284.871 89.129,284.967 88.916,284.913 88.827 C 284.858 88.739,284.893 88.667,284.990 88.667 C 285.087 88.667,285.167 88.557,285.167 88.424 C 285.167 88.291,285.354 87.905,285.583 87.567 C 285.813 87.230,286.000 86.811,286.000 86.637 C 286.000 86.462,286.162 86.100,286.361 85.832 C 286.591 85.520,286.749 85.010,286.798 84.422 C 286.928 82.860,287.231 83.476,287.390 85.621 C 287.418 86.009,287.567 86.464,287.719 86.632 C 287.871 86.801,288.044 87.196,288.103 87.511 C 288.196 88.007,288.921 89.593,289.165 89.833 C 289.212 89.879,289.269 90.012,289.293 90.128 C 289.365 90.488,290.356 91.753,290.528 91.704 C 290.618 91.679,290.645 91.734,290.588 91.826 C 290.360 92.195,294.790 96.167,295.430 96.167 C 295.532 96.167,295.749 96.315,295.913 96.496 C 296.077 96.677,296.276 96.785,296.356 96.736 C 296.435 96.687,296.500 96.726,296.500 96.823 C 296.500 96.921,296.616 97.000,296.759 97.000 C 296.901 97.000,297.294 97.188,297.631 97.417 C 297.968 97.646,298.351 97.833,298.481 97.833 C 298.611 97.833,299.100 98.014,299.567 98.234 C 300.034 98.454,300.867 98.685,301.417 98.746 C 301.967 98.807,302.792 99.018,303.250 99.215 C 304.526 99.763,313.994 99.770,315.187 99.224 C 315.611 99.030,316.416 98.818,316.977 98.753 C 317.558 98.685,318.164 98.502,318.388 98.326 C 318.603 98.157,319.127 97.931,319.552 97.824 C 319.977 97.717,320.510 97.458,320.736 97.249 C 320.961 97.040,321.182 96.904,321.226 96.948 C 321.373 97.095,322.500 96.465,322.500 96.236 C 322.500 96.112,322.600 96.049,322.722 96.096 C 323.023 96.211,326.394 92.899,326.235 92.643 C 326.162 92.524,326.188 92.493,326.300 92.563 C 326.482 92.675,327.103 91.714,326.949 91.560 C 326.908 91.519,327.078 91.281,327.328 91.031 C 327.585 90.774,327.835 90.289,327.905 89.914 C 327.973 89.549,328.148 89.117,328.294 88.954 C 328.763 88.432,328.707 80.028,328.236 80.113 C 328.144 80.130,328.058 79.994,328.044 79.812 C 327.998 79.201,327.657 78.377,327.327 78.078 C 327.147 77.915,327.000 77.653,327.000 77.496 C 327.000 77.124,325.683 75.470,325.485 75.592 C 325.402 75.644,325.333 75.581,325.333 75.452 C 325.333 75.160,324.762 74.626,324.611 74.777 C 324.550 74.839,324.500 74.777,324.500 74.641 C 324.500 74.345,322.895 73.000,322.543 73.000 C 322.408 73.000,322.071 72.809,321.792 72.574 C 321.514 72.340,321.185 72.188,321.060 72.236 C 320.935 72.284,320.833 72.241,320.833 72.142 C 320.833 72.043,320.695 71.997,320.526 72.041 C 320.343 72.089,320.142 71.999,320.029 71.818 C 319.925 71.651,319.527 71.430,319.144 71.327 C 318.762 71.224,318.188 71.000,317.869 70.829 C 317.550 70.658,316.874 70.467,316.366 70.403 C 315.857 70.340,315.211 70.156,314.929 69.994 C 314.647 69.833,313.903 69.649,313.276 69.585 C 312.635 69.521,311.894 69.328,311.585 69.145 C 311.282 68.967,310.783 68.829,310.475 68.839 C 309.751 68.863,308.802 68.614,308.313 68.271 C 308.100 68.122,307.722 68.000,307.473 68.000 C 307.224 68.000,306.970 67.920,306.910 67.822 C 306.849 67.724,306.691 67.686,306.558 67.737 C 306.403 67.796,306.359 67.760,306.435 67.636 C 306.516 67.506,306.461 67.479,306.269 67.553 C 306.099 67.618,306.024 67.596,306.085 67.498 C 306.141 67.407,306.100 67.333,305.994 67.333 C 305.889 67.333,305.613 67.184,305.382 67.002 C 305.150 66.820,304.883 66.719,304.788 66.778 C 304.693 66.837,304.662 66.808,304.720 66.715 C 304.778 66.621,304.677 66.410,304.496 66.246 C 304.146 65.930,304.027 64.833,304.343 64.833 C 304.440 64.833,304.466 64.747,304.401 64.641 C 304.327 64.521,304.355 64.494,304.475 64.568 C 304.584 64.635,304.713 64.573,304.769 64.427 C 304.824 64.284,304.992 64.166,305.143 64.166 C 305.293 64.165,305.642 64.015,305.917 63.833 C 306.667 63.336,309.309 63.349,309.990 63.853 C 310.253 64.047,310.568 64.172,310.692 64.130 C 311.240 63.948,312.921 65.983,312.855 66.750 C 312.803 67.373,313.432 68.138,314.117 68.283 C 315.178 68.507,327.526 68.450,327.929 68.218 C 328.269 68.023,328.760 66.786,328.600 66.528 C 328.555 66.455,328.503 66.025,328.484 65.573 C 328.464 65.120,328.357 64.637,328.246 64.500 C 328.134 64.362,327.991 63.837,327.928 63.333 C 327.814 62.418,327.431 61.587,327.193 61.734 C 327.123 61.777,327.067 61.540,327.067 61.209 C 327.067 60.877,326.976 60.575,326.866 60.539 C 326.755 60.502,326.699 60.416,326.740 60.349 C 326.812 60.234,326.338 59.420,325.293 57.859 C 324.797 57.119,322.725 55.000,322.497 55.000 C 322.420 55.000,322.236 54.879,322.088 54.730 C 321.328 53.971,320.424 53.327,320.225 53.403 C 320.101 53.451,320.000 53.417,320.000 53.328 C 320.000 53.239,319.899 53.167,319.776 53.167 C 319.653 53.167,319.414 53.014,319.245 52.827 C 319.076 52.641,318.844 52.524,318.730 52.568 C 318.615 52.612,318.498 52.584,318.469 52.507 C 318.440 52.429,318.229 52.339,318.000 52.308 C 317.771 52.276,317.471 52.123,317.333 51.969 C 317.124 51.733,315.836 51.409,314.637 51.290 C 314.484 51.274,314.389 51.211,314.428 51.148 C 314.652 50.786,307.617 50.490,306.667 50.822 M187.798 51.759 C 186.963 52.212,186.963 52.209,187.025 67.619 C 187.083 81.940,187.084 81.973,187.437 82.450 C 187.723 82.838,187.804 83.231,187.860 84.523 C 187.931 86.138,188.285 87.152,188.692 86.901 C 188.808 86.829,188.829 86.916,188.754 87.153 C 188.584 87.689,188.811 88.746,189.182 89.144 C 189.361 89.336,189.553 89.722,189.609 90.002 C 189.665 90.281,189.898 90.658,190.128 90.838 C 190.357 91.019,190.490 91.167,190.423 91.167 C 190.302 91.167,190.828 92.142,191.164 92.544 C 191.259 92.657,191.642 93.144,192.016 93.625 C 192.389 94.106,192.806 94.500,192.941 94.500 C 193.076 94.500,193.143 94.570,193.091 94.655 C 192.958 94.870,195.322 96.692,195.558 96.556 C 195.664 96.496,195.691 96.512,195.618 96.591 C 195.488 96.734,195.823 96.953,197.097 97.562 C 197.456 97.733,197.862 97.941,198.000 98.024 C 198.696 98.440,199.401 98.671,200.279 98.769 C 200.813 98.829,201.389 98.999,201.559 99.147 C 202.083 99.605,209.439 99.638,210.388 99.187 C 210.770 99.005,211.458 98.807,211.917 98.746 C 212.375 98.686,212.945 98.499,213.184 98.331 C 213.423 98.163,213.934 97.941,214.321 97.837 C 215.185 97.604,216.880 96.543,216.742 96.321 C 216.687 96.232,216.704 96.175,216.779 96.196 C 217.019 96.260,217.675 95.981,217.593 95.849 C 217.550 95.779,217.605 95.719,217.716 95.714 C 217.826 95.710,218.059 95.648,218.233 95.576 C 218.530 95.453,218.544 95.517,218.462 96.655 C 218.384 97.743,218.414 97.908,218.756 98.307 L 219.137 98.750 222.628 98.803 L 226.118 98.857 227.434 98.316 C 229.001 97.673,229.059 97.624,231.261 95.141 C 233.312 92.827,233.811 92.053,234.582 89.982 L 235.165 88.417 235.166 70.703 C 235.167 51.375,235.199 52.027,234.234 51.661 C 233.255 51.288,219.226 51.533,218.830 51.929 C 218.486 52.273,218.484 52.338,218.491 65.262 C 218.496 75.508,218.450 78.461,218.274 79.250 C 217.961 80.655,217.941 80.716,217.708 80.966 C 217.594 81.090,217.500 81.364,217.500 81.576 C 217.500 82.219,215.323 84.254,214.381 84.492 C 213.959 84.598,213.459 84.793,213.270 84.926 C 212.696 85.328,208.809 85.267,208.432 84.850 C 208.274 84.676,207.906 84.488,207.614 84.433 C 207.322 84.377,206.848 84.111,206.560 83.842 C 206.273 83.572,205.979 83.404,205.909 83.467 C 205.838 83.531,205.822 83.508,205.874 83.417 C 205.926 83.325,205.675 82.952,205.317 82.588 C 204.959 82.224,204.667 81.789,204.667 81.621 C 204.667 81.454,204.498 81.002,204.292 80.617 L 203.917 79.917 203.874 66.250 C 203.829 51.584,203.855 51.990,202.951 51.675 C 202.098 51.377,188.360 51.454,187.798 51.759 M97.886 65.659 C 98.144 65.755,98.571 65.833,98.834 65.833 C 99.098 65.833,99.364 65.915,99.425 66.014 C 99.487 66.113,99.847 66.331,100.227 66.498 C 101.061 66.866,102.527 68.213,102.902 68.958 C 103.052 69.256,103.253 69.500,103.347 69.500 C 103.442 69.500,103.475 69.572,103.421 69.660 C 103.366 69.749,103.512 70.196,103.744 70.655 C 104.012 71.183,104.167 71.766,104.167 72.244 C 104.167 72.665,104.245 73.000,104.343 73.000 C 104.440 73.000,104.474 73.074,104.418 73.165 C 104.362 73.255,104.427 73.574,104.563 73.873 C 104.937 74.700,104.973 75.718,104.638 76.070 C 104.344 76.381,104.162 77.181,104.164 78.167 C 104.165 79.042,104.123 79.333,103.998 79.333 C 103.935 79.333,103.744 79.652,103.573 80.042 C 102.983 81.383,102.219 82.347,101.263 82.957 C 100.549 83.412,100.325 83.581,99.762 84.083 C 99.523 84.296,99.093 84.436,98.569 84.471 C 98.119 84.501,97.516 84.669,97.230 84.846 C 96.603 85.233,95.544 85.263,95.037 84.907 C 94.833 84.764,94.580 84.701,94.474 84.766 C 94.360 84.837,94.327 84.812,94.393 84.705 C 94.465 84.588,94.181 84.484,93.591 84.410 C 93.088 84.348,92.591 84.193,92.486 84.067 C 92.381 83.940,92.210 83.886,92.106 83.945 C 92.002 84.005,91.974 83.991,92.043 83.914 C 92.202 83.739,91.328 83.150,91.110 83.285 C 91.021 83.340,91.002 83.298,91.067 83.192 C 91.133 83.087,91.101 83.000,90.997 83.000 C 90.755 83.000,89.500 81.740,89.500 81.497 C 89.500 81.396,89.413 81.367,89.308 81.433 C 89.191 81.505,89.160 81.478,89.230 81.365 C 89.294 81.263,89.199 81.032,89.020 80.853 C 88.841 80.674,88.735 80.487,88.785 80.438 C 88.834 80.388,88.719 80.084,88.530 79.763 C 88.340 79.441,88.133 78.723,88.070 78.167 C 88.004 77.582,87.824 76.988,87.644 76.760 C 87.313 76.339,87.171 73.667,87.480 73.667 C 87.722 73.667,87.977 72.819,88.095 71.625 C 88.156 71.006,88.284 70.500,88.381 70.500 C 88.477 70.500,88.507 70.451,88.447 70.391 C 88.387 70.332,88.453 70.199,88.593 70.097 C 88.734 69.994,88.860 69.748,88.875 69.550 C 88.890 69.352,88.958 69.224,89.026 69.266 C 89.094 69.308,89.231 69.191,89.331 69.005 C 89.430 68.819,89.458 68.667,89.392 68.667 C 89.326 68.667,89.680 68.279,90.178 67.805 C 90.676 67.331,91.058 66.862,91.028 66.763 C 90.997 66.664,91.029 66.640,91.097 66.708 C 91.166 66.777,91.621 66.609,92.109 66.333 C 92.596 66.058,93.148 65.833,93.336 65.833 C 93.524 65.833,93.956 65.704,94.297 65.546 C 95.091 65.177,97.019 65.006,97.250 65.284 C 97.342 65.395,97.628 65.563,97.886 65.659 M72.100 65.458 C 72.051 65.619,71.993 66.026,71.972 66.364 C 71.951 66.702,71.884 66.948,71.824 66.911 C 71.554 66.744,71.294 67.907,71.209 69.667 C 71.144 71.011,71.036 71.705,70.850 71.992 C 70.402 72.680,70.366 76.944,70.800 77.873 C 71.041 78.390,71.157 79.084,71.223 80.417 C 71.310 82.178,71.568 83.414,71.818 83.260 C 71.883 83.219,71.954 83.491,71.976 83.863 L 72.016 84.540 68.800 84.470 C 63.886 84.362,64.333 85.404,64.333 74.070 L 64.333 65.167 68.261 65.167 C 71.925 65.167,72.183 65.186,72.100 65.458 " stroke="none" fill="#f35c24" fill-rule="evenodd"></path></g></svg>