<svg id="svg" version="1.1" xmlns="http://www.w3.org/2000/svg" xmlns:xlink="http://www.w3.org/1999/xlink" width="400"
     height="313.63088057901086" viewBox="0, 0, 400,313.63088057901086">
    <g id="svgg">
        <path id="path0"
              d="M100.362 1.781 C 90.756 3.389,78.166 12.686,74.306 21.020 C 73.745 22.232,60.697 42.335,59.842 43.305 C 59.550 43.637,59.433 43.908,59.582 43.908 C 59.836 43.908,58.633 45.973,57.754 47.045 C 57.254 47.654,49.055 60.376,46.803 64.036 C 45.875 65.546,43.595 69.122,41.737 71.983 C 39.879 74.844,36.840 79.585,34.982 82.518 C 33.124 85.451,29.433 91.208,26.779 95.311 C 15.617 112.570,14.928 113.952,11.028 126.900 C 9.850 130.810,10.166 147.970,11.503 152.714 C 13.241 158.878,16.934 167.664,18.806 170.084 C 19.011 170.350,20.369 172.847,21.823 175.633 C 25.046 181.808,30.387 191.619,30.885 192.280 C 31.085 192.545,32.652 195.476,34.367 198.794 C 36.082 202.111,39.101 207.756,41.076 211.339 C 43.050 214.922,45.201 218.938,45.855 220.265 C 46.509 221.592,47.168 222.786,47.319 222.919 C 47.470 223.052,48.108 224.246,48.737 225.573 C 49.366 226.900,50.893 229.723,52.129 231.846 C 53.366 233.969,55.111 237.117,56.007 238.842 C 56.903 240.567,57.763 242.087,57.917 242.220 C 58.071 242.352,58.498 243.221,58.866 244.150 C 59.234 245.078,59.683 245.947,59.863 246.080 C 60.043 246.212,61.005 247.949,62.000 249.940 C 62.995 251.930,64.621 254.970,65.613 256.695 C 66.605 258.420,68.996 262.762,70.926 266.345 C 72.855 269.928,75.796 275.356,77.461 278.408 C 79.126 281.460,81.267 285.410,82.219 287.186 C 83.171 288.962,84.602 291.523,85.400 292.877 C 86.199 294.230,86.852 295.491,86.852 295.679 C 86.854 297.550,95.231 305.300,100.628 308.422 C 108.035 312.706,120.535 313.976,128.589 311.262 C 138.036 308.078,147.956 304.932,149.406 304.660 C 150.302 304.491,151.140 304.185,151.267 303.979 C 151.395 303.773,152.912 303.324,154.640 302.980 C 156.367 302.637,157.780 302.213,157.780 302.039 C 157.780 301.864,159.029 301.460,160.555 301.140 C 162.081 300.821,164.849 300.043,166.707 299.413 C 171.027 297.947,179.475 295.279,185.042 293.623 C 187.431 292.912,189.767 292.126,190.233 291.876 C 190.700 291.627,192.328 291.111,193.852 290.730 C 197.648 289.781,206.588 287.107,213.269 284.923 C 221.956 282.082,225.008 281.179,226.130 281.118 C 226.702 281.087,227.084 280.922,226.979 280.753 C 226.874 280.583,227.600 280.292,228.593 280.106 C 229.586 279.921,230.615 279.595,230.881 279.383 C 231.146 279.171,232.621 278.720,234.160 278.380 C 235.698 278.040,237.067 277.581,237.204 277.361 C 237.340 277.141,237.929 276.960,238.514 276.960 C 239.098 276.960,242.830 275.901,246.808 274.607 C 250.786 273.313,256.321 271.560,259.107 270.711 C 261.894 269.863,264.499 269.001,264.897 268.796 C 265.296 268.592,266.815 268.145,268.275 267.804 C 269.735 267.463,271.146 267.023,271.411 266.828 C 271.677 266.632,273.088 266.205,274.548 265.880 C 276.007 265.555,278.396 264.897,279.855 264.417 C 281.315 263.937,287.069 262.094,292.642 260.320 C 298.215 258.547,303.969 256.704,305.428 256.225 C 306.888 255.747,308.842 255.197,309.771 255.004 C 310.700 254.811,311.677 254.490,311.942 254.290 C 312.207 254.090,313.619 253.667,315.078 253.351 C 316.538 253.034,319.252 252.264,321.110 251.639 C 322.967 251.014,327.310 249.604,330.760 248.505 C 336.835 246.570,343.276 243.683,345.526 241.888 C 348.367 239.620,351.779 236.193,353.025 234.356 C 353.781 233.241,354.551 232.215,354.734 232.076 C 354.918 231.938,356.076 229.658,357.308 227.010 C 358.540 224.362,360.188 220.828,360.972 219.157 C 361.755 217.486,362.834 215.007,363.370 213.647 C 363.906 212.288,364.768 210.247,365.285 209.112 C 365.801 207.978,366.224 206.942,366.224 206.810 C 366.224 206.679,367.093 204.726,368.154 202.471 C 369.216 200.215,370.084 198.261,370.084 198.128 C 370.084 197.995,370.953 196.041,372.014 193.785 C 373.076 191.530,373.945 189.563,373.945 189.415 C 373.945 189.266,374.813 187.354,375.875 185.165 C 376.936 182.977,377.805 181.018,377.805 180.812 C 377.805 180.525,383.164 168.050,386.974 159.469 C 390.289 152.002,390.918 134.262,388.222 124.246 C 387.793 122.654,387.241 120.917,386.994 120.386 C 386.748 119.855,385.870 117.837,385.043 115.900 C 384.216 113.964,382.904 111.358,382.126 110.110 C 381.349 108.862,380.443 107.298,380.113 106.634 C 379.783 105.971,379.395 105.320,379.251 105.187 C 379.108 105.054,377.366 102.249,375.382 98.954 C 373.397 95.658,370.688 91.164,369.361 88.967 C 368.034 86.771,365.471 82.519,363.666 79.519 C 361.861 76.520,358.875 71.584,357.032 68.551 C 355.188 65.518,353.679 62.978,353.679 62.906 C 353.679 62.834,353.028 61.809,352.232 60.630 C 351.435 59.450,350.784 58.346,350.784 58.176 C 350.784 55.120,332.403 37.153,329.277 37.153 C 328.943 37.153,328.597 36.990,328.508 36.791 C 328.315 36.357,323.535 34.017,321.834 33.524 C 321.170 33.332,320.410 33.015,320.145 32.818 C 318.058 31.277,300.804 28.113,282.027 25.828 C 278.577 25.409,274.234 24.843,272.376 24.572 C 270.519 24.300,266.393 23.763,263.209 23.379 C 260.024 22.994,256.441 22.468,255.247 22.210 C 254.053 21.953,250.905 21.497,248.251 21.198 C 245.597 20.899,243.311 20.584,243.171 20.498 C 243.031 20.411,241.077 20.104,238.828 19.815 C 236.580 19.526,232.678 18.969,230.157 18.578 C 225.372 17.836,214.961 16.297,209.168 15.475 C 207.310 15.212,203.727 14.678,201.206 14.288 C 198.685 13.899,194.125 13.336,191.074 13.038 C 188.022 12.739,185.199 12.359,184.801 12.193 C 184.403 12.027,180.929 11.506,177.081 11.035 C 173.233 10.564,167.153 9.745,163.571 9.216 C 159.988 8.686,153.908 7.796,150.060 7.238 C 146.212 6.680,140.133 5.790,136.550 5.260 C 130.303 4.335,120.509 2.899,113.872 1.935 C 110.767 1.484,102.688 1.391,100.362 1.781 M115.320 12.333 C 117.841 12.745,121.641 13.271,123.764 13.501 C 133.143 14.520,140.315 15.455,142.099 15.893 C 143.160 16.153,146.305 16.610,149.086 16.909 C 151.868 17.207,154.287 17.540,154.461 17.648 C 154.749 17.825,160.700 18.676,174.509 20.514 C 177.209 20.873,180.683 21.394,182.230 21.672 C 183.777 21.949,187.431 22.519,190.350 22.937 C 193.269 23.355,197.829 24.013,200.483 24.399 C 203.136 24.785,206.990 25.238,209.047 25.406 C 211.104 25.574,212.786 25.843,212.786 26.004 C 212.786 26.165,213.492 26.320,214.355 26.347 C 216.501 26.417,228.762 27.961,229.171 28.214 C 229.352 28.326,232.308 28.761,235.739 29.180 C 239.171 29.599,243.172 30.156,244.632 30.418 C 246.092 30.680,249.674 31.228,252.593 31.637 C 260.837 32.792,266.997 33.684,273.824 34.713 C 286.810 36.670,289.894 37.087,295.296 37.617 C 298.347 37.916,301.279 38.344,301.809 38.567 C 302.340 38.790,304.928 39.218,307.561 39.519 C 310.194 39.820,312.582 40.255,312.869 40.484 C 313.155 40.714,314.150 41.060,315.078 41.253 C 317.268 41.708,324.757 45.410,327.048 47.170 C 328.028 47.923,329.481 48.941,330.277 49.433 C 335.306 52.538,340.553 59.700,352.210 79.373 C 354.097 82.557,357.045 87.413,358.761 90.164 C 360.478 92.915,361.882 95.227,361.882 95.303 C 361.882 95.378,362.733 96.819,363.772 98.504 C 364.812 100.189,367.038 103.816,368.718 106.563 C 370.398 109.310,372.146 112.132,372.603 112.835 C 376.441 118.750,379.418 128.273,379.986 136.459 C 380.413 142.605,379.626 149.221,377.762 155.155 C 376.162 160.247,375.846 161.041,372.915 167.338 C 371.889 169.543,371.049 171.445,371.049 171.565 C 371.049 171.798,370.219 173.648,366.878 180.858 C 365.732 183.333,364.540 186.203,364.231 187.235 C 363.921 188.270,363.451 188.977,363.183 188.812 C 362.914 188.646,362.846 188.752,363.030 189.049 C 363.213 189.345,363.153 189.976,362.898 190.451 C 362.642 190.926,362.007 192.292,361.485 193.486 C 359.297 198.493,354.638 208.909,353.284 211.821 C 352.481 213.546,351.676 215.555,351.493 216.285 C 351.311 217.014,350.968 217.612,350.732 217.612 C 350.495 217.612,350.302 217.955,350.302 218.375 C 350.302 226.568,337.043 238.118,325.883 239.648 C 324.718 239.807,323.764 240.126,323.764 240.355 C 323.764 240.584,323.361 240.772,322.870 240.772 C 322.378 240.772,318.741 241.829,314.788 243.120 C 310.834 244.412,305.645 246.056,303.257 246.774 C 300.869 247.492,298.231 248.376,297.395 248.738 C 296.559 249.099,295.039 249.546,294.017 249.730 C 292.995 249.915,291.942 250.236,291.677 250.443 C 291.411 250.651,289.349 251.276,287.093 251.832 C 284.837 252.388,279.409 254.012,275.030 255.441 C 270.651 256.870,265.115 258.621,262.726 259.332 C 260.338 260.043,258.058 260.793,257.660 260.998 C 257.262 261.203,255.742 261.650,254.282 261.991 C 252.823 262.332,251.411 262.772,251.146 262.967 C 250.881 263.163,249.469 263.595,248.010 263.928 C 245.319 264.540,236.990 267.057,235.223 267.791 C 234.151 268.237,228.804 269.915,222.195 271.879 C 219.807 272.589,217.516 273.346,217.105 273.562 C 216.694 273.777,215.065 274.236,213.486 274.582 C 211.907 274.928,210.507 275.356,210.374 275.533 C 210.241 275.710,208.938 276.130,207.479 276.465 C 206.019 276.801,202.328 277.891,199.276 278.886 C 196.224 279.882,190.470 281.722,186.490 282.974 C 182.509 284.226,178.668 285.469,177.954 285.736 C 177.241 286.003,176.393 286.058,176.070 285.859 C 175.728 285.647,175.609 285.698,175.783 285.980 C 176.087 286.471,171.146 287.862,169.915 287.633 C 169.557 287.566,169.407 287.743,169.582 288.026 C 169.774 288.336,169.438 288.540,168.737 288.540 C 168.097 288.540,164.230 289.630,160.144 290.963 C 156.057 292.295,149.731 294.358,146.085 295.546 C 142.439 296.735,139.032 297.708,138.514 297.708 C 137.996 297.708,137.447 297.910,137.294 298.158 C 137.141 298.405,135.771 298.874,134.250 299.199 C 132.729 299.525,131.277 299.974,131.025 300.197 C 130.773 300.420,130.122 300.606,129.578 300.609 C 129.034 300.613,127.212 301.047,125.530 301.574 C 120.039 303.295,107.626 302.398,105.669 300.138 C 105.537 299.985,104.823 299.594,104.083 299.268 C 100.107 297.521,96.002 292.545,91.451 283.957 C 90.185 281.568,88.059 277.551,86.727 275.030 C 85.394 272.509,83.384 268.818,82.259 266.828 C 79.430 261.820,77.569 258.365,74.070 251.628 C 72.416 248.444,70.576 244.970,69.981 243.908 C 65.172 235.334,55.933 218.355,52.521 211.821 C 51.898 210.627,51.279 209.542,51.146 209.409 C 51.013 209.276,49.836 207.105,48.530 204.584 C 47.224 202.063,44.703 197.394,42.927 194.210 C 41.152 191.025,38.334 185.814,36.665 182.630 C 34.996 179.445,32.219 174.343,30.493 171.291 C 22.477 157.113,20.740 151.915,20.388 141.059 C 19.970 128.187,22.358 119.801,29.472 109.163 C 31.308 106.417,32.811 104.045,32.811 103.892 C 32.811 103.739,33.571 102.556,34.499 101.263 C 35.428 99.970,36.188 98.811,36.188 98.687 C 36.188 98.563,37.020 97.207,38.036 95.673 C 39.823 92.975,46.829 82.096,48.999 78.649 C 49.584 77.720,51.747 74.355,53.805 71.170 C 55.864 67.986,58.387 64.077,59.411 62.485 C 60.436 60.893,61.492 59.328,61.759 59.007 C 62.026 58.687,62.244 58.333,62.244 58.221 C 62.244 57.967,65.113 53.212,66.147 51.752 C 66.569 51.157,67.092 50.831,67.310 51.028 C 67.528 51.226,67.566 51.141,67.394 50.841 C 67.222 50.540,68.199 48.586,69.564 46.498 C 70.929 44.410,72.804 41.508,73.732 40.048 C 74.659 38.589,75.901 36.634,76.491 35.706 C 83.273 25.032,87.048 19.691,89.072 17.907 C 95.594 12.158,103.704 10.435,115.320 12.333 M265.139 98.921 C 237.221 104.474,221.992 140.161,236.933 165.018 C 237.172 165.416,237.740 166.502,238.194 167.431 C 239.411 169.917,249.301 179.567,251.749 180.657 C 252.877 181.159,253.800 181.754,253.800 181.979 C 253.800 182.204,254.165 182.388,254.612 182.388 C 255.059 182.388,256.308 182.815,257.387 183.337 C 264.336 186.696,284.121 187.017,288.299 183.839 C 288.565 183.637,289.324 183.317,289.988 183.128 C 293.744 182.056,298.282 179.290,301.515 176.102 L 304.946 172.719 304.946 177.075 C 304.946 181.210,305.016 181.506,306.325 182.875 C 308.241 184.881,312.931 185.006,314.979 183.108 L 316.285 181.897 316.285 142.294 L 316.285 102.691 314.931 101.526 C 312.816 99.707,308.292 99.837,306.356 101.772 C 305.004 103.125,304.945 103.368,304.920 107.683 C 304.897 111.934,304.853 112.122,304.130 111.087 C 298.132 102.483,278.315 96.301,265.139 98.921 M83.511 101.611 L 82.027 102.860 82.027 142.236 L 82.027 181.612 83.323 182.965 C 84.882 184.593,89.357 184.912,91.443 183.545 C 93.467 182.219,93.601 180.488,93.604 155.730 L 93.607 132.207 96.464 132.207 L 99.321 132.207 102.763 136.912 C 110.651 147.696,123.087 164.814,128.830 172.793 C 131.351 176.296,134.295 180.268,135.372 181.619 L 137.330 184.077 144.741 184.211 L 152.152 184.344 153.519 183.035 L 154.885 181.725 154.885 142.293 L 154.885 102.860 153.401 101.611 C 150.919 99.522,145.597 100.023,144.318 102.466 C 143.945 103.179,143.742 111.027,143.662 127.865 L 143.546 152.232 140.579 152.374 L 137.612 152.516 134.880 148.639 C 133.377 146.506,131.889 144.488,131.574 144.154 C 130.808 143.342,127.475 138.765,125.686 136.068 C 124.894 134.873,124.029 133.632,123.764 133.310 C 123.498 132.987,122.087 131.077,120.627 129.064 C 119.168 127.052,116.779 123.842,115.320 121.931 C 113.860 120.020,112.014 117.479,111.218 116.285 C 110.422 115.090,109.600 113.896,109.390 113.631 C 109.181 113.366,107.154 110.651,104.886 107.600 C 99.111 99.828,100.068 100.362,91.902 100.362 C 85.176 100.362,84.957 100.395,83.511 101.611 M166.155 100.840 C 163.918 101.743,163.571 103.008,163.571 110.245 C 163.571 117.508,163.404 116.886,166.123 119.769 C 166.179 119.828,175.229 119.991,186.235 120.131 L 206.245 120.386 206.806 121.512 C 207.856 123.620,208.287 123.094,189.867 142.142 C 186.805 145.309,173.597 159.086,167.012 165.983 L 163.096 170.084 163.092 175.915 L 163.088 181.746 164.531 183.032 L 165.975 184.318 197.846 184.318 L 229.716 184.318 231.022 183.109 C 233.426 180.882,233.256 168.469,230.791 166.183 L 229.533 165.018 209.580 165.018 C 186.729 165.018,186.314 164.933,188.092 160.600 C 188.396 159.858,198.882 148.822,222.437 124.455 C 223.896 122.945,226.556 120.184,228.347 118.320 L 231.604 114.931 231.604 109.057 C 231.604 103.208,231.598 103.177,230.194 101.772 L 228.784 100.362 197.986 100.392 C 181.048 100.409,166.724 100.611,166.155 100.840 M283.024 119.683 C 285.931 120.194,287.570 120.691,290.302 121.890 C 291.138 122.257,291.995 122.557,292.206 122.557 C 294.202 122.557,300.961 129.273,302.503 132.788 C 303.120 134.194,303.867 135.865,304.164 136.502 C 304.461 137.140,304.704 139.745,304.704 142.293 C 304.704 170.651,255.320 174.891,248.207 147.143 C 246.944 142.218,247.478 138.380,250.286 132.207 C 254.496 122.950,269.329 117.276,283.024 119.683 "
              stroke="none" fill="#26348B" fill-rule="evenodd"></path>
    </g>
</svg>
