<?xml version="1.0" encoding="utf-8"?>
<svg xmlns="http://www.w3.org/2000/svg" xmlns:xlink="http://www.w3.org/1999/xlink" version="1.1" id="Layer_1" x="0px" y="0px" viewBox="0 0 806 212" style="enable-background:new 0 0 806 212;">
<style type="text/css">
	.st0{fill:none;}
	.st1{clip-path:url(#SVGID_2_);}
	.st2{fill:#27325B;}
	.st3{fill:#4A9AD4;}
</style>
<g id="Group_3" transform="translate(0 8.627)">
	<path id="Clip_2-2" class="st0" d="M2.4,48.7H116v151.8H2.4V48.7z"/>
	<g>
		<g>
			<defs>
				<rect id="SVGID_1_" x="2.4" y="48.7" width="113.6" height="151.8"/>
			</defs>
			<clipPath id="SVGID_2_">
				<use xlink:href="#SVGID_1_" style="overflow:visible;"/>
			</clipPath>
			<g id="Group_3-2" class="st1">
				<path id="Fill_1" class="st2" d="M30.1,200.5H2.4V51.6h27.7V64c8.2-10.6,21.2-16.5,34.7-15.3c14.1,0,27.7,5.9,36.5,16.5&#xA;					c10,10.6,15.3,25.3,15.3,40c0.6,14.7-5.3,28.8-15.3,40c-9.4,10.6-22.9,16.5-36.5,16.5c-13.5,0.6-25.9-5.3-34.7-15.3&#xA;					C30.1,146.3,30.1,200.5,30.1,200.5z M59.5,74.5c-8.2,0-15.9,2.9-21.2,8.8c-5.3,5.9-8.8,13.5-8.2,21.8c0,8.2,2.9,15.9,8.2,21.8&#xA;					c5.3,5.9,12.9,8.8,21.2,8.2c7.6,0,15.3-2.9,21.2-8.2c5.9-5.9,8.8-13.5,8.2-21.8c0-8.2-2.9-15.9-8.2-21.8&#xA;					C74.8,77.5,67.2,74.5,59.5,74.5z"/>
			</g>
		</g>
	</g>
</g>
<path id="Fill_4" class="st2" d="M181.9,169.5c-14.1,0-27.1-5.9-36.5-16.5c-10-10.6-15.3-25.3-15.3-40c-0.6-14.7,5.3-28.8,15.3-40&#xA;	c9.4-10.6,22.4-16.5,36.5-16.5c13.5-0.6,26.5,5.3,34.7,15.3V60.1h27.1v106.5H216v-12.4C207.8,164.2,195.4,170.1,181.9,169.5z&#xA;	 M187.2,83.6c-7.6,0-15.3,2.9-21.2,8.2c-5.3,5.9-8.8,13.5-8.2,21.8c0,8.2,2.9,15.9,8.2,21.8c5.3,5.9,12.9,8.8,21.2,8.2&#xA;	c7.6,0,15.3-2.9,21.2-8.2c5.9-5.9,8.8-13.5,8.2-21.8c0-8.2-2.9-15.9-8.2-21.8C202.5,86.5,194.9,83,187.2,83.6z"/>
<path id="Fill_6" class="st2" d="M296.1,78.3c2.4-6.5,6.5-11.8,12.9-15.3c5.9-3.5,12.9-5.3,19.4-5.3v30.6&#xA;	c-7.6-1.2-15.9,0.6-22.4,5.3c-7.1,5.3-10.6,13.5-10,21.8V166h-27.7V60.1h27.7V78.3z"/>
<path id="Fill_8" class="st2" d="M386.7,169.5c-14.1,0-27.1-5.9-36.5-16.5c-10-10.6-15.3-25.3-15.3-40c-0.6-14.7,5.3-28.8,15.3-40&#xA;	c9.4-10.6,22.4-16.5,36.5-16.5c13.5-0.6,26.5,5.3,34.7,15.3V60.1h27.7v106.5h-27.7v-12.4C413.2,164.2,400.2,170.1,386.7,169.5z&#xA;	 M392,83.6c-7.6,0-15.3,2.9-21.2,8.2c-5.3,5.9-8.8,13.5-8.2,21.8c0,8.2,2.9,15.9,8.2,21.8c5.3,5.9,12.9,8.8,21.2,8.2&#xA;	c7.6,0,15.3-2.9,21.2-8.2c5.9-5.9,8.8-13.5,8.2-21.8c0-8.2-2.9-15.9-8.2-21.8C407.3,86.5,399.6,83,392,83.6z"/>
<path id="Fill_10" class="st2" d="M501.4,78.3c2.4-6.5,6.5-11.8,12.9-15.3c5.9-3.5,12.9-5.3,19.4-5.3v30.6&#xA;	c-7.6-1.2-15.9,0.6-22.4,5.3c-7.1,5.3-10.6,13.5-10,21.8V166h-27.7V60.1h27.7V78.3z"/>
<path id="Fill_12" class="st2" d="M549.7,166.6h27.7V60.1h-27.7V166.6z"/>
<path id="Fill_14" class="st2" d="M672.1,60.1h27.7v106.5h-27.7v-11.8c-7.1,10-19.4,15.9-31.8,14.7c-10.6,0.6-21.2-4.1-28.8-11.8&#xA;	c-8.2-8.8-12.4-20.6-11.2-32.4V60.1h27.7v62.4c-0.6,5.9,1.8,11.8,5.9,16.5c4.1,4.1,9.4,5.9,15.3,5.9c6.5,0,12.4-2.4,17.1-6.5&#xA;	c4.7-5.3,7.1-12.4,6.5-20L672.1,60.1z"/>
<path id="Fill_15" class="st2" d="M749.1,90.7c0,2.9,1.8,5.3,5.9,7.1c4.1,1.8,8.8,3.5,13.5,4.7c5.3,1.2,11.2,2.9,15.9,5.3&#xA;	c5.3,2.4,10,5.9,13.5,10.6c4.1,5.3,5.9,11.8,5.9,18.2c0.6,10-4.1,19.4-12.4,25.3c-8.8,5.9-19.4,9.4-30.6,8.8&#xA;	c-21.8,0-36.5-8.2-44.7-25.3l23.5-13.5c2.9,8.8,11.8,14.7,20.6,14.1c10,0,14.7-2.9,14.7-9.4c0-2.9-1.8-5.3-5.9-7.1&#xA;	c-4.1-1.8-8.8-3.5-13.5-4.7c-5.3-1.2-11.2-2.9-15.9-5.3c-5.3-2.4-10-5.9-13.5-10c-4.1-4.7-5.9-11.2-5.9-17.1&#xA;	c-0.6-9.4,4.1-18.8,11.8-24.7c8.2-6.5,18.2-9.4,28.8-8.8c8.2,0,16.5,1.8,23.5,5.9c7.1,4.1,12.9,9.4,17.1,16.5L778,94.2&#xA;	c-2.9-7.1-9.4-11.2-17.1-10.6c-2.9,0-6.5,0.6-8.8,2.4C750.3,85.4,749.1,87.7,749.1,90.7"/>
<path id="Fill_16" class="st3" d="M582,23c0,10-8.2,18.2-18.2,18.2c-10,0-18.2-8.2-18.2-18.2s7.6-18.2,18.2-18.2l0,0&#xA;	C573.8,4.8,582,13,582,23"/>
</svg>