<svg id="svg" version="1.1" xmlns="http://www.w3.org/2000/svg" xmlns:xlink="http://www.w3.org/1999/xlink" width="400"
     height="114.3529411764706" viewBox="0, 0, 400,114.3529411764706">
    <g id="svgg">
        <path id="path0"
              d="M63.059 10.191 C 51.229 19.419,52.554 18.934,50.067 14.941 C 49.060 13.324,48.024 11.669,47.765 11.265 C 47.506 10.861,46.797 9.749,46.189 8.795 C 44.768 6.563,44.578 6.589,40.763 9.529 C 39.000 10.888,37.095 12.318,36.530 12.706 C 35.965 13.094,34.079 14.562,32.340 15.967 L 29.176 18.522 29.176 27.201 C 29.176 34.074,29.299 35.785,29.765 35.423 C 30.088 35.172,31.835 33.836,33.647 32.454 C 35.459 31.072,38.318 28.854,40.000 27.524 C 44.811 23.721,44.655 23.752,46.287 26.286 C 47.503 28.175,51.424 34.143,52.295 35.432 C 52.457 35.672,54.177 34.627,56.118 33.111 C 69.314 22.795,67.676 23.240,71.294 28.986 C 72.847 31.452,74.541 33.981,75.059 34.606 L 76.000 35.742 79.294 33.148 C 81.106 31.722,83.121 30.192,83.772 29.748 C 84.423 29.304,86.382 27.810,88.125 26.428 L 91.294 23.914 91.294 15.211 L 91.294 6.508 88.824 8.416 C 87.465 9.465,85.506 10.960,84.471 11.739 C 83.435 12.517,81.106 14.322,79.294 15.751 C 75.255 18.935,76.157 19.289,72.019 12.900 C 70.088 9.919,68.288 7.305,68.019 7.092 C 67.726 6.859,65.736 8.102,63.059 10.191 M41.526 44.588 C 35.667 49.217,31.324 52.491,30.268 53.074 C 29.186 53.672,29.176 53.753,29.176 62.620 L 29.176 71.562 31.515 69.781 C 32.801 68.802,36.308 66.125,39.309 63.833 C 42.309 61.541,44.812 59.741,44.870 59.833 C 46.188 61.911,47.567 64.047,48.278 65.109 C 48.772 65.849,49.600 67.127,50.118 67.950 C 52.758 72.148,52.057 72.063,56.185 68.686 C 56.989 68.029,59.713 65.941,62.239 64.048 C 64.764 62.154,66.947 60.416,67.090 60.185 C 67.648 59.282,68.256 59.966,71.955 65.663 L 75.785 71.562 77.539 70.267 C 79.064 69.141,80.860 67.731,83.237 65.791 C 83.594 65.500,85.553 64.026,87.590 62.515 L 91.294 59.769 91.294 51.061 C 91.294 46.271,91.221 42.353,91.131 42.353 C 91.041 42.353,90.530 42.724,89.996 43.176 C 89.462 43.629,87.196 45.376,84.962 47.059 C 82.728 48.741,79.907 50.912,78.694 51.882 C 75.696 54.281,75.854 54.369,71.745 48.000 C 69.742 44.894,68.022 42.353,67.924 42.353 C 67.716 42.353,60.521 47.833,57.412 50.359 C 55.017 52.305,52.352 53.937,52.087 53.622 C 51.539 52.974,45.524 43.521,45.320 42.989 C 44.948 42.020,44.581 42.175,41.526 44.588 M264.020 44.154 C 261.666 45.128,260.920 45.677,260.707 46.588 C 260.533 47.332,260.050 47.820,259.392 47.915 L 258.353 48.065 258.353 60.000 L 258.353 71.935 259.412 72.085 C 260.105 72.183,260.524 72.614,260.626 73.332 C 261.337 78.352,279.670 78.099,280.386 73.059 C 280.482 72.378,280.861 72.000,281.444 72.000 C 282.318 72.000,282.353 71.542,282.353 60.000 C 282.353 48.314,282.328 48.000,281.412 48.000 C 280.805 48.000,280.471 47.686,280.471 47.116 C 280.471 43.566,269.996 41.679,264.020 44.154 M124.536 44.471 C 124.387 44.859,123.835 45.176,123.309 45.176 C 122.368 45.176,122.353 45.414,122.353 60.000 C 122.353 74.731,122.359 74.824,123.338 74.824 C 123.931 74.824,124.422 75.202,124.572 75.774 C 124.812 76.693,125.131 76.721,134.057 76.598 L 143.294 76.471 143.436 74.000 L 143.579 71.529 135.789 71.529 L 128.000 71.529 128.000 66.353 L 128.000 61.176 134.118 61.176 L 140.235 61.176 140.235 58.824 L 140.235 56.471 134.118 56.471 L 128.000 56.471 128.000 52.471 L 128.000 48.471 135.765 48.471 L 143.529 48.471 143.529 46.118 L 143.529 43.765 134.168 43.765 C 126.281 43.765,124.764 43.876,124.536 44.471 M151.059 60.235 L 151.059 76.706 153.647 76.706 L 156.235 76.706 156.235 60.235 L 156.235 43.765 153.647 43.765 L 151.059 43.765 151.059 60.235 M164.706 60.260 L 164.706 76.755 167.176 76.613 L 169.647 76.471 169.773 64.824 C 169.842 58.418,170.057 53.176,170.251 53.176 C 170.444 53.176,171.754 54.924,173.161 57.059 C 174.568 59.194,177.582 63.745,179.859 67.171 C 183.126 72.087,184.000 73.755,184.000 75.078 L 184.000 76.755 186.471 76.613 L 188.941 76.471 189.065 60.118 L 189.189 43.765 186.604 43.765 L 184.019 43.765 183.892 53.754 C 183.789 61.870,183.653 63.613,183.169 63.048 C 182.415 62.168,173.647 48.924,173.647 48.665 C 173.647 48.559,172.886 47.413,171.956 46.119 L 170.265 43.765 167.485 43.765 L 164.706 43.765 164.706 60.260 M199.059 44.515 C 199.059 44.927,198.635 45.375,198.118 45.511 C 197.202 45.750,197.176 46.153,197.176 60.290 C 197.176 74.510,197.197 74.824,198.118 74.824 C 198.745 74.824,199.059 75.137,199.059 75.765 C 199.059 76.661,199.373 76.706,205.691 76.706 C 211.928 76.706,212.338 76.650,212.570 75.765 C 212.707 75.239,213.211 74.824,213.712 74.824 C 216.459 74.824,221.047 68.136,221.653 63.249 C 222.631 55.357,218.361 45.647,213.912 45.647 C 213.459 45.647,212.978 45.224,212.842 44.706 C 212.503 43.407,199.059 43.220,199.059 44.515 M227.406 60.118 L 227.529 76.471 229.988 76.612 L 232.446 76.754 232.576 69.318 L 232.706 61.882 239.258 61.751 C 247.176 61.592,246.572 60.931,246.581 69.765 L 246.588 76.706 248.941 76.706 L 251.294 76.706 251.294 60.235 L 251.294 43.765 248.955 43.765 L 246.616 43.765 246.484 50.000 L 246.353 56.235 239.529 56.235 L 232.706 56.235 232.575 50.000 L 232.443 43.765 229.863 43.765 L 227.282 43.765 227.406 60.118 M286.260 44.588 C 287.370 48.210,288.969 53.110,292.211 62.824 C 294.284 69.035,296.153 74.647,296.363 75.294 C 296.654 76.188,297.024 76.438,297.903 76.336 C 300.231 76.065,300.490 76.070,301.523 76.415 C 302.881 76.867,303.911 74.461,307.332 62.834 C 307.863 61.028,308.473 59.334,308.687 59.069 C 308.900 58.805,309.448 57.212,309.905 55.529 C 310.361 53.847,310.941 52.061,311.195 51.559 C 311.449 51.058,312.134 49.099,312.718 47.206 L 313.780 43.765 311.091 43.765 L 308.402 43.765 307.105 47.882 C 306.391 50.147,305.428 53.059,304.965 54.353 C 303.347 58.866,300.706 67.346,300.706 68.023 C 300.706 70.075,299.353 68.129,298.147 64.341 C 297.386 61.953,296.188 58.200,295.484 56.000 C 294.779 53.800,293.617 50.147,292.901 47.882 L 291.599 43.765 288.803 43.765 C 286.359 43.765,286.040 43.868,286.260 44.588 M320.471 44.471 C 320.471 44.863,320.052 45.176,319.529 45.176 C 318.608 45.176,318.588 45.490,318.588 60.000 C 318.588 74.204,318.625 74.824,319.475 74.824 C 319.965 74.824,320.471 75.244,320.607 75.765 C 320.842 76.665,321.249 76.706,330.074 76.706 L 339.294 76.706 339.294 74.118 L 339.294 71.529 331.513 71.529 L 323.733 71.529 323.866 66.471 L 324.000 61.412 330.235 61.280 L 336.471 61.149 336.471 58.824 L 336.471 56.498 330.235 56.367 L 324.000 56.235 323.863 52.353 L 323.727 48.471 331.510 48.471 L 339.294 48.471 339.294 46.118 L 339.294 43.765 329.882 43.765 C 321.830 43.765,320.471 43.867,320.471 44.471 M346.353 60.260 L 346.353 76.755 348.824 76.613 L 351.294 76.471 351.529 64.773 C 351.747 53.955,351.822 53.142,352.523 53.950 C 354.863 56.646,365.237 73.161,365.553 74.695 C 365.916 76.449,365.950 76.472,368.372 76.613 L 370.824 76.755 370.824 60.260 L 370.824 43.765 368.235 43.765 L 365.647 43.765 365.647 53.647 C 365.647 59.082,365.482 63.529,365.280 63.529 C 365.078 63.529,361.966 59.082,358.364 53.647 L 351.816 43.765 349.084 43.765 L 346.353 43.765 346.353 60.260 M275.412 48.872 L 276.706 49.388 276.706 60.168 L 276.706 70.947 274.615 71.474 C 271.949 72.145,268.754 72.144,266.082 71.471 L 263.983 70.943 264.109 60.101 L 264.235 49.260 265.882 48.637 C 267.757 47.929,273.394 48.068,275.412 48.872 M212.810 50.732 C 217.516 55.763,217.610 64.301,213.014 69.306 L 210.973 71.529 206.663 71.529 L 202.353 71.529 202.353 60.314 C 202.353 47.347,201.927 48.471,206.838 48.471 L 210.695 48.471 212.810 50.732 M39.722 81.692 C 37.157 83.657,33.740 86.251,32.127 87.456 L 29.196 89.647 29.186 98.527 L 29.176 107.407 31.176 105.773 C 34.515 103.045,42.845 96.742,43.900 96.145 C 44.913 95.573,45.833 96.488,47.727 99.950 C 49.151 102.553,51.895 106.433,52.468 106.652 C 52.987 106.852,57.762 103.549,61.193 100.618 C 67.259 95.435,68.065 95.241,70.118 98.471 C 76.411 108.373,75.298 107.812,80.512 103.703 C 82.689 101.987,86.006 99.427,87.882 98.015 L 91.294 95.446 91.294 86.768 L 91.294 78.089 89.765 79.162 C 88.924 79.752,88.129 80.347,88.000 80.484 C 87.775 80.722,82.602 84.665,78.295 87.882 C 75.567 89.921,75.820 90.059,72.411 84.675 C 67.569 77.029,68.721 77.392,63.026 81.711 C 60.326 83.758,56.987 86.328,55.605 87.422 C 52.441 89.927,52.350 89.914,50.310 86.680 C 49.380 85.206,47.792 82.681,46.780 81.069 C 44.537 77.493,45.286 77.427,39.722 81.692 "
              stroke="none" fill="#E22728" fill-rule="evenodd"></path>
    </g>
</svg>
