<svg id="svg" version="1.1" xmlns="http://www.w3.org/2000/svg" xmlns:xlink="http://www.w3.org/1999/xlink" width="400" height="79.08571428571429" viewBox="0, 0, 400,79.08571428571429"><g id="svgg"><path id="path0" d="M36.833 9.167 C 36.833 9.265,36.220 9.333,35.328 9.333 C 34.144 9.333,33.802 9.387,33.727 9.583 C 33.655 9.770,33.358 9.833,32.560 9.833 C 31.762 9.833,31.465 9.897,31.394 10.083 C 31.331 10.246,31.072 10.333,30.649 10.333 C 30.183 10.333,30.000 10.404,30.000 10.583 C 30.000 10.764,29.815 10.833,29.333 10.833 C 28.967 10.833,28.667 10.908,28.667 11.000 C 28.667 11.092,28.442 11.167,28.167 11.167 C 27.833 11.167,27.667 11.250,27.667 11.417 C 27.667 11.592,27.490 11.667,27.078 11.667 C 26.709 11.667,26.454 11.760,26.394 11.917 C 26.341 12.054,26.126 12.167,25.917 12.167 C 25.707 12.167,25.492 12.279,25.440 12.417 C 25.387 12.554,25.154 12.667,24.922 12.667 C 24.690 12.667,24.500 12.742,24.500 12.833 C 24.500 12.925,24.387 13.000,24.250 13.000 C 24.113 13.000,24.000 13.112,24.000 13.250 C 24.000 13.406,23.843 13.500,23.583 13.500 C 23.324 13.500,23.167 13.594,23.167 13.750 C 23.167 13.887,23.054 14.000,22.917 14.000 C 22.779 14.000,22.667 14.075,22.667 14.167 C 22.667 14.258,22.496 14.333,22.287 14.333 C 21.915 14.333,21.333 14.843,21.333 15.169 C 21.333 15.259,21.165 15.333,20.958 15.334 C 20.737 15.334,20.327 15.607,19.956 16.000 C 19.611 16.367,19.255 16.667,19.165 16.667 C 19.074 16.667,19.000 16.779,19.000 16.917 C 19.000 17.054,18.887 17.167,18.750 17.167 C 18.612 17.167,18.500 17.247,18.500 17.345 C 18.500 17.576,18.076 18.000,17.845 18.000 C 17.747 18.000,17.667 18.112,17.667 18.250 C 17.667 18.387,17.554 18.500,17.417 18.500 C 17.279 18.500,17.167 18.612,17.167 18.750 C 17.167 18.887,17.054 19.000,16.917 19.000 C 16.779 19.000,16.667 19.081,16.667 19.180 C 16.667 19.279,16.367 19.639,16.000 19.981 C 15.614 20.341,15.333 20.757,15.333 20.968 C 15.333 21.169,15.253 21.333,15.155 21.333 C 14.837 21.333,14.500 21.799,14.500 22.238 C 14.500 22.508,14.407 22.667,14.250 22.667 C 14.112 22.667,14.000 22.779,14.000 22.917 C 14.000 23.054,13.887 23.167,13.750 23.167 C 13.594 23.167,13.500 23.324,13.500 23.583 C 13.500 23.843,13.406 24.000,13.250 24.000 C 13.112 24.000,13.000 24.113,13.000 24.250 C 13.000 24.387,12.925 24.500,12.833 24.500 C 12.742 24.500,12.667 24.679,12.667 24.899 C 12.667 25.118,12.554 25.341,12.417 25.394 C 12.279 25.446,12.167 25.671,12.167 25.894 C 12.167 26.116,12.054 26.341,11.917 26.394 C 11.760 26.454,11.667 26.709,11.667 27.078 C 11.667 27.490,11.592 27.667,11.417 27.667 C 11.263 27.667,11.167 27.823,11.167 28.073 C 11.167 28.297,11.092 28.527,11.000 28.583 C 10.908 28.640,10.833 28.982,10.833 29.343 C 10.833 29.816,10.763 30.000,10.583 30.000 C 10.404 30.000,10.333 30.183,10.333 30.649 C 10.333 31.072,10.246 31.331,10.083 31.394 C 9.896 31.465,9.833 31.764,9.833 32.578 C 9.833 33.435,9.780 33.667,9.583 33.667 C 9.379 33.667,9.333 33.954,9.333 35.250 C 9.333 36.194,9.266 36.833,9.167 36.833 C 9.063 36.833,9.000 37.833,9.000 39.500 C 9.000 41.167,9.063 42.167,9.167 42.167 C 9.267 42.167,9.333 42.829,9.333 43.821 C 9.333 45.070,9.395 45.538,9.583 45.726 C 9.740 45.883,9.833 46.292,9.833 46.821 C 9.833 47.462,9.894 47.667,10.083 47.667 C 10.269 47.667,10.333 47.861,10.333 48.417 C 10.333 48.972,10.398 49.167,10.583 49.167 C 10.764 49.167,10.833 49.352,10.833 49.833 C 10.833 50.200,10.908 50.500,11.000 50.500 C 11.092 50.500,11.167 50.765,11.167 51.089 C 11.167 51.458,11.260 51.713,11.417 51.773 C 11.554 51.826,11.667 52.048,11.667 52.268 C 11.667 52.511,11.764 52.667,11.917 52.667 C 12.083 52.667,12.167 52.833,12.167 53.167 C 12.167 53.500,12.250 53.667,12.417 53.667 C 12.572 53.667,12.667 53.824,12.667 54.083 C 12.667 54.313,12.736 54.500,12.820 54.500 C 12.904 54.500,13.023 54.725,13.083 55.000 C 13.144 55.275,13.262 55.500,13.347 55.500 C 13.431 55.500,13.500 55.612,13.500 55.750 C 13.500 55.887,13.612 56.000,13.750 56.000 C 13.906 56.000,14.000 56.157,14.000 56.417 C 14.000 56.676,14.094 56.833,14.250 56.833 C 14.387 56.833,14.500 56.946,14.500 57.083 C 14.500 57.221,14.575 57.333,14.667 57.333 C 14.758 57.333,14.833 57.486,14.833 57.672 C 14.833 57.858,14.946 58.054,15.083 58.106 C 15.221 58.159,15.333 58.307,15.333 58.434 C 15.333 58.562,15.446 58.667,15.583 58.667 C 15.721 58.667,15.833 58.779,15.833 58.917 C 15.833 59.054,15.946 59.167,16.083 59.167 C 16.221 59.167,16.333 59.279,16.333 59.417 C 16.333 59.554,16.408 59.667,16.500 59.667 C 16.592 59.667,16.667 59.786,16.667 59.931 C 16.667 60.317,18.762 62.333,19.163 62.333 C 19.348 62.333,19.500 62.414,19.500 62.512 C 19.500 62.743,19.924 63.167,20.155 63.167 C 20.253 63.167,20.333 63.279,20.333 63.417 C 20.333 63.554,20.446 63.667,20.583 63.667 C 20.721 63.667,20.833 63.779,20.833 63.917 C 20.833 64.072,20.991 64.167,21.250 64.167 C 21.509 64.167,21.667 64.261,21.667 64.417 C 21.667 64.554,21.779 64.667,21.917 64.667 C 22.054 64.667,22.167 64.742,22.167 64.833 C 22.167 64.925,22.279 65.000,22.417 65.000 C 22.554 65.000,22.667 65.112,22.667 65.250 C 22.667 65.403,22.822 65.500,23.066 65.500 C 23.285 65.500,23.508 65.612,23.560 65.750 C 23.613 65.887,23.846 66.000,24.078 66.000 C 24.342 66.000,24.500 66.094,24.500 66.250 C 24.500 66.406,24.657 66.500,24.917 66.500 C 25.146 66.500,25.333 66.575,25.333 66.667 C 25.333 66.758,25.558 66.833,25.833 66.833 C 26.167 66.833,26.333 66.917,26.333 67.083 C 26.333 67.236,26.489 67.333,26.732 67.333 C 26.952 67.333,27.174 67.446,27.227 67.583 C 27.280 67.721,27.505 67.833,27.727 67.833 C 27.949 67.833,28.174 67.946,28.227 68.083 C 28.287 68.240,28.542 68.333,28.911 68.333 C 29.235 68.333,29.500 68.408,29.500 68.500 C 29.500 68.592,29.800 68.667,30.167 68.667 C 30.648 68.667,30.833 68.736,30.833 68.917 C 30.833 69.108,31.044 69.167,31.732 69.167 C 32.377 69.167,32.658 69.237,32.727 69.417 C 32.798 69.603,33.096 69.667,33.898 69.667 C 34.609 69.667,34.996 69.737,35.042 69.875 C 35.157 70.221,43.708 70.268,44.052 69.924 C 44.236 69.740,44.647 69.667,45.493 69.667 C 46.392 69.667,46.700 69.606,46.773 69.417 C 46.836 69.254,47.095 69.167,47.518 69.167 C 47.983 69.167,48.167 69.096,48.167 68.917 C 48.167 68.725,48.380 68.667,49.083 68.667 C 49.587 68.667,50.000 68.592,50.000 68.500 C 50.000 68.408,50.190 68.333,50.422 68.333 C 50.654 68.333,50.887 68.221,50.940 68.083 C 50.999 67.928,51.253 67.833,51.606 67.833 C 51.960 67.833,52.214 67.738,52.273 67.583 C 52.326 67.446,52.551 67.333,52.773 67.333 C 52.995 67.333,53.220 67.221,53.273 67.083 C 53.326 66.946,53.548 66.833,53.768 66.833 C 53.987 66.833,54.167 66.766,54.167 66.685 C 54.167 66.603,54.354 66.489,54.583 66.432 C 54.813 66.374,55.000 66.253,55.000 66.163 C 55.000 66.074,55.112 66.000,55.250 66.000 C 55.387 66.000,55.500 65.887,55.500 65.750 C 55.500 65.583,55.667 65.500,56.000 65.500 C 56.275 65.500,56.500 65.420,56.500 65.321 C 56.500 65.003,56.965 64.667,57.405 64.667 C 57.675 64.667,57.833 64.574,57.833 64.417 C 57.833 64.279,57.946 64.167,58.083 64.167 C 58.221 64.167,58.333 64.054,58.333 63.917 C 58.333 63.779,58.408 63.667,58.500 63.667 C 58.592 63.667,58.667 63.554,58.667 63.417 C 58.667 63.259,58.825 63.167,59.096 63.167 C 59.526 63.167,60.500 62.366,60.500 62.013 C 60.500 61.914,60.612 61.833,60.750 61.833 C 60.887 61.833,61.000 61.758,61.000 61.667 C 61.000 61.575,61.112 61.500,61.250 61.500 C 61.387 61.500,61.500 61.421,61.500 61.325 C 61.500 61.229,61.688 60.977,61.917 60.765 C 62.146 60.552,62.333 60.293,62.333 60.189 C 62.333 60.085,62.446 60.000,62.583 60.000 C 62.721 60.000,62.833 59.887,62.833 59.750 C 62.833 59.612,62.946 59.500,63.083 59.500 C 63.239 59.500,63.333 59.343,63.333 59.083 C 63.333 58.824,63.428 58.667,63.583 58.667 C 63.721 58.667,63.833 58.572,63.833 58.456 C 63.833 58.340,64.021 58.105,64.250 57.933 C 64.488 57.754,64.667 57.452,64.667 57.227 C 64.667 56.988,64.765 56.833,64.917 56.833 C 65.054 56.833,65.167 56.721,65.167 56.583 C 65.167 56.446,65.279 56.333,65.417 56.333 C 65.572 56.333,65.667 56.176,65.667 55.917 C 65.667 55.688,65.742 55.500,65.833 55.500 C 65.925 55.500,66.000 55.387,66.000 55.250 C 66.000 55.112,66.112 55.000,66.250 55.000 C 66.403 55.000,66.500 54.845,66.500 54.601 C 66.500 54.382,66.612 54.159,66.750 54.106 C 66.887 54.054,67.000 53.829,67.000 53.606 C 67.000 53.384,67.112 53.159,67.250 53.106 C 67.387 53.054,67.500 52.863,67.500 52.682 C 67.500 52.501,67.575 52.307,67.667 52.250 C 67.758 52.193,67.833 51.851,67.833 51.490 C 67.833 51.017,67.903 50.833,68.083 50.833 C 68.236 50.833,68.333 50.678,68.333 50.434 C 68.333 50.215,68.446 49.992,68.583 49.940 C 68.760 49.872,68.833 49.597,68.833 49.005 C 68.833 48.371,68.894 48.167,69.083 48.167 C 69.263 48.167,69.333 47.983,69.333 47.510 C 69.333 47.149,69.408 46.807,69.500 46.750 C 69.592 46.693,69.667 46.051,69.667 45.323 C 69.667 44.258,69.715 44.000,69.917 44.000 C 70.133 44.000,70.167 43.389,70.167 39.500 C 70.167 35.611,70.133 35.000,69.917 35.000 C 69.718 35.000,69.667 34.759,69.667 33.833 C 69.667 33.167,69.595 32.667,69.500 32.667 C 69.408 32.667,69.333 32.289,69.333 31.828 C 69.333 31.236,69.260 30.961,69.083 30.894 C 68.920 30.831,68.833 30.572,68.833 30.149 C 68.833 29.683,68.763 29.500,68.583 29.500 C 68.403 29.500,68.333 29.315,68.333 28.833 C 68.333 28.352,68.264 28.167,68.083 28.167 C 67.917 28.167,67.833 28.000,67.833 27.667 C 67.833 27.392,67.758 27.167,67.667 27.167 C 67.575 27.167,67.500 26.979,67.500 26.750 C 67.500 26.491,67.406 26.333,67.250 26.333 C 67.083 26.333,67.000 26.167,67.000 25.833 C 67.000 25.500,66.917 25.333,66.750 25.333 C 66.594 25.333,66.500 25.176,66.500 24.917 C 66.500 24.657,66.406 24.500,66.250 24.500 C 66.083 24.500,66.000 24.333,66.000 24.000 C 66.000 23.725,65.933 23.500,65.851 23.500 C 65.770 23.500,65.656 23.313,65.598 23.083 C 65.541 22.854,65.420 22.667,65.330 22.667 C 65.240 22.667,65.167 22.554,65.167 22.417 C 65.167 22.279,65.054 22.167,64.917 22.167 C 64.779 22.167,64.667 22.054,64.667 21.917 C 64.667 21.779,64.554 21.667,64.417 21.667 C 64.272 21.667,64.167 21.516,64.167 21.311 C 64.167 21.115,63.979 20.781,63.750 20.569 C 63.521 20.356,63.333 20.104,63.333 20.008 C 63.333 19.912,63.221 19.833,63.083 19.833 C 62.946 19.833,62.833 19.758,62.833 19.667 C 62.833 19.575,62.721 19.500,62.583 19.500 C 62.417 19.500,62.333 19.333,62.333 19.000 C 62.333 18.725,62.256 18.500,62.161 18.500 C 61.945 18.500,61.000 17.545,61.000 17.328 C 61.000 17.239,60.896 17.167,60.768 17.167 C 60.640 17.167,60.492 17.054,60.440 16.917 C 60.387 16.779,60.191 16.667,60.005 16.667 C 59.815 16.667,59.667 16.557,59.667 16.417 C 59.667 16.279,59.554 16.167,59.417 16.167 C 59.279 16.167,59.167 16.092,59.167 16.000 C 59.167 15.908,59.054 15.833,58.917 15.833 C 58.779 15.833,58.667 15.759,58.667 15.669 C 58.667 15.343,58.085 14.833,57.713 14.833 C 57.487 14.833,57.333 14.732,57.333 14.583 C 57.333 14.446,57.221 14.333,57.083 14.333 C 56.946 14.333,56.833 14.258,56.833 14.167 C 56.833 14.075,56.646 14.000,56.417 14.000 C 56.157 14.000,56.000 13.906,56.000 13.750 C 56.000 13.612,55.896 13.500,55.768 13.500 C 55.640 13.500,55.492 13.387,55.440 13.250 C 55.387 13.112,55.191 13.000,55.005 13.000 C 54.819 13.000,54.667 12.925,54.667 12.833 C 54.667 12.742,54.442 12.667,54.167 12.667 C 53.833 12.667,53.667 12.583,53.667 12.417 C 53.667 12.261,53.509 12.167,53.250 12.167 C 52.991 12.167,52.833 12.072,52.833 11.917 C 52.833 11.750,52.667 11.667,52.333 11.667 C 52.000 11.667,51.833 11.583,51.833 11.417 C 51.833 11.236,51.648 11.167,51.167 11.167 C 50.800 11.167,50.500 11.092,50.500 11.000 C 50.500 10.908,50.200 10.833,49.833 10.833 C 49.352 10.833,49.167 10.764,49.167 10.583 C 49.167 10.404,48.983 10.333,48.518 10.333 C 48.095 10.333,47.836 10.246,47.773 10.083 C 47.705 9.906,47.429 9.833,46.827 9.833 C 46.293 9.833,45.883 9.740,45.726 9.583 C 45.539 9.396,45.079 9.333,43.905 9.333 C 42.968 9.333,42.333 9.266,42.333 9.167 C 42.333 9.062,41.306 9.000,39.583 9.000 C 37.861 9.000,36.833 9.062,36.833 9.167 M269.000 34.917 L 269.000 52.667 272.917 52.667 L 276.833 52.667 276.833 45.184 C 276.833 38.687,276.866 37.690,277.083 37.606 C 277.239 37.547,277.333 37.292,277.333 36.932 C 277.333 36.613,277.408 36.307,277.500 36.250 C 277.592 36.193,277.667 35.964,277.667 35.740 C 277.667 35.516,277.750 35.333,277.853 35.333 C 277.955 35.333,278.330 35.033,278.686 34.667 C 279.042 34.300,279.448 34.000,279.588 34.000 C 279.729 34.000,279.887 33.887,279.940 33.750 C 280.002 33.587,280.262 33.500,280.684 33.500 C 281.041 33.500,281.333 33.425,281.333 33.333 C 281.333 33.242,281.558 33.167,281.833 33.167 C 282.108 33.167,282.333 33.242,282.333 33.333 C 282.333 33.425,282.633 33.500,283.000 33.500 C 283.481 33.500,283.667 33.569,283.667 33.750 C 283.667 33.887,283.779 34.000,283.917 34.000 C 284.054 34.000,284.167 34.112,284.167 34.250 C 284.167 34.387,284.279 34.500,284.417 34.500 C 284.572 34.500,284.667 34.657,284.667 34.917 C 284.667 35.146,284.742 35.333,284.833 35.333 C 284.925 35.333,285.000 35.523,285.000 35.755 C 285.000 35.987,285.112 36.220,285.250 36.273 C 285.468 36.357,285.500 37.428,285.500 44.518 L 285.500 52.667 289.583 52.667 L 293.667 52.667 293.667 44.250 C 293.667 38.750,293.609 35.833,293.500 35.833 C 293.403 35.833,293.333 35.278,293.333 34.500 C 293.333 33.426,293.285 33.167,293.083 33.167 C 292.903 33.167,292.833 32.981,292.833 32.500 C 292.833 32.019,292.764 31.833,292.583 31.833 C 292.417 31.833,292.333 31.667,292.333 31.333 C 292.333 31.000,292.250 30.833,292.083 30.833 C 291.939 30.833,291.833 30.683,291.833 30.477 C 291.833 30.282,291.646 29.948,291.417 29.735 C 291.188 29.523,291.000 29.271,291.000 29.175 C 291.000 29.079,290.921 29.000,290.825 29.000 C 290.729 29.000,290.477 28.813,290.265 28.583 C 290.052 28.354,289.718 28.167,289.523 28.167 C 289.317 28.167,289.167 28.061,289.167 27.917 C 289.167 27.779,289.054 27.667,288.917 27.667 C 288.779 27.667,288.667 27.554,288.667 27.417 C 288.667 27.265,288.512 27.167,288.270 27.167 C 288.052 27.167,287.781 27.054,287.667 26.917 C 287.553 26.779,287.206 26.667,286.896 26.667 C 286.587 26.667,286.333 26.592,286.333 26.500 C 286.333 26.396,285.389 26.333,283.833 26.333 C 282.278 26.333,281.333 26.396,281.333 26.500 C 281.333 26.592,281.039 26.667,280.679 26.667 C 280.318 26.667,279.911 26.779,279.774 26.917 C 279.636 27.054,279.331 27.167,279.095 27.167 C 278.825 27.167,278.667 27.259,278.667 27.417 C 278.667 27.554,278.554 27.667,278.417 27.667 C 278.279 27.667,278.167 27.779,278.167 27.917 C 278.167 28.072,278.009 28.167,277.750 28.167 C 277.521 28.167,277.333 28.242,277.333 28.333 C 277.333 28.425,277.221 28.500,277.083 28.500 C 276.866 28.500,276.833 27.759,276.833 22.833 L 276.833 17.167 272.917 17.167 L 269.000 17.167 269.000 34.917 M357.333 34.917 L 357.333 52.667 361.167 52.667 L 365.000 52.667 365.000 34.917 L 365.000 17.167 361.167 17.167 L 357.333 17.167 357.333 34.917 M95.833 26.500 C 95.833 26.592,95.533 26.667,95.167 26.667 C 94.685 26.667,94.500 26.736,94.500 26.917 C 94.500 27.092,94.323 27.167,93.911 27.167 C 93.542 27.167,93.287 27.260,93.227 27.417 C 93.174 27.554,93.027 27.667,92.899 27.667 C 92.771 27.667,92.667 27.779,92.667 27.917 C 92.667 28.074,92.508 28.167,92.237 28.167 C 91.807 28.167,90.833 28.967,90.833 29.321 C 90.833 29.419,90.721 29.500,90.583 29.500 C 90.446 29.500,90.333 29.613,90.333 29.750 C 90.333 29.887,90.253 30.000,90.154 30.000 C 89.921 30.000,89.000 30.921,89.000 31.154 C 89.000 31.253,88.888 31.333,88.750 31.333 C 88.597 31.333,88.500 31.489,88.500 31.732 C 88.500 31.952,88.388 32.174,88.250 32.227 C 88.112 32.280,88.000 32.513,88.000 32.745 C 88.000 33.009,87.906 33.167,87.750 33.167 C 87.594 33.167,87.500 33.324,87.500 33.583 C 87.500 33.813,87.425 34.000,87.333 34.000 C 87.242 34.000,87.167 34.337,87.167 34.750 C 87.167 35.306,87.102 35.500,86.917 35.500 C 86.701 35.500,86.667 36.056,86.667 39.505 C 86.667 42.912,86.704 43.525,86.917 43.606 C 87.080 43.669,87.167 43.928,87.167 44.351 C 87.167 44.708,87.242 45.000,87.333 45.000 C 87.425 45.000,87.500 45.188,87.500 45.417 C 87.500 45.676,87.594 45.833,87.750 45.833 C 87.917 45.833,88.000 46.000,88.000 46.333 C 88.000 46.667,88.083 46.833,88.250 46.833 C 88.406 46.833,88.500 46.991,88.500 47.250 C 88.500 47.509,88.594 47.667,88.750 47.667 C 88.888 47.667,89.000 47.752,89.000 47.856 C 89.000 47.960,89.188 48.219,89.417 48.431 C 89.646 48.644,89.833 48.896,89.833 48.992 C 89.833 49.088,89.946 49.167,90.083 49.167 C 90.221 49.167,90.333 49.242,90.333 49.333 C 90.333 49.425,90.446 49.500,90.583 49.500 C 90.721 49.500,90.833 49.612,90.833 49.750 C 90.833 49.887,90.938 50.000,91.066 50.000 C 91.193 50.000,91.341 50.112,91.394 50.250 C 91.446 50.387,91.642 50.500,91.828 50.500 C 92.014 50.500,92.167 50.575,92.167 50.667 C 92.167 50.758,92.354 50.833,92.583 50.833 C 92.843 50.833,93.000 50.928,93.000 51.083 C 93.000 51.250,93.167 51.333,93.500 51.333 C 93.833 51.333,94.000 51.417,94.000 51.583 C 94.000 51.763,94.183 51.833,94.649 51.833 C 95.072 51.833,95.331 51.920,95.394 52.083 C 95.537 52.458,101.667 52.458,101.667 52.083 C 101.667 51.898,101.861 51.833,102.417 51.833 C 102.972 51.833,103.167 51.769,103.167 51.583 C 103.167 51.411,103.340 51.333,103.727 51.333 C 104.129 51.333,104.374 51.216,104.600 50.917 C 104.774 50.684,105.082 50.500,105.295 50.500 C 105.505 50.500,105.720 50.387,105.773 50.250 C 105.826 50.112,105.973 50.000,106.101 50.000 C 106.434 50.000,106.418 51.265,106.083 51.394 C 105.946 51.446,105.833 51.679,105.833 51.911 C 105.833 52.175,105.740 52.333,105.583 52.333 C 105.446 52.333,105.333 52.446,105.333 52.583 C 105.333 52.721,105.258 52.833,105.167 52.833 C 105.075 52.833,105.000 53.021,105.000 53.250 C 105.000 53.509,104.906 53.667,104.750 53.667 C 104.612 53.667,104.500 53.779,104.500 53.917 C 104.500 54.073,104.342 54.167,104.078 54.167 C 103.846 54.167,103.613 54.279,103.560 54.417 C 103.508 54.554,103.285 54.667,103.066 54.667 C 102.846 54.667,102.667 54.742,102.667 54.833 C 102.667 54.925,102.477 55.000,102.245 55.000 C 102.013 55.000,101.780 55.112,101.727 55.250 C 101.656 55.436,101.359 55.500,100.566 55.500 C 99.730 55.500,99.500 55.554,99.500 55.750 C 99.500 55.935,99.306 56.000,98.750 56.000 C 98.194 56.000,98.000 55.935,98.000 55.750 C 98.000 55.553,97.768 55.500,96.911 55.500 C 96.098 55.500,95.799 55.437,95.727 55.250 C 95.664 55.087,95.405 55.000,94.982 55.000 C 94.625 55.000,94.333 54.925,94.333 54.833 C 94.333 54.742,94.146 54.667,93.917 54.667 C 93.657 54.667,93.500 54.572,93.500 54.417 C 93.500 54.279,93.396 54.167,93.268 54.167 C 93.140 54.167,92.992 54.054,92.940 53.917 C 92.887 53.779,92.699 53.667,92.523 53.667 C 92.347 53.667,92.159 53.554,92.106 53.417 C 92.046 53.260,91.791 53.167,91.422 53.167 C 91.010 53.167,90.833 53.242,90.833 53.417 C 90.833 53.554,90.721 53.667,90.583 53.667 C 90.417 53.667,90.333 53.833,90.333 54.167 C 90.333 54.500,90.250 54.667,90.083 54.667 C 89.931 54.667,89.833 54.822,89.833 55.066 C 89.833 55.285,89.721 55.508,89.583 55.560 C 89.446 55.613,89.333 55.846,89.333 56.078 C 89.333 56.310,89.258 56.500,89.167 56.500 C 89.075 56.500,89.000 56.688,89.000 56.917 C 89.000 57.176,88.906 57.333,88.750 57.333 C 88.583 57.333,88.500 57.500,88.500 57.833 C 88.500 58.175,88.418 58.333,88.240 58.333 C 87.754 58.333,87.995 59.571,88.495 59.641 C 88.721 59.673,89.061 59.880,89.250 60.100 C 89.439 60.320,89.760 60.500,89.964 60.500 C 90.181 60.500,90.333 60.603,90.333 60.750 C 90.333 60.903,90.489 61.000,90.732 61.000 C 90.952 61.000,91.174 61.112,91.227 61.250 C 91.280 61.387,91.513 61.500,91.745 61.500 C 91.977 61.500,92.167 61.575,92.167 61.667 C 92.167 61.758,92.459 61.833,92.816 61.833 C 93.238 61.833,93.498 61.920,93.560 62.083 C 93.632 62.270,93.931 62.333,94.745 62.333 C 95.601 62.333,95.833 62.387,95.833 62.583 C 95.833 62.798,96.343 62.833,99.422 62.833 C 102.458 62.833,103.025 62.795,103.106 62.583 C 103.174 62.408,103.447 62.333,104.018 62.333 C 104.632 62.333,104.833 62.271,104.833 62.083 C 104.833 61.917,105.000 61.833,105.333 61.833 C 105.608 61.833,105.833 61.758,105.833 61.667 C 105.833 61.575,106.053 61.500,106.321 61.500 C 106.590 61.500,106.922 61.388,107.060 61.250 C 107.197 61.112,107.390 61.000,107.488 61.000 C 107.586 61.000,107.667 60.887,107.667 60.750 C 107.667 60.594,107.824 60.500,108.083 60.500 C 108.343 60.500,108.500 60.406,108.500 60.250 C 108.500 60.112,108.612 60.000,108.750 60.000 C 108.888 60.000,109.000 59.925,109.000 59.833 C 109.000 59.742,109.112 59.667,109.250 59.667 C 109.388 59.667,109.500 59.554,109.500 59.417 C 109.500 59.279,109.612 59.167,109.750 59.167 C 109.888 59.167,110.000 59.054,110.000 58.917 C 110.000 58.779,110.075 58.667,110.167 58.667 C 110.258 58.667,110.333 58.554,110.333 58.417 C 110.333 58.279,110.407 58.167,110.498 58.167 C 110.824 58.167,111.333 57.585,111.333 57.213 C 111.333 56.987,111.434 56.833,111.583 56.833 C 111.721 56.833,111.833 56.721,111.833 56.583 C 111.833 56.446,111.908 56.333,112.000 56.333 C 112.092 56.333,112.167 56.033,112.167 55.667 C 112.167 55.185,112.236 55.000,112.417 55.000 C 112.597 55.000,112.667 54.815,112.667 54.333 C 112.667 53.852,112.736 53.667,112.917 53.667 C 113.115 53.667,113.167 53.428,113.167 52.518 C 113.167 51.648,113.228 51.346,113.418 51.273 C 113.639 51.188,113.664 49.715,113.626 38.963 L 113.583 26.750 109.500 26.750 L 105.417 26.750 105.333 27.740 C 105.255 28.667,105.232 28.712,104.970 28.448 C 104.816 28.293,104.535 28.167,104.345 28.167 C 104.149 28.167,104.000 28.058,104.000 27.917 C 104.000 27.779,103.896 27.667,103.768 27.667 C 103.640 27.667,103.492 27.554,103.440 27.417 C 103.387 27.279,103.210 27.164,103.047 27.161 C 102.884 27.158,102.604 27.046,102.426 26.911 C 102.249 26.777,101.817 26.667,101.468 26.667 C 101.119 26.667,100.833 26.592,100.833 26.500 C 100.833 26.396,99.889 26.333,98.333 26.333 C 96.778 26.333,95.833 26.396,95.833 26.500 M132.333 26.500 C 132.333 26.592,132.048 26.667,131.699 26.667 C 131.349 26.667,130.918 26.777,130.740 26.911 C 130.562 27.046,130.248 27.158,130.042 27.161 C 129.822 27.164,129.667 27.270,129.667 27.417 C 129.667 27.568,129.512 27.667,129.273 27.667 C 129.048 27.667,128.746 27.845,128.567 28.083 C 128.395 28.313,128.160 28.500,128.044 28.500 C 127.928 28.500,127.833 28.613,127.833 28.750 C 127.833 28.887,127.721 29.000,127.583 29.000 C 127.385 29.000,127.333 28.759,127.333 27.830 L 127.333 26.661 123.292 26.705 L 119.250 26.750 119.207 39.708 L 119.165 52.667 123.249 52.667 L 127.333 52.667 127.333 45.905 C 127.333 40.116,127.369 39.107,127.583 38.893 C 127.721 38.755,127.833 38.423,127.833 38.155 C 127.833 37.886,127.908 37.667,128.000 37.667 C 128.092 37.667,128.167 37.367,128.167 37.000 C 128.167 36.519,128.236 36.333,128.417 36.333 C 128.554 36.333,128.667 36.221,128.667 36.083 C 128.667 35.946,128.779 35.833,128.917 35.833 C 129.054 35.833,129.167 35.734,129.167 35.611 C 129.167 35.489,129.354 35.289,129.583 35.167 C 129.813 35.044,130.000 34.844,130.000 34.722 C 130.000 34.586,130.195 34.500,130.500 34.500 C 130.833 34.500,131.000 34.417,131.000 34.250 C 131.000 34.043,131.315 34.000,132.833 34.000 L 134.667 34.000 134.667 30.167 L 134.667 26.333 133.500 26.333 C 132.833 26.333,132.333 26.405,132.333 26.500 M147.500 26.500 C 147.500 26.592,147.168 26.667,146.762 26.667 C 146.328 26.667,145.921 26.770,145.774 26.917 C 145.636 27.054,145.331 27.167,145.095 27.167 C 144.825 27.167,144.667 27.259,144.667 27.417 C 144.667 27.572,144.509 27.667,144.250 27.667 C 143.991 27.667,143.833 27.761,143.833 27.917 C 143.833 28.074,143.675 28.167,143.405 28.167 C 142.965 28.167,142.500 28.503,142.500 28.821 C 142.500 28.920,142.343 29.000,142.151 29.000 C 141.688 29.000,139.667 31.021,139.667 31.485 C 139.667 31.676,139.581 31.833,139.477 31.833 C 139.197 31.833,138.845 32.362,138.839 32.792 C 138.836 33.012,138.730 33.167,138.583 33.167 C 138.431 33.167,138.333 33.322,138.333 33.566 C 138.333 33.785,138.221 34.008,138.083 34.060 C 137.925 34.121,137.833 34.377,137.833 34.757 C 137.833 35.087,137.721 35.470,137.583 35.607 C 137.375 35.815,137.333 36.523,137.333 39.850 C 137.333 43.246,137.371 43.858,137.583 43.940 C 137.747 44.002,137.833 44.262,137.833 44.690 C 137.833 45.117,137.920 45.377,138.083 45.440 C 138.221 45.492,138.333 45.715,138.333 45.934 C 138.333 46.178,138.431 46.333,138.583 46.333 C 138.750 46.333,138.833 46.500,138.833 46.833 C 138.833 47.108,138.907 47.333,138.997 47.333 C 139.087 47.333,139.207 47.521,139.265 47.750 C 139.322 47.979,139.436 48.167,139.518 48.167 C 139.600 48.167,139.667 48.279,139.667 48.417 C 139.667 48.554,139.779 48.667,139.917 48.667 C 140.054 48.667,140.167 48.779,140.167 48.917 C 140.167 49.054,140.247 49.167,140.345 49.167 C 140.576 49.167,141.000 49.591,141.000 49.821 C 141.000 49.920,141.112 50.000,141.250 50.000 C 141.387 50.000,141.500 50.112,141.500 50.250 C 141.500 50.387,141.612 50.500,141.750 50.500 C 141.887 50.500,142.000 50.575,142.000 50.667 C 142.000 50.758,142.188 50.833,142.417 50.833 C 142.676 50.833,142.833 50.928,142.833 51.083 C 142.833 51.221,142.938 51.333,143.066 51.333 C 143.193 51.333,143.341 51.446,143.394 51.583 C 143.446 51.721,143.671 51.833,143.894 51.833 C 144.116 51.833,144.341 51.946,144.394 52.083 C 144.454 52.240,144.709 52.333,145.078 52.333 C 145.402 52.333,145.667 52.408,145.667 52.500 C 145.667 52.592,146.079 52.667,146.583 52.667 C 147.287 52.667,147.500 52.725,147.500 52.917 C 147.500 53.131,147.991 53.167,150.917 53.167 C 153.843 53.167,154.333 53.131,154.333 52.917 C 154.333 52.725,154.546 52.667,155.250 52.667 C 155.754 52.667,156.167 52.592,156.167 52.500 C 156.167 52.408,156.432 52.333,156.755 52.333 C 157.125 52.333,157.380 52.240,157.440 52.083 C 157.492 51.946,157.715 51.833,157.934 51.833 C 158.178 51.833,158.333 51.736,158.333 51.583 C 158.333 51.446,158.446 51.333,158.583 51.333 C 158.721 51.333,158.833 51.221,158.833 51.083 C 158.833 50.937,158.988 50.831,159.208 50.828 C 159.638 50.822,160.167 50.470,160.167 50.190 C 160.167 50.085,160.279 50.000,160.417 50.000 C 160.554 50.000,160.667 49.887,160.667 49.750 C 160.667 49.612,160.748 49.500,160.848 49.500 C 161.051 49.500,161.652 48.834,161.661 48.600 C 161.669 48.397,160.561 47.333,160.342 47.333 C 160.245 47.333,160.167 47.253,160.167 47.154 C 160.167 46.921,159.246 46.000,159.013 46.000 C 158.914 46.000,158.833 45.887,158.833 45.750 C 158.833 45.612,158.721 45.500,158.583 45.500 C 158.446 45.500,158.333 45.387,158.333 45.250 C 158.333 45.112,158.266 45.000,158.185 45.000 C 158.103 45.000,157.989 44.813,157.932 44.583 C 157.746 43.843,156.474 43.982,155.647 44.833 C 155.292 45.200,154.850 45.500,154.667 45.500 C 154.482 45.500,154.333 45.611,154.333 45.750 C 154.333 45.917,154.167 46.000,153.833 46.000 C 153.558 46.000,153.333 46.075,153.333 46.167 C 153.333 46.270,152.472 46.333,151.083 46.333 C 149.694 46.333,148.833 46.270,148.833 46.167 C 148.833 46.075,148.608 46.000,148.333 46.000 C 148.000 46.000,147.833 45.917,147.833 45.750 C 147.833 45.612,147.721 45.500,147.583 45.500 C 147.446 45.500,147.333 45.387,147.333 45.250 C 147.333 45.094,147.176 45.000,146.917 45.000 C 146.657 45.000,146.500 44.906,146.500 44.750 C 146.500 44.612,146.387 44.500,146.250 44.500 C 146.094 44.500,146.000 44.343,146.000 44.083 C 146.000 43.854,145.925 43.667,145.833 43.667 C 145.742 43.667,145.667 43.554,145.667 43.417 C 145.667 43.279,145.554 43.167,145.417 43.167 C 145.279 43.167,145.167 43.054,145.167 42.917 C 145.167 42.697,146.296 42.667,154.333 42.667 L 163.500 42.667 163.500 39.012 C 163.500 35.985,163.457 35.314,163.250 35.107 C 163.112 34.970,163.000 34.589,163.000 34.262 C 163.000 33.844,162.926 33.667,162.750 33.667 C 162.583 33.667,162.500 33.500,162.500 33.167 C 162.500 32.833,162.417 32.667,162.250 32.667 C 162.094 32.667,162.000 32.509,162.000 32.250 C 162.000 32.021,161.933 31.833,161.851 31.833 C 161.770 31.833,161.653 31.636,161.593 31.395 C 161.476 30.929,160.646 30.000,160.346 30.000 C 160.247 30.000,160.167 29.887,160.167 29.750 C 160.167 29.613,160.054 29.500,159.917 29.500 C 159.779 29.500,159.667 29.387,159.667 29.250 C 159.667 29.094,159.509 29.000,159.250 29.000 C 158.991 29.000,158.833 28.906,158.833 28.750 C 158.833 28.613,158.721 28.500,158.583 28.500 C 158.446 28.500,158.333 28.425,158.333 28.333 C 158.333 28.242,158.146 28.167,157.917 28.167 C 157.657 28.167,157.500 28.072,157.500 27.917 C 157.500 27.750,157.333 27.667,157.000 27.667 C 156.667 27.667,156.500 27.583,156.500 27.417 C 156.500 27.263,156.344 27.167,156.097 27.167 C 155.876 27.167,155.666 27.082,155.632 26.979 C 155.597 26.876,155.177 26.753,154.698 26.707 C 154.219 26.661,153.786 26.558,153.737 26.478 C 153.608 26.270,147.500 26.291,147.500 26.500 M176.667 26.500 C 176.667 26.592,176.335 26.667,175.929 26.667 C 175.495 26.667,175.087 26.770,174.940 26.917 C 174.803 27.054,174.458 27.167,174.173 27.167 C 173.867 27.167,173.617 27.269,173.560 27.417 C 173.508 27.554,173.285 27.667,173.066 27.667 C 172.822 27.667,172.667 27.764,172.667 27.917 C 172.667 28.054,172.554 28.167,172.417 28.167 C 172.279 28.167,172.167 28.234,172.167 28.315 C 172.167 28.397,171.979 28.511,171.750 28.568 C 171.521 28.626,171.333 28.747,171.333 28.837 C 171.333 28.926,171.221 29.000,171.083 29.000 C 170.946 29.000,170.833 29.113,170.833 29.250 C 170.833 29.387,170.721 29.500,170.583 29.500 C 170.446 29.500,170.333 29.613,170.333 29.750 C 170.333 29.887,170.253 30.000,170.154 30.000 C 169.921 30.000,169.000 30.921,169.000 31.154 C 169.000 31.253,168.887 31.333,168.750 31.333 C 168.594 31.333,168.500 31.491,168.500 31.750 C 168.500 32.009,168.406 32.167,168.250 32.167 C 168.112 32.167,168.000 32.279,168.000 32.417 C 168.000 32.554,167.931 32.667,167.847 32.667 C 167.762 32.667,167.644 32.892,167.583 33.167 C 167.523 33.442,167.404 33.667,167.320 33.667 C 167.236 33.667,167.167 33.967,167.167 34.333 C 167.167 34.815,167.097 35.000,166.917 35.000 C 166.721 35.000,166.667 35.230,166.667 36.066 C 166.667 36.859,166.603 37.156,166.417 37.227 C 166.210 37.306,166.167 37.746,166.167 39.745 C 166.167 41.786,166.206 42.167,166.417 42.167 C 166.615 42.167,166.667 42.407,166.667 43.333 C 166.667 44.259,166.718 44.500,166.917 44.500 C 167.097 44.500,167.167 44.685,167.167 45.167 C 167.167 45.533,167.242 45.833,167.333 45.833 C 167.425 45.833,167.500 46.023,167.500 46.255 C 167.500 46.487,167.612 46.720,167.750 46.773 C 167.887 46.826,168.000 47.013,168.000 47.190 C 168.000 47.366,168.112 47.554,168.250 47.606 C 168.387 47.659,168.500 47.807,168.500 47.934 C 168.500 48.062,168.612 48.167,168.750 48.167 C 168.887 48.167,169.000 48.247,169.000 48.346 C 169.000 48.579,169.921 49.500,170.154 49.500 C 170.253 49.500,170.333 49.612,170.333 49.750 C 170.333 49.887,170.446 50.000,170.583 50.000 C 170.721 50.000,170.833 50.080,170.833 50.179 C 170.833 50.401,171.254 50.833,171.470 50.833 C 171.559 50.833,171.674 50.946,171.727 51.083 C 171.780 51.221,172.013 51.333,172.245 51.333 C 172.509 51.333,172.667 51.427,172.667 51.583 C 172.667 51.739,172.824 51.833,173.083 51.833 C 173.343 51.833,173.500 51.928,173.500 52.083 C 173.500 52.264,173.685 52.333,174.167 52.333 C 174.533 52.333,174.833 52.408,174.833 52.500 C 174.833 52.592,175.171 52.667,175.583 52.667 C 176.139 52.667,176.333 52.731,176.333 52.917 C 176.333 53.131,176.843 53.167,179.917 53.167 C 182.991 53.167,183.500 53.131,183.500 52.917 C 183.500 52.725,183.713 52.667,184.417 52.667 C 184.921 52.667,185.333 52.592,185.333 52.500 C 185.333 52.408,185.558 52.333,185.833 52.333 C 186.167 52.333,186.333 52.250,186.333 52.083 C 186.333 51.928,186.491 51.833,186.750 51.833 C 187.009 51.833,187.167 51.739,187.167 51.583 C 187.167 51.417,187.333 51.333,187.667 51.333 C 187.942 51.333,188.167 51.253,188.167 51.155 C 188.167 50.859,188.620 50.500,188.993 50.500 C 189.186 50.500,189.387 50.387,189.440 50.250 C 189.492 50.112,189.640 50.000,189.768 50.000 C 189.896 50.000,190.000 49.887,190.000 49.750 C 190.000 49.612,190.075 49.500,190.167 49.500 C 190.673 49.500,190.325 47.991,189.667 47.333 C 189.300 46.967,189.000 46.592,189.000 46.500 C 189.000 46.408,188.920 46.333,188.821 46.333 C 188.591 46.333,188.167 45.909,188.167 45.679 C 188.167 45.580,188.054 45.500,187.917 45.500 C 187.779 45.500,187.667 45.387,187.667 45.250 C 187.667 45.112,187.554 45.000,187.417 45.000 C 187.279 45.000,187.167 44.887,187.167 44.750 C 187.167 44.612,187.054 44.500,186.917 44.500 C 186.779 44.500,186.667 44.425,186.667 44.333 C 186.667 44.242,186.399 44.167,186.071 44.167 C 185.489 44.167,185.000 44.466,185.000 44.821 C 185.000 44.920,184.887 45.000,184.750 45.000 C 184.612 45.000,184.500 45.112,184.500 45.250 C 184.500 45.417,184.333 45.500,184.000 45.500 C 183.667 45.500,183.500 45.583,183.500 45.750 C 183.500 45.924,183.325 46.000,182.927 46.000 C 182.611 46.000,182.307 46.075,182.250 46.167 C 182.190 46.263,181.276 46.333,180.073 46.333 C 178.802 46.333,178.000 46.269,178.000 46.167 C 178.000 46.075,177.821 46.000,177.601 46.000 C 177.382 46.000,177.159 45.887,177.106 45.750 C 177.054 45.612,176.821 45.500,176.589 45.500 C 176.357 45.500,176.167 45.419,176.167 45.321 C 176.167 45.087,175.246 44.167,175.013 44.167 C 174.914 44.167,174.833 43.977,174.833 43.745 C 174.833 43.513,174.721 43.280,174.583 43.227 C 174.446 43.174,174.333 43.027,174.333 42.899 C 174.333 42.703,175.776 42.667,183.500 42.667 L 192.667 42.667 192.667 39.250 C 192.667 36.324,192.631 35.833,192.417 35.833 C 192.225 35.833,192.167 35.620,192.167 34.917 C 192.167 34.412,192.101 34.000,192.021 34.000 C 191.941 34.000,191.828 33.700,191.769 33.333 C 191.711 32.967,191.589 32.667,191.498 32.667 C 191.407 32.667,191.333 32.479,191.333 32.250 C 191.333 31.991,191.239 31.833,191.083 31.833 C 190.946 31.833,190.833 31.721,190.833 31.583 C 190.833 31.446,190.721 31.333,190.583 31.333 C 190.446 31.333,190.333 31.221,190.333 31.083 C 190.333 30.946,190.266 30.833,190.185 30.833 C 190.103 30.833,189.989 30.646,189.932 30.417 C 189.855 30.112,189.716 30.000,189.413 30.000 C 189.157 30.000,189.000 29.905,189.000 29.750 C 189.000 29.613,188.887 29.500,188.750 29.500 C 188.612 29.500,188.500 29.413,188.500 29.307 C 188.500 28.982,187.465 28.167,187.053 28.167 C 186.821 28.167,186.667 28.067,186.667 27.917 C 186.667 27.764,186.511 27.667,186.268 27.667 C 186.048 27.667,185.826 27.554,185.773 27.417 C 185.714 27.262,185.460 27.167,185.106 27.167 C 184.753 27.167,184.499 27.072,184.440 26.917 C 184.372 26.740,184.097 26.667,183.505 26.667 C 183.044 26.667,182.667 26.592,182.667 26.500 C 182.667 26.395,181.556 26.333,179.667 26.333 C 177.778 26.333,176.667 26.395,176.667 26.500 M209.167 26.500 C 209.167 26.592,208.867 26.667,208.500 26.667 C 208.019 26.667,207.833 26.736,207.833 26.917 C 207.833 27.092,207.657 27.167,207.245 27.167 C 206.875 27.167,206.620 27.260,206.560 27.417 C 206.508 27.554,206.360 27.667,206.232 27.667 C 206.104 27.667,206.000 27.779,206.000 27.917 C 206.000 28.072,205.843 28.167,205.583 28.167 C 205.354 28.167,205.167 28.242,205.167 28.333 C 205.167 28.425,205.060 28.500,204.929 28.500 C 204.798 28.500,204.657 28.631,204.615 28.792 C 204.573 28.952,204.530 28.540,204.519 27.875 L 204.500 26.667 200.667 26.667 L 196.833 26.667 196.833 39.667 L 196.833 52.667 200.667 52.667 L 204.500 52.667 204.500 45.167 C 204.500 38.611,204.531 37.667,204.750 37.667 C 204.942 37.667,205.000 37.454,205.000 36.750 C 205.000 36.046,205.058 35.833,205.250 35.833 C 205.391 35.833,205.500 35.684,205.500 35.492 C 205.500 35.304,205.688 34.977,205.917 34.765 C 206.146 34.552,206.333 34.293,206.333 34.189 C 206.333 34.085,206.446 34.000,206.583 34.000 C 206.721 34.000,206.833 33.887,206.833 33.750 C 206.833 33.596,206.990 33.500,207.240 33.500 C 207.464 33.500,207.687 33.435,207.736 33.355 C 207.786 33.276,208.128 33.162,208.496 33.103 C 208.865 33.044,209.167 32.922,209.167 32.831 C 209.167 32.574,209.995 32.638,210.274 32.917 C 210.411 33.054,210.708 33.167,210.934 33.167 C 211.333 33.167,212.333 34.005,212.333 34.339 C 212.333 34.428,212.446 34.500,212.583 34.500 C 212.764 34.500,212.833 34.685,212.833 35.167 C 212.833 35.648,212.903 35.833,213.083 35.833 C 213.302 35.833,213.333 36.880,213.333 44.250 L 213.333 52.667 217.417 52.667 L 221.500 52.667 221.500 43.661 C 221.500 35.811,221.468 34.644,221.250 34.560 C 221.071 34.491,221.000 34.211,221.000 33.566 C 221.000 32.878,220.941 32.667,220.750 32.667 C 220.594 32.667,220.500 32.509,220.500 32.250 C 220.500 32.021,220.425 31.833,220.333 31.833 C 220.242 31.833,220.167 31.608,220.167 31.333 C 220.167 31.000,220.083 30.833,219.917 30.833 C 219.761 30.833,219.667 30.676,219.667 30.417 C 219.667 30.157,219.572 30.000,219.417 30.000 C 219.279 30.000,219.167 29.887,219.167 29.750 C 219.167 29.613,219.054 29.500,218.917 29.500 C 218.779 29.500,218.667 29.419,218.667 29.321 C 218.667 29.087,217.746 28.167,217.513 28.167 C 217.414 28.167,217.333 28.054,217.333 27.917 C 217.333 27.761,217.176 27.667,216.917 27.667 C 216.657 27.667,216.500 27.572,216.500 27.417 C 216.500 27.252,216.335 27.167,216.018 27.167 C 215.743 27.167,215.494 27.059,215.440 26.917 C 215.380 26.760,215.125 26.667,214.755 26.667 C 214.432 26.667,214.167 26.592,214.167 26.500 C 214.167 26.396,213.222 26.333,211.667 26.333 C 210.111 26.333,209.167 26.396,209.167 26.500 M307.917 26.500 C 307.860 26.592,307.523 26.667,307.169 26.667 C 306.814 26.667,306.411 26.779,306.274 26.917 C 306.136 27.054,305.831 27.167,305.595 27.167 C 305.325 27.167,305.167 27.259,305.167 27.417 C 305.167 27.572,305.009 27.667,304.750 27.667 C 304.491 27.667,304.333 27.761,304.333 27.917 C 304.333 28.083,304.167 28.167,303.833 28.167 C 303.558 28.167,303.333 28.242,303.333 28.333 C 303.333 28.425,303.221 28.500,303.083 28.500 C 302.946 28.500,302.833 28.613,302.833 28.750 C 302.833 28.890,302.685 29.000,302.495 29.000 C 302.309 29.000,302.113 29.113,302.060 29.250 C 302.008 29.387,301.860 29.500,301.732 29.500 C 301.604 29.500,301.500 29.613,301.500 29.750 C 301.500 29.887,301.420 30.000,301.321 30.000 C 301.091 30.000,300.667 30.424,300.667 30.655 C 300.667 30.753,300.554 30.833,300.417 30.833 C 300.250 30.833,300.167 31.000,300.167 31.333 C 300.167 31.608,300.093 31.833,300.002 31.833 C 299.676 31.833,299.167 32.415,299.167 32.787 C 299.167 32.996,299.092 33.167,299.000 33.167 C 298.908 33.167,298.833 33.354,298.833 33.583 C 298.833 33.843,298.739 34.000,298.583 34.000 C 298.398 34.000,298.333 34.194,298.333 34.750 C 298.333 35.306,298.269 35.500,298.083 35.500 C 297.879 35.500,297.833 35.779,297.833 37.012 C 297.833 38.134,297.769 38.588,297.583 38.774 C 297.428 38.929,297.333 39.338,297.333 39.850 C 297.333 40.432,297.408 40.706,297.583 40.773 C 297.781 40.849,297.833 41.197,297.833 42.434 C 297.833 43.715,297.879 44.000,298.083 44.000 C 298.269 44.000,298.333 44.194,298.333 44.750 C 298.333 45.306,298.398 45.500,298.583 45.500 C 298.739 45.500,298.833 45.657,298.833 45.917 C 298.833 46.146,298.908 46.333,299.000 46.333 C 299.092 46.333,299.167 46.523,299.167 46.755 C 299.167 46.987,299.279 47.220,299.417 47.273 C 299.554 47.326,299.667 47.513,299.667 47.690 C 299.667 47.866,299.779 48.054,299.917 48.106 C 300.054 48.159,300.167 48.307,300.167 48.434 C 300.167 48.562,300.279 48.667,300.417 48.667 C 300.554 48.667,300.667 48.747,300.667 48.845 C 300.667 49.076,301.091 49.500,301.321 49.500 C 301.420 49.500,301.500 49.612,301.500 49.750 C 301.500 49.887,301.612 50.000,301.750 50.000 C 301.887 50.000,302.000 50.112,302.000 50.250 C 302.000 50.387,302.112 50.500,302.250 50.500 C 302.387 50.500,302.500 50.575,302.500 50.667 C 302.500 50.758,302.688 50.833,302.917 50.833 C 303.176 50.833,303.333 50.928,303.333 51.083 C 303.333 51.221,303.438 51.333,303.566 51.333 C 303.693 51.333,303.841 51.446,303.894 51.583 C 303.946 51.721,304.134 51.833,304.310 51.833 C 304.487 51.833,304.674 51.946,304.727 52.083 C 304.790 52.248,305.051 52.333,305.495 52.333 C 305.864 52.333,306.167 52.408,306.167 52.500 C 306.167 52.592,306.467 52.667,306.833 52.667 C 307.315 52.667,307.500 52.736,307.500 52.917 C 307.500 53.131,308.009 53.167,311.083 53.167 C 314.157 53.167,314.667 53.131,314.667 52.917 C 314.667 52.725,314.880 52.667,315.583 52.667 C 316.087 52.667,316.500 52.592,316.500 52.500 C 316.500 52.408,316.725 52.333,317.000 52.333 C 317.333 52.333,317.500 52.250,317.500 52.083 C 317.500 51.908,317.677 51.833,318.089 51.833 C 318.458 51.833,318.713 51.740,318.773 51.583 C 318.826 51.446,318.973 51.333,319.101 51.333 C 319.229 51.333,319.333 51.221,319.333 51.083 C 319.333 50.928,319.491 50.833,319.750 50.833 C 319.979 50.833,320.167 50.758,320.167 50.667 C 320.167 50.575,320.279 50.500,320.417 50.500 C 320.554 50.500,320.667 50.387,320.667 50.250 C 320.667 50.112,320.779 50.000,320.917 50.000 C 321.054 50.000,321.167 49.887,321.167 49.750 C 321.167 49.612,321.279 49.500,321.417 49.500 C 321.554 49.500,321.667 49.387,321.667 49.250 C 321.667 49.112,321.742 49.000,321.833 49.000 C 321.925 49.000,322.000 48.864,322.000 48.697 C 322.000 48.349,321.151 47.333,320.860 47.333 C 320.754 47.333,320.667 47.221,320.667 47.083 C 320.667 46.946,320.554 46.833,320.417 46.833 C 320.279 46.833,320.167 46.753,320.167 46.655 C 320.167 46.424,319.743 46.000,319.512 46.000 C 319.414 46.000,319.333 45.887,319.333 45.750 C 319.333 45.612,319.221 45.500,319.083 45.500 C 318.946 45.500,318.833 45.387,318.833 45.250 C 318.833 45.112,318.721 45.000,318.583 45.000 C 318.446 45.000,318.333 44.920,318.333 44.821 C 318.333 44.466,317.844 44.167,317.262 44.167 C 316.935 44.167,316.667 44.242,316.667 44.333 C 316.667 44.425,316.554 44.500,316.417 44.500 C 316.279 44.500,316.167 44.612,316.167 44.750 C 316.167 44.887,316.054 45.000,315.917 45.000 C 315.779 45.000,315.667 45.112,315.667 45.250 C 315.667 45.406,315.509 45.500,315.250 45.500 C 314.991 45.500,314.833 45.594,314.833 45.750 C 314.833 45.917,314.667 46.000,314.333 46.000 C 314.058 46.000,313.833 46.075,313.833 46.167 C 313.833 46.270,312.972 46.333,311.583 46.333 C 310.194 46.333,309.333 46.270,309.333 46.167 C 309.333 46.075,309.108 46.000,308.833 46.000 C 308.500 46.000,308.333 45.917,308.333 45.750 C 308.333 45.594,308.176 45.500,307.917 45.500 C 307.657 45.500,307.500 45.406,307.500 45.250 C 307.500 45.112,307.387 45.000,307.250 45.000 C 307.112 45.000,307.000 44.887,307.000 44.750 C 307.000 44.612,306.887 44.500,306.750 44.500 C 306.612 44.500,306.500 44.425,306.500 44.333 C 306.500 44.242,306.387 44.167,306.250 44.167 C 306.083 44.167,306.000 44.000,306.000 43.667 C 306.000 43.392,305.925 43.167,305.833 43.167 C 305.742 43.167,305.667 43.054,305.667 42.917 C 305.667 42.698,306.787 42.667,314.750 42.667 L 323.833 42.667 323.833 39.083 C 323.833 36.806,323.773 35.500,323.667 35.500 C 323.575 35.500,323.500 35.123,323.500 34.661 C 323.500 34.070,323.426 33.795,323.250 33.727 C 323.107 33.672,323.000 33.424,323.000 33.149 C 323.000 32.831,322.915 32.667,322.750 32.667 C 322.594 32.667,322.500 32.509,322.500 32.250 C 322.500 31.991,322.406 31.833,322.250 31.833 C 322.112 31.833,322.000 31.721,322.000 31.583 C 322.000 31.446,321.933 31.333,321.851 31.333 C 321.770 31.333,321.656 31.146,321.598 30.917 C 321.541 30.688,321.420 30.500,321.330 30.500 C 321.240 30.500,321.167 30.387,321.167 30.250 C 321.167 30.113,321.054 30.000,320.917 30.000 C 320.779 30.000,320.667 29.887,320.667 29.750 C 320.667 29.613,320.554 29.500,320.417 29.500 C 320.279 29.500,320.167 29.387,320.167 29.250 C 320.167 29.094,320.009 29.000,319.750 29.000 C 319.491 29.000,319.333 28.906,319.333 28.750 C 319.333 28.613,319.221 28.500,319.083 28.500 C 318.946 28.500,318.833 28.425,318.833 28.333 C 318.833 28.242,318.646 28.167,318.417 28.167 C 318.157 28.167,318.000 28.072,318.000 27.917 C 318.000 27.750,317.833 27.667,317.500 27.667 C 317.167 27.667,317.000 27.583,317.000 27.417 C 317.000 27.270,316.845 27.164,316.625 27.161 C 316.419 27.158,316.104 27.046,315.926 26.911 C 315.736 26.768,315.238 26.667,314.718 26.667 C 314.231 26.667,313.833 26.592,313.833 26.500 C 313.833 26.395,312.753 26.333,310.927 26.333 C 309.168 26.333,307.979 26.399,307.917 26.500 M337.167 26.500 C 337.167 26.592,336.789 26.667,336.328 26.667 C 335.736 26.667,335.461 26.740,335.394 26.917 C 335.334 27.072,335.081 27.167,334.727 27.167 C 334.373 27.167,334.120 27.262,334.060 27.417 C 334.008 27.554,333.785 27.667,333.566 27.667 C 333.322 27.667,333.167 27.764,333.167 27.917 C 333.167 28.054,333.054 28.167,332.917 28.167 C 332.779 28.167,332.667 28.234,332.667 28.315 C 332.667 28.397,332.470 28.513,332.229 28.574 C 331.762 28.691,330.833 29.521,330.833 29.821 C 330.833 29.919,330.721 30.000,330.583 30.000 C 330.446 30.000,330.333 30.075,330.333 30.167 C 330.333 30.258,330.221 30.333,330.083 30.333 C 329.946 30.333,329.833 30.446,329.833 30.583 C 329.833 30.721,329.721 30.833,329.583 30.833 C 329.446 30.833,329.333 30.946,329.333 31.083 C 329.333 31.221,329.258 31.333,329.167 31.333 C 329.075 31.333,329.000 31.446,329.000 31.583 C 329.000 31.721,328.887 31.833,328.750 31.833 C 328.597 31.833,328.500 31.989,328.500 32.232 C 328.500 32.452,328.387 32.674,328.250 32.727 C 328.112 32.780,328.000 33.005,328.000 33.227 C 328.000 33.449,327.887 33.674,327.750 33.727 C 327.593 33.787,327.500 34.042,327.500 34.411 C 327.500 34.735,327.425 35.000,327.333 35.000 C 327.242 35.000,327.167 35.412,327.167 35.917 C 327.167 36.620,327.109 36.833,326.917 36.833 C 326.704 36.833,326.667 37.269,326.667 39.750 C 326.667 42.231,326.704 42.667,326.917 42.667 C 327.109 42.667,327.167 42.880,327.167 43.583 C 327.167 44.087,327.242 44.500,327.333 44.500 C 327.425 44.500,327.500 44.800,327.500 45.167 C 327.500 45.648,327.569 45.833,327.750 45.833 C 327.917 45.833,328.000 46.000,328.000 46.333 C 328.000 46.667,328.083 46.833,328.250 46.833 C 328.406 46.833,328.500 46.991,328.500 47.250 C 328.500 47.509,328.594 47.667,328.750 47.667 C 328.887 47.667,329.000 47.779,329.000 47.917 C 329.000 48.054,329.075 48.167,329.167 48.167 C 329.258 48.167,329.333 48.279,329.333 48.417 C 329.333 48.554,329.446 48.667,329.583 48.667 C 329.724 48.667,329.833 48.815,329.833 49.005 C 329.833 49.191,329.946 49.387,330.083 49.440 C 330.221 49.492,330.333 49.640,330.333 49.768 C 330.333 49.904,330.505 50.000,330.750 50.000 C 331.009 50.000,331.167 50.094,331.167 50.250 C 331.167 50.387,331.279 50.500,331.417 50.500 C 331.554 50.500,331.667 50.575,331.667 50.667 C 331.667 50.758,331.779 50.833,331.917 50.833 C 332.054 50.833,332.167 50.946,332.167 51.083 C 332.167 51.236,332.322 51.333,332.566 51.333 C 332.785 51.333,333.008 51.446,333.060 51.583 C 333.113 51.721,333.346 51.833,333.578 51.833 C 333.842 51.833,334.000 51.927,334.000 52.083 C 334.000 52.237,334.156 52.333,334.407 52.333 C 334.631 52.333,334.860 52.408,334.917 52.500 C 334.973 52.592,335.390 52.667,335.843 52.667 C 336.464 52.667,336.667 52.728,336.667 52.917 C 336.667 53.131,337.185 53.167,340.333 53.167 C 343.481 53.167,344.000 53.131,344.000 52.917 C 344.000 52.725,344.213 52.667,344.917 52.667 C 345.421 52.667,345.833 52.592,345.833 52.500 C 345.833 52.408,346.021 52.333,346.250 52.333 C 346.509 52.333,346.667 52.239,346.667 52.083 C 346.667 51.917,346.833 51.833,347.167 51.833 C 347.500 51.833,347.667 51.750,347.667 51.583 C 347.667 51.428,347.824 51.333,348.083 51.333 C 348.343 51.333,348.500 51.239,348.500 51.083 C 348.500 50.946,348.613 50.833,348.750 50.833 C 348.887 50.833,349.000 50.758,349.000 50.667 C 349.000 50.575,349.152 50.500,349.339 50.500 C 349.525 50.500,349.720 50.387,349.773 50.250 C 349.826 50.112,349.973 50.000,350.101 50.000 C 350.229 50.000,350.333 49.887,350.333 49.750 C 350.333 49.612,350.446 49.500,350.583 49.500 C 350.764 49.500,350.833 49.315,350.833 48.833 C 350.833 48.352,350.764 48.167,350.583 48.167 C 350.428 48.167,350.333 48.009,350.333 47.750 C 350.333 47.491,350.239 47.333,350.083 47.333 C 349.946 47.333,349.833 47.253,349.833 47.154 C 349.833 46.921,348.913 46.000,348.679 46.000 C 348.581 46.000,348.500 45.887,348.500 45.750 C 348.500 45.612,348.425 45.500,348.333 45.500 C 348.242 45.500,348.167 45.387,348.167 45.250 C 348.167 45.112,348.054 45.000,347.917 45.000 C 347.779 45.000,347.667 44.887,347.667 44.750 C 347.667 44.612,347.554 44.500,347.417 44.500 C 347.279 44.500,347.167 44.425,347.167 44.333 C 347.167 44.242,346.898 44.167,346.571 44.167 C 345.978 44.167,345.000 44.885,345.000 45.321 C 345.000 45.419,344.775 45.500,344.500 45.500 C 344.167 45.500,344.000 45.583,344.000 45.750 C 344.000 45.931,343.815 46.000,343.333 46.000 C 342.967 46.000,342.667 46.075,342.667 46.167 C 342.667 46.269,341.861 46.333,340.583 46.333 C 339.306 46.333,338.500 46.269,338.500 46.167 C 338.500 46.075,338.310 46.000,338.078 46.000 C 337.846 46.000,337.613 45.887,337.560 45.750 C 337.508 45.612,337.285 45.500,337.066 45.500 C 336.822 45.500,336.667 45.403,336.667 45.250 C 336.667 45.112,336.554 45.000,336.417 45.000 C 336.279 45.000,336.167 44.920,336.167 44.821 C 336.167 44.591,335.743 44.167,335.512 44.167 C 335.414 44.167,335.333 44.054,335.333 43.917 C 335.333 43.779,335.221 43.667,335.083 43.667 C 334.917 43.667,334.833 43.500,334.833 43.167 L 334.833 42.667 344.000 42.667 L 353.167 42.667 353.167 39.500 C 353.167 36.796,353.130 36.333,352.917 36.333 C 352.718 36.333,352.667 36.093,352.667 35.167 C 352.667 34.241,352.615 34.000,352.417 34.000 C 352.261 34.000,352.167 33.843,352.167 33.583 C 352.167 33.354,352.092 33.167,352.000 33.167 C 351.908 33.167,351.833 32.977,351.833 32.745 C 351.833 32.513,351.721 32.280,351.583 32.227 C 351.446 32.174,351.333 31.952,351.333 31.732 C 351.333 31.489,351.236 31.333,351.083 31.333 C 350.946 31.333,350.833 31.221,350.833 31.083 C 350.833 30.946,350.721 30.833,350.583 30.833 C 350.446 30.833,350.333 30.753,350.333 30.655 C 350.333 30.424,349.909 30.000,349.679 30.000 C 349.580 30.000,349.500 29.887,349.500 29.750 C 349.500 29.613,349.387 29.500,349.250 29.500 C 349.113 29.500,349.000 29.387,349.000 29.250 C 349.000 29.113,348.887 29.000,348.750 29.000 C 348.613 29.000,348.500 28.915,348.500 28.810 C 348.500 28.530,347.972 28.178,347.542 28.172 C 347.322 28.169,347.167 28.063,347.167 27.917 C 347.167 27.764,347.011 27.667,346.768 27.667 C 346.548 27.667,346.326 27.554,346.273 27.417 C 346.210 27.252,345.949 27.167,345.505 27.167 C 345.019 27.167,344.833 27.098,344.833 26.917 C 344.833 26.728,344.631 26.667,344.010 26.667 C 343.557 26.667,343.140 26.592,343.083 26.500 C 343.021 26.399,341.832 26.333,340.073 26.333 C 338.247 26.333,337.167 26.395,337.167 26.500 M377.917 26.500 C 377.860 26.592,377.532 26.667,377.189 26.667 C 376.845 26.667,376.418 26.777,376.240 26.911 C 376.062 27.046,375.748 27.158,375.542 27.161 C 375.322 27.164,375.167 27.270,375.167 27.417 C 375.167 27.583,375.000 27.667,374.667 27.667 C 374.333 27.667,374.167 27.750,374.167 27.917 C 374.167 28.054,374.054 28.167,373.917 28.167 C 373.779 28.167,373.667 28.237,373.667 28.322 C 373.667 28.408,373.498 28.531,373.292 28.595 C 372.833 28.739,371.833 29.768,371.833 30.095 C 371.833 30.226,371.758 30.333,371.667 30.333 C 371.575 30.333,371.500 30.438,371.500 30.566 C 371.500 30.693,371.387 30.841,371.250 30.894 C 371.095 30.953,371.000 31.207,371.000 31.560 C 371.000 31.914,370.905 32.168,370.750 32.227 C 370.544 32.306,370.500 32.737,370.500 34.667 C 370.500 36.596,370.544 37.027,370.750 37.106 C 370.893 37.161,371.000 37.410,371.000 37.684 C 371.000 38.002,371.085 38.167,371.250 38.167 C 371.391 38.167,371.500 38.316,371.500 38.508 C 371.500 38.944,372.516 40.000,372.936 40.000 C 373.111 40.000,373.395 40.188,373.567 40.417 C 373.746 40.655,374.048 40.833,374.273 40.833 C 374.512 40.833,374.667 40.932,374.667 41.083 C 374.667 41.236,374.822 41.333,375.066 41.333 C 375.285 41.333,375.508 41.446,375.560 41.583 C 375.613 41.721,375.846 41.833,376.078 41.833 C 376.310 41.833,376.500 41.908,376.500 42.000 C 376.500 42.092,376.800 42.167,377.167 42.167 C 377.648 42.167,377.833 42.236,377.833 42.417 C 377.833 42.596,378.017 42.667,378.482 42.667 C 378.905 42.667,379.164 42.754,379.227 42.917 C 379.290 43.082,379.551 43.167,379.995 43.167 C 380.481 43.167,380.667 43.236,380.667 43.417 C 380.667 43.572,380.824 43.667,381.083 43.667 C 381.313 43.667,381.500 43.742,381.500 43.833 C 381.500 43.925,381.725 44.000,382.000 44.000 C 382.333 44.000,382.500 44.083,382.500 44.250 C 382.500 44.387,382.575 44.500,382.667 44.500 C 382.758 44.500,382.833 44.612,382.833 44.750 C 382.833 44.887,382.946 45.000,383.083 45.000 C 383.250 45.000,383.333 45.167,383.333 45.500 C 383.333 45.775,383.253 46.000,383.155 46.000 C 382.924 46.000,382.500 46.424,382.500 46.655 C 382.500 46.773,381.715 46.833,380.167 46.833 C 378.204 46.833,377.833 46.794,377.833 46.583 C 377.833 46.403,377.648 46.333,377.167 46.333 C 376.800 46.333,376.500 46.258,376.500 46.167 C 376.500 46.075,376.275 46.000,376.000 46.000 C 375.667 46.000,375.500 45.917,375.500 45.750 C 375.500 45.594,375.343 45.500,375.083 45.500 C 374.824 45.500,374.667 45.406,374.667 45.250 C 374.667 45.112,374.562 45.000,374.434 45.000 C 374.307 45.000,374.159 44.887,374.106 44.750 C 374.054 44.612,373.858 44.500,373.672 44.500 C 373.486 44.500,373.333 44.425,373.333 44.333 C 373.333 44.242,373.028 44.167,372.655 44.167 C 372.000 44.167,371.500 44.450,371.500 44.821 C 371.500 44.920,371.387 45.000,371.250 45.000 C 371.083 45.000,371.000 45.167,371.000 45.500 C 371.000 45.775,370.920 46.000,370.821 46.000 C 370.599 46.000,370.167 46.421,370.167 46.637 C 370.167 46.725,370.054 46.841,369.917 46.894 C 369.779 46.946,369.663 47.123,369.660 47.286 C 369.656 47.450,369.431 47.767,369.160 47.992 C 368.619 48.440,368.529 48.791,368.917 48.940 C 369.054 48.992,369.167 49.140,369.167 49.268 C 369.167 49.396,369.279 49.500,369.417 49.500 C 369.554 49.500,369.667 49.612,369.667 49.750 C 369.667 49.887,369.779 50.000,369.917 50.000 C 370.054 50.000,370.167 50.112,370.167 50.250 C 370.167 50.406,370.324 50.500,370.583 50.500 C 370.813 50.500,371.000 50.575,371.000 50.667 C 371.000 50.758,371.188 50.833,371.417 50.833 C 371.676 50.833,371.833 50.928,371.833 51.083 C 371.833 51.250,372.000 51.333,372.333 51.333 C 372.667 51.333,372.833 51.417,372.833 51.583 C 372.833 51.736,372.989 51.833,373.232 51.833 C 373.452 51.833,373.674 51.946,373.727 52.083 C 373.790 52.248,374.051 52.333,374.495 52.333 C 374.864 52.333,375.167 52.408,375.167 52.500 C 375.167 52.592,375.579 52.667,376.083 52.667 C 376.787 52.667,377.000 52.725,377.000 52.917 C 377.000 53.131,377.509 53.167,380.583 53.167 C 383.657 53.167,384.167 53.131,384.167 52.917 C 384.167 52.731,384.361 52.667,384.917 52.667 C 385.329 52.667,385.667 52.592,385.667 52.500 C 385.667 52.408,385.854 52.333,386.083 52.333 C 386.343 52.333,386.500 52.239,386.500 52.083 C 386.500 51.934,386.653 51.833,386.880 51.833 C 387.252 51.833,387.833 51.324,387.833 50.998 C 387.833 50.907,387.946 50.833,388.083 50.833 C 388.221 50.833,388.333 50.758,388.333 50.667 C 388.333 50.575,388.446 50.500,388.583 50.500 C 388.721 50.500,388.833 50.387,388.833 50.250 C 388.833 50.112,388.946 50.000,389.083 50.000 C 389.221 50.000,389.333 49.905,389.333 49.790 C 389.333 49.674,389.521 49.438,389.750 49.266 C 389.979 49.094,390.167 48.784,390.167 48.578 C 390.167 48.371,390.279 48.159,390.417 48.106 C 390.589 48.040,390.667 47.771,390.667 47.243 C 390.667 46.784,390.767 46.376,390.917 46.226 C 391.099 46.044,391.167 45.599,391.167 44.583 C 391.167 43.567,391.099 43.123,390.917 42.940 C 390.776 42.800,390.667 42.393,390.667 42.012 C 390.667 41.520,390.598 41.333,390.417 41.333 C 390.261 41.333,390.167 41.176,390.167 40.917 C 390.167 40.657,390.072 40.500,389.917 40.500 C 389.779 40.500,389.667 40.387,389.667 40.250 C 389.667 40.112,389.592 40.000,389.500 40.000 C 389.408 40.000,389.333 39.887,389.333 39.750 C 389.333 39.612,389.221 39.500,389.083 39.500 C 388.946 39.500,388.833 39.387,388.833 39.250 C 388.833 39.112,388.721 39.000,388.583 39.000 C 388.446 39.000,388.333 38.925,388.333 38.833 C 388.333 38.742,388.146 38.667,387.917 38.667 C 387.657 38.667,387.500 38.572,387.500 38.417 C 387.500 38.250,387.333 38.167,387.000 38.167 C 386.667 38.167,386.500 38.083,386.500 37.917 C 386.500 37.764,386.345 37.667,386.101 37.667 C 385.882 37.667,385.659 37.554,385.606 37.417 C 385.543 37.252,385.282 37.167,384.839 37.167 C 384.469 37.167,384.167 37.092,384.167 37.000 C 384.167 36.908,383.867 36.833,383.500 36.833 C 383.019 36.833,382.833 36.764,382.833 36.583 C 382.833 36.403,382.648 36.333,382.167 36.333 C 381.685 36.333,381.500 36.264,381.500 36.083 C 381.500 35.903,381.315 35.833,380.833 35.833 C 380.467 35.833,380.167 35.758,380.167 35.667 C 380.167 35.575,379.942 35.500,379.667 35.500 C 379.333 35.500,379.167 35.417,379.167 35.250 C 379.167 35.098,379.011 35.000,378.769 35.000 C 378.343 35.000,378.195 34.563,378.303 33.625 C 378.344 33.265,378.442 33.167,378.761 33.167 C 379.010 33.167,379.167 33.070,379.167 32.917 C 379.167 32.711,379.461 32.667,380.816 32.667 C 382.127 32.667,382.484 32.718,382.560 32.917 C 382.620 33.074,382.875 33.167,383.245 33.167 C 383.568 33.167,383.833 33.242,383.833 33.333 C 383.833 33.425,384.133 33.500,384.500 33.500 C 384.981 33.500,385.167 33.569,385.167 33.750 C 385.167 33.917,385.333 34.000,385.667 34.000 C 385.963 34.000,386.167 34.087,386.167 34.214 C 386.167 34.487,387.026 35.000,387.484 35.000 C 387.683 35.000,387.833 34.893,387.833 34.750 C 387.833 34.612,387.946 34.500,388.083 34.500 C 388.250 34.500,388.333 34.333,388.333 34.000 C 388.333 33.667,388.417 33.500,388.583 33.500 C 388.736 33.500,388.833 33.345,388.833 33.101 C 388.833 32.882,388.946 32.659,389.083 32.606 C 389.221 32.554,389.333 32.338,389.333 32.128 C 389.333 31.915,389.518 31.607,389.750 31.433 C 389.988 31.254,390.167 30.952,390.167 30.727 C 390.167 30.488,390.265 30.333,390.417 30.333 C 390.572 30.333,390.667 30.176,390.667 29.917 C 390.667 29.657,390.572 29.500,390.417 29.500 C 390.279 29.500,390.167 29.387,390.167 29.250 C 390.167 29.113,390.062 29.000,389.934 29.000 C 389.807 29.000,389.659 28.887,389.606 28.750 C 389.554 28.613,389.358 28.500,389.172 28.500 C 388.986 28.500,388.833 28.425,388.833 28.333 C 388.833 28.242,388.608 28.167,388.333 28.167 C 388.000 28.167,387.833 28.083,387.833 27.917 C 387.833 27.764,387.678 27.667,387.434 27.667 C 387.215 27.667,386.992 27.554,386.940 27.417 C 386.880 27.262,386.627 27.167,386.273 27.167 C 385.919 27.167,385.666 27.072,385.606 26.917 C 385.539 26.740,385.264 26.667,384.672 26.667 C 384.211 26.667,383.833 26.592,383.833 26.500 C 383.833 26.395,382.753 26.333,380.927 26.333 C 379.168 26.333,377.979 26.399,377.917 26.500 M223.833 27.583 C 223.833 28.287,223.891 28.500,224.083 28.500 C 224.264 28.500,224.333 28.685,224.333 29.167 C 224.333 29.533,224.408 29.833,224.500 29.833 C 224.592 29.833,224.667 30.090,224.667 30.405 C 224.667 30.719,224.779 31.089,224.917 31.226 C 225.054 31.364,225.167 31.709,225.167 31.993 C 225.167 32.299,225.269 32.550,225.417 32.606 C 225.580 32.669,225.667 32.928,225.667 33.351 C 225.667 33.817,225.737 34.000,225.917 34.000 C 226.083 34.000,226.167 34.167,226.167 34.500 C 226.167 34.775,226.242 35.000,226.333 35.000 C 226.425 35.000,226.500 35.300,226.500 35.667 C 226.500 36.148,226.569 36.333,226.750 36.333 C 226.931 36.333,227.000 36.519,227.000 37.000 C 227.000 37.481,227.069 37.667,227.250 37.667 C 227.431 37.667,227.500 37.852,227.500 38.333 C 227.500 38.700,227.575 39.000,227.667 39.000 C 227.758 39.000,227.833 39.300,227.833 39.667 C 227.833 40.148,227.903 40.333,228.083 40.333 C 228.264 40.333,228.333 40.519,228.333 41.005 C 228.333 41.449,228.418 41.710,228.583 41.773 C 228.746 41.836,228.833 42.095,228.833 42.518 C 228.833 42.983,228.904 43.167,229.083 43.167 C 229.264 43.167,229.333 43.352,229.333 43.833 C 229.333 44.200,229.408 44.500,229.500 44.500 C 229.592 44.500,229.667 44.800,229.667 45.167 C 229.667 45.648,229.736 45.833,229.917 45.833 C 230.098 45.833,230.167 46.019,230.167 46.505 C 230.167 46.949,230.252 47.210,230.417 47.273 C 230.580 47.336,230.667 47.595,230.667 48.018 C 230.667 48.483,230.737 48.667,230.917 48.667 C 231.097 48.667,231.167 48.852,231.167 49.333 C 231.167 49.700,231.242 50.000,231.333 50.000 C 231.425 50.000,231.500 50.259,231.500 50.575 C 231.500 50.898,231.604 51.208,231.737 51.283 C 231.867 51.357,231.998 51.679,232.028 52.000 L 232.083 52.583 236.375 52.628 L 240.667 52.672 240.667 52.253 C 240.667 51.991,240.761 51.833,240.917 51.833 C 241.096 51.833,241.167 51.650,241.167 51.184 C 241.167 50.762,241.254 50.502,241.417 50.440 C 241.572 50.380,241.667 50.126,241.667 49.765 C 241.667 49.447,241.742 49.140,241.833 49.083 C 241.925 49.027,242.000 48.685,242.000 48.323 C 242.000 47.851,242.070 47.667,242.250 47.667 C 242.431 47.667,242.500 47.481,242.500 47.000 C 242.500 46.519,242.569 46.333,242.750 46.333 C 242.929 46.333,243.000 46.150,243.000 45.684 C 243.000 45.262,243.087 45.002,243.250 44.940 C 243.407 44.880,243.500 44.625,243.500 44.255 C 243.500 43.932,243.575 43.667,243.667 43.667 C 243.758 43.667,243.833 43.329,243.833 42.917 C 243.833 42.361,243.898 42.167,244.083 42.167 C 244.236 42.167,244.333 42.011,244.333 41.768 C 244.333 41.341,244.675 41.116,245.083 41.273 C 245.246 41.336,245.333 41.595,245.333 42.018 C 245.333 42.375,245.408 42.667,245.500 42.667 C 245.592 42.667,245.667 42.886,245.667 43.155 C 245.667 43.423,245.779 43.755,245.917 43.893 C 246.054 44.030,246.167 44.376,246.167 44.660 C 246.167 44.966,246.269 45.216,246.417 45.273 C 246.559 45.328,246.667 45.576,246.667 45.851 C 246.667 46.169,246.752 46.333,246.917 46.333 C 247.097 46.333,247.167 46.519,247.167 47.000 C 247.167 47.367,247.242 47.667,247.333 47.667 C 247.425 47.667,247.500 47.969,247.500 48.339 C 247.500 48.782,247.585 49.043,247.750 49.106 C 247.913 49.169,248.000 49.428,248.000 49.851 C 248.000 50.317,248.071 50.500,248.250 50.500 C 248.431 50.500,248.500 50.685,248.500 51.167 C 248.500 51.648,248.569 51.833,248.750 51.833 C 248.906 51.833,249.000 51.991,249.000 52.250 L 249.000 52.667 253.232 52.667 C 257.828 52.667,257.667 52.700,257.667 51.736 C 257.667 51.515,257.742 51.333,257.833 51.333 C 257.925 51.333,258.000 51.033,258.000 50.667 C 258.000 50.185,258.069 50.000,258.250 50.000 C 258.429 50.000,258.500 49.817,258.500 49.351 C 258.500 48.928,258.587 48.669,258.750 48.606 C 258.905 48.547,259.000 48.294,259.000 47.942 C 259.000 47.630,259.112 47.281,259.250 47.167 C 259.387 47.053,259.500 46.706,259.500 46.396 C 259.500 46.087,259.575 45.833,259.667 45.833 C 259.758 45.833,259.833 45.533,259.833 45.167 C 259.833 44.685,259.903 44.500,260.083 44.500 C 260.264 44.500,260.333 44.315,260.333 43.833 C 260.333 43.352,260.403 43.167,260.583 43.167 C 260.763 43.167,260.833 42.983,260.833 42.518 C 260.833 42.095,260.920 41.836,261.083 41.773 C 261.248 41.710,261.333 41.449,261.333 41.005 C 261.333 40.636,261.408 40.333,261.500 40.333 C 261.592 40.333,261.667 40.033,261.667 39.667 C 261.667 39.185,261.736 39.000,261.917 39.000 C 262.097 39.000,262.167 38.815,262.167 38.333 C 262.167 37.852,262.236 37.667,262.417 37.667 C 262.596 37.667,262.667 37.483,262.667 37.018 C 262.667 36.595,262.754 36.336,262.917 36.273 C 263.074 36.213,263.167 35.958,263.167 35.589 C 263.167 35.265,263.242 35.000,263.333 35.000 C 263.425 35.000,263.500 34.662,263.500 34.250 C 263.500 33.694,263.565 33.500,263.750 33.500 C 263.903 33.500,264.000 33.345,264.000 33.101 C 264.000 32.882,264.112 32.659,264.250 32.606 C 264.406 32.547,264.500 32.292,264.500 31.932 C 264.500 31.613,264.575 31.307,264.667 31.250 C 264.758 31.193,264.833 30.851,264.833 30.490 C 264.833 30.017,264.903 29.833,265.083 29.833 C 265.263 29.833,265.333 29.650,265.333 29.184 C 265.333 28.762,265.420 28.502,265.583 28.440 C 265.760 28.372,265.833 28.097,265.833 27.505 L 265.833 26.667 261.750 26.667 L 257.667 26.667 257.667 27.167 C 257.667 27.500,257.583 27.667,257.417 27.667 C 257.236 27.667,257.167 27.852,257.167 28.333 C 257.167 28.815,257.097 29.000,256.917 29.000 C 256.736 29.000,256.667 29.185,256.667 29.667 C 256.667 30.033,256.592 30.333,256.500 30.333 C 256.408 30.333,256.333 30.671,256.333 31.083 C 256.333 31.639,256.269 31.833,256.083 31.833 C 255.903 31.833,255.833 32.019,255.833 32.500 C 255.833 32.981,255.764 33.167,255.583 33.167 C 255.404 33.167,255.333 33.350,255.333 33.816 C 255.333 34.238,255.246 34.498,255.083 34.560 C 254.926 34.620,254.833 34.875,254.833 35.245 C 254.833 35.568,254.758 35.833,254.667 35.833 C 254.575 35.833,254.500 36.136,254.500 36.505 C 254.500 36.949,254.415 37.210,254.250 37.273 C 254.089 37.335,254.000 37.593,254.000 38.000 C 254.000 38.407,253.911 38.665,253.750 38.727 C 253.602 38.784,253.500 39.034,253.500 39.340 C 253.500 39.624,253.387 39.970,253.250 40.107 C 253.028 40.329,253.000 40.310,253.000 39.929 C 253.000 39.659,252.907 39.500,252.750 39.500 C 252.569 39.500,252.500 39.315,252.500 38.833 C 252.500 38.467,252.425 38.167,252.333 38.167 C 252.242 38.167,252.167 37.867,252.167 37.500 C 252.167 37.019,252.097 36.833,251.917 36.833 C 251.736 36.833,251.667 36.648,251.667 36.167 C 251.667 35.685,251.597 35.500,251.417 35.500 C 251.231 35.500,251.167 35.306,251.167 34.750 C 251.167 34.194,251.102 34.000,250.917 34.000 C 250.736 34.000,250.667 33.815,250.667 33.333 C 250.667 32.967,250.592 32.667,250.500 32.667 C 250.408 32.667,250.333 32.367,250.333 32.000 C 250.333 31.519,250.264 31.333,250.083 31.333 C 249.894 31.333,249.833 31.129,249.833 30.495 C 249.833 29.903,249.760 29.628,249.583 29.560 C 249.420 29.498,249.333 29.238,249.333 28.816 C 249.333 28.361,249.261 28.167,249.093 28.167 C 248.929 28.167,248.836 27.941,248.801 27.458 L 248.750 26.750 244.750 26.750 L 240.750 26.750 240.699 27.458 C 240.671 27.848,240.577 28.167,240.490 28.167 C 240.404 28.167,240.333 28.467,240.333 28.833 C 240.333 29.315,240.264 29.500,240.083 29.500 C 239.903 29.500,239.833 29.685,239.833 30.167 C 239.833 30.648,239.764 30.833,239.583 30.833 C 239.402 30.833,239.333 31.019,239.333 31.505 C 239.333 31.949,239.248 32.210,239.083 32.273 C 238.920 32.336,238.833 32.595,238.833 33.018 C 238.833 33.375,238.758 33.667,238.667 33.667 C 238.575 33.667,238.500 33.967,238.500 34.333 C 238.500 34.815,238.431 35.000,238.250 35.000 C 238.058 35.000,238.000 35.213,238.000 35.917 C 238.000 36.620,237.942 36.833,237.750 36.833 C 237.569 36.833,237.500 37.019,237.500 37.500 C 237.500 37.981,237.431 38.167,237.250 38.167 C 237.069 38.167,237.000 38.352,237.000 38.833 C 237.000 39.200,236.925 39.500,236.833 39.500 C 236.742 39.500,236.667 39.805,236.667 40.179 C 236.667 40.782,236.639 40.829,236.417 40.607 C 236.279 40.470,236.167 40.087,236.167 39.757 C 236.167 39.377,236.075 39.121,235.917 39.060 C 235.754 38.998,235.667 38.738,235.667 38.316 C 235.667 37.850,235.596 37.667,235.417 37.667 C 235.236 37.667,235.167 37.481,235.167 37.000 C 235.167 36.519,235.097 36.333,234.917 36.333 C 234.725 36.333,234.667 36.120,234.667 35.417 C 234.667 34.912,234.592 34.500,234.500 34.500 C 234.408 34.500,234.333 34.235,234.333 33.911 C 234.333 33.542,234.240 33.287,234.083 33.227 C 233.920 33.164,233.833 32.905,233.833 32.482 C 233.833 32.017,233.763 31.833,233.583 31.833 C 233.402 31.833,233.333 31.648,233.333 31.161 C 233.333 30.718,233.248 30.457,233.083 30.394 C 232.920 30.331,232.833 30.072,232.833 29.649 C 232.833 29.292,232.758 29.000,232.667 29.000 C 232.575 29.000,232.500 28.700,232.500 28.333 C 232.500 27.852,232.431 27.667,232.250 27.667 C 232.083 27.667,232.000 27.500,232.000 27.167 L 232.000 26.667 227.917 26.667 L 223.833 26.667 223.833 27.583 M42.394 27.917 C 42.454 28.074,42.709 28.167,43.078 28.167 C 43.402 28.167,43.667 28.242,43.667 28.333 C 43.667 28.425,43.892 28.500,44.167 28.500 C 44.500 28.500,44.667 28.583,44.667 28.750 C 44.667 28.903,44.822 29.000,45.066 29.000 C 45.285 29.000,45.508 29.113,45.560 29.250 C 45.613 29.387,45.814 29.500,46.007 29.500 C 46.380 29.500,46.833 29.859,46.833 30.155 C 46.833 30.253,46.905 30.333,46.992 30.333 C 47.201 30.333,49.167 32.297,49.167 32.505 C 49.167 32.594,49.279 32.667,49.417 32.667 C 49.554 32.667,49.667 32.779,49.667 32.917 C 49.667 33.054,49.779 33.167,49.917 33.167 C 50.072 33.167,50.167 33.324,50.167 33.583 C 50.167 33.813,50.242 34.000,50.333 34.000 C 50.425 34.000,50.500 34.190,50.500 34.422 C 50.500 34.654,50.612 34.887,50.750 34.940 C 50.905 34.999,51.000 35.253,51.000 35.606 C 51.000 35.960,51.095 36.214,51.250 36.273 C 51.429 36.342,51.500 36.623,51.500 37.268 C 51.500 37.762,51.575 38.167,51.667 38.167 C 51.764 38.167,51.833 38.719,51.833 39.490 C 51.833 40.218,51.758 40.860,51.667 40.917 C 51.575 40.973,51.500 41.428,51.500 41.927 C 51.500 42.621,51.442 42.833,51.250 42.833 C 51.069 42.833,51.000 43.019,51.000 43.500 C 51.000 43.981,50.931 44.167,50.750 44.167 C 50.594 44.167,50.500 44.324,50.500 44.583 C 50.500 44.813,50.425 45.000,50.333 45.000 C 50.242 45.000,50.167 45.225,50.167 45.500 C 50.167 45.775,50.093 46.000,50.002 46.000 C 49.676 46.000,49.167 46.582,49.167 46.954 C 49.167 47.163,49.086 47.333,48.988 47.333 C 48.757 47.333,48.333 47.757,48.333 47.988 C 48.333 48.086,48.221 48.167,48.083 48.167 C 47.946 48.167,47.833 48.279,47.833 48.417 C 47.833 48.554,47.721 48.667,47.583 48.667 C 47.446 48.667,47.333 48.779,47.333 48.917 C 47.333 49.072,47.176 49.167,46.917 49.167 C 46.688 49.167,46.500 49.242,46.500 49.333 C 46.500 49.425,46.387 49.500,46.250 49.500 C 46.112 49.500,46.000 49.612,46.000 49.750 C 46.000 49.906,45.842 50.000,45.578 50.000 C 45.346 50.000,45.113 50.112,45.060 50.250 C 45.008 50.387,44.785 50.500,44.566 50.500 C 44.322 50.500,44.167 50.597,44.167 50.750 C 44.167 50.931,43.981 51.000,43.500 51.000 C 43.133 51.000,42.833 51.075,42.833 51.167 C 42.833 51.258,42.456 51.333,41.995 51.333 C 41.403 51.333,41.128 51.407,41.060 51.583 C 40.986 51.778,40.655 51.833,39.566 51.833 C 38.433 51.833,38.167 51.786,38.167 51.583 C 38.167 51.391,37.954 51.333,37.250 51.333 C 36.746 51.333,36.333 51.258,36.333 51.167 C 36.333 51.075,36.033 51.000,35.667 51.000 C 35.185 51.000,35.000 50.931,35.000 50.750 C 35.000 50.583,34.833 50.500,34.500 50.500 C 34.167 50.500,34.000 50.417,34.000 50.250 C 34.000 50.094,33.843 50.000,33.583 50.000 C 33.324 50.000,33.167 49.906,33.167 49.750 C 33.167 49.612,33.054 49.500,32.917 49.500 C 32.779 49.500,32.667 49.425,32.667 49.333 C 32.667 49.242,32.554 49.167,32.417 49.167 C 32.279 49.167,32.167 49.054,32.167 48.917 C 32.167 48.779,32.067 48.667,31.945 48.667 C 31.823 48.667,31.623 48.479,31.500 48.250 C 31.377 48.021,31.177 47.833,31.055 47.833 C 30.933 47.833,30.833 47.721,30.833 47.583 C 30.833 47.446,30.721 47.333,30.583 47.333 C 30.446 47.333,30.333 47.248,30.333 47.144 C 30.333 47.040,30.146 46.781,29.917 46.569 C 29.688 46.356,29.500 46.064,29.500 45.919 C 29.500 45.775,29.387 45.613,29.250 45.560 C 29.113 45.508,29.000 45.283,29.000 45.060 C 29.000 44.838,28.887 44.613,28.750 44.560 C 28.613 44.508,28.500 44.285,28.500 44.066 C 28.500 43.846,28.425 43.667,28.333 43.667 C 28.242 43.667,28.167 43.367,28.167 43.000 C 28.167 42.519,28.097 42.333,27.917 42.333 C 27.705 42.333,27.667 41.919,27.667 39.601 C 27.667 37.326,27.709 36.853,27.917 36.773 C 28.082 36.710,28.167 36.449,28.167 36.005 C 28.167 35.636,28.242 35.333,28.333 35.333 C 28.425 35.333,28.500 35.146,28.500 34.917 C 28.500 34.657,28.594 34.500,28.750 34.500 C 28.917 34.500,29.000 34.333,29.000 34.000 C 29.000 33.667,29.083 33.500,29.250 33.500 C 29.387 33.500,29.500 33.387,29.500 33.250 C 29.500 33.112,29.574 33.000,29.663 33.000 C 29.753 33.000,29.874 32.813,29.932 32.583 C 29.989 32.354,30.103 32.167,30.185 32.167 C 30.266 32.167,30.333 32.054,30.333 31.917 C 30.333 31.779,30.446 31.667,30.583 31.667 C 30.721 31.667,30.833 31.592,30.833 31.500 C 30.833 31.408,30.946 31.333,31.083 31.333 C 31.221 31.333,31.333 31.255,31.333 31.159 C 31.333 31.063,31.521 30.810,31.750 30.598 C 31.979 30.386,32.167 30.127,32.167 30.023 C 32.167 29.918,32.364 29.833,32.606 29.833 C 32.860 29.833,33.208 29.658,33.431 29.417 C 33.644 29.188,33.971 29.000,34.159 29.000 C 34.351 29.000,34.500 28.891,34.500 28.750 C 34.500 28.583,34.667 28.500,35.000 28.500 C 35.275 28.500,35.500 28.425,35.500 28.333 C 35.500 28.242,35.765 28.167,36.089 28.167 C 36.458 28.167,36.713 28.074,36.773 27.917 C 36.853 27.709,37.324 27.667,39.583 27.667 C 41.842 27.667,42.314 27.709,42.394 27.917 M100.833 33.333 C 100.833 33.425,101.125 33.500,101.482 33.500 C 101.905 33.500,102.164 33.587,102.227 33.750 C 102.280 33.887,102.513 34.000,102.745 34.000 C 102.977 34.000,103.167 34.081,103.167 34.179 C 103.167 34.413,104.087 35.333,104.321 35.333 C 104.419 35.333,104.500 35.446,104.500 35.583 C 104.500 35.721,104.612 35.833,104.750 35.833 C 104.917 35.833,105.000 36.000,105.000 36.333 C 105.000 36.608,105.075 36.833,105.167 36.833 C 105.270 36.833,105.333 37.778,105.333 39.333 C 105.333 40.889,105.270 41.833,105.167 41.833 C 105.075 41.833,105.000 42.021,105.000 42.250 C 105.000 42.509,104.906 42.667,104.750 42.667 C 104.612 42.667,104.500 42.739,104.500 42.827 C 104.500 43.051,103.070 44.500,102.848 44.500 C 102.748 44.500,102.667 44.612,102.667 44.750 C 102.667 44.906,102.509 45.000,102.245 45.000 C 102.013 45.000,101.780 45.112,101.727 45.250 C 101.651 45.448,101.303 45.500,100.066 45.500 C 98.785 45.500,98.500 45.454,98.500 45.250 C 98.500 45.109,98.351 45.000,98.159 45.000 C 97.971 45.000,97.644 44.813,97.431 44.583 C 97.208 44.342,96.860 44.167,96.606 44.167 C 96.242 44.167,96.167 44.091,96.167 43.727 C 96.167 43.473,95.991 43.126,95.750 42.902 C 95.521 42.690,95.333 42.397,95.333 42.253 C 95.333 42.108,95.221 41.946,95.083 41.894 C 94.920 41.831,94.833 41.572,94.833 41.149 C 94.833 40.683,94.763 40.500,94.583 40.500 C 94.385 40.500,94.333 40.259,94.333 39.333 C 94.333 38.407,94.385 38.167,94.583 38.167 C 94.763 38.167,94.833 37.983,94.833 37.518 C 94.833 37.095,94.920 36.836,95.083 36.773 C 95.221 36.720,95.333 36.528,95.333 36.345 C 95.333 35.996,96.673 34.500,96.985 34.500 C 97.085 34.500,97.167 34.387,97.167 34.250 C 97.167 34.094,97.324 34.000,97.583 34.000 C 97.843 34.000,98.000 33.906,98.000 33.750 C 98.000 33.569,98.185 33.500,98.667 33.500 C 99.033 33.500,99.333 33.425,99.333 33.333 C 99.333 33.242,99.671 33.167,100.083 33.167 C 100.496 33.167,100.833 33.242,100.833 33.333 M152.083 33.333 C 152.140 33.425,152.369 33.500,152.593 33.500 C 152.844 33.500,153.000 33.596,153.000 33.750 C 153.000 33.906,153.157 34.000,153.417 34.000 C 153.676 34.000,153.833 34.094,153.833 34.250 C 153.833 34.387,153.946 34.500,154.083 34.500 C 154.221 34.500,154.333 34.612,154.333 34.750 C 154.333 34.887,154.446 35.000,154.583 35.000 C 154.739 35.000,154.833 35.157,154.833 35.417 C 154.833 35.646,154.908 35.833,155.000 35.833 C 155.092 35.833,155.167 36.058,155.167 36.333 L 155.167 36.833 150.417 36.833 L 145.667 36.833 145.667 36.333 C 145.667 36.058,145.742 35.833,145.833 35.833 C 145.925 35.833,146.000 35.721,146.000 35.583 C 146.000 35.446,146.112 35.333,146.250 35.333 C 146.387 35.333,146.500 35.221,146.500 35.083 C 146.500 34.946,146.561 34.833,146.637 34.833 C 146.858 34.833,147.833 33.904,147.833 33.693 C 147.833 33.579,148.105 33.500,148.500 33.500 C 148.867 33.500,149.167 33.425,149.167 33.333 C 149.167 33.235,149.747 33.167,150.573 33.167 C 151.347 33.167,152.027 33.242,152.083 33.333 M181.333 33.333 C 181.333 33.425,181.521 33.500,181.750 33.500 C 182.009 33.500,182.167 33.594,182.167 33.750 C 182.167 33.917,182.333 34.000,182.667 34.000 C 183.000 34.000,183.167 34.083,183.167 34.250 C 183.167 34.387,183.242 34.500,183.333 34.500 C 183.425 34.500,183.500 34.652,183.500 34.839 C 183.500 35.025,183.612 35.220,183.750 35.273 C 183.887 35.326,184.000 35.551,184.000 35.773 C 184.000 35.995,184.112 36.220,184.250 36.273 C 184.387 36.326,184.500 36.473,184.500 36.601 C 184.500 36.795,183.663 36.831,179.458 36.820 C 176.685 36.813,174.510 36.769,174.625 36.723 C 174.740 36.677,174.833 36.466,174.833 36.254 C 174.833 36.042,174.946 35.826,175.083 35.773 C 175.221 35.720,175.333 35.559,175.333 35.414 C 175.333 35.269,175.521 34.977,175.750 34.765 C 175.979 34.552,176.167 34.293,176.167 34.189 C 176.167 34.085,176.392 34.000,176.667 34.000 C 177.000 34.000,177.167 33.917,177.167 33.750 C 177.167 33.594,177.324 33.500,177.583 33.500 C 177.813 33.500,178.000 33.425,178.000 33.333 C 178.000 33.233,178.667 33.167,179.667 33.167 C 180.667 33.167,181.333 33.233,181.333 33.333 M312.500 33.333 C 312.500 33.425,312.690 33.500,312.922 33.500 C 313.154 33.500,313.387 33.612,313.440 33.750 C 313.492 33.887,313.715 34.000,313.934 34.000 C 314.178 34.000,314.333 34.097,314.333 34.250 C 314.333 34.387,314.446 34.500,314.583 34.500 C 314.721 34.500,314.833 34.612,314.833 34.750 C 314.833 34.887,314.908 35.000,315.000 35.000 C 315.092 35.000,315.167 35.188,315.167 35.417 C 315.167 35.676,315.261 35.833,315.417 35.833 C 315.583 35.833,315.667 36.000,315.667 36.333 L 315.667 36.833 310.833 36.833 L 306.000 36.833 306.000 36.333 C 306.000 36.000,306.083 35.833,306.250 35.833 C 306.406 35.833,306.500 35.676,306.500 35.417 C 306.500 35.157,306.594 35.000,306.750 35.000 C 306.887 35.000,307.000 34.887,307.000 34.750 C 307.000 34.610,307.149 34.500,307.339 34.500 C 307.525 34.500,307.720 34.387,307.773 34.250 C 307.826 34.112,307.973 34.000,308.101 34.000 C 308.229 34.000,308.333 33.887,308.333 33.750 C 308.333 33.569,308.519 33.500,309.000 33.500 C 309.367 33.500,309.667 33.425,309.667 33.333 C 309.667 33.235,310.250 33.167,311.083 33.167 C 311.917 33.167,312.500 33.235,312.500 33.333 M341.667 33.333 C 341.667 33.425,341.892 33.500,342.167 33.500 C 342.500 33.500,342.667 33.583,342.667 33.750 C 342.667 33.887,342.739 34.000,342.828 34.000 C 343.045 34.000,344.000 34.945,344.000 35.161 C 344.000 35.256,344.113 35.333,344.250 35.333 C 344.417 35.333,344.500 35.500,344.500 35.833 C 344.500 36.167,344.583 36.333,344.750 36.333 C 344.887 36.333,345.000 36.446,345.000 36.583 C 345.000 36.800,344.324 36.833,339.917 36.833 C 335.509 36.833,334.833 36.800,334.833 36.583 C 334.833 36.446,334.946 36.333,335.083 36.333 C 335.250 36.333,335.333 36.167,335.333 35.833 C 335.333 35.558,335.414 35.333,335.512 35.333 C 335.743 35.333,336.167 34.909,336.167 34.679 C 336.167 34.580,336.279 34.500,336.417 34.500 C 336.554 34.500,336.667 34.387,336.667 34.250 C 336.667 34.094,336.825 34.000,337.089 34.000 C 337.321 34.000,337.554 33.887,337.606 33.750 C 337.659 33.612,337.882 33.500,338.101 33.500 C 338.321 33.500,338.500 33.425,338.500 33.333 C 338.500 33.234,339.139 33.167,340.083 33.167 C 341.028 33.167,341.667 33.234,341.667 33.333 " stroke="none" fill="#34b464" fill-rule="evenodd"></path><path id="path1" d="" stroke="none" fill="#38b464" fill-rule="evenodd"></path></g></svg>