<?xml version="1.0" encoding="utf-8"?>
<!-- Generator: Adobe Illustrator 19.2.1, SVG Export Plug-In . SVG Version: 6.00 Build 0)  -->
<svg version="1.1" id="layer" xmlns="http://www.w3.org/2000/svg" xmlns:xlink="http://www.w3.org/1999/xlink" x="0px" y="0px"
	 viewBox="0 0 652 652" style="enable-background:new 0 0 652 652;" xml:space="preserve">
<style type="text/css">
	.st0{fill:#00A1CD;}
</style>
<g>
	<g>
		<path class="st0" d="M283.8,167.4v27H224h-18.8v18.8v27V259H224h59.8v27H178.2V167.4H283.8 M302.6,148.6H176.5
			c-9.6,0-17.1,7.5-17.1,17.1v138.8h143.2v-64.6H224v-27h78.6L302.6,148.6L302.6,148.6z"/>
		<path class="st0" d="M372.7,89.8v58.8v18.8h18.8h72.8v118.3H345.7V89.8H372.7 M372.3,258.7h18.8h27h18.8v-18.8v-27v-18.8h-18.8
			h-27h-18.8v18.8v27V258.7 M374.4,71h-47.5v233.4h156.2V165.7c0-9.6-7.5-17.1-17.1-17.1h-74.5V89.2C391.5,79.6,383.6,71,374.4,71
			L374.4,71z M391.1,239.9v-27h27v27H391.1L391.1,239.9z"/>
		<path class="st0" d="M463.9,347.5v27.3H224h-18.8v18.8v23.9v18.8H224h239.9v115.9H178.2v-27h240.3h18.8v-18.8v-24.3v-18.8h-18.8
			H178.2V347.5H463.9 M482.7,328.7H159.4v153.5h259.1v24.3H159.4V554c0,9.6,7.5,17.1,17.1,17.1h289.1c9.6,0,17.1-7.5,17.1-17.1
			V417.6H224v-23.9h258.7V328.7L482.7,328.7z"/>
	</g>
</g>
</svg>
