<?xml version="1.0" standalone="no"?>
<!DOCTYPE svg PUBLIC "-//W3C//DTD SVG 20010904//EN"
 "http://www.w3.org/TR/2001/REC-SVG-20010904/DTD/svg10.dtd">
<svg version="1.0" xmlns="http://www.w3.org/2000/svg"
 width="748.000000pt" height="748.000000pt" viewBox="0 0 748.000000 748.000000"
 preserveAspectRatio="xMidYMid meet">

<g transform="translate(0.000000,748.000000) scale(0.100000,-0.100000)"
fill="#088426" stroke="none">
<path d="M4500 6665 c0 -12 13 -38 30 -56 16 -19 35 -46 41 -61 6 -16 15 -28
20 -28 5 0 9 -8 9 -18 0 -11 9 -29 20 -42 11 -13 20 -30 20 -38 0 -9 6 -23 14
-31 7 -9 18 -34 24 -56 6 -22 19 -65 30 -95 11 -30 32 -118 46 -195 15 -77 31
-154 36 -171 6 -17 11 -139 11 -270 1 -205 -2 -259 -21 -379 -13 -77 -26 -142
-30 -145 -8 -6 -30 -81 -37 -127 -3 -18 -9 -33 -13 -33 -5 0 -11 -18 -15 -39
-4 -22 -15 -50 -26 -62 -10 -12 -19 -30 -19 -41 0 -10 -4 -18 -10 -18 -5 0
-10 -7 -10 -15 0 -19 -27 -74 -46 -93 -8 -7 -14 -17 -14 -21 0 -4 -9 -18 -20
-31 -11 -13 -20 -29 -20 -36 0 -7 -10 -24 -22 -37 -13 -13 -30 -33 -38 -46
-22 -34 -80 -104 -122 -151 -16 -16 -28 -34 -28 -40 0 -5 -6 -10 -13 -10 -7 0
-19 -9 -27 -20 -8 -11 -19 -20 -25 -20 -6 0 -17 -9 -25 -20 -8 -11 -20 -20
-27 -20 -7 0 -18 -9 -25 -20 -7 -11 -17 -20 -23 -20 -6 0 -17 -9 -25 -20 -8
-11 -19 -20 -25 -20 -6 0 -17 -9 -25 -20 -8 -11 -20 -20 -27 -20 -20 0 -16
-34 7 -60 11 -13 20 -31 20 -42 0 -10 5 -18 10 -18 6 0 10 -9 10 -19 0 -11 6
-26 14 -33 8 -8 26 -39 41 -68 15 -29 33 -59 40 -66 6 -7 18 -26 25 -43 7 -17
16 -31 20 -31 4 0 10 -13 14 -30 3 -18 12 -30 21 -30 8 0 15 -9 15 -20 0 -11
5 -20 11 -20 5 0 7 -4 4 -10 -3 -5 -2 -10 3 -10 5 0 15 -14 22 -30 7 -17 16
-30 21 -30 5 0 9 -9 9 -20 0 -11 4 -20 9 -20 5 0 11 -13 14 -29 4 -16 18 -41
32 -55 14 -14 25 -30 25 -36 0 -12 29 -72 39 -80 4 -3 12 -17 18 -32 7 -16 17
-28 23 -28 5 0 10 -7 10 -15 0 -18 31 -85 40 -85 4 0 17 -23 30 -50 13 -27 27
-50 31 -50 5 0 13 -17 18 -37 6 -21 26 -62 45 -91 19 -30 40 -67 46 -83 7 -16
16 -29 20 -29 3 0 17 -22 30 -50 13 -27 27 -50 32 -50 5 0 6 -4 3 -10 -3 -5
-2 -10 3 -10 5 0 17 -18 27 -40 10 -22 21 -40 25 -40 4 0 10 -13 14 -30 4 -22
11 -30 27 -30 17 0 19 -3 10 -14 -6 -7 -9 -21 -5 -30 5 -12 0 -16 -17 -17 -13
0 -98 -2 -189 -3 -91 -2 -185 -7 -210 -13 -25 -6 -83 -18 -130 -27 -79 -15
-107 -24 -152 -47 -10 -5 -29 -9 -42 -9 -29 0 -76 -20 -76 -32 0 -4 -11 -8
-24 -8 -14 0 -28 -4 -31 -10 -3 -6 -15 -10 -26 -10 -10 0 -19 -4 -19 -10 0 -5
-9 -10 -20 -10 -11 0 -20 -4 -20 -10 0 -5 -7 -10 -15 -10 -8 0 -15 -4 -15 -10
0 -5 -7 -10 -15 -10 -8 0 -15 -4 -15 -10 0 -5 -8 -10 -17 -11 -10 0 -31 -8
-48 -18 -35 -21 -43 -67 -13 -77 10 -3 18 -10 18 -15 0 -6 4 -8 9 -4 11 6 61
-40 61 -55 0 -6 7 -10 15 -10 15 0 75 -57 75 -71 0 -5 7 -9 15 -9 8 0 15 -4
15 -10 0 -5 7 -10 15 -10 8 0 15 -4 15 -10 0 -5 7 -10 15 -10 8 0 15 -4 15 -8
0 -11 35 -52 43 -52 3 0 17 -10 30 -22 54 -50 88 -78 95 -78 4 0 14 -9 22 -20
8 -11 20 -20 27 -20 7 0 13 -6 13 -14 0 -8 8 -17 19 -21 10 -3 47 -32 81 -65
33 -33 70 -60 81 -60 10 0 19 -4 19 -9 0 -16 78 -91 94 -91 9 0 16 -4 16 -10
0 -5 13 -10 28 -10 30 0 82 20 82 33 0 4 7 7 15 7 8 0 30 9 50 20 20 11 41 20
48 20 18 0 67 24 67 33 0 4 11 7 25 7 13 0 39 8 57 18 18 11 65 25 103 32 39
8 72 17 75 21 3 4 23 9 45 12 54 7 96 17 120 27 20 8 51 13 215 32 131 14 518
21 601 9 54 -7 75 -7 81 1 5 9 13 9 33 0 14 -7 38 -12 53 -12 15 0 60 -7 101
-15 41 -9 80 -14 88 -11 15 6 18 46 4 46 -5 0 -13 9 -16 20 -4 11 -17 31 -30
44 -13 13 -30 37 -39 54 -9 17 -22 35 -30 39 -7 4 -19 19 -26 32 -7 14 -17 30
-22 35 -40 49 -48 60 -48 67 0 5 -13 22 -30 39 -16 17 -30 35 -30 40 0 6 -13
24 -30 42 -16 17 -30 37 -30 44 0 7 -6 17 -14 21 -7 4 -19 19 -26 32 -7 14
-17 30 -22 35 -40 49 -48 61 -53 77 -4 11 -12 19 -19 19 -7 0 -18 11 -24 25
-7 14 -17 31 -22 38 -41 48 -50 62 -50 73 0 7 -6 17 -12 21 -7 4 -24 24 -38
43 -13 19 -28 40 -32 45 -32 39 -45 56 -58 76 -8 13 -25 33 -37 46 -13 13 -23
30 -23 37 0 7 -11 22 -25 34 -14 12 -25 27 -25 33 0 5 -4 7 -10 4 -5 -3 -7 0
-5 8 3 7 -2 23 -12 35 -37 44 -53 66 -53 74 0 4 -7 8 -15 8 -8 0 -15 8 -15 18
0 17 -9 30 -50 80 -6 6 -8 12 -5 12 3 0 -6 11 -20 25 -14 14 -25 30 -25 35 0
5 -11 20 -24 33 -14 14 -22 28 -19 31 4 3 1 6 -5 6 -6 0 -14 9 -17 20 -3 11
-13 20 -21 20 -8 0 -12 5 -9 10 3 6 2 10 -3 10 -5 0 -14 12 -21 28 -16 36 -62
103 -83 123 -10 9 -18 20 -18 24 0 4 -11 21 -25 39 -32 39 -35 43 -65 88 -14
21 -28 38 -32 38 -5 0 -8 7 -8 15 0 9 -6 18 -14 21 -38 15 -27 97 15 114 16 7
29 16 29 20 0 4 12 21 28 38 33 38 64 77 94 117 12 17 27 35 33 42 5 7 16 19
23 27 6 8 12 19 12 23 0 5 8 16 18 25 38 37 52 55 52 66 0 7 4 12 9 12 5 0 14
13 21 30 11 26 21 41 60 87 5 7 10 17 10 22 0 15 33 81 40 81 9 0 47 87 60
138 6 23 15 42 19 42 5 0 12 17 16 38 4 20 10 42 15 47 4 6 15 55 24 110 10
55 22 105 28 113 20 24 33 390 19 520 -7 63 -17 127 -23 141 -6 14 -16 51 -23
81 -18 77 -46 150 -56 150 -5 0 -9 7 -9 15 0 19 -32 85 -41 85 -3 0 -9 14 -12
30 -4 18 -13 30 -22 30 -8 0 -15 7 -15 16 0 8 -6 21 -12 28 -7 8 -20 24 -28
36 -8 12 -20 28 -26 34 -5 6 -13 19 -17 29 -3 9 -14 17 -22 17 -9 0 -14 4 -10
9 5 10 -32 51 -46 51 -4 0 -11 9 -14 20 -3 11 -12 20 -18 20 -7 0 -23 14 -36
30 -13 17 -27 30 -32 30 -5 0 -22 14 -37 30 -16 17 -34 30 -41 30 -6 0 -11 5
-11 10 0 6 -7 10 -15 10 -8 0 -15 5 -15 11 0 5 -4 7 -10 4 -5 -3 -10 1 -10 9
0 9 -7 16 -15 16 -9 0 -25 9 -37 20 -12 11 -30 20 -40 20 -10 0 -18 4 -18 8 0
5 -20 19 -45 32 -25 13 -45 27 -45 32 0 4 -7 8 -15 8 -9 0 -25 9 -37 20 -12
11 -28 20 -35 20 -7 0 -13 3 -13 8 0 4 -25 18 -55 32 -30 14 -55 28 -55 33 0
4 -7 7 -15 7 -9 0 -25 9 -37 20 -12 11 -28 20 -35 20 -7 0 -22 9 -33 20 -11
11 -28 20 -38 20 -9 0 -22 8 -29 19 -6 10 -23 21 -37 23 -22 4 -26 1 -26 -17z"/>
<path d="M3240 6019 c-19 -10 -54 -18 -77 -19 -23 0 -45 -4 -48 -10 -3 -5 -19
-10 -35 -10 -16 0 -32 -4 -35 -10 -3 -5 -26 -10 -50 -10 -24 0 -47 -4 -50 -10
-3 -5 -22 -10 -41 -10 -19 0 -34 -4 -34 -10 0 -5 -15 -10 -34 -10 -19 0 -38
-4 -41 -10 -3 -5 -19 -10 -35 -10 -17 0 -49 -4 -72 -10 -24 -5 -69 -14 -100
-20 -32 -6 -58 -16 -58 -21 0 -5 -15 -9 -33 -9 -18 0 -45 -6 -59 -12 l-26 -12
-4 -616 c-2 -338 -3 -617 -1 -619 8 -10 104 -4 115 7 7 7 29 12 50 12 22 0 58
9 80 20 23 11 60 20 83 20 22 0 45 4 51 8 12 10 66 27 129 41 28 6 79 18 115
27 36 9 77 18 93 21 15 3 30 9 33 14 3 5 24 9 47 9 24 0 56 8 75 20 18 11 43
20 56 20 24 0 87 19 96 29 11 13 51 31 70 31 11 0 20 5 20 10 0 6 8 10 18 10
10 0 24 9 32 20 8 11 20 20 27 20 7 0 20 12 30 28 10 15 26 33 35 40 10 7 18
22 18 33 0 10 5 19 11 19 5 0 7 5 4 10 -3 6 -2 10 4 10 6 0 14 12 17 28 4 15
15 44 25 64 11 21 19 48 19 62 0 13 5 26 10 28 19 6 35 243 22 333 -7 45 -12
95 -12 113 0 18 -4 32 -10 32 -5 0 -10 11 -10 25 0 14 -9 43 -20 65 -11 22
-20 46 -20 55 0 8 -4 15 -9 15 -5 0 -14 14 -21 30 -7 17 -17 30 -22 30 -6 0
-23 14 -38 30 -15 17 -37 30 -49 30 -12 0 -21 5 -21 10 0 6 -9 10 -20 10 -11
0 -20 5 -20 10 0 6 -47 10 -122 9 -99 -1 -130 -5 -158 -20z"/>
<path d="M2920 3682 c-14 -2 -29 -8 -34 -13 -6 -5 -27 -9 -47 -9 -21 0 -41 -4
-44 -10 -3 -5 -24 -10 -45 -10 -21 0 -42 -4 -45 -10 -3 -5 -24 -10 -46 -10
-21 0 -39 -4 -39 -10 0 -5 -14 -10 -31 -10 -33 0 -157 -38 -174 -54 -7 -6 -9
-279 -7 -795 2 -432 0 -823 -3 -868 -7 -82 -7 -83 -34 -83 -15 0 -33 -9 -41
-20 -8 -11 -22 -20 -32 -20 -10 0 -18 -4 -18 -10 0 -5 -9 -10 -20 -10 -11 0
-20 -4 -20 -10 0 -5 -10 -10 -23 -10 -13 0 -33 -9 -45 -20 -12 -11 -29 -20
-39 -20 -11 0 -36 -9 -58 -20 -22 -11 -49 -20 -60 -20 -12 0 -25 -4 -30 -9 -6
-5 -30 -11 -55 -14 -25 -3 -79 -10 -120 -16 -97 -14 -230 -19 -236 -9 -3 4
-23 8 -45 8 -33 0 -40 -3 -37 -17 2 -10 13 -19 25 -21 12 -2 25 -12 28 -23 4
-10 14 -19 23 -19 9 0 25 -14 34 -30 10 -18 25 -30 38 -30 12 0 18 -5 15 -10
-3 -5 -1 -10 4 -10 6 0 11 -7 11 -15 0 -8 4 -15 10 -15 5 0 20 -11 34 -25 14
-14 29 -25 33 -25 5 0 14 -9 21 -20 7 -11 18 -20 25 -20 7 0 19 -9 27 -20 8
-11 19 -20 25 -20 6 0 17 -9 25 -20 8 -11 22 -20 32 -20 11 0 18 -7 18 -20 0
-11 5 -20 11 -20 6 0 24 -13 39 -30 15 -16 31 -30 34 -30 4 0 24 -18 45 -40
21 -22 41 -40 45 -40 5 0 21 -13 36 -30 15 -16 35 -30 43 -30 9 0 19 -9 22
-20 3 -11 12 -20 18 -20 7 0 18 -9 25 -20 7 -11 19 -20 27 -20 8 0 15 -4 15
-10 0 -5 7 -10 15 -10 8 0 15 -4 15 -10 0 -5 19 -10 43 -10 24 0 48 -5 53 -10
15 -15 334 -7 394 9 25 6 61 14 80 17 19 3 39 10 45 15 5 5 21 9 35 9 14 0 32
9 40 20 8 11 26 20 41 20 27 0 111 38 117 53 2 4 12 7 23 7 10 0 19 5 19 10 0
6 5 10 11 10 7 0 19 8 28 18 9 9 28 23 43 31 15 8 25 18 22 23 -3 4 0 8 6 8
39 0 39 -10 40 954 0 568 -3 926 -9 926 -5 0 -12 18 -16 40 -4 22 -13 46 -20
53 -17 17 -41 66 -49 100 -3 15 -11 27 -16 27 -6 0 -10 7 -10 16 0 8 -7 22
-15 30 -8 9 -15 24 -15 35 0 10 -4 19 -9 19 -5 0 -12 10 -16 23 -12 42 -38 97
-47 97 -4 0 -8 7 -8 15 0 17 -48 117 -60 125 -4 3 -10 16 -14 30 -15 58 -59
83 -126 72z"/>
</g>
</svg>
