<svg id="Artwork" xmlns="http://www.w3.org/2000/svg" viewBox="0 0 686.79 148.54"><path d="M91.38,59.34a13.41,13.41,0,0,0,0,3.69v8.72a39.35,39.35,0,0,0-.17,6.37A61.63,61.63,0,0,0,91.38,86v.34a4.71,4.71,0,0,0,0,2.18v25.31c-.17,3.69-.17,7.21,0,10.9v.17a7.11,7.11,0,0,0,0,2.68v15.76c-.34.5-.17,1.17-.34,1.68a2.51,2.51,0,0,1-2.51,2.18H70.25a3.23,3.23,0,0,1-3-2.35,10.44,10.44,0,0,1-.67-4.53c.67-4.69.34-9.39.34-14.08,0-6-.84-12.07-.5-18.11.16-3.69-.17-7.54,0-11.4.16-1,.16-2.51-.84-2.85-.84-.17-1.18,1.17-1.68,1.84A10.83,10.83,0,0,0,62,99.41c-.68,2.52-2.52,4.53-3.69,6.88-1.85,3.18-3.69,6.2-5.7,9.22A23.45,23.45,0,0,0,50,121.88a4.59,4.59,0,0,1-2,2.68c-2.18,1.51-4.19.84-5.53-1.51-2.35-4-4.19-8.38-7-12.24-3-4.36-5.2-9.22-8.05-13.74-.84-1.35-1.17-3-2-4.87-.34,1.68-1.34,3-.67,4.7.16.5.5,1.17.16,1.68-.16.16-.16.16-.33.16l.5.34a28.72,28.72,0,0,1,.34,6.54,29.1,29.1,0,0,0,0,3.85c.67,3.86-.17,7.88-.17,11.91,0,3.85.33,7.54.5,11.23a40.76,40.76,0,0,1-.5,11.07c-.5,3-.84,3.35-3.86,3.69a1.06,1.06,0,0,0-.67.16H13.75a27.83,27.83,0,0,0-5.2-.16,49.73,49.73,0,0,1-5-.17c-2-.34-3-1.18-3.52-2.85v-4.53c.34-.5.17-1,.17-1.68V102.43C.34,97.9.5,93.54.34,89c-.17-6.54,0-13.25,0-20,0-3.53,0-7-.17-10.57C0,55.15,1.84,54,5,53.31a19.09,19.09,0,0,1,4.36-.17c4,0,7.88.17,11.74-.17,4-.17,6.53,1.84,8.55,4.69a101,101,0,0,1,5.7,8.72c2.34,4,4.86,8.05,7.37,11.91.84,1.34,1.85,2.18,2.69,3.35.67,1,1.17,1,1.84-.17C48.12,80,49,78.45,50,77c2.85-4.87,5.7-9.73,8.72-14.42,1-1.34,1.68-2.85,2.68-4.36a10.25,10.25,0,0,1,8.56-4.7,40.43,40.43,0,0,1,7.71.34c2.51.33,4.86-.5,7.38-.34a9.48,9.48,0,0,1,2.18.17c2.85.5,3.68,1.34,4.19,4ZM5.7,109.14a.36.36,0,0,0-.33-.34c-.34,0-.51,0-.51.34,0,.5.17.67.51.67S5.7,109.47,5.7,109.14Zm.67,5.7a.53.53,0,0,0-.5.5c0,.34.17.67.5.67.34.17.34-.17.34-.5C6.71,115.34,6.87,114.84,6.37,114.84Zm1.17-44.1c0-.5-.5-.5-.83-.5-.51-.17-.67.17-.67.67s.33.5.67.5C7,71.25,7.54,71.25,7.54,70.74Zm-.83,3.19a.36.36,0,0,0-.34.33c0,.17,0,.51.34.51S7,74.6,7,74.43C7,74.1,6.87,73.93,6.71,73.93Zm1.17-8.55c.5.5.67,1,1.34.84.34.16.5.5.84.33l.17-.17c-.17-.5-.67-.33-1-.5C9.22,64.87,8.55,65.38,7.88,65.38Zm.67,33.87c.34,0,.5.16.67-.17,0-.5-.33-.67-.5-.67-.34-.17-.67-.17-.67.17C8.05,99.08,8.22,99.25,8.55,99.25Zm.17-24.82c.17-.17.5-.17.5-.5a.6.6,0,0,0-.5-.17c-.17.17-.5.17-.5.5C8.22,74.43,8.38,74.6,8.72,74.43Zm0,43.09c-.34-.17-.5.17-.34.34s0,.67.51.83a.32.32,0,0,0,.33-.33C9.39,117.69,9.05,117.52,8.72,117.52ZM8.55,79.46c0,.17,0,.5.34.5a.44.44,0,0,0,.5-.5c.17-.17-.17-.33-.34-.5C8.55,79,8.55,79.13,8.55,79.46Zm1,13.41c.33,0,.5-.16.67-.5,0-.33-.34-.67-.67-.5-.17,0-.67,0-.67.33C8.89,92.71,9.22,92.71,9.56,92.87Zm2-6.53c.17.5.84.67,1.34.83s.84,0,.84-.67a2,2,0,0,0-2.35-1.84c-.5,0-.84.33-1.34,0-.5,0-1,0-1,.5s.51.5,1,.5C10.73,85.66,11.23,85.5,11.57,86.34ZM9.22,66.22v-.34C9.39,66.05,9.39,66.22,9.22,66.22ZM10.9,111c-.5-.33-.84-.33-1.18-.84-.33-.33-.5,0-.5.51C9.56,111.32,10.23,111,10.9,111Zm-.67,10.9c0-.17,0-.5-.34-.34a.73.73,0,0,0-.67.67c.17.17.34.34.5.34C10.06,122.55,10.23,122.21,10.23,121.88Zm.33,13.58c0-.67-.16-1.17-.67-1.17-.33-.17-.67.33-.5.5.33.5-.17,1.17.5,1.17C10.23,136.13,10.56,135.63,10.56,135.46ZM9.72,68.9c-.67.84.84.33.68.84-.17.33-.68,1,.16,1,1,0,.34-.84.51-1.17.33-.67.16-1.17-.34-1.34S9.89,68.56,9.72,68.9Zm7.21,12.91c-.67,0-1.17-1.51-1.67.17-.17.33-.34-.17-.51-.17-.67-.84-.67-.84-1.84-.34a.62.62,0,0,1-.5-.16c-.84-.51-1.68.33-2.52.33-.5-.17-.33.5-.17.67.17.34.51.84.68.5.83-1.34,2.17-.16,3-1,.17-.17.84.17.67.33,0,1.51,1.18,1.35,2.18,1.51.34,1,1.34,1,2.18,1.18a2.23,2.23,0,0,1-.16-1c-.68.67-1.18-.33-1.68-.17-.17-.5-1.34-1.34.17-1.67C16.77,82,16.77,81.81,16.93,81.81ZM10.4,120.2a.16.16,0,0,1,.16-.16,1,1,0,0,0-.5-1C9.72,119.53,9.89,119.87,10.4,120.2Zm.5-2.85c-.17-.33-.34-.33-.67-.33s-.34.33-.34.5a.44.44,0,0,0,.51.5C10.73,117.86,10.9,117.69,10.9,117.35Zm.5-24c0-.17-.17-.34-.5-.34-.34.17-.84.17-.84.67,0,.17.34.17.67.34C10.9,93.88,11.57,94.05,11.4,93.38Zm.5,36.88c-.33,0-.83-.67-1.5,0A2.21,2.21,0,0,0,11.9,130.26Zm-1-41.07h-.34a2,2,0,0,0,.67,1.5C11.07,90.19,11.57,89.52,10.9,89.19Zm.17-17.61c-.67.84.83,1.51.16,2.35,0,0,.34.33.67.17a.17.17,0,0,0,.17-.17c.17-1.18.84-.5,1.34-.5a1.79,1.79,0,0,0,0,2.51c.67.67,1.34-.17,1.85-.5v-.67h-.17c-.5.16-.84.33-.84-.51.17-.16.17-.33.5-.33.68,0,.51.5.51.84.33-.17.5-.67,1.17-.51.34,0,.84,0,.67-.67,0-.67-.5-.33-.84-.16-.83.33-.83.33-1-.68,0-.33-.17-.83-.67-.67a2.32,2.32,0,0,1-2.69-.5C11.57,71.41,11.4,71.25,11.07,71.58Zm1.67,52c-.17-.17-.33-.34-.5-.34,0,.5-.84.34-.84,1,0,.16,0,.5.34.33C12.41,124.56,12.24,123.72,12.74,123.56Zm-1.17-2.69c.67,0,1.17.17,1.51-.16a1.71,1.71,0,0,1-.17-.51C12.41,120.2,12.24,120.54,11.57,120.87Zm1-30.51c.51,0,.51-.34.51-.67s.17-.84-.34-.84c-.5-.17-.67.17-.67.67C12.07,89.86,11.9,90.36,12.57,90.36Zm.84,7.54a1,1,0,0,0-.84-.83c-.16.16-.5.5-.5.67a.86.86,0,0,0,.84.67C13.25,98.24,13.41,98.07,13.41,97.9Zm-.33-6.53s-.67.33-.67.67c0,1,.84.33,1.17.5.84,0,.67,0,.84-.34C14.42,91,13.25,92,13.08,91.37Zm-.34,34.53a.7.7,0,0,0,.51-1c-.34.17-.84-.17-.84.5C12.41,125.57,12.41,125.9,12.74,125.9Zm1.51,6.21v-.17l-1.34.5a1.24,1.24,0,0,0,.84.17Zm-.33,1c-1,.84-1,.84-.84,1.34C13.41,134.12,14.25,134,13.92,133.11Zm.16-24.64c.51-.67-.33-1.18-.16-1.85-.84,0-.34.67-.84.84C12.91,107.63,13.92,108.63,14.08,108.47Zm-.33-36.72a1.74,1.74,0,0,0,.84-1c0-.16-.34-.33-.51-.33-.33.17-.83.17-1,.67C13.08,71.41,13.41,71.58,13.75,71.75ZM13.92,112v-1.51c0-.34-.17-.5-.51-.34a.51.51,0,0,0-.33.17C13.58,110.81,12.57,112,13.92,112Zm1.51-7.71c-1-.17-1.18-1-2-1.85C13.92,105.11,13.92,105.11,15.43,104.28Zm-2,20.62,1,.67c.33.17.17,1.17.84.5.33-.33,0-.84-.51-1l-.5-.51C13.75,124.23,13.58,124.56,13.41,124.9Zm.34-41.41c-.17.5-.17.83.5,1A.7.7,0,0,0,13.75,83.49Zm1,41.58a.79.79,0,0,0,.17-1c-.33-.5-.17-1.17-.84-1.34a.36.36,0,0,0-.33.33c-.34.51.5.51.5,1,.17.17,0,.33,0,.5C14.59,124.56,14.92,124.73,14.75,125.07Zm-1-61c0,.33.17.5.5.67.34-.17.67-.34.67-.67.17-.34-.33-.34-.67-.51S13.75,63.7,13.75,64Zm0,26.32c.5.33,1.17.67,1.68,0,.16-.17,0-.34-.17-.34C14.59,89.52,14.25,90.19,13.75,90.36Zm1-4.53c-.16,0-.33-.84-.83-.33a.31.31,0,0,0,0,.5C14.25,86.34,14.59,86,14.75,85.83Zm.17,42.92-.5.34c-.84.17-.34.33,0,.33C15.09,129.42,14.92,129.09,14.92,128.75Zm-.84-29.17c.51.17.67.84,1.18.5.17-.16.5-.33.33-.5C15.26,98.91,14.59,99.25,14.08,99.58Zm.84,29.17a1.71,1.71,0,0,1,.51.17c.33-.5-.17-.84-.17-1.17a1.24,1.24,0,0,0-.84.17C13.92,128.59,14.92,128.42,14.92,128.75Zm-.5-60c-.17,0-.17.34,0,.34.17.16.33.5.5.16.67-.5,1-.16,1.34.34a1,1,0,0,0,1,.17c.17,0,.17-.34.17-.67-.17-1-1.34-.34-1.85-.67C15.09,67.89,14.75,68.4,14.42,68.73Zm1.84,42.42c-.67.33-1.51-.17-1.84.67A1.34,1.34,0,0,0,16.26,111.15Zm-.67-8.72c.34,0,.67,0,.67-.33a1,1,0,0,0-1-.84c-.34-.17-.67.16-.51.33C14.92,102.1,15.09,102.6,15.59,102.43Zm1.18-12.74c.16.17.5-.34.33-.5-.84-1,.17-1.51.67-2.18-1.17,0-1.34.16-3,2.34C15.43,89.86,16.26,88.68,16.77,89.69Zm-.84,39.73c-.67.17-.84.84-1,1.35,0,.16.34.5.84.5l.5-1.34C16.26,129.59,16.1,129.42,15.93,129.42ZM15.09,121c.17.34.34.5.67.34l.17-.17c-.17-.5-.34-.5-.67-.34C15.26,120.87,14.92,120.87,15.09,121Zm.17-54.49c0,.17,0,.84.33.67a1.51,1.51,0,0,0,1-1.84.59.59,0,0,1-.17-.34C15.26,64.87,15.26,65.54,15.26,66.55Zm.33,13.08a.37.37,0,0,0,.34-.34c.17-.16,0-.33-.17-.33a.6.6,0,0,0-.5.17C15.26,79.29,15.26,79.63,15.59,79.63Zm-.16-4.19c0,.67.5.84,1,.5C16.26,75.44,15.76,75.44,15.43,75.44Zm.5,10.73c0,.17,0,.33.17.33.33,0,.33,0,.5-.5-.17,0-.34-.17-.5-.17C15.76,85.66,15.93,86,15.93,86.17Zm.33-2.52h.34C16.43,83.82,16.26,83.82,16.26,83.65Zm1.18,45.61c.16-.34-.17-.67-.51-.84-.33,0-.5.33-.33.5,0,.34-.34.84.33.67C17.1,129.42,17.6,130.1,17.44,129.26ZM20.12,69.4c-1.84-1.17-2.18,1-3.19,1.68-.67.5-.33.84.17,1.34.67.67.67-.34,1-.5.17-.17,0-.67.33-.34.84,1,1-.17,1.51-.5,0-.17-.17-.17-.17-.34s.17-.16.17-.16C19.62,70.24,19.78,70.07,20.12,69.4ZM16.6,65h.84a3,3,0,0,1,.16,1.18h.51A1.37,1.37,0,0,0,17.94,65c.5-1.34-.84-.67-1-.67C16.26,64,16.77,64.71,16.6,65Zm.33,48.62c0,.34.51.17.67.17.34,0,.51,0,.51-.33-.17-.34-.34-.67-.67-.51C17.1,113,16.77,113.16,16.93,113.66ZM18.11,79.8c0-.34-.17-.51-.34-.84-.5.17-.67.67-.84,1s.34.51.51.51C17.6,80.13,18.11,80.3,18.11,79.8ZM16.93,82a.78.78,0,0,0,.51-.84h-.51Zm.34,50.63c-.17,0-.17,0-.34.17a2.34,2.34,0,0,1,.34,1C18.11,133.28,17.77,133,17.27,132.61Zm.5-1.34a.17.17,0,0,0-.17-.17c-.5-.17-.5.17-.33.34v.5C17.6,131.77,17.77,131.6,17.77,131.27Zm.34-25.65c0-.34-.34-.34-.51-.34s-.33,0-.33.17c-.17.33,0,.5.17.5A.9.9,0,0,0,18.11,105.62Zm-.84,15.92c1.68.34,1.68.34,1.68-1.17A14,14,0,0,1,17.27,121.54ZM17.44,65h.5A.31.31,0,0,1,17.44,65Zm.5,41.58h-.17c-.5.17-.17.67-.17,1C17.77,107.29,18.28,107.13,17.94,106.62Zm-.17,1.85a1.64,1.64,0,0,0,1.51.16c.17,0,.17-.16,0-.33C18.78,107.8,18.28,108.63,17.77,108.47Zm1,22c0-.17-.17-.5-.5-.33-.17.16-.34.33-.51.33l.67.5C19,130.93,18.61,130.6,18.78,130.43Zm.67-11.9L19,118c-.51-.16-.67.17-.84.51,0,.16,0,.33.33.33S19,118.69,19.45,118.53Zm1.84-41.92c.67-.84-.5-.33-.5-.67l.34-.17c.83,0,.33-.67.33-1,.17-1,1.51-2.18.17-3.36a.51.51,0,0,1,.17-.33c.83-1.34,0-1.51-1.18-1.68.17.67-.16,1-.67,1.34v.34c.67,1,1.34,2-.67,2.18-.5.17-1.17,1-1,1.34.16.5,1.17.33,1.67.17.17.16.34.16.34.33a1.5,1.5,0,0,0,0,1.85C20.79,77.79,20.79,75.94,21.29,76.61Zm-2.85-11.4A4.11,4.11,0,0,0,20,65c.84,0,1-.67.17-1C19.11,63.7,18.78,64.54,18.44,65.21Zm.34,59.86c-.34-.17-.34.16-.34.33s0,.5.17.5.34-.33.5-.33C19.11,125.23,19,125.07,18.78,125.07Zm.84-2.52a4.41,4.41,0,0,0-.84,1c-.5.67.17.67.5.83C19.45,123.89,20.12,123.22,19.62,122.55Zm.67-56.17a2.38,2.38,0,0,0-1.51,1.34c0,.34.5.34.84.68a2.87,2.87,0,0,0,1-1.35A.49.49,0,0,0,20.29,66.38Zm-.84,35.88c.17.34.17,0,.17-.16a.45.45,0,0,0-.51-.51c-.16-.17-.16,0-.33.17C18.78,102.26,19.28,102.1,19.45,102.26Zm.5-22a1.07,1.07,0,0,0-.84,1l.34.16C19.78,81.14,20.12,80.8,20,80.3Zm0-5.53c.51-.51.84,0,1.34,0a.62.62,0,0,1-.5.16C20.46,74.77,20.29,74.6,20,74.77Zm.17-5.37v.67l.5-.67Zm.17,5.7a.6.6,0,0,1,.5-.17c.17,0,.17.17.34,0h.16C21.13,75.44,20.62,74.93,20.29,75.1ZM22,122.21c0-.67-.67-.33-.83-.83-.17.67.16.83.5,1Zm-.5-47.44c0,.16-.17.16-.17.16v-.16Zm.17,27.83c.5.17.84.33,1.17,0,.17,0,0-.34,0-.34C22.3,102.1,22,102.1,21.63,102.6Zm1-25.82c0,.17,0,.33-.16.33,0,.34-.51.68.16.51C23.31,77.62,22.8,77.11,22.63,76.78Zm-.33-1.51a.59.59,0,0,0,.17.5c.16,0,.33,0,.5-.33,0-.17-.17-.51-.34-.51C22.3,74.77,22.3,74.93,22.3,75.27Zm1-1.68c.83,0,1.17-.67,1.5-1.34-.16-.17-.5-.5-.67-.5-.5.33-1.34.67-1.51,1.34C22.47,73.59,23.14,73.59,23.31,73.59Zm1.17,25.15c-.5-.33-1-1.84-1.85-.33a1.91,1.91,0,0,0,1.85.5ZM23,107.46c-.17,0-.17.17-.34.17.17.17.34.5.51.5.33,0,.33-.17.33-.33C23.31,107.63,23.31,107.29,23,107.46Zm1.17-16.77a.35.35,0,0,0-.33-.33,1.62,1.62,0,0,0-.5.17.32.32,0,0,0,.16.5C23.81,91,24,91,24.14,90.69Zm.34-1.17a2.49,2.49,0,0,1-1.17-.33C23.64,89.86,24,89.86,24.48,89.52Zm1.17-12.41a2.86,2.86,0,0,1,2.18-.67c.5,0,.84-.33.67-.83-.17-.34-.33-1.18-.84-.68-.83.84-1.84.17-2.51.17-.67.17-1.34-.17-1.51.34s.5.67.84.67a.67.67,0,0,1,.33.67A.52.52,0,0,0,25.65,77.11Zm-.17,1c0-.17-.5,0-.5.17,0,1-1,.67-1.34,1.17,1,.67,1.84.5,2-.84C25.65,78.29,25.82,78.12,25.48,78.12ZM24,98.74c-.17,0-.34,0-.34-.16A.61.61,0,0,0,24,98.74Zm.67-14.42L24,83.49c-.34.5,0,.83.33,1.17Zm1.67-16.26a1.3,1.3,0,0,0-.84-1.68c-.33-.16-.5.17-.5.34C24.81,67.56,25.82,67.72,26.32,68.06Zm.51,13.08c.67-.17.5-.84.67-1.34.16-.17-.17-.34-.34-.51-.33.34-.84.51-.84,1.18A.76.76,0,0,0,26.83,81.14Zm.5,7c0-.17,0-.34-.34-.34s-.33.17-.33.51c0,.17,0,.33.33.5C27.33,88.68,27.33,88.52,27.33,88.18Zm.84-15.59c.16-.84.33-1.34-.17-1.85,0-.16-.67,0-.67.17C27.16,71.41,27.5,71.92,28.17,72.59ZM27.33,85c0,.34,0,.67.5.67.84-.16.84-.67.84-1.34.34,0,.67,0,.5-.33,0-.17,0-.5-.16-.5-.34,0-.51.16-.68.5C27.66,84,27.16,84.16,27.33,85Zm.5,9.06c0-.17-.33,0-.33.17,0,.5.33.67.67.83A.74.74,0,0,0,27.83,94.05Zm.84-9.73a.36.36,0,0,1-.34-.33C28.5,84,28.5,84.16,28.67,84.32ZM29,96.23c.16,0,.16-.17.16-.34.17-.17,0-.33-.33-.5,0,.17-.17.17-.17.33C28.5,96.06,28.84,96.06,29,96.23Zm1,1.84c-.17-.67-.33-1-.84-1-.16,0-.16.33-.16.33Zm-.5-26.49a.41.41,0,0,0,.67-.17c0-.33-.17-.5-.34-.5-.33-.17-.5,0-.5.34C29.17,71.41,29.17,71.58,29.51,71.58Zm.5,6.54-.33.17c0,.5.33.67.67.84C30.68,78.62,30.51,78.29,30,78.12Zm.84,4.69c.5,0,.84-.33,1-1.17a.74.74,0,0,0-.51-.17,1.26,1.26,0,0,0-1.17,1C30.18,82.81,30.51,82.81,30.85,82.81Zm.5,14.76c-.67,0-.67.33-.84.67-.33,1.34,1.18.34,1.51.84C32,98.41,32.53,97.74,31.35,97.57Zm-.5-26.32c.67-.17.67-.51.5-1L31,70.07A1,1,0,0,0,30.85,71.25Zm.67,3.52a.35.35,0,0,0-.33.33c0,.34.16.51.33.34.17,0,.34-.34.34-.34C31.69,74.77,31.86,74.6,31.52,74.77Zm1,5.36-.67-.5c-.51,0-.51.33-.34.5,0,.34.17.5.34.34A.88.88,0,0,0,32.53,80.13ZM32.36,91.2c-.84.5-1.17.84-.67,1.34Zm1.17-7.38c-.67-.67-1.17-.5-1.67.17A2,2,0,0,0,33.53,83.82ZM33,81.14c-.17.17-.5.17-.5.33-.17.17,0,.34.16.34.34,0,.68,0,.68-.34A.36.36,0,0,0,33,81.14ZM34.71,88c.16,0,.33.17.5.17.5,0,1-.17.84-.84,0-.33-.17-1.17-1-.5-.5.33-.67-.17-1-.5-.17-.34-.51-.51-.84-.17-.17.17-.51.17-.34.33C33.37,87.17,33.37,88.52,34.71,88Zm-.34-14.08c.17,0,.17-.17.34-.5-.17-.17,0-.34-.34-.34a.36.36,0,0,0-.33.34C33.87,73.59,34,73.93,34.37,73.93Zm.34,3.18c-.34-.16-.51,0-.51.34s0,.67.51.67l.5-.5C35,77.45,34.87,77.11,34.71,77.11Zm0,18.11h-.34c-.17.5.34.84.5,1.18C34.87,95.89,35.21,95.56,34.71,95.22Zm5.86-.67c-.16,0-.5-.17-.5.34,0,.16-.17.5.34.5.33,0,.33-.17.33-.5,1-1,1-2.18-.17-2.85-.16-.17-.16-1-.83-.51-.17.17-.17.67-.67.34a1.11,1.11,0,0,1-.34-1.18,2.16,2.16,0,0,0,.17-2l-2,1.51c-.17-1.51-1.51-.67-2.35-1l.67.67c.5.67.84,1.67,2.18,1.34.17,0,1.34.5.67,1.34.17.17.34.33.34.5a2.34,2.34,0,0,0,1,.34c1.17-.34,1.34.33,1.17,1.17a.59.59,0,0,0,.17.34.17.17,0,0,1-.17-.17Zm-4-16.76c.17.33.34.5.67.5s.67,0,.5-.34c0-.33-.16-.67-.5-.5A1.18,1.18,0,0,0,36.55,77.79ZM38.23,93a.73.73,0,0,1-.17-.5c-.17.17-.34.33-.5.33-1,.17.16,1-.34,1.35.17.33.34.67.67.5.51,0,.17-.67.17-1C38.23,93.54,38.06,93.21,38.23,93Zm-.51-7c-.33,0-.5.34-.33.5.17.51.17.84.67,1,.34,0,.34-.34.34-.67C38.06,86.84,38.4,86,37.72,86Zm2.85,19c-.16-.51-.67-.17-1-.17a1,1,0,0,0,1,.67C40.57,105.28,40.74,105.11,40.57,105ZM40.24,86.5c.17,0,.67.17.67-.16,0-.51-.34-.34-.5-.34-.34,0-.51-.17-.67.17S39.9,86.67,40.24,86.5Zm1.68,11.74c-.34-.67-1.18-.17-1.85-.17h-.33c1,.51,1.67,1,.67,2,0,.17,0,.67.16.67.34.17.68.17.84-.16C41.58,99.75,42.25,99.08,41.92,98.24Zm0-16.77c.16,0,.5.17.67-.33.16-.17-.17-.34-.34-.34a1,1,0,0,0-.67.17C41.58,81.31,41.58,81.47,41.92,81.47Zm.67,6.88a.44.44,0,0,0,.5.5c.33,0,.5-.33.67-.5l-.67-.51C42.59,87.68,42.59,88,42.59,88.35Zm.33,10.39c.17.34.34,1,1,.51.84-.51,1-1.68,2.18-2,.33-.16.33-1.67.17-2.34-.17-.34-2.69,0-2.18,1.34Zm.34-12.07c0,.34.33.5.67.5a.77.77,0,0,0,.84-.5A.71.71,0,0,0,44.1,86C43.76,86,43.26,86.17,43.26,86.67Zm1.51,20.62c0-.33-.17-.67-.51-.67-.33-.17-.5,0-.67.34a.54.54,0,0,0,.51.5C44.43,107.63,44.6,107.46,44.77,107.29Zm-.67-17.1c1,1.51,2,1.51,3,.34C46.11,90.36,45.1,89.69,44.1,90.19Zm3.18,11.07c-.5-.51-.33-1.51-1.17-1.68-.51,0-.67.84-.67,1,.33.33,0,1.17.84,1.17C46.61,101.76,47.11,101.76,47.28,101.26Zm-.67-8.39a1.62,1.62,0,0,0-.5.17.32.32,0,0,0,.17.5c.33,0,.5,0,.67-.33A.37.37,0,0,0,46.61,92.87Zm.67,4.7L47,97.4c-.51.17-.67.5-.51,1.18C46.78,98.24,47.45,98.24,47.28,97.57ZM48,95.05c0-.33-.33-.33-.67-.16-.84.33-.67,1-.5,2C47.28,96.23,48.12,95.89,48,95.05Zm.67,6.88c-.16-.17,0-.51-.33-.34-.34,0-.34.17-.34.34a.45.45,0,0,0,.51.5A1.69,1.69,0,0,0,48.62,101.93Zm1.51-6.54c-1.17.33-.17,2.18-1.67,2.35.67.67,1.84,1.17,1.84.5C50.3,97.23,51.14,96.23,50.13,95.39Zm.34,4.19c-.17-.5-.51-.33-.84-.33-.5,0-1.17-.17-1.17.5,0,.33.16.84.33.67C49.29,99.75,50.13,100.08,50.47,99.58ZM51.31,90c.16-.16.5-.33.5-.67a3.4,3.4,0,0,0-.5-1.84c-.68-.5-1.18.17-2,.17.51.84,1.18,1.17,1.34,1.84C50.63,89.86,50.8,90.19,51.31,90Zm-.17,2.18c-.34-.5-.34-1.17-1-1.51-.33.17-.67.51-.5.84.17.51,0,1.18.84,1.18C50.8,92.71,51.31,92.54,51.14,92.2Zm-.67,11.91c0-.34,0-.34-.34-.34s-.5.17-.33.51a.35.35,0,0,0,.33.33C50.47,104.61,50.47,104.44,50.47,104.11Zm.67-23.48c0,.34,0,.68.33.51.17,0,.34-.34.34-.34,0-.33-.17-.5-.34-.5C51.14,80.3,51.14,80.47,51.14,80.63ZM52,99.25c-.34,0-.51,0-.51.5,0,.33,0,.5.34.5a.44.44,0,0,0,.5-.5C52.48,99.58,52.48,99.25,52,99.25Zm3.35-13.59-1-1.34c-.16,0-.67,0-.67.34.17.67-.67.84-.5,1.68.5-.17,1-.84,1.51-.34A.5.5,0,0,0,55.33,85.66ZM55,87.51a.87.87,0,0,0-.67-.5c-.33-.17-.33.16-.33.33,0,.5.17.5.5.5S55,87.84,55,87.51ZM55.5,83c0-.33,0-.67-.34-.5-.5.17-.67.67-.84,1.17,0,.34.34.51.51.34C55.5,84,55.66,83.49,55.5,83Zm.83-1.84a2.45,2.45,0,0,0,.51-.34c-.34-.33-.51-.67-.84-.84-.17-.16-.5,0-.5.34C55.66,80.8,56,80.8,56.33,81.14Zm-.16,21c-.51.33-.67.5-.51,1,0,.17.17.17.17,0C56.33,102.93,56.17,102.6,56.17,102.1ZM58.35,89a.54.54,0,0,1,.16-.34c-.67.17-1.34-.5-2,0a.32.32,0,0,0,0,.51C57.34,89.69,57.84,89,58.35,89Zm-.84-12.24.5.5c.17-.17.5-.33.34-.67,0-.33,0-.67-.34-.5S57.51,76.44,57.51,76.78Zm.84,6c-.17,0-.34.34-.51.34l.67.84a.45.45,0,0,0,.51-.5A.62.62,0,0,0,58.35,82.81Zm.5,2.85a.8.8,0,0,0-.84.84c.17.34.34.67.84.67.34,0,.5-.33.5-.67C59.35,86,59.19,85.5,58.85,85.66Zm1.51,9.56c0-.17-.5-.17-.5,0-.34.5-1,.34-1.68,1a2,2,0,0,0,2.18-.51S60.69,95.39,60.36,95.22ZM60,80.3c0,.5.17.5.51.5.5,0,.33-.5.67-.67-.17-.33-.34-.67-.67-.5C60.19,79.63,60,80,60,80.3Zm.84,1.84c-.33,0-.5,0-.5.34s.17.5.5.67c.34,0,.34-.34.34-.5C61.36,82.31,61.2,82.14,60.86,82.14Zm.34,1.35c-.34,0-.51.33-.51.67s0,.5.51.5c.16,0,.33,0,.33-.34C61.7,83.82,61.36,83.65,61.2,83.49ZM62.54,80c-.17-.16-.34-.33-.5-.33s-.51,0-.34.33c0,.34.17.34.34.34S62.54,80.3,62.54,80Zm-.84-6.87c0,.84.67,1,1,1.34.33-.84,0-1.17-.67-1.51Zm1,15.93c1.51.33,1.17,1.67,1.51,2.51C65.39,89.86,65.05,89.35,62.71,89Zm3.52-3.19c-1.34-.5-1.51.84-2.35.67-.5,0-1-.33-1,.51,0,.5.67.67,1.18.67C65.39,87.68,65.39,86.34,66.23,85.83ZM63.88,75.27c.17.17.34.5.5.5.34,0,.67-.16.67-.5,0-.5-.33-.5-.67-.34C64.22,74.93,64.05,75.1,63.88,75.27Zm.84,6.54c-.34,0-.67,0-.5.33,0,.51.33.51.67.17.16,0,.33-.17.5-.17v-.67A.88.88,0,0,1,64.72,81.81Zm.33-7.38c.17.17.67.17.67,0,.68-.67-.16-1.17-.33-2.18C65.05,73.26,64.38,73.76,65.05,74.43Zm1.35,3c0-.17-.17-.34-.51-.34-.5,0-.84.17-.84.68,0,.16.34.5.84.5C66.06,78.12,66.4,78,66.4,77.45Zm-.17,4.19c0-.33-.51-.84-.84-.17.17.17.17.34,0,.67C65.89,82.31,66.23,82.14,66.23,81.64Zm1-4.86c0,.5,0,1,.67,1.17.34.17.67-.16.67-.5.17-.67-.16-1-1-1v-1c.5-.17,1.17-.51,1-1.18,0-.33-.33-.5-.67-.33-.67.17-.5.84-.67,1.34v.17C66.06,75.94,66.73,76.28,67.23,76.78Zm-.5-8c0,.17,0,.5.34.5.16,0,.33-.33.33-.5.17-.33-.17-.5-.33-.5C66.73,68.06,66.73,68.4,66.73,68.73Zm.67,26c.17-.17.5,0,.5-.5-.16-.17-.33-.34-.5-.34-.17.17-.33.34-.33.5C66.9,94.55,67.07,94.72,67.4,94.72Zm-.17-19.28h.34C67.57,75.61,67.4,75.61,67.23,75.44Zm.34,1c0,.17-.17.17-.34.34C67.4,76.61,67.4,76.44,67.57,76.44Zm-.34,8.22a2.43,2.43,0,0,0,2.69-.5A3.17,3.17,0,0,0,67.23,84.66Zm1.34,12.07c-1,.17-1,.84-1.34,1.51C68.91,98.58,68.74,97.74,68.57,96.73ZM67.4,67.05c.5,1,1-.16,1.85.34-.68-.84-1-1.51-1.68-1.17A.57.57,0,0,0,67.4,67.05Zm1.51,19.29A4.84,4.84,0,0,1,67.4,86C67.74,86.5,68.24,87,68.91,86.34Zm-1.34,3c0,.34.33.51.67.51.17,0,.33-.34.33-.67s0-.67-.5-.67A1,1,0,0,0,67.57,89.35Zm2-16.26c-.17-.34-.17-.67-.67-.84-.34,0-.34.5-.34.67C68.74,73.59,69.25,73.26,69.58,73.09Zm-.33-4.36c0,.17,0,.5.33.34s.67-.34.5-.67c0-.17-.33-.34-.33-.51A.92.92,0,0,0,69.25,68.73ZM70.42,77c.17-.51-.34-.67-.67-.84a.44.44,0,0,0-.5.5c0,.34.16.84.67.84h.5Zm-.84-3.69c-.17.5,0,.84.67.67.34,0,.67-.17.5-.67C70.42,72.42,69.92,73.26,69.58,73.26Zm.84,21.29c0-.33-.17-.33-.34-.33s-.5.16-.5.33c0,.34.34.34.5.34A.37.37,0,0,0,70.42,94.55Zm0-7.38c.67,0,.33-.5.33-.83a.7.7,0,0,0-.5-1c-.5,0-.5.5-.33.5C70.42,86.17,69.25,87.17,70.42,87.17Zm-.17-3c.5-.17,1.17,1.17,1.68,0,.17-.51,0-1.51-.67-1.51C70.25,82.48,70.59,83.65,70.25,84.16Zm.17-6.71a.83.83,0,0,0,1.17.17c.17,0,0-.17,0-.34C71.09,77,70.75,77.28,70.42,77.45Zm1,1.68c0-.51-.33-.51-.67-.51s-.33.34-.33.51a.75.75,0,0,0,.5.67C71.26,79.8,71.42,79.46,71.42,79.13Zm-.33,13.74c.17,0,.33,0,.33-.33s-.33-.5-.67-.5-.16.16-.33.33C70.42,92.87,70.59,93,71.09,92.87Zm1,40.58c-.51-.5-1-.17-1.68-.17a1.19,1.19,0,0,0,1.51.5ZM70.75,95.89c0,.17,0,.51.34.51s.33-.34.33-.51c0-.33-.16-.5-.33-.33C70.75,95.56,70.75,95.72,70.75,95.89Zm.51-24.81c.33.17.5.17.84-.17,0-.33,0-.5-.34-.5-.17,0-.67,0-.84.17S70.92,70.91,71.26,71.08Zm.84,25.65c-.17-.17-.34-.17-.34,0-.17.5,0,.84.5.84C72.43,97.23,72.43,96.9,72.1,96.73Zm1.17-24.31c.17-.34-.17-.67-.5-.67-.34-.17-.67.17-.67.5-.17.34,0,.67.33.67C72.93,72.92,73.27,72.75,73.27,72.42Zm-.34-3c.17,0,.34,0,.34-.17.17-.33-.17-.5-.34-.5-.16-.17-.5.17-.5.34C72.26,69.4,72.6,69.4,72.93,69.4Zm.34,17.94a.59.59,0,0,0-.34-.17c-.33,0-.5,0-.5.34a.36.36,0,0,0,.34.33C72.93,87.84,73.1,87.68,73.27,87.34Zm.5-13.08a.85.85,0,0,0,.84-.67c0-.33-.5-.33-.67-.5-.5-.17-.5.34-.67.67A.53.53,0,0,0,73.77,74.26Zm-.33-3.52c0,.34.33.51.67.67h.5c0,.67,0,1.18,1,.67l-1-1.17c0-.67-.5-.5-1-.5A.6.6,0,0,0,73.44,70.74Zm.33,20.12.5.51a.37.37,0,0,0,.34-.34c0-.34,0-.5-.17-.67C73.94,90.36,73.94,90.69,73.77,90.86Zm1.34,15.26c-.5.17-1.17,0-1.34.84a.64.64,0,0,0,.84.5C75.28,107.29,75.45,106.79,75.11,106.12Zm0-26.66c0-.33-.33-.5-.67-.5-.17,0-.5,0-.5.33a1.15,1.15,0,0,0,.84.67C74.78,79.8,75.11,79.63,75.11,79.46ZM75,95.22c0-.17,0-.33-.34-.33s-.5.33-.67.67c0,.33.33.16.33.16C74.78,95.89,75,95.56,75,95.22Zm0,28.67c0-.17,0-.5-.34-.5a.36.36,0,0,0-.34.33c0,.34.34.34.51.51A.59.59,0,0,0,75,123.89Zm-.34-52.48v-.5A.31.31,0,0,1,74.61,71.41ZM75,93.54c.83.51,1.34.51,1.84-.16A2.43,2.43,0,0,0,75,93.54Zm.16,12.58c.34.17.67.17.84.33a.58.58,0,0,0,.84-.5c.17-.5-.5-.33-.84-.33S75.28,105.62,75.11,106.12ZM76,89.35a.44.44,0,0,0,.5-.5c0-.5-.16-.67-.5-.67s-.67.17-.67.5C75.28,89.19,75.45,89.35,76,89.35ZM76.12,117c.33.17.5.17.67-.17,0-.5-.17-.5-.5-.5s-.67,0-.67.33C75.45,117,75.78,117,76.12,117Zm-.5-31c0,.67.33.84.83,1,.51,0,.84,0,1-.67a1.5,1.5,0,0,0-1-1C76.12,85.33,75.62,85.5,75.62,86Zm.16-5.53a.51.51,0,1,0,.51-.51A.45.45,0,0,0,75.78,80.47Zm1,51.47c-.34,0-.34.34-.5.5,0,0,.16.34.33.34.34.17.51,0,.51-.17C77.13,132.28,77.13,132.11,76.79,131.94Zm.5-25c-.5-.17-.84.17-.84.67s.51.5.84.5a.93.93,0,0,0,.84-.5C78,107.13,77.8,107,77.29,107Zm.34,7.21c.33-.17.84-.34.84-.84s0-.67-.51-.67c-.67-.17-.5.5-.83.84C77,113.83,77.29,114,77.63,114.17Zm1.17,7.88c-.17-.34-.33-.67-.67-.51-.33,0-.5.34-.33.51a.87.87,0,0,0,.67.33C78.63,122.55,78.63,122.21,78.8,122.05Zm-1-50.8c0,.16.16.5.33.33.17,0,.17-.33.34-.5a.37.37,0,0,0-.34-.34C77.8,70.74,77.8,70.91,77.8,71.25Zm.33,20.12c-.33,0-.33.16-.33.33,0,.34,0,.67.33.5.34,0,.34-.16.34-.33C78.47,91.53,78.47,91.37,78.13,91.37ZM79,118h-.5c-.34,0-.51.17-.34.34.17.33.34.5.5.33C79,118.69,79.14,118.53,79,118Zm.67,2.18v-.33c-.5-.34-1-.5-1.34,0s-.17.67.17.84C79,120.87,79.64,121.38,79.64,120.2ZM79.3,85c.17,0,.34,0,.34-.33.17-.34-.17-.34-.5-.5l-.34.33A.44.44,0,0,0,79.3,85Zm.17,17.78c-.17,0-.5,0-.5.33,0,.17.17.34.5.5.17,0,.17-.16.17-.33S79.64,102.77,79.47,102.77ZM79.64,91a.44.44,0,0,0-.5.5c-.17.51.16.51.5.51s.34-.34.34-.67C80,91.2,80,91,79.64,91Zm.67,33.7s-.33-.17-.5,0c-.51.34-.51.84-.34,1.51A2.26,2.26,0,0,0,80.31,124.73Zm1-4.19c.33.17.67-.17.84-.5v-.34c-.17-.33-.51-.33-.84-.17a2.75,2.75,0,0,1-1.68.34c.17.17.17.17.17.33A2.48,2.48,0,0,1,81.32,120.54Zm-.67,7.54a22,22,0,0,0,3,1.34c-.16-1.84-2.34-1.5-2.85-2.85C80.31,127.08,80,127.58,80.65,128.08Zm-.34-11.9a1.12,1.12,0,0,0,.84.67c.17.17.33-.17.5-.34.34-.5-.17-.67-.33-.83-.34-.17-.17-.84-1-.84Zm.5,7.21c-.16,0-.5,0-.33.33,0,.17,0,.67.5.51.17,0,.34-.17.67-.34C81.32,123.56,81.15,123.39,80.81,123.39ZM81,83.15c.34,0,.34-.5.67-.84-.17,0-.33-.17-.5-.17-.5-.16-.67.17-.67.51A.54.54,0,0,0,81,83.15Zm.67,28,.34.17c.33,0,.5,0,.5-.34s-.17-.33-.33-.33C81.82,110.65,81.48,110.81,81.65,111.15Zm.51,14.75c0,.34.33.34.5.34s.5,0,.5-.34c-.17,0-.33-.16-.5-.33C82.32,125.57,82.16,125.74,82.16,125.9Zm2,10.73c-.67.34-1.51-.33-2,.67C83,137.3,83.66,137.64,84.17,136.63Zm-.84-3c-.5,0-.5.16-.5.5.16.33.33.33.67.33s.33-.33.33-.5C83.83,133.62,83.66,133.45,83.33,133.62Zm.84-15.6c-.17-.16-.34,0-.34.34,0,.17-.17.5.17.5.33.17.5,0,.5-.33C84.67,118.36,84.5,118.19,84.17,118Zm2.18,3.36c.33.16.33-.34.84-.67l-.68-.51c-.5-.16-.67.17-.67.67C85.68,121.21,86,121.38,86.35,121.38Zm1,3.52a.59.59,0,0,0-.5-.17c-.17,0-.5-.17-.5.17s.33.33.67.33C87.19,125.23,87.35,125.23,87.35,124.9Z" style="fill:#3d4048"/><path d="M184.93,64a47.75,47.75,0,0,0-.34,9.89,12.21,12.21,0,0,1,0,3.52c-.5,2.35-.17,4.86,0,7.38.17,3.85,0,7.71,0,11.73v14.92a31.44,31.44,0,0,1-.5,5.54c-1.34,6-2.85,12.07-6.37,17.27a25.06,25.06,0,0,1-7,6.87,37.38,37.38,0,0,1-21,6.54,1,1,0,0,0-.67.17H137.81l-6.37-.84a16.66,16.66,0,0,1-8-3.19c-1.67-1.17-3.52-2.18-5.36-3.35-5.53-3.52-8.89-8.55-11.07-14.42a40.38,40.38,0,0,1-2.85-17.27,69.31,69.31,0,0,0,.17-11.9c-.33-6.54,0-13.25-.33-20-.17-4,0-8.22.16-12.41a36.63,36.63,0,0,0-.5-6.2V56c.5-2.18,1.51-3,4-3.52A3.69,3.69,0,0,0,109,52.3h12.74a40.59,40.59,0,0,0,4.53.33,3.77,3.77,0,0,1,3.52,3.19,6.18,6.18,0,0,1,.33,1.68c0,5.36.34,10.56-.17,15.93-.5,5-.16,10.06-.16,15.09,0,3.52-.51,6.87-.34,10.39a87.36,87.36,0,0,0,1.17,12.91c.67,2.51.84,5,2.18,7.38,1.85,3.18,4.2,5.19,8.05,5.7a18.61,18.61,0,0,0,14.25-3.52,5.85,5.85,0,0,0,2.35-3.86,37.4,37.4,0,0,0,1.34-12.24c-.33-6.2-.84-12.41-.67-18.61.17-4.19.67-8.38.67-12.41-.17-5.36.34-10.56.17-15.92,0-3.53,2-5.71,5.7-5.71,5.2-.16,10.4-.16,15.42,0,2.52,0,4.2,1.68,4.87,4Zm-73.1,33c.33-.17.67-.34.5-.67s0-1.18-.67-1.18a1.08,1.08,0,0,0-.84,1C110.82,96.9,111.66,96.73,111.83,97.07ZM111,92c.33.5,1,.16,1.67,0l-1.17-.34C111.16,91.53,110.65,91.7,111,92ZM112.5,106a.36.36,0,0,0,.33-.33c-.17-.51-.67-.34-1-.67C111.83,105.62,112.16,106,112.5,106ZM112,81c.34,1,1.18,1,2,.84A1.38,1.38,0,0,0,112,81Zm1.85,27.33a.32.32,0,0,0,.17-.5c-.34-.67-1-.34-1.68-.17C112.83,108.3,113.17,108.63,113.84,108.3Zm1,2.18c.34-.17.17-.67,0-1.17-.33.16-.83.16-1,.5-.34.5-1,.5-1,1.34a.59.59,0,0,0,.34.17C114,111.48,114.34,110.81,114.84,110.48Zm-1-32.69c.17.33.5.16.5-.34a.86.86,0,0,0-.67-.84c-.5,0-.5.34-.67.67C113,78.12,113.5,77.62,113.84,77.79Zm.84,5.7c-.84-.34-1.18.16-1.51.83C114,84.49,114.34,84,114.68,83.49Zm.16,6.53c-.33-.33-.67-.83-1.17-.67a.9.9,0,0,0-.5.67c0,.67.84.17,1.17.34.17.33.34.33.67.17A.62.62,0,0,0,114.84,90Zm-1.67,10.9c.5-.33,1.17-.5,1.17-1.17a.59.59,0,0,0-.33-.17C113.33,99.75,113.5,100.42,113.17,100.92Zm1.51-3.18a.59.59,0,0,0-.17-.34c-.67,0-.5.84-1.18,1C114.34,98.91,114.34,98.07,114.68,97.74Zm-.84,8.55c1,.5,1.17-.51,1.84-.84-.84-.5-1.51-.67-2.18,0C113.17,105.78,113.67,106.12,113.84,106.29Zm-.34-34c0,.34.17.34.51.34,0-.17.33-.17.16-.34s-.16-.33-.5-.33S113.33,72.08,113.5,72.25Zm.67,29.85c-.16,0-.33,0-.5.33,0,.17.34.34.5.34s.51-.17.51-.34S114.51,102.1,114.17,102.1Zm.67-6a.45.45,0,0,0,.51-.5c-.17-.51-.17-1-.84-1-.5-.17-.34.34-.5.5C113.84,95.89,114.68,95.72,114.84,96.06Zm2.69,19.45c-.34-1-1.18,0-1.85,0h-1.17c-.5.17-.67.67-.34,1,.17.34,0,.84.67.84.17-.33.67-.5,1-.67C116.35,116.35,117.69,116.35,117.53,115.51ZM114,80v1.85C114.51,81.47,114.51,81.31,114,80Zm.83,12.75c-.33,0-.5-.34-.67.16-.16.17-.16.51,0,.51a1.32,1.32,0,0,0,.84.16c.5-.16.67-.67,1.18-.83C115.85,92,115.35,92.71,114.84,92.71Zm-.16-21.63c.33.5.83.17,1.17.17a.71.71,0,0,0-1-.51C114.68,70.74,114.68,70.91,114.68,71.08ZM116,103.27c.17,0,.33-.17.67-.34-.17-.33.17-.83-.5-1.17-.34.34-.68.5-.84.84-.34.33-.84.84-.51,1.34C115.51,104.44,115.51,103.44,116,103.27Zm-.34-4.53c0-.16,0-.33-.33-.5-.17,0-.34.17-.34.67a.59.59,0,0,0,.34.17C115.68,99.25,115.68,98.91,115.68,98.74Zm-.67,2.18c0,.17,0,.5.17.5.5,0,.67-.16.67-.5.17-.17,0-.33-.17-.33C115.35,100.42,115,100.59,115,100.92Zm4.53,5.37c-.34,1.51-1.51,1-2.52.84a1.79,1.79,0,0,0-2,.16,5.65,5.65,0,0,1,2.68.84,2,2,0,0,0,2.18,0C120.54,107.8,119.71,107,119.54,106.29ZM115.85,74.6c-.17.17-.84.5-.5.67.5.5-.34,1.51.16,1.34,1.18-.17,2.18.5,3.36-.33a2.75,2.75,0,0,1-2.18-1.35C116.35,74.6,116.35,74.26,115.85,74.6Zm-.17,6.2c-.5,1.18.67,1.18.84,1.68.67-.34-.5-1.34.67-1.34.34.17.5.5.67,0,0-.34.34-1-.33-.84C116.86,80.3,116,80,115.68,80.8Zm.67,30.68c0,.17.51.34.67,0a10.05,10.05,0,0,0,1.18-1.67c0-.34.16-.67-.34-.67-.33,0-.67-.17-.67.33s.17,1-.5.51c-.34-.34-.67-.51-1,0C115.18,110.65,116.52,110.65,116.35,111.48Zm-.67-2.85a.45.45,0,0,0,.51.51.73.73,0,0,0,.67-.67.45.45,0,0,0-.51-.51C116,108.13,115.51,108.13,115.68,108.63Zm.84-29.34c.34-.16.67-.33.67-.67s-.33-.33-.5-.33A.71.71,0,0,0,116,79C116,79.29,116.35,79.29,116.52,79.29Zm.17,8.89a2.47,2.47,0,0,0-.67,1.51h1.67C117,89.52,117.36,88.52,116.69,88.18Zm-.34,4.69-.33.67h.84a.87.87,0,0,0,.67-.33c-.34-.5-.84-.17-1.18-.34v-.16h-.16A.16.16,0,0,0,116.35,92.87Zm.51,1c.16.67-.84.5-.51,1.17h.34C117,94.89,117.19,94.55,116.86,93.88Zm1,9.56a1,1,0,0,0-1.17-.34c0,.5-.5,1.18.17,1.51.33.17,1,.17,1-.5v-.17c.34-.17,1-.17.84-.5-.34-.84-.5.16-.84,0a.31.31,0,0,1,0,.5ZM117,120.2a1.36,1.36,0,0,0,0,2A2.74,2.74,0,0,0,117,120.2Zm.17-14.08a.59.59,0,0,1,.34.17.93.93,0,0,0,.67-1c.16-.17.67-.17.5-.67a.59.59,0,0,0-.34-.17l-.5.84C117.53,105.45,117.19,105.62,117.19,106.12Zm2.18,16.43c-.33-.34-.67-1-.84-1-.84.17-1,.84-1.17,1.51-.17.51.33.51.67.84C118.2,123.22,119,123.05,119.37,122.55Zm-1.68-22.8a.53.53,0,0,0,.51.5.55.55,0,0,1,.33-.17c-.17-.33-.17-.5-.5-.67C117.86,99.25,117.69,99.41,117.69,99.75Zm.17-31.35c0,.33.17.33.34.33.33.17.5,0,.5-.17.17-.33-.17-.5-.34-.5C118,68.06,117.86,68.23,117.86,68.4Zm.34,36.88h-.34C117.86,105.11,118,105.11,118.2,105.28Zm1.51,7.55a.78.78,0,0,0-.84-.51c-.17,0-.51,0-.34.34,0,.33.34.5.67.5S119.71,113.16,119.71,112.83ZM119,80.63c-.51.17-.51.51-.51,1l.34.17C119.37,81.47,119,81,119,80.63Zm1,21.13c.34,0,.84-.5,1-1a.41.41,0,0,0-.67-.16c-.67.33-1.68,0-1.85.5C118.53,101.76,119.54,101.42,120,101.76Zm-.67-6.54c-.17.17-.17.17-.33.17-.84.33.16,1-.34,1.34a.59.59,0,0,1,.17.34v.33c-.17.5-.17,1,.5.84.34,0,.67.17.67-.17.17-.5-.5-.33-.67-.67a.55.55,0,0,0-.17-.33C119.71,96.56,119.37,95.89,119.37,95.22Zm-.5-5.7c.67.67,1.34,0,2.18.17,0-1-.51-1.17-1.18-1.17A1.4,1.4,0,0,0,118.87,89.52Zm.33,7.55c-.16.16-.16.16-.33,0Zm.34-25c.17,0,.33.17.5.17.67-.17.34-.5.34-.84A1.71,1.71,0,0,0,119.54,72.08Zm1.84,22.81c0-.51-.5-.67-1-.67-.67-.17-.51.16-.34.5,0,.33-.33.84.5.67C120.88,95.39,121.38,95.72,121.38,94.89Zm-1.17-17.1c-.17.66-.34,1,.17,1.34,0,.16.16.16.16,0C120.88,78.62,120.21,78.45,120.21,77.79Zm1.68,27.66-1.18-.84c0-.33.17-.67-.17-.67a.59.59,0,0,0-.33.17c-.34.5,0,.84.5,1C120.71,105.78,121.05,105.78,121.89,105.45Zm-1.18-.84v.5C120.54,104.78,120.54,104.78,120.71,104.61Zm.34-23a2.23,2.23,0,0,0,.84,1.34c.16-.67.16-1.17-.34-1.51A1.62,1.62,0,0,0,121.05,81.64Zm1.84,6.2c0-1.67-.17-1.67-1.68-1.34Zm-1.51-13.91a.59.59,0,0,0,.34.17c.5.16.84-.17.84-1.18C122.22,73.76,121.55,73.26,121.38,73.93Zm.17,42.08c.17.17.5,0,.5-.33,0-.17,0-.51-.33-.51-.17,0-.34,0-.34.34A.6.6,0,0,0,121.55,116Zm1,5.53c-.17-.16-.17-.67-.51-.67-.5,0-.33.34-.33.67s0,.51.5.51C122.22,121.88,122.56,121.71,122.56,121.54Zm0-46.77c-.34.16-1,.67-.84,1,.5,1.18,1.51,1,2.51.84C123.56,75.94,123.9,74.77,122.56,74.77Zm0,6c.5.17.33-.5.67-.67-.34-.5-.34-1.17-.84-1.17s-.67.5-.67.84C121.72,80.3,122.22,80.63,122.56,80.8Zm-.84,23.31a.74.74,0,0,0,.67.5c.17,0,.17-.17.17-.33.16-.51-.17-.68-.51-.51C121.89,103.77,121.72,103.77,121.72,104.11Zm1.17-3.52h-.17c-.67.16-.83.33-.67,1C122.56,101.42,123.06,101.26,122.89,100.59Zm.5-7.55c0-.17.17-.33,0-.33-.33-.34-.67-.17-1,0C122.72,92.54,122.89,93.38,123.39,93Zm-.33,23.81c-.34,0-.5.34-.5.84-.17.5.33.67.67.84.5,0,.5-.51.67-.84A.91.91,0,0,0,123.06,116.85Zm.5,3c0-.34-.17-.34-.33-.34s-.51,0-.51.34a.87.87,0,0,0,.67.33A.55.55,0,0,0,123.56,119.87Zm.34-17.44c-.17,0-.34,0-.34.34,0,.16.17.16.34.33a.35.35,0,0,0,.33-.33C124.4,102.26,124.07,102.43,123.9,102.43Zm.67,12.07c0-.17-.17-.33-.5-.33,0,0-.51-.17-.34.33l.5.34C124.4,114.84,124.4,114.67,124.57,114.5Zm.5-19.61c.34-.51-.17-.84-.5-1.51,0,.84-.17,1.34.17,1.67C124.74,95.05,125.07,95.05,125.07,94.89Zm1.34,37.72c0-.84-.5-.84-.84-.84-.33-.17-.83.17-.67.51s.67.5,1,.67C126.25,133,126.41,132.78,126.41,132.61Zm-1-44.26c0,.17.16,0,.33,0,.17-.51,0-.84-.5-1.18C125.24,87.68,124.9,88,125.41,88.35Zm.16,27a.36.36,0,0,0-.33.34c0,.16,0,.33.17.33.33.17.5-.17.67-.33C125.91,115.51,125.74,115.34,125.57,115.34ZM127.08,89c-.33,0-.67,0-.67.5,0,.84,1,.34,1.34,1C127.59,89.69,128.09,89,127.08,89Zm.34,45.43c0-.16-.34-.33-.34-.33-.33,0-.67,0-.67.33s.17.34.51.34C127.08,134.79,127.42,134.79,127.42,134.45Zm1.51-7.2c.17,0,.33,0,.33-.34s-.16-.5-.5-.67c-.34,0-.34.17-.34.33C128.26,127.08,128.42,127.25,128.93,127.25Zm1,8.71c-.67.34-1.34.51-1.17,1.18,0,.16.34.5.34.5A1.86,1.86,0,0,0,129.93,136Zm3.36-.84c0-.33,0-.83-.51-.83-.33-.17-.5.16-.67.5,0,.5.34.67.67,1C133.29,135.8,133.29,135.29,133.29,135.12Zm3,3c-.16,0-.33-.16-.5-.16-.33,0-.5.16-.5.33.17.34.33.34.5.34A.44.44,0,0,0,136.3,138.14Zm2.35-3a.86.86,0,0,0-.33,1.18C138.82,136.13,139,135.8,138.65,135.12Zm1.51-.83a.45.45,0,0,0-.5-.51c-.17,0-.34.17-.5.34,0,.17,0,.33.33.33C139.66,134.45,140,134.62,140.16,134.29Zm.34,5c-.34,0-.34.16-.34.33s0,.51.17.51.33-.17.33-.51C140.83,139.48,140.66,139.32,140.5,139.32Zm3.69.67c.16,0,.16-.84-.34-.67-1.34.16-.17,1.17-.34,1.51-.16.5-.5,1,.17,1C144.86,141.66,143.51,140.49,144.19,140Zm.67-3.19a.59.59,0,0,0-.84.5c-.17.17.17.34.5.34s.67.17.67-.34C145.19,137,145.19,136.8,144.86,136.8Zm.5-6.87a1.36,1.36,0,0,0-1.17-.84c.5.5.5,1,1,1.17Zm1.51,7.54c0-.17-.34-.17-.34,0-.17.34-.17.67.17,1.34C147,138.14,147.2,137.81,146.87,137.47Zm1.34-3.18c.33-.17.67,0,.67-.51.17-.16,0-.16-.34-.16-.16,0-.5,0-.5.33C148,134.12,148,134.29,148.21,134.29Zm1.68,3.52c-.17-.17-.68-.17-.51.17.67,1.34-.67,1-1,1.67.16,0,.33.34.5.34.5,0,1.34.17,1.68-.34A2.16,2.16,0,0,0,149.89,137.81Zm3-.34s-.33.17-.33.34c-.17.17-.17.33.17.5.16-.17.33-.17.33-.33C153.24,137.64,153.24,137.47,152.9,137.47Zm1.51-3.52a2.76,2.76,0,0,0-.33-.5c-.67-.67-.84.5-1.34.67C153.24,134.12,153.91,134.45,154.41,134Zm.67,2.85c0-.33-.16-.5-.5-.33-.17,0-.5,0-.5.16s.16.34.5.34A.59.59,0,0,0,155.08,136.8Zm.84-6.37c-.5.34-.84.34-.67,1l.34.16C156.09,131.44,156.09,130.93,155.92,130.43Zm4-3.18,1.17-1.35C160,125.9,159.78,126.24,160,127.25Zm1,3.18c-.17,0-.17.17-.17.5,0,.17,0,.34.34.34.17,0,.17-.17.33-.34C161.45,130.6,161.45,130.43,161,130.43Zm2.68-5.36c-.67-.34-1.17-1-1.84-.51-.34.17-.17.84.33,1.18C162.8,126.24,163.13,125.57,163.63,125.07ZM162.29,133c0-.34-.17-.51-.33-.51a.17.17,0,0,0-.17.17c-.17.34-.17.67.17.67C162.12,133.11,162.29,133.11,162.29,133Zm1.85-27.17c-.67.17-1.51-.83-1.85.34,0,.5.17.67.67.84C164.3,107.29,163.8,106.12,164.14,105.78Zm1,13.75c-.16.17-.33.34-.33.51s.17.5.33.5c.34,0,.34-.17.34-.5C165.48,119.87,165.48,119.53,165.14,119.53Zm1-16.76a1.87,1.87,0,0,0-.17,1.84C166.65,104.11,166.48,103.6,166.15,102.77Zm.84,4.36c.16-.51,0-1.18.5-1.35-.34-.33-.67-.16-1,.34A.76.76,0,0,0,167,107.13Zm-.17,6.7c.17,0,.5.17.5-.17-.17-.16-.33-.33-.33-.5-.34,0-.51.17-.51.34C166.48,113.83,166.65,113.83,166.82,113.83Zm.33-32c.17,0,.51,0,.51-.34s-.17-.33-.34-.33-.5,0-.5.17C166.82,81.64,167,81.81,167.15,81.81Zm1.18,33.2c-.5.5-1.18.16-1.51.83v.51C167.49,116,168,115.84,168.33,115Zm-.84-9.23v.51c0,.33-.17.67.17.84.17,0,.33-.17.5-.34.34-.17.17-.5-.17-.67Zm.5-23a.36.36,0,0,0-.33.34c-.34.34-.17.67.17.5S168.16,83.15,168,82.81Zm1.51,22.64c0-.5.51-1-.17-1.34-.16-.17-.83,0-.83,0C168.5,104.78,169.17,105,169.5,105.45Zm-.5-5.87c.33-.33,1-.17,1-.84,0-.33-.17-.5-.34-.5A1.37,1.37,0,0,0,169,99.58Zm.67,9.89c.5.17.84-.33,1-.84-.51,0-1,.34-1.18-.5C168.5,108.8,169.33,109.31,169.67,109.47Zm0-24.48.5-.5c0-.17-.16-.33-.33-.5a.53.53,0,0,0-.51.5C169.33,84.66,169.33,85,169.67,85Zm1.51,27c-.67-.17-1,0-1.34,1ZM170,95.39c0,.67-.17,1.17.33,1.84C170.68,96.56,170.84,96.06,170,95.39Zm.67,21.46c-.17,0,0-.5-.34-.34-.17.17-.33.34-.33.51s0,.33.33.33C170.51,117.35,170.68,117,170.68,116.85Zm.5-13.58-.34-2C169.84,102.1,169.84,102.1,171.18,103.27Zm-.34-30.68a3.3,3.3,0,0,0,1.51-1.51c-.17-.17-.33-.34-.5-.34-.5.51-1.17.84-1.51,1.51C170.17,72.59,170.68,72.59,170.84,72.59ZM172.52,81c-.5-.34-.84-1-1.51-.67,0,0-.17.33,0,.5.17.67.84.17,1.34.34V81Zm-.5,25c-.51.34-.67.67-.34,1.18h.17C172.35,106.79,172.18,106.45,172,106Zm.67,4.36c.67-.33,1.34-.67,1-1.51-.16-.33-.67-.84-1-.67C171.85,108.8,172.69,109.64,172.69,110.31Zm1.17,4.86c-.5,0-.33-.84-1-.67-.34,0-.51.34-.34.51.84.16-.34,1,.5,1C173.69,116.18,173.36,115.51,173.86,115.17ZM172.52,81v.17c0,.84.67.84,1,1.17C173.36,81.81,173.53,80.63,172.52,81Zm1.17,20.45a1.07,1.07,0,0,0-.5,1.35c.34-.34.84-.51.84-1.18Zm.67,11.24c0-.34-.16-.34-.33-.34-.34,0-.5-.16-.5.34,0,.17-.17.5.16.33C173.86,113,174.36,113,174.36,112.66ZM174,73.43c0,.33.17.5.5.33a.67.67,0,0,0,.67-.84c0-.17-.16-.33-.67-.33A1,1,0,0,0,174,73.43Zm1.68,26.15c0-.5-.34-.33-.67-.33a1.05,1.05,0,0,0-.34-1.18c-.17.17-.34.17-.34.34-.16.67,0,1,.68.84,0,.33-.17.67.33.83C175.37,100.08,175.71,99.75,175.71,99.58Zm-.84-7.88c-.17.17-.34.34-.34.5a.5.5,0,0,0,.67.34c.34,0,.17-.34.17-.67C175.37,91.7,175.2,91.53,174.87,91.7Zm2.34,13.08c-.5-.5,0-1.51-.83-1.51a1.08,1.08,0,0,0-.84,1c0,.5.5.83,1,1C176.88,105.28,177.05,105.11,177.21,104.78Zm-.67,2.18c-.16-.17-.33-.34-.5-.34,0-.17-.33,0-.33.17-.17.34.16.5.33.67C176.38,107.46,176.38,107.29,176.54,107Zm-.83-9.73c0,.17.33.34.33.34.67,0,.67-.17.5-.5,0-.17,0-.34-.16-.34A.75.75,0,0,0,175.71,97.23Z" style="fill:#3d4048"/><path d="M271.44,116.51V119a53.82,53.82,0,0,1-2,8.89,22.37,22.37,0,0,1-6.54,9.55,43.38,43.38,0,0,1-20.79,9.73,43.43,43.43,0,0,1-4.7.17c-1,.16-2.18-.17-3.18.16h-.68a16.42,16.42,0,0,0-4-.16c-8.38-.34-15.42-4.2-22.13-8.56-3-2-5.53-4.86-8.38-7.21-.84-.83-.84-2-1.18-3v-1.68c.17-3,2-5,4.36-6.54l7.38-5c2.51-1.68,4.19-1.84,6.2.17a45.12,45.12,0,0,0,11.74,7.88,14.83,14.83,0,0,0,10.06.84c1.84-.51,3.86-.67,5.36-2,2.52-2.34,2.52-7,0-9-2.18-1.68-4.69-2.68-7-4a24.39,24.39,0,0,0-8.55-2.85,24.86,24.86,0,0,1-6.7-2.52c-1.85-.84-3.69-1.67-5.54-2.35-6.54-2.34-10.23-7.54-12.74-13.58-3.35-7.88-2.52-15.42,1-23a7.69,7.69,0,0,1,1.5-2.51,38.72,38.72,0,0,1,7.38-6.54,7.36,7.36,0,0,1,3-1.51c4.69-1.17,9.39-2.85,14.25-2.68.17,0,.17,0,.34-.17h5.7a26.08,26.08,0,0,0,5.19.17,27.61,27.61,0,0,1,15.43,4c3,1.68,6,2.85,8.89,4.7a6.27,6.27,0,0,1,0,10.56c-2.69,1.84-4.7,4.36-6.88,6.71a9.07,9.07,0,0,1-4.36,2.68A4.12,4.12,0,0,1,249.64,79a24.11,24.11,0,0,0-10.73-5.87c-3.19-.84-6.71-1-9.89.84l-1.68,1.34a2.74,2.74,0,0,0,0,4,17.33,17.33,0,0,0,6.2,4A114.57,114.57,0,0,0,245.78,87a41.36,41.36,0,0,1,14.09,7.71,29.93,29.93,0,0,1,8.72,11.06,23.69,23.69,0,0,1,2.68,10.06C271.27,116.18,271.27,116.35,271.44,116.51Zm-61.2-39.06c.84.34,1.84-.17,2.68.67.17.17.67-.33.67-.67s0-.67-.16-.5c-1.18.16-2-.51-3-.67-.17,0-.34.16-.51.33C209.74,77.11,210.07,77.28,210.24,77.45Zm1.51-3.35a.75.75,0,0,0,.67.5c.33,0,.33-.34.5-.5,0-.34,0-.34-.33-.51A.92.92,0,0,0,211.75,74.1Zm1.84,11.4c-.5.33-1.34,0-1.34.84,0,.16.34.5.67.67.51-.34,1-.51,1-1.18C213.93,85.66,213.93,85.33,213.59,85.5Zm.51-2.69c-.34-.5.16-1.67-.84-1.84a.77.77,0,0,0-.51.5C212.42,82.48,213.43,82.48,214.1,82.81Zm-.67-12.74c.33.17.5-.17.5-.5s-.34-.5-.67-.67c-.34,0-.51.33-.51.67C212.59,70.07,213.09,69.9,213.43,70.07Zm.16,5.2c-.16,0-.33.34-.67.5l.84.67c.17-.16.5-.33.5-.5A.72.72,0,0,0,213.59,75.27Zm2.18,8.89c0-.34-.17-.51-.67-.67-.17,0-.17.33-.17.5a.45.45,0,0,0,.51.5C215.6,84.49,215.94,84.32,215.77,84.16Zm.67,44.26a.9.9,0,0,0-.84-.5c-.5,0-.33.33-.33.67s.33.33.5.33C216.11,128.92,216.28,128.59,216.44,128.42Zm.34-60.86c-1,1.17-1,1.17.17,2.34-.34.51-.84.84-.67,1.51.5,0,.83-.83,1.5,0,0,.17.51-.16.51-.5-.84,0-.34-1.34-1.18-1.34,0-.67,1.35,0,1-1.17-.17-1-.34-1.85-1.17-2.18-.67-.34-1,.5-1.35,1C215.77,67.89,216.61,67.05,216.78,67.56Zm-.17,6.87c.34-.17.84,0,.84-.5,0-.34,0-.67-.5-.5-.34,0-.67.16-.67.5C216.11,74.26,216.44,74.43,216.61,74.43Zm1.17,11.07c-.16-.34-.33-.67-.5-.67-.33,0-.5.33-.5.67s0,.5.33.5S217.78,85.83,217.78,85.5ZM217,69.9c0-.16.16-.16.16-.33C217.11,69.74,217.11,69.9,217,69.9Zm.83,6.21a.54.54,0,0,0,.51-.5c0-.34-.17-.68-.51-.68a.73.73,0,0,0-.67.68C217.11,76.11,217.28,76.28,217.78,76.11Zm.84,19.28a1.62,1.62,0,0,0-.5-.17c-.17,0-.34,0-.17.34,0,.16.17.33.67.33C218.62,95.89,218.79,95.56,218.62,95.39ZM219,92a.59.59,0,0,0-.5-.84.37.37,0,0,0-.51.5c0,.17,0,.67.51.67C218.79,92.37,219,92.37,219,92Zm0-27c.33,0,.33,0,.5-.33,0-.17-.17-.51-.33-.51-.34,0-.51.17-.51.34C218.62,64.87,218.62,65,219,65Zm.33,6.71a1.73,1.73,0,0,0-.5.17.32.32,0,0,0,.17.5c.33,0,.5,0,.67-.34A.36.36,0,0,0,219.29,71.75Zm.34,59.52c0-.17-.17-.5-.34-.5a.76.76,0,0,0-.5.5l.5.5C219.46,131.77,219.63,131.6,219.63,131.27Zm-.17-43.93c.17,0,.17-.33.17-.5s0-.5-.34-.5c-.16,0-.33.33-.33.5A.53.53,0,0,0,219.46,87.34Zm.5-7.88c0-.33-.16-.5-.33-.33-.34.16-.67.33-.5.67,0,.16.16.16.33.16C220,80,220,79.8,220,79.46Zm-.16,10.9a.59.59,0,0,0-.34-.17c-.17.17-.33.17-.33.34l.33.33C219.8,90.86,220,90.69,219.8,90.36Zm.84-7.88c-.17-.34-.34-.5-.68-.5-.33.16-.67.33-.67.67.17.33.34.5.67.5A.73.73,0,0,0,220.64,82.48Zm-1.18,2.18c-.33.5.17.84.34,1.51C220,85.5,220.13,84.83,219.46,84.66Zm.5-16.1c.34,0,.34-.16.34-.67,0,0,0-.17-.34-.17-.33-.16-.33.17-.33.34C219.63,68.4,219.63,68.56,220,68.56Zm2,61.54c-.34-.34-.51-.68-.84-.84-.34,0-.5.33-.5.67a.49.49,0,0,0,.33.67C221.31,130.6,221.64,130.26,222,130.1Zm-.51-56.51c0-.16-.16-.33-.33-.5-.34.17-.5.34-.5.67s.33.17.5.17C221.47,73.93,221.64,73.76,221.47,73.59Zm-.16-3.52c0,.34.16.34.33.51.34,0,.5,0,.5-.51,0-.17-.16-.17-.5-.17C221.47,69.9,221.31,69.9,221.31,70.07Zm.67,6.21c.83,0,1-.84,1-1.18.17-.33-.17-.84-.67-.84-.84,0-.84.51-.67,1.18C221.64,75.61,221.31,76.28,222,76.28Zm.33,2.85c.5,0,.67-.34.84-.84l-.5-.5c-.51,0-.67.33-.84.66C221.81,78.79,221.81,79.13,222.31,79.13Zm.84,53.48-.5-.67c-.17.34-.51.5-.34.84,0,.17.17.33.34.5C222.81,133.11,223.15,133,223.15,132.61Zm.17-45.1c.33-.84,1.84-.67,1.67-1.51-.5-1.68-.83,1-1.5.34-.51-.51-.84-.17-.84.16S223.15,87.51,223.32,87.51Zm.5,3a1.12,1.12,0,0,0,1.17-1c0-.33-.67-.67-1-.5-.34,0-1,.17-.84.84C223.15,90.36,223.32,90.53,223.82,90.53Zm.17-28c.5.17.33-.51.5-.84.34-.5,0-.67-.33-.67a.61.61,0,0,0-.67.67C223.49,62,223.32,62.53,224,62.53Zm.33,2.34c-.5-.16-.5.17-.5.51-.17.5.17.84.67,1,.34,0,.84-.16.84-.5C225.33,65.21,224.66,65,224.32,64.87Zm1,30.52-.84-.67a.49.49,0,0,0-.33.67.74.74,0,0,0,.67.5C225,95.89,225.16,95.56,225.33,95.39Zm0-27.83c0-.34-.34-.51-.67-.51-.17.17-.5.34-.5.51.16.16.33.5.67.5C225.16,67.89,225.5,67.89,225.33,67.56Zm.34,4.19c0-.34-.34-.5-.51-.67-.5.17-.67.33-.67.67-.17.33.17.5.5.67A.73.73,0,0,0,225.67,71.75Zm0,16.43a.5.5,0,1,0,1,0c0-.34-.33-.17-.5-.17S225.67,87.84,225.67,88.18Zm1.17,8c-.67-.17-.84.5-1.17.84.67,0,1.17.33,1.34-.34A1.62,1.62,0,0,0,226.84,96.23ZM228,135c-.33-.34-.5-.67-1-.67-.67-.17-.84.33-.84.67s.33.67.67,1.17A3.84,3.84,0,0,1,228,135Zm-.5-44.6c0-.17-.34-.17-.5-.17-.67.34-.34.84-.17,1.51C227.34,91,227.68,90.86,227.51,90.36ZM227.34,61l.67-.5-.67-.51a.36.36,0,0,0-.33.34C227,60.68,226.84,61,227.34,61Zm.17,4.69c-.34.17-.17.51-.17.67a.37.37,0,0,0,.34.34l.5-.5C228,66.05,227.84,65.71,227.51,65.71Zm1,0c.83.84,1,1.68,2,1.34.33-.16.67-.5.5-.83C230.53,65.38,229.69,65.88,228.52,65.71Zm2.17,28.17c-.16-.34-.33-.84-.83-.67a.49.49,0,0,0-.34.67.62.62,0,0,0,.67.67C230.53,94.55,230.69,94.22,230.69,93.88Zm.68,1.84-.17-.16c-.34,0-.67.16-.67.5,0,.17.33.17.5.17S231.37,96.06,231.37,95.72Zm.67-3c-.17-.34-.34-.67-.67-.67a1.16,1.16,0,0,0-.68.83,1.26,1.26,0,0,0,.84.17C231.7,93,232,93,232,92.71Zm-.67-27.84c.16.34.33.51.67.51s.33-.17.5-.51c-.17-.16-.34-.67-.67-.67A.75.75,0,0,0,231.37,64.87ZM233,135.29c-.33-.17-.67-.17-.67.34-.17.67-.67,1.34.5,1.51.34-.34,0-.84.17-1.18C233.38,135.63,233.38,135.29,233,135.29Zm2.85-41.07c0-.34-.17-.68-.5-.51-.5,0-.84.17-.84.67,0,.17.34.34.5.51C235.22,94.55,235.89,94.72,235.89,94.22Zm-.67,4.19-.5-.51c-.17,0-.17.34-.17.51,0,.33.34.33.5.33A.55.55,0,0,0,235.22,98.41Zm.17-34c.5-.17.84-.67.67-1.67,0,0,.34-.51-.34-.51-1,.17-.33,1-.67,1.34S235.05,64.54,235.39,64.37Zm-.17-4.53c.17.17.34.51.67.51s.34-.34.34-.51c-.17-.33-.17-.5-.51-.33C235.56,59.51,235.39,59.68,235.22,59.84Zm2.52,39.57c-.34-.16-.34-.33-.84-.33,0,.17-.34.33-.34.5s.34.5.51.34C237.4,99.92,237.57,99.58,237.74,99.41Zm-.34,32c0-.34,0-.51-.17-.51-.33-.16-.33.17-.5.34,0,.17,0,.33.34.5A.36.36,0,0,0,237.4,131.44Zm0-68.41c0,.17,0,.5.34.5s.33-.16.33-.67a.55.55,0,0,1-.17-.33C237.4,62.53,237.4,62.86,237.4,63Zm4,71.93c-.34-.51-.68-.51-1-.34-.17.17-.17.67-.84.5v-1.84a.44.44,0,0,0-.5-.5,1.62,1.62,0,0,0-.5.17,2.63,2.63,0,0,0,0,2.51,1.5,1.5,0,0,0,2.34.17C241.09,135.46,241.59,135.29,241.43,135ZM239.25,97.4c.33-.33.5-.67-.17-.84-.17-.16-.34,0-.5.17C238.41,97.23,238.74,97.57,239.25,97.4Zm-.17-32.69c.17.16.17-.17.33-.51,0,0-.16-.33-.33-.33s-.34,0-.34.33C238.74,64.37,238.58,64.71,239.08,64.71Zm1,33.7c.17,0,.51,0,.51-.34-.17-.67-.67-.67-1.18-.67l-.16.17C239.25,98.07,239.41,98.58,240.08,98.41Zm.67,38.56a.52.52,0,0,0-.5-.5.53.53,0,0,0-.5.5c0,.17.17.33.5.5C240.42,137.47,240.59,137.3,240.75,137ZM239.92,65c.16.34.33.67.83.34a3,3,0,0,1,.84-.34c-.84,1,.17,1.34.67,1.85.34.33.51,0,.67-.17.34-.34.17-.5-.16-.84a2.63,2.63,0,0,1-1.18-.84.83.83,0,0,0-.16-1.34c-.68-.5-.34.5-.84.5l-.34.34C239.92,64.71,239.58,64.71,239.92,65Zm1,34.54c-.17-.17-.33-.5-.67-.5a.35.35,0,0,0-.33.33c0,.34,0,.51.5.67Zm.17-7.54c.34,0,.5,0,.5-.34,0-.17-.33-.33-.5-.33s-.5.16-.5.33C240.59,92,240.92,92,241.09,92Zm.5,41.24c0-.17-.16-.33-.5-.33l-.5.33c0,.17,0,.34.33.34A.66.66,0,0,0,241.59,133.28Zm.17-31c-.17,0-.5,0-.5.17,0,.34.17.67.5.67.17.17.34,0,.34-.33C242.26,102.43,242.1,102.26,241.76,102.26ZM243.1,63.2c.5,0,.67-.34.67-.84a.71.71,0,0,0-.67-.67c-.5,0-.67.67-.84,1C242.26,63,242.6,63.2,243.1,63.2Zm3.36,37.89c.16,0,1.34.84,1.34-.17.16-1.34-1,.34-1.18-.5a.61.61,0,0,1-.5-.17c-1.51-.5-1.68-.5-1.84,1.17-.34,0-.84-1-1.35-.16-.16.33-.33.33-.16.84.33,1,.83.16,1.34.16C245,102.26,245.28,101.09,246.46,101.09Zm-3-2.68c.84,0,.5-.84.5-1.18a.61.61,0,0,0-.34-1c-.67,0-.83.5-.83,1S242.77,98.41,243.44,98.41ZM246,130.26c-.67-.33-1.17-.84-1.84-.33,0,.17-.17.5,0,.67C244.78,130.93,245.28,130.26,246,130.26ZM244.11,64a.44.44,0,0,0,.5.5.53.53,0,0,0,.5-.5.61.61,0,0,0-.67-.67A.87.87,0,0,0,244.11,64Zm2.18,64.55c0-.34-.34-.51-.67-.67-.34.16-.51.33-.51.67s.17.67.67.5A.54.54,0,0,0,246.29,128.59Zm0-5.87c-.17-.17-.34-.51-.67-.51s-.34.34-.17.51.33.33.5.33C246.29,123.22,246.29,122.89,246.29,122.72Zm-.84-54c0,.17.33.34.33.17.34-.34,1-.17,1.18-.84-.17,0-.5-.17-.67-.17C246,68.06,245.28,68.06,245.45,68.73Zm.33-4.53c.51.51,1.18.67,1,1.51,0,.17.34.51.5.34.17,0,.51-.51.51-.51-.67-.67.5-1.34,0-1.84-.67-.67-1,.5-1.68.5Zm.51,34.71.67.5c.33,0,.5-.33.67-.5a.75.75,0,0,0-.5-.67Zm.67,27c.33,0,.84-.16.84-.67-.34-.16-.17-.84-.51-.84a1.53,1.53,0,0,0-1,1C246.29,125.74,246.62,126.07,247,125.9Zm-.34,3c-.16.5.17.67.51.84s.5-.17.67-.34c.16-.33.33-.83-.34-.83l-.5-.34A1.26,1.26,0,0,1,246.62,128.92Zm1.18-5.36c.33,0,.5-.34.33-.84-.5-.34.17-1.51-.84-1.68-.33-.17-.67.5-.67.5C247.63,121.88,246.46,123.39,247.8,123.56ZM247.46,112a.61.61,0,0,0-.67.67c-.17.33.34.5.5.5.34.17.51-.17.67-.5C248,112.32,248,112,247.46,112Zm.67,15.93c.34,1,1.51.83,2.18,1.34.34.33.67.33,1-.17s-.17-.67-.51-.84c-.16-.17-.83.17-.5-.5.17-.17.17-.67.67-.34a.72.72,0,0,0,1-.16c.17-.84-.67-1-1-1.35-.17-.33-.5-.33-.84,0-.67,1-1.17,1.68-2.51,1.18-.67-.34-.84,0-.67,1.17C247.29,127.75,248.13,127.75,248.13,127.92ZM248,111c.17.17.34.5.67.5s.68-.16.51-.5c-.17-.17-.34-.5-.67-.5C248.3,110.65,248,110.81,248,111Zm.51-49.63c.33,0,.5-.33.67-.5l-.51-.5c-.33,0-.5.17-.5.33C248.13,61,248.13,61.19,248.47,61.35Zm0,58.85c.33.17.67-.16.67-.5s-.34-.5-.51-.67c-.33,0-.5.17-.33.5C248.3,119.87,248,120.2,248.47,120.2ZM252,133.78c-.17,0-.17-.16-.34-.16-2,0-2,0-1.17-1.68.17-.5.33-.84,0-1a1,1,0,0,0-1.17.67c-.34.34,0,.84-.68,1.18s-.5.84.17,1.17c.34.17.67.34.67.67h.34C250.48,134,251.65,135.12,252,133.78ZM249.14,68.4a.45.45,0,0,0-.51-.51.35.35,0,0,0-.33.51c0,.16.33.16.5.16S249.14,68.56,249.14,68.4Zm-.34,41.07c.34-.33,1.18-.16,1.34-.84a.75.75,0,0,0-.5-.67c-.5.34-1.17.17-1.34,1A.44.44,0,0,0,248.8,109.47Zm0-11.4c0,.51,0,1,.51,1.18.16,0,.67-.34.5-.67-.5-.34.33-1.35-.67-1.35C248.63,97.23,249,97.74,248.8,98.07Zm1,7.38-.5-.67c-.17.17-.34.33-.34.5-.17.34,0,.34,0,.5C249.47,105.78,249.81,105.78,249.81,105.45Zm.33,18.27c0-.16-.16-.33-.5-.16-.33,0-.5.16-.5.33,0,.5.33.5.67.5S250.14,124.06,250.14,123.72Zm-.67,10.9c.17.34-.5.5-.16,1,.33.17.33.17.5,0,.5-.34,0-.67,0-1C249.64,134.79,249.64,134.79,249.47,134.62Zm.34-31.85c0,.16-.5.16-.34.5.17.17.34.5.67.5.17,0,.51-.33.51-.33C250.48,102.93,250.31,102.77,249.81,102.77ZM251,120.2c0-.83-.17-1.51-.67-1.67-.17-.17-.5-.17-.5.16C249.64,119.53,250.65,119.37,251,120.2Zm.34-3.69c-.17.34-.34.34-.51.17-.5-.33-.67,0-1,.17.17.34.67.84.67.67.5-.33,1,1,1.51-.17,0-.16.33-.33.67,0s.5.84.17.84c-1.34.67-.51,1.85-1.18,2.68H254a1.46,1.46,0,0,0,1.34-1c.17-.5-.67-.5-1.17-.5-.17,0-.34-.17-.17-.51.84,0,1.68,0,1-1.17a1.24,1.24,0,0,1-.17-.84v-.17c.33.34.84.67,1.17,0,.67-1.34,1.68-1,2.52-.5.67.5.84-.17,1-.34,0-1-1.67-.67-1.34-1.84-.33,0-.67-.17-.84.17l-.33.5c0,.17-.17.34-.34.17-1.67-.34-1.84.67-1.84,1.84C253.33,115.17,253,115.17,251.32,116.51Zm-.34,7.21c.17,0,.34,0,.34-.33,0-.17,0-.5-.17-.5-.34,0-.67.16-.67.5C250.31,123.72,250.65,123.72,251,123.72Zm0-18.44a.87.87,0,0,0,.67-.33l-.5-.51c-.34,0-.34.17-.34.34C250.81,105.11,250.65,105.45,251,105.28Zm-.17-34.54a.85.85,0,0,0,.34.67c.34-.16.5-.33.5-.67s0-.5-.33-.5A.45.45,0,0,0,250.81,70.74ZM254.34,109c.16.84,1,.67,1.5,1.17-1.34.67-2.51,1.51-3.68,0-.17,0-.51.17-.51.34-.33.5-1,1-.5,1.51.5.33,1.17,1,2,.5.67-.67,1.51-.67,2.18.34-1.67.16-.84,1.34-1.17,2.18,2.85-2.18,2.85-2.18,1.67-3.86,1.18.17,1.51-.5,1.18-1.34a22.2,22.2,0,0,0-1.34-2.85,1,1,0,0,0-.67.17,1.62,1.62,0,0,0-.17.5C255.51,108.47,255,108.8,254.34,109Zm-3,0c0,.5.33.67.67.84.67.17,1-.17,1.51-.5.5-.17.33-.34,0-.68a3.25,3.25,0,0,1-.34-1.5c.34.16.84.33.67-.34-.16-.34-.84-.17-1,0C252.16,107.46,252.49,108.63,251.32,109Zm.17,21.8c-.34.83.16,1.34,1,1.67.17-.84.17-1.51-.5-2C251.82,130.43,251.49,130.43,251.49,130.77Zm5-3.52a6.51,6.51,0,0,1-3.19-.34c-1.17-.5-1,.67-1.34,1.17-.34.34,0,.84.17.67C253.67,128.42,255.34,128.92,256.52,127.25Zm-3.36-23.14v.17l.17-.17h-.17c.17-.34,1.18-.67.17-1.34-.34-.34-.67-.17-.84.16C252.16,103.6,252.49,104.11,253.16,104.11Zm0,.17c0,.16-.17.16-.17.33-.33.34-.83.5-.5.84,0,.33.5.33.67.17a.79.79,0,0,0,.84-.84C254,104.28,253.83,103.94,253.16,104.28Zm.17,35.54c0-.34-.17-.5-.34-.5-.33.16-.5.33-.5.5.17.17.34.5.5.5C253.33,140.32,253.33,140,253.33,139.82ZM253,125.07c-.33,0-.33.16-.33.5-.17.33.17.5.5.67a.59.59,0,0,0,.51-.67C253.5,125.4,253.33,125.07,253,125.07Zm1.18,5.36c0-.17-.34-.33-.34-.33-.33,0-.5.16-.5.33,0,.34.17.34.5.34C254,130.77,254.34,130.6,254.17,130.43Zm.33-8.22c0-.16,0-.5-.16-.5-.17-.17-.34,0-.34.34-.17.16,0,.33.17.5A.36.36,0,0,0,254.5,122.21Zm3.19.68c-1-1.18-2-.84-2.85,0-.34.16-.67.16-.5.5a.61.61,0,0,0,.67.67C256.35,124.56,256.68,123.39,257.69,122.89Zm-1.85,8.71c0-.16-.33-.16-.5-.16s-.5,0-.5.33c0,.17.17.34.5.34C255.51,132.11,255.84,132.11,255.84,131.6Zm0-6.53c-.33,0-.67,0-.67.33,0,.5.17.67.51.67.5-.17.67-.33.67-.67C256.52,124.9,256,125.07,255.84,125.07Zm.84-6.71c.17.17.34,0,.34-.34s0-.67-.34-.5c-.16,0-.33.17-.5.34C256,118.19,256.35,118.36,256.68,118.36Zm1.18,10.23c-2.18-.34-1.18,1.17-1,1.84Zm-.67-24.48a.61.61,0,0,0,.67.67c.16-.17.5-.34.5-.84-.17-.17-.34-.5-.67-.5C257.35,103.6,257.19,103.77,257.19,104.11ZM259,124.73c-.17-.34-.34-.5-.67-.5-.34-.17-.67.16-.67.67.17.17.33.5.67.5A1.33,1.33,0,0,0,259,124.73Zm-.67-19.28c-.34,0-.34.17-.34.33a1.71,1.71,0,0,0,.17.51.35.35,0,0,0,.5-.34C258.69,105.62,258.53,105.45,258.36,105.45Zm0,2.85c0,.33.33.5.67.5.34.17.5-.17.67-.5a.67.67,0,0,0-1.34,0Zm2.18,12.24c-.5-1.17-1.17,0-1.85,0,.84.33-.16,2,1.51,1.67C261.38,121.88,260.71,120.87,260.54,120.54Zm-1-3.35c-.33,0-.67,0-.5.33,0,.5.17.84.5.84a.61.61,0,0,0,.67-.67C260.37,117.19,259.87,117.19,259.53,117.19Zm.34,9.38c-.17-.16-.34-.5-.5-.5-.17-.17-.34,0-.34.34,0,.16-.17.5.34.5C259.53,126.91,259.7,126.74,259.87,126.57Zm3.18-7.37-1.17-.84c-.17-.17-.5-.84-.84-.34-.17.17-.84.51-.33,1,.33.34.5.84,1.17.5C262.05,119.37,262.38,119.37,263.05,119.2Zm-.5-4.19a1.18,1.18,0,0,0-1.68.67c0,.5-.67.83,0,1.34.67.33,1,0,1.35-.34.16-.33.5-.33.67-.67C263.22,115.51,263.05,115.17,262.55,115ZM261,111.15c.17.5.17,1,.67,1.17.17-.5.51-.84,0-1.17Zm1.18,2a.74.74,0,0,0,.67.5c.16-.16.5-.5.5-.67,0-.33-.34-.67-.5-.5C262.38,112.49,262.05,112.66,262.22,113.16Zm1.5,4.53a2.47,2.47,0,0,0-.67-1.51h-.16c-.34.5.16,1,.5,1.51C263.39,117.86,263.72,117.69,263.72,117.69Z" style="fill:#3d4048"/><path d="M311.34,127.41a2.88,2.88,0,0,0-.17,1.68c-.17,4.53,0,9-.17,13.75-.17,3.18-1.51,4.53-4.69,4.69a16.88,16.88,0,0,0-4.2.34h-3.18a9.53,9.53,0,0,0-4.86,0h-3.69c-4.19-.67-5-1.18-4.86-6.21,0-6.54-.17-13.24,0-20,0-7.38,0-14.75-.17-22.13,0-.33,0-.5-.17-.67V97.74a1.5,1.5,0,0,0,0-1.68v-19a2.11,2.11,0,0,0,0-2V71.58c.5-2,.17-4,.17-6,.17-2.34,0-4.69.17-7L286,56a2.85,2.85,0,0,1,2.85-2.35c.84,0,1.68.34,2.35-.17h4.19c1.67.51,3.52.17,5.36.17,2,.17,4,0,6.21.17a3.55,3.55,0,0,1,3.35,3,7,7,0,0,1,.34,3.18c-.34,3.86.16,7.55.33,11.24a152.07,152.07,0,0,1-.33,17.43A74.73,74.73,0,0,0,311,99.25c.17,3.35,0,6.53,0,9.89a114.78,114.78,0,0,0,.34,13.24ZM293.4,85.5c-.34-1.51-1.35-1.18-2.52-1A1.9,1.9,0,0,0,293.4,85.5Zm-.17,22c-.17-.33-.34-.33-.5-.33-.34,0-.51,0-.51.5.17.17.34.17,1,.17C293.06,107.8,293.23,107.63,293.23,107.46Zm0,14.42c0-.34-.34-.5-.5-.67-.17.17-.51.17-.51.5s.17.67.51.67A.44.44,0,0,0,293.23,121.88Zm.17-31.52c0-.17-.17-.34-.34-.67-.17.33-.5.5-.5.67a.35.35,0,0,0,.33.33C293.23,90.69,293.56,90.69,293.4,90.36Zm.67-11.74c.83,0,.67-.83.83-1.51,0,0-.16-.5-.5-.33a.94.94,0,0,0-.84,1A.58.58,0,0,0,294.07,78.62Zm.16,49.46a1.73,1.73,0,0,0-.5.17c0,.5.5.67,1,1.17A1.64,1.64,0,0,0,294.23,128.08Zm2.69-35.88c0-.5-.17-.5-.51-.67-1.51-.33-2.18.17-2.51,1.68,1,.33,1.51-1.17,2.51-.67C296.58,92.71,296.92,92.71,296.92,92.2Zm-2-13.58c-.33.17-.5.34-.33.67,0,.34.17.84.5.84.51.17.17-.5.34-.67C295.24,79.13,295.58,78.62,294.9,78.62Zm.34,4.7c-.17.33-.5.33-.5.84a.32.32,0,0,0,.5.16l.5-.67C295.74,83.49,295.41,83.49,295.24,83.32Zm.17,14.58c.33-.67.84-1,.5-1.34,0-.16-.17-.16-.33-.16C295.24,96.73,295.41,97.07,295.41,97.9Zm1.17,18.28c0-.5-.17-.67-.5-.67-.34-.17-.34.17-.34.5a.41.41,0,0,0,.34.67A.53.53,0,0,0,296.58,116.18Zm-.84-12.91c.34,0,.84.33.84-.17.17-.17,0-.33,0-.5A1.19,1.19,0,0,0,295.74,103.27Zm.67-31.52a.36.36,0,0,0,.34.33c.33.17.17-.16.17-.33s0-.34-.17-.34C296.41,71.25,296.25,71.41,296.41,71.75Zm.51,3.69c.67.17.84-.51,1.34-.67a1.23,1.23,0,0,0-1-.84.94.94,0,0,0-.84,1C296.25,75.27,296.58,75.44,296.92,75.44Zm1.67,15.42a1.3,1.3,0,0,0-1.67-1.17c-.34.17-.67.5-.51.84C296.92,91.37,297.76,91,298.59,90.86Zm-1.67-17.94c.16.17.16.51.33.51.17.16.34,0,.34-.17,0-.34,0-.51-.34-.67A.35.35,0,0,0,296.92,72.92Zm.5,37.73a.44.44,0,0,0,.5-.51.35.35,0,0,0-.33-.33c-.34,0-.51.17-.67.5C297.08,110.65,297.25,110.65,297.42,110.65Zm.5-5-.5-.67c-.17.33-.5.33-.34.67,0,.16.17.33.34.5C297.76,106,298.09,105.78,297.92,105.62Zm.34-5c-.17-.34-.5.33-.84.5-.34.33-.17.84,0,1.17a.92.92,0,0,0,.84.51c1.51-.17,2-1,1.67-3.19C299.43,100.25,299.43,101.76,298.26,100.59Zm-.34,12.24a1.26,1.26,0,0,0,1-1.18.73.73,0,0,0-.67-.67c-.67.17-.34,1-.67,1.34C297.59,112.66,297.59,113,297.92,112.83Zm.84,15.76c.5.33.67-.17.67-.51.17-.5-.17-.83-.67-1-.5,0-.5.5-.67.84C297.59,128.59,298.43,128.59,298.76,128.59Zm0-2.85c-.33,0-.5.33-.5.67,0,.16,0,.5.33.5.34-.17.34-.5.67-.84C299.1,125.9,298.93,125.74,298.76,125.74Zm1.68,9.22c-.34-.51-.67-1.51-1.34-1-.51.17-.67.5-.51.84C299.1,136.3,299.6,134.12,300.44,135Zm-1.18,6.2c-.16,0-.33,0-.33.34,0,.16-.17.5.33.5.17,0,.17-.17.34-.5A.37.37,0,0,0,299.26,141.16Zm.51-21c.67-.83.33-1.84.33-2.68.17-.5-.33-.5-.67-.67-.17,0-.33.17-.5.34C299.77,118,298.59,119.2,299.77,120.2Zm.33-12.57c0-.34-.17-.67-.5-.5-.17,0-.67,0-.5.33s.33.67.83.67C300.1,108,300.27,107.8,300.1,107.63Zm-.84-26c.17-.33.67-.5.51-.84-.17-.17-.34-.33-.51-.17S299.26,81.31,299.26,81.64Zm1.35-12.57c.5,0,.67-.17.83-.67-.16-.17-.33-.51-.67-.51s-.5.34-.67.67A.45.45,0,0,0,300.61,69.07Zm0,34.87c.33.17.5,0,.5-.5,0-.17,0-.34-.34-.34s-.5.17-.67.5C300.1,103.94,300.27,103.94,300.61,103.94Zm0,28.67c.16,0,.5,0,.5-.33s-.17-.51-.5-.68c-.34,0-.51.17-.51.34C300.1,132.28,300.1,132.61,300.61,132.61Zm2.34-9.22c-.16-.5-.33-1-.84-1h-1.84a13.14,13.14,0,0,0,.67,1.51c.34,0-.17-1.34.84-.5.17.33.33.84.84.5A2.28,2.28,0,0,0,303,123.39ZM301.28,86a.88.88,0,0,0-.67-.34c-.17,0-.17.34-.17.51,0,.33.17.5.5.33C301.11,86.34,301.44,86.34,301.28,86Zm.16,50.8c0-.17,0-.5-.33-.33-.34,0-.34.16-.34.33a.44.44,0,0,0,.51.5C301.44,137.3,301.44,137,301.44,136.8Zm.51-21.63c.33,0,.5-.16.33-.5-.17-.5-.67-.5-1-.67-.34,0-.17.17-.17.33A.79.79,0,0,0,302,115.17Zm-.84-20c.17.34.33.17.67.17a.36.36,0,0,0,.33-.34c-.16-.33-.33-.33-.67-.33C301.28,94.89,301.11,94.89,301.11,95.22Zm.67,21.46a1.62,1.62,0,0,0-.17-.5.32.32,0,0,0-.5.17.68.68,0,0,0,.33.67A.37.37,0,0,0,301.78,116.68Zm-.34-32.86a1.12,1.12,0,0,0,.67,1.17c.34,0,.51-.33.51-.83.17-.34.17-.84-.34-.84S301.44,83.32,301.44,83.82Zm.34-9.39c0,.34.17.34.5.34.51,0,.67-.34.67-.84,0-.34-.16-.5-.5-.67C302.11,73.59,301.61,73.76,301.78,74.43ZM303,117.35c0-.33,0-.67-.33-.67a.59.59,0,0,0-.17.34c0,.33.17.33.34.5Zm1-9.55c0-.17-.34-.34-.34-.51-.33,0-.5.17-.67.51,0,.16.17.33.51.33C303.62,108.13,304,108.13,304,107.8Zm-.67-36.89c1.17.17,1.17-.5,1.34-1.34C303.79,69.9,303.79,70.58,303.29,70.91Zm.84,22.47c.5-.51.83-.84.67-1.34,0,0-.34-.17-.51,0C303.62,92.2,304,92.71,304.13,93.38Zm.83,19.78c0-.33-.33-.33-.5-.33a.59.59,0,0,1-.17.33c0,.17,0,.5-.16.5C304.8,113.5,305,113.33,305,113.16Z" style="fill:#3d4048"/><path d="M350.9,96.06a24.3,24.3,0,0,0,1.85,14.59c3.35,7.21,8.71,12.24,16.76,13.07,6,.67,12.24.51,17.77-3.18a2.55,2.55,0,0,1,3.36,0c.16.33.5.5.67.67,3.52,3.86,7,7.88,9.55,12.57,2.52,4.36.17,7.05-2.85,8.89-3.68,2-7.88,3-11.9,4.19-2.18.51-4.36,1.34-6.54,1.68h-4.19c-1.17-.34-2.35,0-3.52-.17a80.42,80.42,0,0,1-16.77-3.18A36.33,36.33,0,0,1,341,136.47c-1.34-1.18-2.52-2.52-4-3.69a18.42,18.42,0,0,1-4.35-5.7c-1.85-3.69-3.86-7-5.54-10.9a29.15,29.15,0,0,1-2.34-10.73,1,1,0,0,0-.17-.67v-2.85a29.57,29.57,0,0,0,.33-3.86,50,50,0,0,1,5.2-18.94c2.35-4.87,5.87-8.55,10.06-12.08a85.47,85.47,0,0,1,15.09-10.22c4.53-2.18,9.39-2.69,14.08-3.36a31.15,31.15,0,0,0,3.86-.16h3.86a79.86,79.86,0,0,1,15.09,3,40.25,40.25,0,0,1,8.55,4,6.75,6.75,0,0,1,2.68,5.36v.84a11.94,11.94,0,0,1-3.19,6.88c-1.51,1.84-2.85,4-4.36,6-2.34,3-4.19,3.35-7.54,1.85a48.49,48.49,0,0,0-6.71-3.19A14.53,14.53,0,0,0,374,76.61a43.43,43.43,0,0,1-4.7-.17c-4.86-.16-8.38,2.18-11.57,5.37A24.82,24.82,0,0,0,350.9,96.06ZM335,89.52c.17.17.34.5.51.5.33,0,.33-.33.33-.5s-.17-.5-.67-.33Zm.51,8.89c.5,0,.67-.34.83-.67-.16-.34-.33-.67-.67-.67a1.11,1.11,0,0,0-.67.83A.45.45,0,0,0,335.48,98.41Zm1.17-10.23c-.17-.67,0-1.34-.67-1.51l-.34.17C335.64,87.68,336.31,87.68,336.65,88.18Zm-1,6a.36.36,0,0,0,.34.33,1.26,1.26,0,0,0,.67-.17l-.5-.5C336,93.88,335.81,93.88,335.64,94.22Zm1,7.88c0-.34,0-.51-.34-.51s-.33.17-.33.34c0,.33.17.67.5.5Zm3.52-9.73c0-.5-.17-1-.67-1s-.34.5-.34.83-.16.84.51.84C340.17,93,340.17,92.71,340.17,92.37Zm1-11.57c-.34-.84-.84-1.17-1.51-1-.17,0-.17.5-.17.67C339.83,81.14,340.51,80.8,341.18,80.8Zm.5,29.85.67.33c0-1.17-.67-1.34-1.34-1.51a1.62,1.62,0,0,0-.5.17C340.51,110.48,341.18,110.31,341.68,110.65Zm.33,9.22c-.16-.17-.33-.5-.67-.5s-.33.33-.33.5c0,.33.33.5.67.5C341.85,120.2,342,120.2,342,119.87Zm.68-3c0-.34-.34-.34-.51-.34-.5,0-1,.17-1,.51s.33.5.67.5C342.35,117.52,342.69,117.35,342.69,116.85Zm-1-34.54c.17.17.33.5.67.5.34-.16.5-.33.5-.67s-.33-.33-.67-.33A.53.53,0,0,0,341.68,82.31Zm1.68,7-.51-.5-.5.5c-.17.17.17.34.34.51C343,89.86,343.36,89.86,343.36,89.35Zm.67-6.87a1.71,1.71,0,0,0,.67-.84c0-.17-.17-.5-.34-.5-.5.17-.67.33-.67.84C343.52,82.14,343.69,82.48,344,82.48ZM344,86c-.51-.17-.34.34-.34.67s-.17.84.34,1a.62.62,0,0,0,.67-.67C344.86,86.5,344.36,86.17,344,86Zm.16-7c.17.17.34.5.51.5.33,0,.16-.33.16-.5s0-.51-.33-.34A.37.37,0,0,0,344.19,79Zm.84,4.53c-.33,0-.5.16-.5.33l.5.34a.59.59,0,0,0,.17-.34C345.2,83.65,345.2,83.49,345,83.49Zm.51-6c.33,0,.33-.34.33-.67a.59.59,0,0,0-.33-.17.88.88,0,0,0-.34.67A.59.59,0,0,0,345.54,77.45Zm1.17,42.92a1.06,1.06,0,0,0-1,0c.17.34.51.67.84.5A.32.32,0,0,0,346.71,120.37Zm1.17-45.77c.34-.17.51-.34.51-.67a.74.74,0,0,0-.51-.67.91.91,0,0,0-.5.67C347.38,74.26,347.55,74.6,347.88,74.6Zm.84,58.85c0-.34-.17-.5-.33-.5a1.27,1.27,0,0,0-.68.33.37.37,0,0,0,.34.34C348.39,133.78,348.55,133.62,348.72,133.45Zm1.68-52.82c0-.16-.34-.5-.51-.33-.67.17-.5.84-.5,1.51C349.73,81.31,350.4,81.31,350.4,80.63Zm.5-5.86a.35.35,0,0,0,.5-.34l-.16-.17c-.34,0-.51,0-.67.34C350.57,74.77,350.73,74.77,350.9,74.77Zm.34,55.16c.16,0,.33-.17.33-.51s-.17-.5-.5-.67a1.3,1.3,0,0,0-.34.67A.38.38,0,0,0,351.24,129.93Zm1-59.69a.85.85,0,0,0,.67-.34c0-.5-.16-.83-.5-.67a.75.75,0,0,0-.5.51C351.74,70.07,352.07,70.24,352.24,70.24Zm-.33.84a.77.77,0,0,0,.5.84c.5,0,.5-.17.5-.51s-.16-.67-.5-.67C352.07,70.58,351.91,70.74,351.91,71.08Zm.67,58.68.67-.5c-.17-.17-.17-.51-.34-.34a.44.44,0,0,0-.5.5C352.24,129.59,352.41,129.76,352.58,129.76Zm6-59.86c0,.34.51.17.84.17s.67,0,.67-.67c0-.33-.33-.33-.67-.33C359,69.07,358.61,69.23,358.61,69.9Zm0,58.35c0,.34.17.5.51.67.33,0,.33-.17.33-.5s0-.5-.33-.5S358.61,127.92,358.61,128.25Zm3.19,5.87c.5.17.17-.34.5-.5a.76.76,0,0,0-.67-.84.53.53,0,0,0-.5.5C361,133.78,361.46,134,361.8,134.12Zm3-.17c0,.5.16,1.17.67,1.17.84,0,.17-.83.5-1.17.17-.5,0-.84-.33-.84A.79.79,0,0,0,364.82,134ZM365,68.73c.17.34.51.5.68.67.33,0,.5-.33.5-.67,0-.5-.17-.67-.67-.5A.54.54,0,0,0,365,68.73Zm1.51,2.35c.34,0,.51,0,.67-.17,0-.5-.33-.5-.5-.67-.17.17-.33.17-.5.5A.36.36,0,0,0,366.49,71.08Zm3,63.71a.52.52,0,0,0,.67.67.8.8,0,0,0,.84-.84c-.17-.33-.34-.67-.67-.67C369.85,134.12,369.51,134.45,369.51,134.79Zm.5-1.51c.17,0,.51.17.67-.33a.36.36,0,0,0-.33-.34c-.17.17-.5.17-.5.34C369.51,133.11,369.85,133.28,370,133.28Zm.17-4c.17.33.17.67.5.5.17,0,.17-.34.17-.5.17-.17,0-.34-.17-.34C370.35,128.92,370.18,129.09,370.18,129.26Zm2.35,2c0,.17,0,.5.33.17.17,0,.68,0,.68-.51a.65.65,0,0,0-.51-.16A.44.44,0,0,0,372.53,131.27Zm2,4.19c.34,0,.5,0,.5-.17,0-.33-.16-.33-.33-.33s-.5,0-.5.16C374,135.46,374.37,135.46,374.54,135.46Zm1.51-73.6c.34.16.17-.17.34-.34a.34.34,0,0,0-.68,0A.37.37,0,0,0,376.05,61.86Zm0,74.77c.17.34.34.51.67.51.5,0,.67-.17.5-.84,0-.17-.33-.17-.5-.17C376.39,136.3,376.05,136.47,376.05,136.63Zm.67,2.85c1,.34,1.68.17,2-.5.17-.17,0-.33-.16-.5C377.73,138.31,377.56,139,376.72,139.48Zm5.2-.16c.33-.17.67-.17.84-.67-.17-.34-.34-.51-.67-.51s-.51.17-.67.51A.75.75,0,0,0,381.92,139.32Zm.5-6c0,.34.17.34.34.34.33,0,.5,0,.5-.17.17-.34,0-.5-.34-.5C382.76,133,382.42,133,382.42,133.28Zm2.18,5c0,.34.34.5.5.67.17-.17.51-.33.51-.67,0-.17-.34-.17-.51-.33C384.94,138.14,384.6,138,384.6,138.31Zm.67-3.52c.34,0,.5-.17.5-.34.17-.33,0-.5-.16-.5-.34,0-.51,0-.67.34C384.94,134.45,385.1,134.79,385.27,134.79Z" style="fill:#3d4048"/><path d="M500.45,98.91c0,7.38-.16,14.92,0,22.3,0,3.18-.33,6.37-.33,9.56,0,2.51.17,6,.17,8.38,0,2-.17,4.19-.34,6.2-.17,1.51-.5,1.85-2,2a34,34,0,0,1-4,.16c-3.52.17-7-.67-10.39-.16a14.49,14.49,0,0,1-9.89-1.85c-2-1.17-3-3.19-4-5.2-4.36-7.54-8.21-15.42-12.74-23.13-3.35-6-6.71-12.08-10.23-17.94l-4.69-7.55a4.11,4.11,0,0,0-.17,1.34,66.31,66.31,0,0,1,0,8.22c0,2.85-.34,5.7-.34,8.72,0,2.68,0,5.53.17,8.38,0,3.69-.17,7.54,0,11.4v8.38c0,1.68.17,3.86.17,5.37a3.12,3.12,0,0,1-2.68,3.69c-3,.67-5.54.33-8.72.33-5.2,0-13.58,1.85-13.58-5.53.17-2,.17-13.75,0-15.09a26.82,26.82,0,0,1-.17-3.69V113c-.33-17.1-.33-35.88.34-51.13-.17-2.35-.17-6.21,1.67-7.21,4.7-1.18,18.11-.34,23.31-.34A7.76,7.76,0,0,1,444.29,56c1.5,1.67,3.18,2.18,4.52,4C452,64.71,455,69.4,458,74.26c1.85,2.85,3.52,6,5.2,9.06a112.37,112.37,0,0,0,7.55,12.91,15.73,15.73,0,0,1,1.51,2.85,17.53,17.53,0,0,0,2.34,3.69c.34,0,.51-.17.67-.17-.16-3-.16-5.87-.16-8.72-.17-8,0-18.27.33-26.16.17-2.85-.5-5.86-.17-8.88.34-3.86,2-4.7,5.54-5.2a49.64,49.64,0,0,1,5,0c3,0,6,.17,9.22.34a6.64,6.64,0,0,1,3.52.67c1.84,1.17,1.68,3,1.84,4.86C501.46,71.92,500.45,86.34,500.45,98.91Z" style="fill:#b7d566"/><path d="M514.7,137.14c-.17-7.72-.34-15.6-.17-23.31,0-6.54.34-12.91.67-19.45,0-2.51-.16-4.86-.16-7.21,0-1.67.16-3.52.16-5.19,0-2.35-.16-4.7-.16-7.21V60.52a33.86,33.86,0,0,1,.16-4c.17-1.51,1.18-2.18,2.68-2.35l10.23-.5c2.68-.17,5.54-.17,8.22-.17,2,0,2.68.51,3.35,2.35a8.7,8.7,0,0,1,.5,2,97.2,97.2,0,0,0,.34,9.89c0,5.87-.34,11.74-.5,17.61-.17,4.53-.34,8.89-.34,13.41,0,2,.34,4,.34,6,0,4,0,9.72.16,13.91,0,1.51.34,3.19.51,4.87a2,2,0,0,0,2.18,2,98.94,98.94,0,0,0,14.08-.5c3.19-.34,6.37.33,9.56.33,2.51,0,7-.67,9.72-.17,2,.34,1.51,1.34,1.68,3.69a32,32,0,0,1,.33,4c0,2.51-.16,3.52,0,6,0,2.18,0,4.36-1.67,6.21a3.32,3.32,0,0,1-2.18,1.34l-6.54.67h-4.7c-4.69,0-9.38.17-13.91,0a107.21,107.21,0,0,0-18.11.17c-4,.33-8,0-12.07,0-2.68,0-3.86-1.51-3.86-4.2,0-.33.17-.67,0-.84C514.2,140.66,514.7,138.81,514.7,137.14Z" style="fill:#b7d566"/><polygon points="565.99 0 647.55 77.82 570.34 101.02 565.99 0" style="fill:#f99b1f"/><polygon points="565.99 0 567.62 37.85 616.82 87.05 647.55 77.82 565.99 0" style="fill:#fff;opacity:0.16"/><polygon points="643.7 81.75 634.32 135.9 675.95 119.97 643.7 81.75" style="fill:#28a8e0"/><polygon points="643.7 81.75 640.42 100.68 664.21 124.47 675.95 119.97 643.7 81.75" style="fill:#fff;opacity:0.16"/><polygon points="679.6 109.88 672.63 130.47 686.79 131.6 679.6 109.88" style="fill:#ef465a"/><polygon points="679.6 109.88 677.32 116.6 681.83 131.2 686.79 131.6 679.6 109.88" style="fill:#fff;opacity:0.16"/><path d="M603.18,73.19c-.78,2.41-4.66,2.13-6.53,1.53s-5.19-2.63-4.42-5,4.66-2.12,6.53-1.53a8.39,8.39,0,0,1,3.07,1.72l2.94-9.18-14.43-.16-3.89,12.13c-.77,2.41-4.66,2.13-6.52,1.53s-5.2-2.63-4.42-5S580.17,67,582,67.62a8.39,8.39,0,0,1,3.07,1.72l5.3-16.54a1.76,1.76,0,0,1,1.67-1.2l15.63.18a1.47,1.47,0,0,1,.5.09A1.72,1.72,0,0,1,609.31,54Z" style="fill:#fff"/></svg>