<svg id="svg" version="1.1" xmlns="http://www.w3.org/2000/svg" xmlns:xlink="http://www.w3.org/1999/xlink" width="400" height="138.88888888888889" viewBox="0, 0, 400,138.88888888888889"><g id="svgg"><path id="path0" d="M374.894 0.825 C 374.269 0.975,373.398 1.568,373.165 2.004 C 372.789 2.706,372.949 85.295,373.328 85.907 C 373.510 86.202,373.851 86.531,374.087 86.638 C 374.646 86.893,385.038 86.914,385.509 86.662 C 386.385 86.193,386.333 88.871,386.333 43.820 C 386.333 -3.853,386.512 1.209,384.819 0.846 C 383.880 0.644,375.724 0.628,374.894 0.825 M42.792 14.458 C 47.306 14.483,54.694 14.483,59.208 14.458 C 63.723 14.434,60.029 14.413,51.000 14.413 C 41.971 14.413,38.277 14.434,42.792 14.458 M119.042 21.458 C 124.244 21.483,132.756 21.483,137.958 21.458 C 143.160 21.434,138.904 21.414,128.500 21.414 C 118.096 21.414,113.840 21.434,119.042 21.458 M185.708 21.458 C 190.910 21.483,199.423 21.483,204.625 21.458 C 209.827 21.434,205.571 21.414,195.167 21.414 C 184.762 21.414,180.506 21.434,185.708 21.458 M263.196 21.458 C 266.558 21.483,272.108 21.483,275.529 21.458 C 278.951 21.433,276.200 21.412,269.417 21.412 C 262.633 21.412,259.834 21.433,263.196 21.458 M320.750 21.606 C 320.383 21.748,319.602 21.937,319.014 22.026 C 318.426 22.115,317.601 22.371,317.182 22.594 C 316.763 22.817,316.357 23.000,316.280 23.000 C 316.084 23.000,313.881 24.302,313.083 24.889 C 310.690 26.652,307.952 30.913,307.598 33.426 C 307.535 33.879,307.355 34.625,307.200 35.083 C 306.753 36.399,306.765 84.805,307.212 85.623 C 307.819 86.735,307.870 86.745,313.327 86.801 C 318.908 86.858,319.236 86.808,320.067 85.776 L 320.583 85.136 320.667 61.360 C 320.714 47.791,320.815 37.440,320.900 37.250 C 321.709 35.458,322.945 35.296,335.270 35.371 C 345.715 35.434,345.691 35.431,347.000 36.500 L 347.583 36.976 347.667 61.030 C 347.745 83.640,347.768 85.116,348.045 85.623 C 348.654 86.737,348.694 86.745,354.244 86.800 C 360.124 86.860,360.350 86.822,360.997 85.667 L 361.417 84.917 361.417 60.417 C 361.417 41.569,361.370 35.763,361.213 35.250 C 361.100 34.883,360.891 34.096,360.747 33.500 C 359.811 29.622,357.719 26.340,355.057 24.573 C 353.359 23.446,350.794 22.205,349.917 22.086 C 349.458 22.023,348.652 21.829,348.124 21.653 C 346.790 21.208,321.887 21.166,320.750 21.606 M162.247 53.083 C 162.247 62.525,162.267 66.363,162.292 61.612 C 162.316 56.862,162.316 49.137,162.292 44.446 C 162.267 39.755,162.247 43.642,162.247 53.083 M254.246 54.000 C 254.246 61.837,254.267 65.044,254.292 61.125 C 254.317 57.206,254.317 50.794,254.292 46.875 C 254.267 42.956,254.246 46.163,254.246 54.000 M34.708 50.292 C 38.902 50.316,45.765 50.316,49.958 50.292 C 54.152 50.267,50.721 50.247,42.333 50.247 C 33.946 50.247,30.515 50.267,34.708 50.292 M174.039 58.667 C 174.039 58.987,174.073 59.119,174.115 58.958 C 174.157 58.798,174.157 58.535,174.115 58.375 C 174.073 58.215,174.039 58.346,174.039 58.667 M120.872 58.833 C 120.872 59.154,120.906 59.285,120.948 59.125 C 120.990 58.965,120.990 58.702,120.948 58.542 C 120.906 58.381,120.872 58.512,120.872 58.833 M120.883 68.500 C 120.883 69.004,120.915 69.210,120.953 68.958 C 120.991 68.706,120.991 68.294,120.953 68.042 C 120.915 67.790,120.883 67.996,120.883 68.500 M70.240 80.250 C 70.240 82.725,70.263 83.761,70.291 82.552 C 70.320 81.343,70.320 79.318,70.291 78.052 C 70.263 76.786,70.240 77.775,70.240 80.250 M42.721 86.958 C 47.380 86.983,54.955 86.983,59.554 86.958 C 64.154 86.934,60.342 86.914,51.083 86.914 C 41.825 86.914,38.062 86.934,42.721 86.958 M86.208 86.958 C 87.469 86.986,89.531 86.986,90.792 86.958 C 92.052 86.930,91.021 86.906,88.500 86.906 C 85.979 86.906,84.948 86.930,86.208 86.958 M129.292 86.958 C 132.523 86.984,137.810 86.984,141.042 86.958 C 144.273 86.933,141.629 86.912,135.167 86.912 C 128.704 86.912,126.060 86.933,129.292 86.958 M196.054 86.958 C 199.338 86.984,204.663 86.984,207.887 86.958 C 211.112 86.933,208.425 86.912,201.917 86.912 C 195.408 86.912,192.770 86.933,196.054 86.958 M262.387 86.958 C 265.579 86.984,270.754 86.984,273.887 86.958 C 277.020 86.933,274.408 86.912,268.083 86.912 C 261.758 86.912,259.195 86.933,262.387 86.958 M292.286 98.936 C 292.229 98.993,291.223 99.106,290.050 99.187 C 288.877 99.269,287.542 99.439,287.083 99.567 C 286.625 99.694,285.012 99.958,283.500 100.154 C 280.882 100.492,279.988 100.649,278.667 101.003 C 278.346 101.089,277.556 101.161,276.911 101.163 C 276.267 101.165,275.329 101.286,274.828 101.432 C 274.327 101.578,272.991 101.762,271.860 101.840 C 270.729 101.919,269.454 102.099,269.027 102.240 C 268.600 102.381,267.275 102.566,266.083 102.651 C 264.892 102.736,263.692 102.894,263.417 103.002 C 263.142 103.111,262.092 103.300,261.083 103.423 C 258.420 103.749,256.145 104.117,255.667 104.299 C 255.438 104.386,254.350 104.511,253.250 104.576 C 252.049 104.648,251.050 104.794,250.750 104.942 C 250.438 105.096,249.371 105.243,247.917 105.333 C 246.597 105.414,245.330 105.581,245.000 105.717 C 244.677 105.851,243.503 106.009,242.366 106.073 C 241.238 106.136,240.016 106.293,239.650 106.422 C 239.284 106.552,238.595 106.702,238.117 106.756 C 235.961 107.003,232.690 107.542,232.083 107.750 C 231.717 107.875,230.514 108.013,229.411 108.055 C 228.203 108.101,227.175 108.228,226.825 108.374 C 226.494 108.513,225.317 108.670,224.081 108.740 C 222.747 108.816,221.565 108.979,221.000 109.166 C 220.404 109.364,219.354 109.501,218.000 109.558 C 216.727 109.611,215.689 109.741,215.331 109.892 C 215.009 110.027,213.577 110.259,212.149 110.407 C 210.448 110.584,209.241 110.798,208.651 111.030 C 207.986 111.290,207.177 111.414,205.568 111.503 C 204.368 111.568,203.018 111.738,202.568 111.880 C 202.118 112.021,200.887 112.178,199.833 112.229 C 198.779 112.279,197.579 112.434,197.167 112.572 C 196.754 112.711,195.329 112.896,194.000 112.983 C 192.629 113.073,191.270 113.254,190.858 113.402 C 190.458 113.547,189.112 113.731,187.852 113.815 C 186.521 113.903,185.316 114.072,184.961 114.221 C 184.626 114.361,183.804 114.553,183.134 114.648 C 182.465 114.743,181.054 114.943,180.000 115.092 C 178.946 115.242,177.323 115.429,176.393 115.510 C 175.464 115.590,174.151 115.767,173.477 115.901 C 172.802 116.036,171.289 116.230,170.115 116.332 C 168.941 116.434,167.516 116.655,166.948 116.825 C 166.377 116.995,165.099 117.175,164.083 117.227 C 163.075 117.280,161.875 117.440,161.417 117.584 C 160.958 117.728,159.721 117.915,158.667 118.001 C 157.612 118.086,156.412 118.260,156.000 118.387 C 155.587 118.514,154.420 118.667,153.406 118.727 C 152.392 118.787,151.154 118.938,150.656 119.064 C 149.761 119.290,148.778 119.445,145.309 119.903 C 144.332 120.031,143.393 120.212,143.220 120.305 C 143.047 120.397,142.083 120.523,141.078 120.584 C 140.073 120.644,138.650 120.834,137.917 121.004 C 137.183 121.174,135.833 121.350,134.917 121.394 C 134.000 121.438,132.928 121.590,132.534 121.732 C 132.141 121.874,131.016 122.037,130.034 122.094 C 129.053 122.151,127.800 122.303,127.250 122.432 C 126.155 122.689,125.075 122.862,122.167 123.245 C 121.112 123.384,119.912 123.605,119.500 123.736 C 119.087 123.867,117.895 124.022,116.850 124.081 C 115.805 124.140,114.642 124.291,114.266 124.418 C 113.891 124.545,112.608 124.725,111.417 124.819 C 110.225 124.913,108.950 125.101,108.583 125.238 C 108.217 125.374,107.317 125.494,106.583 125.505 C 105.187 125.525,104.090 125.662,102.833 125.972 C 100.911 126.446,99.608 126.670,97.917 126.814 C 96.908 126.901,95.804 127.090,95.464 127.236 C 95.055 127.410,94.345 127.500,93.375 127.500 C 92.524 127.500,91.522 127.612,90.995 127.765 C 90.493 127.911,89.108 128.102,87.917 128.188 C 86.725 128.275,85.407 128.457,84.987 128.593 C 84.567 128.730,83.255 128.914,82.070 129.003 C 80.886 129.092,79.356 129.316,78.671 129.501 C 77.986 129.686,76.448 129.952,75.254 130.092 C 74.060 130.232,72.708 130.423,72.250 130.517 C 70.501 130.873,69.713 130.976,68.583 130.995 C 67.942 131.006,67.117 131.134,66.750 131.280 C 66.337 131.444,65.228 131.591,63.833 131.667 C 62.471 131.741,61.349 131.888,60.990 132.039 C 60.633 132.190,59.542 132.334,58.240 132.401 C 56.915 132.470,55.666 132.636,55.000 132.832 C 54.404 133.008,52.741 133.266,51.304 133.407 C 49.715 133.562,48.376 133.784,47.887 133.974 C 47.324 134.193,46.422 134.318,44.876 134.394 C 43.487 134.461,42.405 134.601,41.959 134.771 C 41.534 134.933,40.347 135.096,39.000 135.179 C 35.493 135.394,35.000 135.603,35.000 136.871 C 35.000 137.940,36.734 139.224,37.521 138.737 C 37.612 138.681,39.126 138.568,40.885 138.487 C 42.644 138.405,44.381 138.267,44.746 138.179 C 45.110 138.090,46.573 137.972,47.996 137.917 C 49.419 137.861,51.483 137.673,52.583 137.499 C 53.683 137.324,56.046 137.099,57.833 136.998 C 59.626 136.897,61.719 136.678,62.500 136.509 C 63.361 136.323,65.028 136.161,66.750 136.096 C 68.308 136.037,69.958 135.914,70.417 135.822 C 70.875 135.731,72.412 135.579,73.833 135.485 C 75.254 135.391,77.579 135.172,79.000 134.998 C 80.421 134.824,82.671 134.635,84.000 134.576 C 85.329 134.518,86.792 134.400,87.250 134.314 C 88.141 134.148,93.883 133.590,96.500 133.416 C 97.371 133.358,98.421 133.208,98.833 133.082 C 99.258 132.953,101.065 132.784,103.000 132.693 C 104.879 132.605,106.639 132.446,106.910 132.341 C 107.181 132.235,108.981 132.079,110.910 131.993 C 112.839 131.908,114.867 131.733,115.417 131.604 C 115.967 131.475,117.692 131.318,119.250 131.254 C 120.808 131.191,122.683 131.039,123.417 130.917 C 124.150 130.794,125.457 130.642,126.321 130.577 C 127.185 130.513,128.122 130.391,128.404 130.307 C 128.686 130.223,130.229 130.088,131.833 130.007 C 133.582 129.918,135.050 129.759,135.500 129.609 C 136.009 129.440,137.268 129.332,139.417 129.271 C 141.161 129.222,142.845 129.093,143.167 128.985 C 143.487 128.876,145.512 128.693,147.667 128.579 C 149.821 128.464,151.806 128.282,152.078 128.175 C 152.350 128.068,154.075 127.911,155.911 127.825 C 157.748 127.739,159.850 127.560,160.583 127.427 C 161.317 127.294,162.442 127.149,163.083 127.105 C 163.725 127.060,164.587 126.946,165.000 126.852 C 165.412 126.757,167.064 126.613,168.670 126.533 C 170.276 126.452,171.743 126.304,171.931 126.204 C 172.118 126.104,173.954 125.948,176.011 125.858 C 178.572 125.746,179.934 125.618,180.333 125.452 C 180.751 125.278,181.912 125.183,184.417 125.118 C 186.890 125.054,188.137 124.953,188.667 124.774 C 189.158 124.609,190.653 124.464,193.000 124.355 C 196.213 124.205,197.702 124.030,200.417 123.487 C 200.875 123.395,202.711 123.248,204.496 123.161 C 206.417 123.067,208.094 122.899,208.605 122.751 C 209.089 122.610,210.151 122.497,211.026 122.494 C 213.435 122.484,216.755 122.221,217.153 122.007 C 217.370 121.891,219.053 121.758,221.382 121.672 C 223.760 121.585,225.443 121.450,225.750 121.323 C 226.041 121.202,227.926 121.030,230.250 120.910 C 232.645 120.787,234.651 120.602,235.250 120.447 C 236.602 120.099,238.759 119.874,242.814 119.659 C 245.050 119.540,246.331 119.404,246.564 119.259 C 246.807 119.108,247.906 119.009,250.102 118.941 C 251.922 118.885,253.494 118.758,253.769 118.646 C 254.035 118.538,256.109 118.359,258.417 118.246 C 261.066 118.117,262.917 117.949,263.500 117.786 C 264.119 117.613,265.528 117.498,267.833 117.434 C 270.119 117.371,271.554 117.255,272.167 117.085 C 272.874 116.889,279.335 116.364,281.370 116.337 C 281.637 116.334,281.660 116.990,281.703 126.042 C 281.747 135.068,281.771 135.781,282.050 136.191 C 282.658 137.087,284.211 137.236,285.614 136.533 C 285.964 136.357,286.662 136.167,287.167 136.110 C 287.671 136.052,288.513 135.854,289.038 135.669 C 289.562 135.485,290.172 135.333,290.392 135.333 C 290.611 135.333,291.120 135.216,291.521 135.071 C 291.922 134.927,292.698 134.736,293.247 134.645 C 293.795 134.554,294.986 134.260,295.893 133.990 C 296.801 133.721,297.702 133.498,297.897 133.496 C 298.091 133.494,298.578 133.344,298.979 133.162 C 299.379 132.980,300.129 132.785,300.645 132.727 C 301.161 132.670,301.898 132.483,302.283 132.311 C 302.667 132.140,303.251 132.000,303.579 132.000 C 303.908 132.000,304.606 131.857,305.130 131.681 C 305.654 131.506,306.458 131.307,306.917 131.239 C 307.375 131.172,308.496 130.865,309.408 130.558 C 310.320 130.251,311.296 130.000,311.577 130.000 C 311.858 130.000,312.368 129.850,312.710 129.667 C 313.052 129.483,313.635 129.333,314.005 129.333 C 314.375 129.333,315.137 129.178,315.700 128.989 C 316.262 128.799,317.104 128.601,317.570 128.549 C 318.035 128.496,318.679 128.324,319.000 128.167 C 319.321 128.009,320.041 127.835,320.601 127.779 C 321.161 127.723,322.191 127.457,322.889 127.188 C 323.587 126.919,324.554 126.646,325.037 126.581 C 325.521 126.516,326.231 126.322,326.616 126.148 C 327.000 125.975,327.639 125.833,328.035 125.833 C 328.431 125.833,329.016 125.695,329.336 125.525 C 329.655 125.356,330.421 125.171,331.037 125.115 C 331.653 125.059,332.369 124.904,332.627 124.770 C 332.886 124.637,333.657 124.448,334.340 124.350 C 335.024 124.253,336.135 123.947,336.809 123.670 C 337.483 123.393,338.198 123.167,338.398 123.167 C 338.597 123.167,339.171 123.050,339.672 122.907 C 340.173 122.765,341.108 122.546,341.750 122.420 C 342.392 122.295,343.196 122.074,343.536 121.929 C 343.877 121.785,344.515 121.665,344.953 121.663 C 345.391 121.661,346.063 121.517,346.446 121.343 C 346.829 121.169,347.579 120.975,348.113 120.911 C 348.647 120.847,349.597 120.578,350.224 120.314 C 350.852 120.051,351.849 119.757,352.440 119.663 C 353.032 119.568,353.793 119.387,354.133 119.260 C 354.472 119.133,355.199 118.982,355.747 118.925 C 356.295 118.868,356.897 118.721,357.084 118.598 C 357.272 118.475,357.986 118.322,358.671 118.257 C 359.356 118.192,360.179 118.007,360.500 117.846 C 360.821 117.685,361.662 117.505,362.370 117.446 C 365.298 117.202,367.809 115.141,366.708 113.885 C 365.968 113.041,363.392 112.777,361.961 113.398 C 361.506 113.596,360.412 113.712,357.878 113.831 C 355.974 113.920,354.154 114.070,353.833 114.165 C 352.825 114.462,350.161 114.807,348.083 114.908 C 346.983 114.962,345.671 115.083,345.167 115.177 C 344.662 115.272,342.889 115.416,341.226 115.497 C 339.563 115.579,337.500 115.758,336.643 115.897 C 335.785 116.035,333.582 116.226,331.747 116.322 C 329.532 116.438,327.992 116.603,327.164 116.814 C 326.268 117.042,325.073 117.156,322.917 117.220 C 321.104 117.274,319.422 117.417,318.667 117.581 C 317.979 117.730,316.179 117.920,314.667 118.003 C 313.154 118.086,311.654 118.233,311.333 118.330 C 311.012 118.428,309.325 118.585,307.583 118.680 C 305.842 118.774,303.967 118.921,303.417 119.006 C 302.516 119.145,296.050 119.821,295.542 119.830 C 295.377 119.833,295.333 117.832,295.332 110.375 C 295.331 100.227,295.311 99.958,294.482 99.261 C 293.993 98.849,292.582 98.640,292.286 98.936 " stroke="none" fill="#cccc04" fill-rule="evenodd"></path><path id="path1" d="M33.417 1.026 C 32.408 1.107,31.197 1.284,30.724 1.420 C 30.252 1.555,29.624 1.667,29.328 1.667 C 27.972 1.667,24.044 3.140,22.250 4.321 C 21.883 4.563,21.391 4.857,21.156 4.975 C 19.997 5.557,16.444 9.512,16.041 10.667 C 15.993 10.804,15.745 11.367,15.489 11.917 C 13.669 15.835,13.667 15.872,13.667 43.213 C 13.667 68.906,13.708 70.204,14.583 72.333 C 14.715 72.654,14.874 73.217,14.936 73.583 C 15.206 75.171,17.524 79.105,19.391 81.142 C 21.195 83.110,26.206 85.833,28.649 86.171 C 29.163 86.243,29.996 86.420,30.500 86.565 C 31.861 86.958,68.415 86.972,69.172 86.581 C 70.132 86.084,70.167 85.859,70.167 80.167 C 70.167 74.423,70.151 74.326,69.102 73.678 C 68.529 73.324,68.524 73.324,51.889 73.278 C 33.914 73.228,32.663 73.175,31.205 72.403 C 30.052 71.792,27.833 69.588,27.833 69.053 C 27.833 68.937,27.684 68.596,27.501 68.296 C 27.179 67.769,27.168 67.451,27.167 58.958 L 27.167 50.167 42.822 50.167 C 59.177 50.167,59.066 50.172,59.596 49.390 C 60.081 48.674,60.088 38.953,59.604 37.880 C 59.027 36.600,59.967 36.667,42.580 36.667 L 27.167 36.667 27.172 28.792 C 27.178 21.357,27.196 20.879,27.500 20.250 C 27.677 19.883,27.825 19.487,27.828 19.370 C 27.851 18.506,29.472 16.322,30.875 15.265 C 32.040 14.387,33.132 14.339,51.990 14.346 C 68.263 14.351,68.912 14.340,69.323 14.039 C 70.312 13.315,70.344 13.089,70.295 7.309 C 70.245 1.434,70.274 1.580,69.047 1.060 C 68.420 0.795,36.695 0.765,33.417 1.026 M83.069 1.066 C 82.786 1.191,82.393 1.501,82.194 1.753 L 81.833 2.212 81.834 43.814 C 81.835 85.100,81.837 85.421,82.167 85.962 C 82.677 86.798,82.939 86.833,88.569 86.833 C 94.439 86.833,94.586 86.810,95.127 85.789 L 95.501 85.083 95.500 43.800 C 95.500 15.199,95.446 2.397,95.324 2.130 C 95.227 1.918,94.877 1.558,94.545 1.330 L 93.942 0.917 88.763 0.877 C 84.669 0.845,83.476 0.885,83.069 1.066 M282.878 1.080 C 281.629 1.624,281.668 1.272,281.667 11.958 L 281.667 21.500 269.021 21.500 C 258.805 21.500,256.251 21.543,255.729 21.726 C 255.374 21.850,254.521 22.005,253.833 22.071 C 253.105 22.140,252.236 22.350,251.750 22.575 C 251.292 22.787,250.729 23.016,250.500 23.084 C 249.172 23.477,246.858 25.006,245.432 26.432 C 243.462 28.402,243.089 28.979,241.831 32.000 C 241.035 33.911,241.008 34.047,240.816 37.175 C 240.594 40.795,240.724 71.962,240.967 73.347 C 241.057 73.858,241.315 74.683,241.542 75.180 C 241.768 75.677,242.076 76.421,242.226 76.833 C 242.959 78.842,245.298 81.763,247.189 83.034 C 247.586 83.300,248.024 83.621,248.164 83.747 C 248.650 84.187,252.267 85.972,252.921 86.095 C 253.283 86.163,253.881 86.355,254.248 86.522 C 254.877 86.808,255.706 86.826,268.059 86.830 L 281.201 86.833 282.682 86.337 C 285.883 85.265,288.532 83.339,290.593 80.585 C 291.782 78.998,293.619 75.931,293.757 75.304 C 293.818 75.022,294.005 74.558,294.171 74.271 C 294.337 73.984,294.521 73.300,294.580 72.750 C 294.638 72.200,294.813 71.412,294.968 71.000 C 295.229 70.305,295.250 67.772,295.250 36.195 L 295.250 2.139 294.717 1.663 C 294.424 1.401,293.899 1.108,293.551 1.011 C 292.538 0.730,283.550 0.788,282.878 1.080 M108.407 21.689 C 107.486 22.136,107.417 22.609,107.417 28.404 C 107.417 34.127,107.448 34.357,108.302 34.778 C 108.457 34.854,117.288 34.937,127.928 34.962 L 147.272 35.007 147.928 35.678 L 148.583 36.349 148.641 38.300 L 148.699 40.250 136.150 40.206 C 125.724 40.170,123.457 40.202,122.758 40.399 C 122.295 40.529,121.346 40.685,120.648 40.746 C 119.950 40.807,119.163 40.972,118.898 41.112 C 118.633 41.252,118.064 41.474,117.633 41.604 C 117.202 41.735,116.639 42.014,116.383 42.225 C 116.126 42.436,115.499 42.882,114.989 43.217 C 113.882 43.942,112.455 45.296,111.703 46.333 C 110.707 47.707,109.667 49.317,109.667 49.484 C 109.667 49.575,109.479 50.002,109.250 50.433 C 109.021 50.864,108.833 51.346,108.833 51.504 C 108.833 51.662,108.692 52.119,108.519 52.520 C 108.346 52.922,108.154 53.730,108.091 54.316 C 108.029 54.902,107.852 55.689,107.697 56.066 C 107.266 57.118,107.273 71.545,107.706 72.667 C 107.865 73.079,108.064 73.754,108.149 74.167 C 108.485 75.800,109.432 77.664,110.625 79.042 C 110.923 79.386,111.167 79.739,111.167 79.827 C 111.167 80.094,113.700 82.578,114.500 83.095 C 114.912 83.362,115.624 83.871,116.081 84.226 C 116.966 84.913,119.401 86.167,119.853 86.167 C 120.002 86.167,120.465 86.318,120.882 86.502 C 122.008 87.000,148.555 86.941,149.917 86.438 C 153.070 85.272,156.829 82.613,157.723 80.917 C 157.867 80.642,158.327 80.042,158.745 79.583 C 159.162 79.125,159.551 78.600,159.609 78.417 C 159.667 78.233,159.891 77.851,160.107 77.568 C 160.323 77.284,160.501 76.946,160.502 76.818 C 160.503 76.689,160.690 76.182,160.918 75.692 C 161.147 75.201,161.333 74.580,161.333 74.311 C 161.333 74.042,161.521 73.452,161.750 73.000 L 162.167 72.178 162.167 53.278 L 162.167 34.378 161.817 33.933 C 161.624 33.689,161.426 33.172,161.377 32.786 C 161.327 32.399,161.147 31.805,160.977 31.465 C 160.806 31.125,160.667 30.737,160.667 30.604 C 160.667 30.265,159.564 28.219,158.949 27.417 C 157.708 25.798,156.378 24.665,154.167 23.340 C 153.177 22.748,151.499 22.160,150.530 22.065 C 149.918 22.005,149.164 21.854,148.855 21.728 C 148.153 21.443,108.991 21.405,108.407 21.689 M175.036 21.760 C 174.121 22.401,174.083 22.657,174.083 28.250 C 174.083 33.854,174.139 34.260,174.970 34.687 C 175.341 34.878,178.692 34.924,194.659 34.961 L 213.901 35.006 214.306 35.378 C 215.451 36.428,215.667 36.941,215.667 38.608 L 215.667 40.167 203.125 40.174 C 195.618 40.178,190.282 40.247,189.833 40.344 C 189.421 40.433,188.314 40.609,187.374 40.734 C 186.434 40.859,185.563 41.045,185.439 41.148 C 185.315 41.251,184.880 41.435,184.473 41.558 C 181.326 42.505,177.650 46.458,175.695 51.000 C 174.968 52.689,174.848 53.080,174.841 53.785 C 174.837 54.172,174.676 54.884,174.483 55.369 C 173.789 57.114,173.846 72.073,174.552 73.488 C 174.707 73.798,174.833 74.216,174.833 74.417 C 174.833 76.117,178.902 81.614,181.370 83.247 C 181.854 83.567,182.550 84.045,182.917 84.308 C 183.944 85.047,185.701 85.967,186.428 86.148 C 186.788 86.237,187.383 86.425,187.750 86.565 C 188.327 86.784,190.228 86.820,201.847 86.826 L 215.278 86.833 216.764 86.350 C 219.870 85.340,223.283 82.835,224.912 80.369 C 225.137 80.029,225.544 79.436,225.816 79.053 C 226.088 78.669,226.585 77.769,226.921 77.053 C 227.257 76.336,227.752 75.322,228.022 74.798 C 228.773 73.341,228.822 72.063,228.823 53.833 C 228.823 34.298,228.803 33.843,227.835 31.750 C 226.762 29.428,226.113 28.099,225.964 27.917 C 225.890 27.825,225.567 27.399,225.248 26.970 C 224.570 26.056,222.742 24.463,221.850 24.009 C 221.508 23.834,221.130 23.573,221.010 23.429 C 220.890 23.285,220.708 23.167,220.605 23.167 C 220.501 23.166,219.941 22.941,219.359 22.666 C 218.641 22.326,217.920 22.132,217.109 22.061 C 216.453 22.003,215.664 21.853,215.355 21.728 C 214.450 21.361,175.562 21.392,175.036 21.760 M279.386 35.191 C 281.823 36.468,281.667 35.197,281.667 53.690 C 281.667 71.833,281.817 70.170,280.017 71.887 C 278.314 73.512,278.404 73.500,267.434 73.500 C 255.373 73.500,255.612 73.564,254.652 70.054 L 254.250 68.583 254.250 53.750 L 254.250 38.917 254.639 37.833 C 255.107 36.528,255.465 36.115,256.667 35.491 L 257.583 35.016 268.303 35.008 C 276.043 35.002,279.123 35.053,279.386 35.191 M144.871 53.999 C 145.171 54.182,145.565 54.332,145.747 54.333 C 146.254 54.334,147.584 55.320,148.053 56.044 C 148.637 56.944,148.706 58.000,148.640 64.924 L 148.583 70.764 148.035 71.456 C 146.601 73.266,144.797 73.526,134.156 73.455 C 123.776 73.387,122.453 73.187,121.320 71.513 L 120.917 70.917 120.917 63.889 L 120.917 56.862 121.423 56.141 C 122.091 55.191,123.097 54.536,124.375 54.219 C 124.948 54.077,125.488 53.895,125.575 53.814 C 125.952 53.463,144.281 53.640,144.871 53.999 M211.538 53.999 C 211.838 54.182,212.279 54.332,212.519 54.333 C 213.310 54.334,214.736 55.674,215.333 56.980 C 215.647 57.667,215.667 58.060,215.667 63.810 L 215.667 69.911 215.227 70.747 C 213.939 73.200,212.798 73.418,201.333 73.412 C 190.549 73.406,189.334 73.242,188.000 71.607 L 187.583 71.097 187.583 63.992 L 187.583 56.888 188.064 56.194 C 188.329 55.812,188.596 55.500,188.658 55.500 C 188.720 55.500,188.916 55.366,189.094 55.203 C 189.718 54.628,190.245 54.333,190.662 54.326 C 190.894 54.323,191.346 54.176,191.667 54.000 C 192.593 53.493,210.706 53.492,211.538 53.999 " stroke="none" fill="#04acd4" fill-rule="evenodd"></path></g></svg>