<svg id="Middel" xmlns="http://www.w3.org/2000/svg" viewBox="0 0 110.57 57.53"><path d="M72.13,35.47a11.94,11.94,0,0,0,2.6-1.71,1.69,1.69,0,0,1,.58-.53,8.23,8.23,0,0,0,2.42-5.9V25.18a.57.57,0,0,1-.18,0,.76.76,0,0,1-.21,0l-.16.91a1.16,1.16,0,0,1-.31-2.25c.57-.29.74-.51.58-.72a.22.22,0,0,0-.19-.1,1.91,1.91,0,0,0-.81.45.83.83,0,0,1-.48.15,1.06,1.06,0,0,1-1-.84l-.53.3a1.35,1.35,0,0,1,1.3-1.65,1.38,1.38,0,0,1,.93.36.44.44,0,0,0,.29.13c.32,0,.54-.41.12-.64s-.8-.89-.43-1.33L76,19.37a1.64,1.64,0,0,1,.86-.25,1.23,1.23,0,0,1,.83.3V11.58a.51.51,0,0,1-.4-.5.58.58,0,0,1,.4-.56V9.87a1.27,1.27,0,0,0-1,.78h-.66a1.08,1.08,0,0,1,.72-1.12V8.89a1.73,1.73,0,0,0-.88.49,1.15,1.15,0,0,0-.14.17h-.5A1,1,0,0,1,76,8.5V8.2H51.53v.3a1,1,0,0,1,.68,1.05H51.7a1.09,1.09,0,0,0-.13-.17,1.81,1.81,0,0,0-.89-.49v.65a1.06,1.06,0,0,1,.72,1.12h-.66a1.26,1.26,0,0,0-1-.78v.65a.59.59,0,0,1,.41.56.53.53,0,0,1-.41.5v7.83a1.27,1.27,0,0,1,.82-.29,1.67,1.67,0,0,1,.87.25l-.63.58c.38.44,0,1.11-.42,1.33s-.2.64.11.64a.44.44,0,0,0,.3-.13,1.38,1.38,0,0,1,.93-.36,1.36,1.36,0,0,1,1.3,1.65l-.54-.3a1,1,0,0,1-1,.84.78.78,0,0,1-.48-.15,1.94,1.94,0,0,0-.82-.45.2.2,0,0,0-.18.1c-.17.21,0,.43.58.72a1.16,1.16,0,0,1-.32,2.25l-.15-.91-.21,0a.57.57,0,0,1-.18,0v2.15a8.19,8.19,0,0,0,2.44,5.91,1.77,1.77,0,0,1,.53.5,12.28,12.28,0,0,0,2.64,1.73Z" style="fill:#fff"/><path d="M74.28,8.2h-21L53,8.82H74.44Zm2.84,3.7v7.23a1.23,1.23,0,0,1,.61.29V12Zm.22,13.28-.16.91-.06,0v1.26a7.54,7.54,0,0,1-1.47,4.55,7.85,7.85,0,0,1-.8.93L51.07,9a2,2,0,0,0-.39-.13v.65a1.06,1.06,0,0,1,.72,1.12h-.66a1.26,1.26,0,0,0-1-.78v.65a.59.59,0,0,1,.41.56.53.53,0,0,1-.41.5v7.78a1.33,1.33,0,0,1,.83-.27,1.68,1.68,0,0,1,.86.28l-.63.58c.38.44,0,1.11-.42,1.33s-.2.64.11.64a.44.44,0,0,0,.3-.13,1.38,1.38,0,0,1,.93-.36,1.36,1.36,0,0,1,1.3,1.65l-.54-.3a1,1,0,0,1-1,.84.78.78,0,0,1-.48-.15,1.94,1.94,0,0,0-.82-.45.2.2,0,0,0-.18.1c-.17.21,0,.43.58.72a1.16,1.16,0,0,1-.11,2.23l-.21,0-.15-.91-.21,0a.57.57,0,0,1-.18,0v2.15a8.11,8.11,0,0,0,1.93,5.34l0,0,.13.15,0,0,.15.16h0l.16.17h0v0l.19.13a1.74,1.74,0,0,1,.34.37,12.28,12.28,0,0,0,2.64,1.73h0l.34.17a16.89,16.89,0,0,0,8,1.67,16.81,16.81,0,0,0,8-1.67l.34-.17h0a11.94,11.94,0,0,0,2.6-1.71l.07-.08,0,0,0,0,0-.05,0,0,0-.06h0l.06-.06h0l.06-.06h0a.71.71,0,0,1,.14-.1h0a8.23,8.23,0,0,0,2.42-5.9V25.18a.57.57,0,0,1-.18,0A.76.76,0,0,1,77.34,25.18Z" style="fill:#e30613"/><path d="M78.15,1.41a1.62,1.62,0,0,0,0-.31H76.62A4.81,4.81,0,0,1,76,3.44a2.7,2.7,0,0,1-.92,1h.11A3,3,0,0,0,78.15,1.41ZM76.62,7.14a2.07,2.07,0,0,0-.35,0H76a1.79,1.79,0,0,0-.78.28h0a1,1,0,0,0-.44.79h.47A1.71,1.71,0,0,1,76,7.85V8.5a1,1,0,0,0-.67,1.05h.5A1.15,1.15,0,0,1,76,9.38a1.73,1.73,0,0,1,.88-.49v.65a1.08,1.08,0,0,0-.72,1.12h.66a1.28,1.28,0,0,1,1-.8v.65a.59.59,0,0,0-.46.58.51.51,0,0,0,.46.51l0,.55h0a.77.77,0,0,0,.39-.11,1.2,1.2,0,0,0,.56-1.14l.6-.29s0,0,0,.06a2.14,2.14,0,0,1-.12,1.05l1.13,1.07a6.53,6.53,0,0,1,.86-1.52,4.4,4.4,0,0,1,.4-.46l-1.3-1c-.62-.47-1.21-1-1.81-1.5-.37-.3-.75-.61-1.15-.88A2,2,0,0,0,76.62,7.14ZM87.11,27a.64.64,0,0,0,.82-.25l-.09-.34a3.18,3.18,0,0,0-.46-.87,3.59,3.59,0,0,0-1.1-1L86,24.44a5,5,0,0,1,.63.9h0c.12.24.19.43.28.61l-.07.09A.65.65,0,0,0,87.11,27ZM40.84,25.34a4.56,4.56,0,0,1,.63-.9l-.24.13a3.37,3.37,0,0,0-1.1,1,3.18,3.18,0,0,0-.46.87,2.46,2.46,0,0,0-.09.34.66.66,0,0,0,.55.31.58.58,0,0,0,.26-.06.66.66,0,0,0,.24-.95L40.56,26c.09-.18.15-.37.28-.61ZM82.27,7.6l.38,0a1.75,1.75,0,0,1-.9-.69,1.62,1.62,0,0,1-.21-1.3l-.06,0a.75.75,0,0,0-.62.93A1.23,1.23,0,0,0,82.27,7.6ZM88,27.81a2.83,2.83,0,0,0,0-.3,1.2,1.2,0,0,1-1.18,0,1.25,1.25,0,0,1-.66-.9,1.22,1.22,0,0,1,.08-.73v0c-.28-.05-.58-.09-.91-.13a13.8,13.8,0,0,0-1.51-.08c-4.29,0-4.64,2.35-4.64,2.35a3.18,3.18,0,0,0,1.34,3.65S81,34,80,34.84l-1.06-.36-.53-.19-.3-.1h0a2.61,2.61,0,0,0-2-1.16c-.72,0-1.41.46-1.75,1.64l.76-.16c0,.77.24,1,.64,1h0l.26,0,.34-.06a4.77,4.77,0,0,1,.83-.15.35.35,0,0,1,.37.26h0c.11.29-.18.47-.54.55a1.38,1.38,0,0,0-1.22,1.65,2.1,2.1,0,0,0,.21.59,1.82,1.82,0,0,0,.15.27h0l.87-.53a.59.59,0,0,0,.43.18,1,1,0,0,0,.77-.44l0-.06a1.4,1.4,0,0,0,.11-.64c0-.12,0-.24,0-.35a1.51,1.51,0,0,1,0-.32.56.56,0,0,1,.32-.32.51.51,0,0,1,.17,0,.42.42,0,0,1,.26.08.58.58,0,0,1,.18.61h0a.88.88,0,0,0,0,.66l0,0,.17.18s.22.16.22.2l-.08,1.07a1.76,1.76,0,0,0,1.48-.67,1.35,1.35,0,0,0,.14-.37,8.92,8.92,0,0,0,.22-1.54,2.33,2.33,0,0,0,.66-.4,1.81,1.81,0,0,0,.54-.8,9.5,9.5,0,0,0,.16-4.6,31.28,31.28,0,0,0,4.9-.93C87.83,29,87.9,28.37,88,27.81ZM84.43,4.61s-.55.34-.44.86a5,5,0,0,0,.7,1.11L85.25,6A2.65,2.65,0,0,1,87,5.18,1.35,1.35,0,0,1,88.22,6a2.54,2.54,0,0,1,.15,1.62c-.08.27-.31.48-.81.52h-.29a11,11,0,0,1-2.37-.37c-.21,1.12-.34,1.34,1.26,1.34l1.41,0L86,9.86l-.51,0a4.55,4.55,0,0,0-2.86.92,4.81,4.81,0,0,0-.48.42,5.74,5.74,0,0,0-1.27,2.07c-.08.21-.15.44-.21.66a8.22,8.22,0,0,0-.2,3.34,5.11,5.11,0,0,1,.39-.42l.06-.07A9.81,9.81,0,0,1,83.14,15c.36-.32.71-.65,1-1A10.37,10.37,0,0,0,86,11.46a10.54,10.54,0,0,1-1.36,2.88c-.23.34-.47.68-.73,1a5.12,5.12,0,0,0-.62.31,10.32,10.32,0,0,0-2,1.63,5.27,5.27,0,0,0-.64.79c-.14.22-.28.44-.41.67l-.32.52c-.45.72-1,1.45-1.39,1.45h0c-.12,0-.21-.09-.25-.29a1.41,1.41,0,0,0-1.37-1.31,1.64,1.64,0,0,0-.86.25l.62.58c-.37.44,0,1.11.43,1.33s.2.64-.12.64a.44.44,0,0,1-.29-.13,1.38,1.38,0,0,0-.93-.36,1.35,1.35,0,0,0-1.3,1.65l.53-.3a1.06,1.06,0,0,0,1,.84.83.83,0,0,0,.48-.15,1.91,1.91,0,0,1,.81-.45.22.22,0,0,1,.19.1c.16.21,0,.43-.58.72a1.16,1.16,0,0,0,.31,2.25l.16-.91a.76.76,0,0,0,.21,0,.85.85,0,0,0,.78-.66,7.27,7.27,0,0,0,.07-.92.31.31,0,0,1,.31-.33.37.37,0,0,1,.38.36c0,.44,0,1,.78,1.13h0l.24.77c.72-.26,1.44-1.09.14-2.48,0-.71.73-1.12,1.78-1.72l.56-.32.3-.18a17.47,17.47,0,0,0,1.73-1.33l.62.33c-.12.12-.27.24-.42.37a19.51,19.51,0,0,1-1.59,1.19l-.15.1a17.8,17.8,0,0,0,2.07,1.62l.77.5.66.39a4,4,0,0,1,1.27,1.09,4.06,4.06,0,0,1,.49.85,3.83,3.83,0,0,1,.25.86l0,.29a3.36,3.36,0,0,1,0,.78c0,.27-.07.54-.11.81s-.09.82-.12,1.22-.06,1-.06,1.42a4.28,4.28,0,0,0,1.22,3.45,4,4,0,0,0,2.7,1c.51,0,2,.24,2.91.39a1.19,1.19,0,0,1,1,1.12,4.26,4.26,0,0,1-.24,2.12l-1.32-.19a2.28,2.28,0,0,0-1.77-.81,1.54,1.54,0,0,0-1.42.79,2.15,2.15,0,0,0-.21.62l0,.21.42-.17.24-.1,0,.17c.14.58.44.79.8.79a1.6,1.6,0,0,0,.54-.12l.07,0a2.82,2.82,0,0,1,.76-.25.33.33,0,0,1,.29.19c.1.19,0,.36-.2.48a1.05,1.05,0,0,1-.21.12c-1,.42-1.3,1.4-.37,2.42l.7-.62a.6.6,0,0,0,.32.1.87.87,0,0,0,.73-.54,2,2,0,0,0-.06-1,.61.61,0,0,1,0-.23.47.47,0,0,1,.26-.36.41.41,0,0,1,.19-.05.41.41,0,0,1,.18.05.58.58,0,0,1,.15.11.72.72,0,0,1,.11.41c0,.09,0,.17,0,.25a.59.59,0,0,0,.18.38l.18.13s.23.11.24.16l.09,1c.7-.18,1.48-.52,1.28-1.6A2.54,2.54,0,0,0,97.9,41l-.11-.26a2,2,0,0,0,1.11-1.54,36.46,36.46,0,0,0-.09-4,1,1,0,0,0-.9-1c-.56-.07-1.28-.18-1.81-.3-.84-.18-1.65-.55-1.84-1.15a2.05,2.05,0,0,1,0-1.1c0-.42.1-.83.13-1.25a1.28,1.28,0,0,1,0-.19,4.51,4.51,0,0,0,0-.73l.15.09a1.94,1.94,0,0,0,.5.2,2.25,2.25,0,0,0,.58.08,2.31,2.31,0,0,0,1.19-.34,2.14,2.14,0,0,0,1-1.9,5.47,5.47,0,0,0-1.58-3.32,10.84,10.84,0,0,1-1-1.42,6.84,6.84,0,0,1-.62-5.18,8.14,8.14,0,0,1,1.2-2.29c.19-.29.37-.56.55-.86a1.34,1.34,0,0,0,.66.12.84.84,0,0,0,.22-.1c.61-.38,1.25-1.93,1.23-3.79a6.56,6.56,0,0,0-1.06-3.72,8.35,8.35,0,0,1,.36,1.3,6.52,6.52,0,0,1,.09,1.46,4.8,4.8,0,0,1-.3,1.41,4.7,4.7,0,0,0,0-1.4,5.37,5.37,0,0,0-.36-1.32,7.15,7.15,0,0,0-.54-1.07,7.11,7.11,0,0,1-.09,2.81,9.38,9.38,0,0,1-.68,1.87,6.58,6.58,0,0,0-.47,1.26.84.84,0,0,0,.22.88l-.13.21-.35.53a8.62,8.62,0,0,0-1.3,2.52,7.67,7.67,0,0,0,.69,5.72,11.39,11.39,0,0,0,1.09,1.53,4.82,4.82,0,0,1,1.42,2.87,1.41,1.41,0,0,1-.68,1.24,1.5,1.5,0,0,1-1.48.06l-.05,0A2.09,2.09,0,0,1,94,28l0-.07a17.71,17.71,0,0,0-.83-2,59.23,59.23,0,0,1-2.85-5.62,8.87,8.87,0,0,1-.35-3.77,5.33,5.33,0,0,0,1.6.29c0-2.11,4.52-7,1.75-13a4.34,4.34,0,0,1-.79,1L92.24,5V4.13A2.32,2.32,0,0,0,92.48.71a2.77,2.77,0,0,0-1.23,1.15l-.61-.2a6,6,0,0,1,.5-.71A.41.41,0,0,0,91,.87h-.12a26.21,26.21,0,0,0-4.67,1l-.27.92a11.51,11.51,0,0,0-2.4,1.08C83.58,4.09,83.87,4.68,84.43,4.61Zm6.79,5.87a17.13,17.13,0,0,0,.61-2.12,16.42,16.42,0,0,1-.37,2.19,16,16,0,0,1-.66,2.14c-.27.7-.58,1.39-.91,2.06s-.52,1.05-.8,1.57a4.92,4.92,0,0,1-.88-.4,32.07,32.07,0,0,0,2.13-3.43A14.93,14.93,0,0,0,91.22,10.48Zm-2.63,1.09c-.16.49-.32,1-.52,1.45a13,13,0,0,1-.71,1.39c-.16.28-.32.54-.48.81a4.14,4.14,0,0,0-1-.21c.3-.34.59-.68.87-1a10.15,10.15,0,0,0,.88-1.19c.27-.42.5-.86.74-1.31s.45-.91.67-1.37C88.89,10.6,88.74,11.09,88.59,11.57Zm-.2-8.65A6.11,6.11,0,0,0,87.46,4c-.92,0-1.13-.56-1.13-1.13A5.28,5.28,0,0,0,88.39,2.92ZM76,5H51.55V6.5a2.28,2.28,0,0,1,1.12.4,1.66,1.66,0,0,1,.69,1.28v0H74.15v0a1.69,1.69,0,0,1,.69-1.28h0A2.3,2.3,0,0,1,76,6.49ZM56.67,7.67l-2-1,2-1,2,1Zm7.09-.12c-1,0-1.78-.39-1.78-.88s.8-.89,1.78-.89,1.78.4,1.78.89S64.74,7.55,63.76,7.55Zm7.1.12-2-1,2-1,2,1ZM50,35.51a.36.36,0,0,1,.38-.26,4.94,4.94,0,0,1,.83.15l.34.06.26,0h0c.39,0,.64-.2.64-1l.75.16c-.34-1.18-1-1.64-1.74-1.64a2.6,2.6,0,0,0-2,1.16h0l-.3.1-.53.19-1.07.36c-1-.87-.56-3.16-.56-3.16A3.19,3.19,0,0,0,48.33,28s-.35-2.35-4.65-2.35a13.8,13.8,0,0,0-1.51.08c-.33,0-.63.08-.9.13v0a1.22,1.22,0,0,1,.08.73,1.25,1.25,0,0,1-.66.9,1.18,1.18,0,0,1-.55.14,1.27,1.27,0,0,1-.63-.17,1.45,1.45,0,0,0,0,.3c.07.56.15,1.17.21,1.8a31.2,31.2,0,0,0,4.89.93,9.6,9.6,0,0,0,.17,4.6,1.81,1.81,0,0,0,.54.8,2.2,2.2,0,0,0,.66.4,7.31,7.31,0,0,0,.22,1.54,1.35,1.35,0,0,0,.14.37,1.74,1.74,0,0,0,1.48.67l-.09-1.07s.19-.17.22-.2l.17-.18,0,0a.93.93,0,0,0,.06-.66h0a.56.56,0,0,1,.18-.61.42.42,0,0,1,.26-.08.45.45,0,0,1,.16,0,.51.51,0,0,1,.32.32,1.06,1.06,0,0,1,0,.32c0,.11,0,.23,0,.35a1.41,1.41,0,0,0,.12.64.14.14,0,0,0,0,.06,1,1,0,0,0,.77.44.63.63,0,0,0,.44-.18l.86.53h0c.06-.09.1-.18.15-.27a2.06,2.06,0,0,0,.2-.59,1.38,1.38,0,0,0-1.21-1.65c-.36-.08-.65-.26-.55-.55Zm32.74,4.63a3.21,3.21,0,0,0-.81-.83l-.31-.17L81.32,39a2.73,2.73,0,0,1-1.61.54l-.72.05.05-.72.07-.76a2,2,0,0,1-.24-.26h0a1.83,1.83,0,0,1-.11.26,1.61,1.61,0,0,1-1.32.76,1.55,1.55,0,0,1-.43-.07l-.33.2.07.06A5.74,5.74,0,0,0,80,40.46,2.65,2.65,0,0,1,82,42.15a5,5,0,0,1,.12,1.72A2.37,2.37,0,0,0,83,40.69,5.3,5.3,0,0,0,82.72,40.14Zm-12.83-.73a6.24,6.24,0,0,0-3.38-1.94,6.59,6.59,0,0,0-.92-.16l-.49,0c-.43,0-.87,0-1.34,0s-.92,0-1.35,0l-.49,0a6.59,6.59,0,0,0-.92.16,7,7,0,0,0-1.54.53,7.45,7.45,0,0,0-1.85,1.41l-.1.11a3.17,3.17,0,0,0-.94,2.75,5.76,5.76,0,0,1,4.1-2.18,6.53,6.53,0,0,1,2.7.64l.38.21.39-.21a6.45,6.45,0,0,1,2.7-.64,5.73,5.73,0,0,1,4.09,2.18A3.14,3.14,0,0,0,70,39.52,1.14,1.14,0,0,1,69.89,39.41ZM57.17,39a7.63,7.63,0,0,1,3-1.92,16,16,0,0,1-2.3-.54h-.21a5.93,5.93,0,0,0-.61,0,13.51,13.51,0,0,1-1.6.18A13.47,13.47,0,0,1,52,36.26a2.22,2.22,0,0,1,.25.42,2.09,2.09,0,0,1,.09,1.22l.1,0,.5.1a3.66,3.66,0,0,0,.43.06,6.44,6.44,0,0,0-.58.37,8.07,8.07,0,0,0-1.43,1.21,2.76,2.76,0,0,0,.23,4.27s-.54-2.39.61-3.15c1.84-1.2,2.83-.17,4.88-1.74Zm-6.32,0-.34-.2a1.49,1.49,0,0,1-.43.07,1.61,1.61,0,0,1-1.31-.76,2,2,0,0,1-.12-.26h0a3.08,3.08,0,0,1-.24.26l.06.76.06.72-.73-.05a2.7,2.7,0,0,1-1.6-.54l-.29.14-.31.17a3.18,3.18,0,0,0-.8.83,3.93,3.93,0,0,0-.31.55,2.37,2.37,0,0,0,.88,3.18,5,5,0,0,1,.11-1.72,2.67,2.67,0,0,1,2.07-1.69,5.68,5.68,0,0,0,3.23-1.41Zm23.86-.53a6.44,6.44,0,0,0-.58-.37,4,4,0,0,0,.43-.06l.49-.1.11,0a2,2,0,0,1,.09-1.22,1.79,1.79,0,0,1,.25-.42,13.53,13.53,0,0,1-3.45.46,13.28,13.28,0,0,1-1.6-.18,6.13,6.13,0,0,0-.62,0h-.19a16.14,16.14,0,0,1-2.31.54,7.82,7.82,0,0,1,3,1.92l.07.08c2.06,1.57,3,.54,4.88,1.74,1.16.76.62,3.15.62,3.15a2.76,2.76,0,0,0,.22-4.27A8,8,0,0,0,74.71,38.46Zm24,3.11a2,2,0,0,1-.13,1.15A2.31,2.31,0,0,1,97,43.84l-.71.17-.07-.72-.06-.68-.2-.14a1.21,1.21,0,0,1-.05.18,1.5,1.5,0,0,1-1.32,1h-.18L94,44l-.46.41-.42-.46a2.29,2.29,0,0,1-.68-2,1.81,1.81,0,0,1,.25-.59,1.29,1.29,0,0,1-1-.4,1.76,1.76,0,0,1-.25-.34h0l-1,.4.11-1s0-.07,0-.11a9.1,9.1,0,0,0-1.61.49l-.28.12-.14.05.61.36a5.16,5.16,0,0,1,1.94,2l.69.72a5.17,5.17,0,0,0,3.85,1.61A6.17,6.17,0,0,0,101.48,41,14.92,14.92,0,0,1,98.72,41.57Zm-10-.22a13.38,13.38,0,0,0-2.67-1.25l.7,0A4.82,4.82,0,0,0,88.15,40a4.54,4.54,0,0,0,.57-.22,2.16,2.16,0,0,0,1.21-1.68,4.3,4.3,0,0,1-2.51.85,10.24,10.24,0,0,1-2.79-.61,2.78,2.78,0,0,0-.79-.11,3.75,3.75,0,0,0-1.77.48,3.61,3.61,0,0,1,1.17,1.13,5.45,5.45,0,0,1,.33.56,5.63,5.63,0,0,0,.78,1,4.41,4.41,0,0,0,2.52.77,4.67,4.67,0,0,1,3.71,2.57,1.89,1.89,0,0,0,0-1.53A4.67,4.67,0,0,0,88.75,41.35ZM45.44,38.67a3.79,3.79,0,0,0-1.77-.48,2.85,2.85,0,0,0-.8.11,10.09,10.09,0,0,1-2.78.61,4.3,4.3,0,0,1-2.51-.85,2.13,2.13,0,0,0,1.21,1.68,4.37,4.37,0,0,0,.56.22,5,5,0,0,0,1.38.17l.7,0a13.11,13.11,0,0,0-2.67,1.25A4.6,4.6,0,0,0,37,43.18a1.89,1.89,0,0,0,0,1.53,4.67,4.67,0,0,1,3.72-2.57,4.38,4.38,0,0,0,2.51-.77,5.22,5.22,0,0,0,.79-1,5.33,5.33,0,0,1,.32-.56A3.64,3.64,0,0,1,45.44,38.67ZM29.72,40.75c0,.09-.08.18-.12.26a3.88,3.88,0,0,0-.19.62c-.19,1.08.59,1.42,1.28,1.6l.1-1s.19-.13.23-.16A1.18,1.18,0,0,0,31.2,42a.59.59,0,0,0,.18-.38,2,2,0,0,0,0-.25.73.73,0,0,1,.12-.41.53.53,0,0,1,.14-.11.49.49,0,0,1,.19-.05.45.45,0,0,1,.19.05.52.52,0,0,1,.26.36.92.92,0,0,1,0,.23,2,2,0,0,0-.06,1,.86.86,0,0,0,.72.54.6.6,0,0,0,.33-.1l.7.62c.93-1,.64-2-.38-2.42a1.43,1.43,0,0,1-.21-.12c-.19-.12-.3-.29-.19-.48a.33.33,0,0,1,.29-.19,2.94,2.94,0,0,1,.76.25l.06,0a1.66,1.66,0,0,0,.55.12c.36,0,.65-.21.79-.79a.85.85,0,0,0,0-.17l.24.1.42.17a1.55,1.55,0,0,0,0-.21,2.15,2.15,0,0,0-.2-.62,1.54,1.54,0,0,0-1.43-.79,2.26,2.26,0,0,0-1.76.81l-1.32.19a4.15,4.15,0,0,1-.24-2.12,1.19,1.19,0,0,1,1-1.12c1-.15,2.4-.35,2.91-.39a4,4,0,0,0,2.71-1,4.28,4.28,0,0,0,1.22-3.45c0-.46,0-.94-.06-1.42s-.08-.81-.13-1.22-.07-.54-.1-.81a3.36,3.36,0,0,1,0-.78,2.54,2.54,0,0,1,0-.29,3.83,3.83,0,0,1,.25-.86,3.66,3.66,0,0,1,.49-.85A3.86,3.86,0,0,1,40.92,24l.66-.39.78-.5a18.68,18.68,0,0,0,2.07-1.62l-.15-.1a17.88,17.88,0,0,1-1.59-1.19l-.43-.37.62-.33a17.21,17.21,0,0,0,1.74,1.33l.3.18c.19.12.38.22.56.32,1.05.6,1.8,1,1.78,1.72-1.3,1.39-.59,2.22.13,2.48l.24-.77h0c.76-.13.75-.69.78-1.13a.39.39,0,0,1,.38-.36.32.32,0,0,1,.32.33,5.77,5.77,0,0,0,.07.92.84.84,0,0,0,.78.66l.21,0,.15.91a1.16,1.16,0,0,0,.32-2.25c-.57-.29-.75-.51-.58-.72a.2.2,0,0,1,.18-.1,1.94,1.94,0,0,1,.82.45.78.78,0,0,0,.48.15,1,1,0,0,0,1-.84l.54.3a1.36,1.36,0,0,0-1.3-1.65,1.38,1.38,0,0,0-.93.36.44.44,0,0,1-.3.13c-.31,0-.54-.4-.11-.64s.8-.89.42-1.33l.63-.58a1.67,1.67,0,0,0-.87-.25,1.42,1.42,0,0,0-1.37,1.31c0,.2-.12.29-.24.29h0c-.35,0-.94-.73-1.4-1.45l-.31-.52c-.13-.23-.27-.45-.42-.67a5.2,5.2,0,0,0-.63-.79,10.43,10.43,0,0,0-2-1.63,4.48,4.48,0,0,0-.62-.31c-.25-.33-.49-.67-.72-1a10.57,10.57,0,0,1-1.37-2.88A10.41,10.41,0,0,0,43.33,14c.33.34.67.67,1,1a9.6,9.6,0,0,1,2.26,1.78l.07.07a5,5,0,0,1,.38.42,8.2,8.2,0,0,0-.19-3.34c-.06-.22-.13-.45-.21-.66a5.88,5.88,0,0,0-1.27-2.07,4.81,4.81,0,0,0-.48-.42,4.55,4.55,0,0,0-2.86-.92l-.52,0-1.6-.73,1.4,0c1.6,0,1.47-.22,1.27-1.34a11,11,0,0,1-2.38.37h-.29c-.5,0-.72-.25-.8-.52A2.54,2.54,0,0,1,39.29,6a1.33,1.33,0,0,1,1.25-.86A2.65,2.65,0,0,1,42.26,6l.55.57a5,5,0,0,0,.7-1.11c.12-.52-.44-.86-.44-.86.57.07.85-.52,1-.78a11.62,11.62,0,0,0-2.41-1.08l-.26-.92a26.15,26.15,0,0,0-4.68-1h-.11a.44.44,0,0,0-.2.08,5.11,5.11,0,0,1,.51.71l-.61.2A2.87,2.87,0,0,0,35,.71a2.32,2.32,0,0,0,.24,3.42V5L35,4.76a4.65,4.65,0,0,1-.79-1c-2.77,6,1.78,10.92,1.75,13a5.33,5.33,0,0,0,1.6-.29,9,9,0,0,1-.34,3.77,61.69,61.69,0,0,1-2.85,5.62,16,16,0,0,0-.83,2l0,.07a2.17,2.17,0,0,1-.88,1l0,0a1.5,1.5,0,0,1-1.48-.06,1.37,1.37,0,0,1-.68-1.24,4.81,4.81,0,0,1,1.41-2.87A10.56,10.56,0,0,0,33,23.24a7.62,7.62,0,0,0,.69-5.72A8.16,8.16,0,0,0,32.34,15L32,14.47a2.39,2.39,0,0,1-.13-.21.88.88,0,0,0,.22-.88,6.73,6.73,0,0,0-.48-1.26,10,10,0,0,1-.68-1.87,7.3,7.3,0,0,1-.09-2.81,8.24,8.24,0,0,0-.54,1.07A5.35,5.35,0,0,0,30,9.83a5.05,5.05,0,0,0,0,1.4,5.13,5.13,0,0,1-.29-1.41,6,6,0,0,1,.09-1.46,7.37,7.37,0,0,1,.36-1.3,6.4,6.4,0,0,0-1.06,3.72c0,1.86.62,3.41,1.23,3.79a.84.84,0,0,0,.22.1,1.29,1.29,0,0,0,.65-.12c.19.3.36.57.56.86a8.14,8.14,0,0,1,1.2,2.29,6.84,6.84,0,0,1-.63,5.18,9.91,9.91,0,0,1-1,1.42,5.48,5.48,0,0,0-1.59,3.32,2.17,2.17,0,0,0,1,1.9,2.34,2.34,0,0,0,1.2.34,2.32,2.32,0,0,0,.58-.08,1.94,1.94,0,0,0,.5-.2.6.6,0,0,0,.15-.09,4.51,4.51,0,0,0,0,.73,1.15,1.15,0,0,0,0,.19c0,.42.09.83.12,1.25s.15.59,0,1.1-1,1-1.83,1.15c-.53.12-1.26.23-1.82.3a1.06,1.06,0,0,0-.9,1,36.07,36.07,0,0,0-.08,4A2,2,0,0,0,29.72,40.75ZM41.18,2.9C41.18,3.47,41,4.07,40,4a5.59,5.59,0,0,0-.93-1.11A5.32,5.32,0,0,0,41.18,2.9Zm-2,8.58c.23.45.47.89.73,1.31A11.42,11.42,0,0,0,40.76,14l.87,1a4.23,4.23,0,0,0-1,.21c-.16-.27-.32-.53-.48-.81a12.9,12.9,0,0,1-.7-1.39c-.2-.48-.37-1-.52-1.45s-.3-1-.45-1.46C38.7,10.57,38.92,11,39.15,11.48Zm-1.54,3.27c-.33-.67-.63-1.36-.9-2.06A16.08,16.08,0,0,1,36,10.55a16.39,16.39,0,0,1-.36-2.19,15.52,15.52,0,0,0,.6,2.12,18,18,0,0,0,.88,2,33.75,33.75,0,0,0,2.13,3.43,4.62,4.62,0,0,1-.88.4C38.14,15.8,37.87,15.28,37.61,14.75ZM56.52,3h.69A3.57,3.57,0,0,0,58,4.41h1.41a2.64,2.64,0,0,1-.93-1A4.81,4.81,0,0,1,57.9,1.1h-2a4.71,4.71,0,0,1-.61,2.34,2.62,2.62,0,0,1-.92,1H55.7A3.57,3.57,0,0,0,56.52,3Zm-4,1.43h.14a2.7,2.7,0,0,1-.92-1,4.81,4.81,0,0,1-.61-2.34H49.54a2.45,2.45,0,0,0,0,.27A3,3,0,0,0,52.48,4.41ZM63.42,3h.69a3.47,3.47,0,0,0,.83,1.43h1.49a2.62,2.62,0,0,1-.92-1A4.81,4.81,0,0,1,64.9,1.1H62.74a4.93,4.93,0,0,1-.61,2.34,2.72,2.72,0,0,1-.93,1h1.4A3.57,3.57,0,0,0,63.42,3ZM38.37,40.85l.61-.36-.14-.05-.29-.12a8.86,8.86,0,0,0-1.61-.49s0,.07,0,.11l.11,1-1-.4h0a1.72,1.72,0,0,1-.24.34,1.29,1.29,0,0,1-1,.4,1.79,1.79,0,0,1,.24.59,2.26,2.26,0,0,1-.68,2l-.41.46L33.55,44l-.42-.38h-.19a1.47,1.47,0,0,1-1.31-1,1.27,1.27,0,0,1-.06-.18l-.19.14-.06.68-.07.72-.71-.17a2.31,2.31,0,0,1-1.62-1.12,1.91,1.91,0,0,1-.13-1.15A15.16,15.16,0,0,1,26,41a6.18,6.18,0,0,0,5.87,4.17,5.18,5.18,0,0,0,3.85-1.61l.69-.72A5.16,5.16,0,0,1,38.37,40.85ZM70.43,3h.69A3.47,3.47,0,0,0,72,4.41h1.37a2.62,2.62,0,0,1-.92-1,4.71,4.71,0,0,1-.61-2.34H69.73a4.71,4.71,0,0,1-.61,2.34,2.62,2.62,0,0,1-.92,1h1.41A3.57,3.57,0,0,0,70.43,3ZM46.3,11.26a6.91,6.91,0,0,1,.86,1.52l1.13-1.08h0a2.22,2.22,0,0,1-.12-1s0,0,0-.06l.6.29A1.2,1.2,0,0,0,49.34,12a.79.79,0,0,0,.39.11h0l0-.55a.52.52,0,0,0,.47-.51.59.59,0,0,0-.47-.58V9.85a1.28,1.28,0,0,1,1,.8h.66a1.06,1.06,0,0,0-.72-1.12V8.89a1.81,1.81,0,0,1,.89.49,1.09,1.09,0,0,1,.13.17h.51a1,1,0,0,0-.68-1.05V7.85a1.66,1.66,0,0,1,.73.35h.47a1.07,1.07,0,0,0-.43-.79h0a1.91,1.91,0,0,0-1.06-.3h0l-.32,0a2,2,0,0,0-.77.31c-.4.27-.78.58-1.15.88-.6.51-1.18,1-1.81,1.5l-1.29,1A6,6,0,0,1,46.3,11.26Zm.35-4.72A.76.76,0,0,0,46,5.61l-.07,0a1.58,1.58,0,0,1-.21,1.3,1.71,1.71,0,0,1-.9.69l.38,0C46.07,7.6,46.52,7.26,46.65,6.54Z" style="fill:#fff"/><rect y="0.47" width="6.7" height="56.91" style="fill:#fbba00"/><ellipse cx="63.76" cy="6.67" rx="1.78" ry="0.89" style="fill:#e30613"/><polygon points="58.67 6.67 56.66 5.66 54.66 6.67 56.66 7.67 58.67 6.67" style="fill:#e30613"/><polygon points="72.86 6.67 70.86 5.66 68.85 6.67 70.86 7.67 72.86 6.67" style="fill:#e30613"/><path d="M101.29,40.39a15.63,15.63,0,0,1-2.67.56,2.68,2.68,0,0,0,.9-1.65,33,33,0,0,0-.08-4.14A1.68,1.68,0,0,0,98,33.59c-.75-.1-1.35-.2-1.77-.29-.85-.19-1.3-.5-1.37-.72a.77.77,0,0,1,0-.49c0-.1,0-.22.05-.38s0-.35,0-.54,0-.47.07-.71v0a3,3,0,0,0,.59.06,2.87,2.87,0,0,0,1.52-.43,2.78,2.78,0,0,0,1.34-2.45,6,6,0,0,0-1.72-3.69,8.77,8.77,0,0,1-1-1.34,6.15,6.15,0,0,1-.56-4.71,7.51,7.51,0,0,1,1.11-2.1l.3-.46h.21a1.4,1.4,0,0,0,.73-.21c1.14-.7,1.54-3,1.53-4.33a6.6,6.6,0,0,0-3.25-6l-.75-.45.29.82a8.11,8.11,0,0,1,.59,5,8.85,8.85,0,0,1-.64,1.74c-.39.88-.77,1.73-.44,2.42l-.24.37a9,9,0,0,0-1.38,2.71A8.26,8.26,0,0,0,94,23.55a10.77,10.77,0,0,0,1.14,1.61,4.29,4.29,0,0,1,1.28,2.49.76.76,0,0,1-.38.69.9.9,0,0,1-.9,0,1.4,1.4,0,0,1-.58-.64,17.12,17.12,0,0,0-.88-2.08c-.34-.68-.71-1.35-1.07-2a26.64,26.64,0,0,1-1.75-3.56,7.42,7.42,0,0,1-.37-2.74,7.13,7.13,0,0,0,1,.11l.65,0v-.65A7.47,7.47,0,0,1,93,14.5c1.21-2.67,3-6.72.69-11.35l0-.1a3.15,3.15,0,0,0,.12-.85A2.68,2.68,0,0,0,92.89.25L92.62,0l-.35.12a2.29,2.29,0,0,0-.68.4A1,1,0,0,0,91,.25h-.2a25.17,25.17,0,0,0-5,1l-.24.12-.07.26-.17.58a13,13,0,0,0-2,.94l-.21.12-.4.22.09.45a7.41,7.41,0,0,0,1.38,3l0,0a3.83,3.83,0,0,1-.65.06,1.53,1.53,0,0,1-1.33-.54,1.09,1.09,0,0,1,.33-1.47,1.76,1.76,0,0,0-.72-.16,2.78,2.78,0,0,0-.54.06,1.39,1.39,0,0,0-1.11,1.66,1.85,1.85,0,0,0,2,1.58A4.38,4.38,0,0,0,83,8.15a8.15,8.15,0,0,0,1.22-.32v0a1.72,1.72,0,0,0,.12,1.44,5,5,0,0,0-2.3,1.06l-1.38-1c-.43-.32-.83-.67-1.26-1l-.53-.45c-.37-.3-.77-.63-1.2-.92a2.45,2.45,0,0,0-1.08-.41V4.73a3.63,3.63,0,0,0,2.16-3.32,3.68,3.68,0,0,0-.13-.94H76A4.91,4.91,0,0,1,76,1c0,1.6-.81,3-1.8,3s-1.79-1.4-1.79-3a4.93,4.93,0,0,1,0-.55H69.07a3.31,3.31,0,0,1,0,.55c0,1.6-.8,3-1.79,3s-1.8-1.41-1.8-3a3.31,3.31,0,0,1,0-.55H62.08a4.93,4.93,0,0,1,0,.55c0,1.6-.8,3-1.79,3s-1.79-1.4-1.79-3a4.93,4.93,0,0,1,0-.55H55.27a4.93,4.93,0,0,1,0,.55c0,1.6-.8,3-1.79,3s-1.8-1.4-1.8-3a4.91,4.91,0,0,1,0-.55H49a3.82,3.82,0,0,0-.11.9,3.69,3.69,0,0,0,2,3.29V6.5a2.55,2.55,0,0,0-1.12.42c-.43.29-.83.62-1.2.92l-.52.45c-.43.36-.83.71-1.26,1l-1.39,1a4.93,4.93,0,0,0-2.29-1.06,1.69,1.69,0,0,0,.11-1.44v0a7.56,7.56,0,0,0,1.22.32,4.28,4.28,0,0,0,.76.08,1.84,1.84,0,0,0,2-1.58A1.37,1.37,0,0,0,46.16,5a2.78,2.78,0,0,0-.54-.06,1.73,1.73,0,0,0-.72.16,1.07,1.07,0,0,1,.32,1.47,1.49,1.49,0,0,1-1.32.54A3.66,3.66,0,0,1,43.25,7l0,0a7.41,7.41,0,0,0,1.38-3l.09-.45-.41-.22-.21-.12a12.43,12.43,0,0,0-2-.94L42,1.66l-.08-.26-.24-.12a25,25,0,0,0-5-1h-.19a1,1,0,0,0-.57.27,2.37,2.37,0,0,0-.67-.4L34.89,0l-.28.25a2.68,2.68,0,0,0-.84,2,2.51,2.51,0,0,0,.12.85.93.93,0,0,0,0,.1c-2.35,4.63-.53,8.68.68,11.35a7.55,7.55,0,0,1,.83,2.33v.65l.65,0a7.42,7.42,0,0,0,1-.11,7.63,7.63,0,0,1-.37,2.74,26.64,26.64,0,0,1-1.75,3.56c-.36.65-.73,1.32-1.07,2a15.67,15.67,0,0,0-.88,2.08,1.46,1.46,0,0,1-.58.64.9.9,0,0,1-.9,0,.76.76,0,0,1-.39-.69,4.35,4.35,0,0,1,1.28-2.49,10.81,10.81,0,0,0,1.15-1.61,8.26,8.26,0,0,0,.75-6.19,9,9,0,0,0-1.38-2.71c-.09-.12-.17-.25-.25-.37.34-.69,0-1.54-.44-2.42a8.81,8.81,0,0,1-.63-1.74,8.11,8.11,0,0,1,.59-5l.28-.82-.74.45a6.58,6.58,0,0,0-3.25,6c0,1.3.39,3.63,1.53,4.33a1.4,1.4,0,0,0,.73.21h.2c.1.15.2.31.31.46a7.51,7.51,0,0,1,1.11,2.1,6.25,6.25,0,0,1-.56,4.71,9.52,9.52,0,0,1-1,1.34,6,6,0,0,0-1.72,3.69,2.74,2.74,0,0,0,1.34,2.45,2.85,2.85,0,0,0,1.52.43,2.78,2.78,0,0,0,.58-.06v0c0,.24.05.48.07.71l.06.54a2.73,2.73,0,0,0,0,.38.84.84,0,0,1,0,.49c-.07.22-.52.53-1.38.72-.41.09-1,.19-1.76.29a1.68,1.68,0,0,0-1.44,1.57A31,31,0,0,0,28,39.3a2.68,2.68,0,0,0,.9,1.65,15.63,15.63,0,0,1-2.67-.56L25,40l.4,1.19A6.64,6.64,0,0,0,28,44.59a7,7,0,0,0,3.87,1.19A5.84,5.84,0,0,0,36.15,44a2.57,2.57,0,0,0,.19.92l.55,1.37.6-1.35a4,4,0,0,1,3.19-2.21,4.88,4.88,0,0,0,2.87-.91h0a3,3,0,0,0,.07.67,3.22,3.22,0,0,0,1.42,1.9L46,45,46,43.84a4.75,4.75,0,0,1,.09-1.51,2.07,2.07,0,0,1,1.61-1.25L48,41a7.17,7.17,0,0,0,2.15-.72A3.18,3.18,0,0,0,49.83,42a3.79,3.79,0,0,0,1.39,2.43l1.37,1-.38-1.67c-.14-.64-.25-2.1.35-2.48a3.86,3.86,0,0,1,1.92-.62,5.72,5.72,0,0,0,1.77-.41A3.41,3.41,0,0,0,56,42.43l.32,1.27.79-1.05a5.1,5.1,0,0,1,3.59-1.94,5.78,5.78,0,0,1,2.75.76l.33.2.33-.2a5.79,5.79,0,0,1,2.76-.76,5.1,5.1,0,0,1,3.59,1.94l.79,1.05.32-1.27a3.5,3.5,0,0,0-.28-2.14A5.72,5.72,0,0,0,73,40.7a3.89,3.89,0,0,1,1.92.62c.59.38.49,1.84.34,2.48l-.37,1.67,1.36-1A3.79,3.79,0,0,0,77.67,42a3.09,3.09,0,0,0-.35-1.74,7.17,7.17,0,0,0,2.15.72l.35.09a2.06,2.06,0,0,1,1.61,1.25,4.48,4.48,0,0,1,.09,1.51l0,1.15,1-.57a3.22,3.22,0,0,0,1.41-1.9,2.51,2.51,0,0,0,.08-.67h0a4.88,4.88,0,0,0,2.87.91A4,4,0,0,1,90,45l.61,1.35L91.17,45a2.8,2.8,0,0,0,.19-.92,5.84,5.84,0,0,0,4.26,1.75,7,7,0,0,0,3.87-1.19,6.69,6.69,0,0,0,2.59-3.41l.4-1.19ZM82.27,7.6a1.23,1.23,0,0,1-1.41-1.06.75.75,0,0,1,.62-.93l.06,0a1.62,1.62,0,0,0,.21,1.3,1.75,1.75,0,0,0,.9.69ZM45.75,6.89A1.58,1.58,0,0,0,46,5.59l.07,0a.76.76,0,0,1,.62.93c-.13.72-.58,1.06-1.42,1.06l-.38,0A1.71,1.71,0,0,0,45.75,6.89Zm36.36,4.29a4.81,4.81,0,0,1,.48-.42,4.55,4.55,0,0,1,2.86-.92l.51,0,1.61-.73-1.41,0c-1.6,0-1.47-.22-1.26-1.34a11,11,0,0,0,2.37.37h.29c.5,0,.73-.25.81-.52A2.54,2.54,0,0,0,88.22,6,1.35,1.35,0,0,0,87,5.18,2.65,2.65,0,0,0,85.25,6l-.56.57A5,5,0,0,1,84,5.47c-.11-.52.44-.86.44-.86-.56.07-.85-.52-.94-.78a11.51,11.51,0,0,1,2.4-1.08l.27-.92a26.21,26.21,0,0,1,4.67-1H91a.41.41,0,0,1,.19.08,6,6,0,0,0-.5.71l.61.2A2.77,2.77,0,0,1,92.48.71a2.32,2.32,0,0,1-.24,3.42V5l.25-.23a4.34,4.34,0,0,0,.79-1c2.77,6-1.77,10.92-1.75,13a5.33,5.33,0,0,1-1.6-.29,8.87,8.87,0,0,0,.35,3.77,59.23,59.23,0,0,0,2.85,5.62,17.71,17.71,0,0,1,.83,2L94,28a2.09,2.09,0,0,0,.87,1l.05,0a1.5,1.5,0,0,0,1.48-.06,1.41,1.41,0,0,0,.68-1.24,4.82,4.82,0,0,0-1.42-2.87,11.39,11.39,0,0,1-1.09-1.53,7.67,7.67,0,0,1-.69-5.72A8.62,8.62,0,0,1,95.16,15l.35-.53.13-.21a.84.84,0,0,1-.22-.88,6.58,6.58,0,0,1,.47-1.26,9.38,9.38,0,0,0,.68-1.87,7.11,7.11,0,0,0,.09-2.81,7.15,7.15,0,0,1,.54,1.07,5.37,5.37,0,0,1,.36,1.32,4.7,4.7,0,0,1,0,1.4,4.8,4.8,0,0,0,.3-1.41,6.52,6.52,0,0,0-.09-1.46,8.35,8.35,0,0,0-.36-1.3,6.56,6.56,0,0,1,1.06,3.72c0,1.86-.62,3.41-1.23,3.79a.84.84,0,0,1-.22.1,1.34,1.34,0,0,1-.66-.12c-.18.3-.36.57-.55.86a8.14,8.14,0,0,0-1.2,2.29,6.84,6.84,0,0,0,.62,5.18,10.84,10.84,0,0,0,1,1.42,5.47,5.47,0,0,1,1.58,3.32,2.14,2.14,0,0,1-1,1.9,2.31,2.31,0,0,1-1.19.34,2.25,2.25,0,0,1-.58-.08,1.94,1.94,0,0,1-.5-.2l-.15-.09a4.51,4.51,0,0,1,0,.73,1.28,1.28,0,0,0,0,.19c0,.42-.09.83-.13,1.25a2.05,2.05,0,0,0,0,1.1c.19.6,1,1,1.84,1.15.53.12,1.25.23,1.81.3a1,1,0,0,1,.9,1,36.46,36.46,0,0,1,.09,4,2,2,0,0,1-1.11,1.54l.11.26a2.54,2.54,0,0,1,.19.62c.2,1.08-.58,1.42-1.28,1.6l-.09-1s-.2-.13-.24-.16L96.3,42a.59.59,0,0,1-.18-.38c0-.08,0-.16,0-.25a.72.72,0,0,0-.11-.41.58.58,0,0,0-.15-.11.41.41,0,0,0-.18-.05.41.41,0,0,0-.19.05.47.47,0,0,0-.26.36.61.61,0,0,0,0,.23,2,2,0,0,1,.06,1,.87.87,0,0,1-.73.54.6.6,0,0,1-.32-.1l-.7.62c-.93-1-.64-2,.37-2.42a1.05,1.05,0,0,0,.21-.12c.2-.12.3-.29.2-.48a.33.33,0,0,0-.29-.19,2.82,2.82,0,0,0-.76.25l-.07,0a1.6,1.6,0,0,1-.54.12c-.36,0-.66-.21-.8-.79l0-.17-.24.1-.42.17,0-.21a2.15,2.15,0,0,1,.21-.62,1.54,1.54,0,0,1,1.42-.79,2.28,2.28,0,0,1,1.77.81l1.32.19a4.26,4.26,0,0,0,.24-2.12,1.19,1.19,0,0,0-1-1.12c-1-.15-2.4-.35-2.91-.39a4,4,0,0,1-2.7-1,4.28,4.28,0,0,1-1.22-3.45c0-.46,0-.94.06-1.42s.07-.81.12-1.22.07-.54.11-.81a3.36,3.36,0,0,0,0-.78l0-.29a3.83,3.83,0,0,0-.25-.86,4.06,4.06,0,0,0-.49-.85A4,4,0,0,0,86.58,24l-.66-.39-.77-.5a17.8,17.8,0,0,1-2.07-1.62l.15-.1a19.51,19.51,0,0,0,1.59-1.19c.15-.13.3-.25.42-.37l-.62-.33a17.47,17.47,0,0,1-1.73,1.33l-.3.18-.56.32c-1,.6-1.81,1-1.78,1.72,1.3,1.39.58,2.22-.14,2.48l-.24-.77h0c-.75-.13-.74-.69-.78-1.13a.37.37,0,0,0-.38-.36.31.31,0,0,0-.31.33,7.27,7.27,0,0,1-.07.92.85.85,0,0,1-.78.66.76.76,0,0,1-.21,0l-.16.91a1.16,1.16,0,0,1-.31-2.25c.57-.29.74-.51.58-.72a.22.22,0,0,0-.19-.1,1.91,1.91,0,0,0-.81.45.83.83,0,0,1-.48.15,1.06,1.06,0,0,1-1-.84l-.53.3a1.35,1.35,0,0,1,1.3-1.65,1.38,1.38,0,0,1,.93.36.44.44,0,0,0,.29.13c.32,0,.54-.41.12-.64s-.8-.89-.43-1.33L76,19.37a1.64,1.64,0,0,1,.86-.25,1.41,1.41,0,0,1,1.37,1.31c0,.2.13.29.25.29h0c.34,0,.94-.73,1.39-1.45l.32-.52c.13-.23.27-.45.41-.67a5.27,5.27,0,0,1,.64-.79,10.32,10.32,0,0,1,2-1.63,5.12,5.12,0,0,1,.62-.31c.26-.33.5-.67.73-1A10.54,10.54,0,0,0,86,11.46,10.37,10.37,0,0,1,84.18,14c-.33.34-.68.67-1,1a9.81,9.81,0,0,0-2.26,1.78l-.06.07a5.11,5.11,0,0,0-.39.42,8.22,8.22,0,0,1,.2-3.34c.06-.22.13-.45.21-.66A5.74,5.74,0,0,1,82.11,11.18Zm3.74-4A3.55,3.55,0,0,1,87,7a1.59,1.59,0,0,1,.84.23,1.19,1.19,0,0,1,0,.27h0s-.05,0-.25.07h-.24a7.33,7.33,0,0,1-1.22-.13c-.39-.06-1-.19-1-.19-.06-.32,0-.67.11-.65S85.43,7,85.85,7.21Zm-.41-.5.24-.25A2,2,0,0,1,87,5.81a.73.73,0,0,1,.67.46,1.8,1.8,0,0,1,.09.28A1.81,1.81,0,0,0,87,6.4,5.48,5.48,0,0,0,85.44,6.71Zm4.14,30.83a3.7,3.7,0,0,1-2.16.74,7.11,7.11,0,0,1-2-.41l-.58-.18a3.42,3.42,0,0,0-1-.13,4.26,4.26,0,0,0-1.94.49,5.72,5.72,0,0,0,.2-1.3,2.48,2.48,0,0,0,1.2-1.41,9.93,9.93,0,0,0,.3-4.26c.47-.06,1.14-.16,1.81-.27s1.33-.25,1.77-.36l.54-.15c0,.35,0,.7,0,1.05A6.51,6.51,0,0,0,88,33.44a4.34,4.34,0,0,0,1.14,1.81,4.65,4.65,0,0,0,3.1,1.13c.37,0,1.39.16,2.86.38a.56.56,0,0,1,.48.53,6.82,6.82,0,0,1,0,1.4l-.57-.08a3,3,0,0,0-2.1-.86,2.14,2.14,0,0,0-2.11,1.43,4.71,4.71,0,0,0-.58.1,2.42,2.42,0,0,0,.41-1.19l.06-1.25Zm-10,.11-.17-.18,0,0a.88.88,0,0,1,0-.66h0a.58.58,0,0,0-.18-.61.42.42,0,0,0-.26-.08.51.51,0,0,0-.17,0,.56.56,0,0,0-.32.32,1.51,1.51,0,0,0,0,.32c0,.11,0,.23,0,.35a1.4,1.4,0,0,1-.11.64l0,.06a1,1,0,0,1-.77.44.59.59,0,0,1-.43-.18l-.87.53h0a1.82,1.82,0,0,1-.15-.27,2.1,2.1,0,0,1-.21-.59A1.38,1.38,0,0,1,77,36.07c.36-.08.65-.26.54-.55h0a.35.35,0,0,0-.37-.26,4.77,4.77,0,0,0-.83.15l-.34.06-.26,0h0c-.4,0-.65-.2-.64-1l-.76.16c.34-1.18,1-1.64,1.75-1.64a2.61,2.61,0,0,1,2,1.16h0l.3.1.53.19,1.06.36c1-.87.56-3.16.56-3.16A3.18,3.18,0,0,1,79.18,28s.35-2.35,4.64-2.35a13.8,13.8,0,0,1,1.51.08c.33,0,.63.08.91.13v0a1.22,1.22,0,0,0-.08.73,1.25,1.25,0,0,0,.66.9,1.2,1.2,0,0,0,1.18,0,2.83,2.83,0,0,1,0,.3c-.08.56-.15,1.17-.21,1.8a31.28,31.28,0,0,1-4.9.93,9.5,9.5,0,0,1-.16,4.6,1.81,1.81,0,0,1-.54.8,2.33,2.33,0,0,1-.66.4,8.92,8.92,0,0,1-.22,1.54,1.35,1.35,0,0,1-.14.37,1.76,1.76,0,0,1-1.48.67l.08-1.07S79.57,37.68,79.53,37.65ZM81,22.89A4.9,4.9,0,0,1,82.29,22l.22-.12.33.3c.28.24.55.47.83.69h0v0l1.38,1.44a10.2,10.2,0,0,1,.78.9l-2-.14h0a8.79,8.79,0,0,0-2.44.31,1.63,1.63,0,0,0,.2-.47A2.38,2.38,0,0,0,81,22.89Zm5.71,2.45h0a5,5,0,0,0-.63-.9l.24.13a3.59,3.59,0,0,1,1.1,1,3.18,3.18,0,0,1,.46.87l.09.34a.63.63,0,1,1-1.05-.7L87,26C86.86,25.77,86.79,25.58,86.67,25.34ZM77.35,7.44c.4.27.78.58,1.15.88.6.51,1.19,1,1.81,1.5l1.3,1a4.4,4.4,0,0,0-.4.46,6.53,6.53,0,0,0-.86,1.52l-1.13-1.07a2.14,2.14,0,0,0,.12-1.05s0,0,0-.06l-.6.29A1.2,1.2,0,0,1,78.17,12a.77.77,0,0,1-.39.11h0l0-.55a.51.51,0,0,1-.46-.51.59.59,0,0,1,.46-.58V9.85a1.28,1.28,0,0,0-1,.8h-.66a1.08,1.08,0,0,1,.72-1.12V8.89a1.73,1.73,0,0,0-.88.49,1.15,1.15,0,0,0-.14.17h-.5A1,1,0,0,1,76,8.5V7.85a1.71,1.71,0,0,0-.73.35h-.47a1,1,0,0,1,.44-.79h0A1.79,1.79,0,0,1,76,7.12h.28a2.07,2.07,0,0,1,.35,0A2,2,0,0,1,77.35,7.44ZM76,3.44a4.81,4.81,0,0,0,.61-2.34h1.51a1.62,1.62,0,0,1,0,.31,3,3,0,0,1-3,3h-.11A2.7,2.7,0,0,0,76,3.44Zm-6.89,0a4.71,4.71,0,0,0,.61-2.34h2.06a4.71,4.71,0,0,0,.61,2.34,2.62,2.62,0,0,0,.92,1H72A3.47,3.47,0,0,1,71.12,3h-.69a3.57,3.57,0,0,1-.82,1.43H68.2A2.62,2.62,0,0,0,69.12,3.44Zm-7,0a4.93,4.93,0,0,0,.61-2.34H64.9a4.81,4.81,0,0,0,.61,2.34,2.62,2.62,0,0,0,.92,1H64.94A3.47,3.47,0,0,1,64.11,3h-.69a3.57,3.57,0,0,1-.82,1.43H61.2A2.72,2.72,0,0,0,62.13,3.44Zm-6.82,0a4.71,4.71,0,0,0,.61-2.34h2a4.81,4.81,0,0,0,.61,2.34,2.64,2.64,0,0,0,.93,1H58A3.57,3.57,0,0,1,57.21,3h-.69a3.57,3.57,0,0,1-.82,1.43H54.39A2.62,2.62,0,0,0,55.31,3.44ZM49.52,1.37a2.45,2.45,0,0,1,0-.27h1.55a4.81,4.81,0,0,0,.61,2.34,2.7,2.7,0,0,0,.92,1h-.14A3,3,0,0,1,49.52,1.37ZM47.19,9.82c.63-.47,1.21-1,1.81-1.5.37-.3.75-.61,1.15-.88a2,2,0,0,1,.77-.31l.32,0h0a1.91,1.91,0,0,1,1.06.3h0a1.07,1.07,0,0,1,.43.79h-.47a1.66,1.66,0,0,0-.73-.35V8.5a1,1,0,0,1,.68,1.05H51.7a1.09,1.09,0,0,0-.13-.17,1.81,1.81,0,0,0-.89-.49v.65a1.06,1.06,0,0,1,.72,1.12h-.66a1.28,1.28,0,0,0-1-.8v.65a.59.59,0,0,1,.47.58.52.52,0,0,1-.47.51l0,.55h0a.79.79,0,0,1-.39-.11,1.2,1.2,0,0,1-.56-1.14l-.6-.29s0,0,0,.06a2.22,2.22,0,0,0,.12,1h0l-1.13,1.08a6.91,6.91,0,0,0-.86-1.52,6,6,0,0,0-.4-.46ZM28.61,39.21a36.07,36.07,0,0,1,.08-4,1.06,1.06,0,0,1,.9-1c.56-.07,1.29-.18,1.82-.3.83-.18,1.65-.55,1.83-1.15s.07-.57,0-1.1-.09-.83-.12-1.25a1.15,1.15,0,0,1,0-.19,4.51,4.51,0,0,1,0-.73.6.6,0,0,1-.15.09,1.94,1.94,0,0,1-.5.2,2.32,2.32,0,0,1-.58.08,2.34,2.34,0,0,1-1.2-.34,2.17,2.17,0,0,1-1-1.9,5.48,5.48,0,0,1,1.59-3.32,9.91,9.91,0,0,0,1-1.42,6.84,6.84,0,0,0,.63-5.18,8.14,8.14,0,0,0-1.2-2.29c-.2-.29-.37-.56-.56-.86a1.29,1.29,0,0,1-.65.12.84.84,0,0,1-.22-.1c-.61-.38-1.26-1.93-1.23-3.79a6.4,6.4,0,0,1,1.06-3.72,7.37,7.37,0,0,0-.36,1.3,6,6,0,0,0-.09,1.46A5.13,5.13,0,0,0,30,11.23a5.05,5.05,0,0,1,0-1.4,5.35,5.35,0,0,1,.35-1.32,8.24,8.24,0,0,1,.54-1.07,7.3,7.3,0,0,0,.09,2.81,10,10,0,0,0,.68,1.87,6.73,6.73,0,0,1,.48,1.26.88.88,0,0,1-.22.88,2.39,2.39,0,0,0,.13.21l.34.53a8.16,8.16,0,0,1,1.3,2.52A7.62,7.62,0,0,1,33,23.24a10.56,10.56,0,0,1-1.09,1.53,4.81,4.81,0,0,0-1.41,2.87,1.37,1.37,0,0,0,.68,1.24,1.5,1.5,0,0,0,1.48.06l0,0a2.17,2.17,0,0,0,.88-1l0-.07a16,16,0,0,1,.83-2,61.69,61.69,0,0,0,2.85-5.62,9,9,0,0,0,.34-3.77,5.33,5.33,0,0,1-1.6.29c0-2.11-4.52-7-1.75-13a4.65,4.65,0,0,0,.79,1l.26.23V4.13A2.32,2.32,0,0,1,35,.71a2.87,2.87,0,0,1,1.23,1.15l.61-.2A5.11,5.11,0,0,0,36.36,1a.44.44,0,0,1,.2-.08h.11a26.15,26.15,0,0,1,4.68,1l.26.92A11.62,11.62,0,0,1,44,3.83c-.1.26-.38.85-1,.78,0,0,.56.34.44.86a5,5,0,0,1-.7,1.11L42.26,6a2.65,2.65,0,0,0-1.72-.83A1.33,1.33,0,0,0,39.29,6a2.54,2.54,0,0,0-.15,1.62c.08.27.3.48.8.52h.29a11,11,0,0,0,2.38-.37c.2,1.12.33,1.34-1.27,1.34l-1.4,0,1.6.73.52,0a4.55,4.55,0,0,1,2.86.92,4.81,4.81,0,0,1,.48.42,5.88,5.88,0,0,1,1.27,2.07c.08.21.15.44.21.66a8.2,8.2,0,0,1,.19,3.34,5,5,0,0,0-.38-.42l-.07-.07A9.6,9.6,0,0,0,44.36,15c-.36-.32-.7-.65-1-1a10.41,10.41,0,0,1-1.81-2.53,10.57,10.57,0,0,0,1.37,2.88c.23.34.47.68.72,1a4.48,4.48,0,0,1,.62.31,10.43,10.43,0,0,1,2,1.63,5.2,5.2,0,0,1,.63.79c.15.22.29.44.42.67l.31.52c.46.72,1,1.45,1.4,1.45h0c.12,0,.2-.09.24-.29a1.42,1.42,0,0,1,1.37-1.31,1.67,1.67,0,0,1,.87.25l-.63.58c.38.44,0,1.11-.42,1.33s-.2.64.11.64a.44.44,0,0,0,.3-.13,1.38,1.38,0,0,1,.93-.36,1.36,1.36,0,0,1,1.3,1.65l-.54-.3a1,1,0,0,1-1,.84.78.78,0,0,1-.48-.15,1.94,1.94,0,0,0-.82-.45.2.2,0,0,0-.18.1c-.17.21,0,.43.58.72a1.16,1.16,0,0,1-.32,2.25l-.15-.91-.21,0a.84.84,0,0,1-.78-.66,5.77,5.77,0,0,1-.07-.92.32.32,0,0,0-.32-.33.39.39,0,0,0-.38.36c0,.44,0,1-.78,1.13h0l-.24.77c-.72-.26-1.43-1.09-.13-2.48,0-.71-.73-1.12-1.78-1.72-.18-.1-.37-.2-.56-.32l-.3-.18a17.21,17.21,0,0,1-1.74-1.33l-.62.33.43.37a17.88,17.88,0,0,0,1.59,1.19l.15.1a18.68,18.68,0,0,1-2.07,1.62l-.78.5-.66.39a3.86,3.86,0,0,0-1.26,1.09,3.66,3.66,0,0,0-.49.85,3.83,3.83,0,0,0-.25.86,2.54,2.54,0,0,0,0,.29,3.36,3.36,0,0,0,0,.78c0,.27.07.54.1.81s.09.82.13,1.22.06,1,.06,1.42A4.28,4.28,0,0,1,38,34.8a4,4,0,0,1-2.71,1c-.51,0-1.94.24-2.91.39a1.19,1.19,0,0,0-1,1.12,4.15,4.15,0,0,0,.24,2.12l1.32-.19a2.26,2.26,0,0,1,1.76-.81,1.54,1.54,0,0,1,1.43.79,2.15,2.15,0,0,1,.2.62,1.55,1.55,0,0,1,0,.21l-.42-.17-.24-.1a.85.85,0,0,1,0,.17c-.14.58-.43.79-.79.79a1.66,1.66,0,0,1-.55-.12l-.06,0a2.94,2.94,0,0,0-.76-.25.33.33,0,0,0-.29.19c-.11.19,0,.36.19.48a1.43,1.43,0,0,0,.21.12c1,.42,1.31,1.4.38,2.42l-.7-.62a.6.6,0,0,1-.33.1.86.86,0,0,1-.72-.54,2,2,0,0,1,.06-1,.92.92,0,0,0,0-.23.52.52,0,0,0-.26-.36.45.45,0,0,0-.19-.05.49.49,0,0,0-.19.05.53.53,0,0,0-.14.11.73.73,0,0,0-.12.41,2,2,0,0,1,0,.25.59.59,0,0,1-.18.38,1.18,1.18,0,0,1-.18.13s-.23.11-.23.16l-.1,1c-.69-.18-1.47-.52-1.28-1.6A3.88,3.88,0,0,1,29.6,41c0-.08.07-.17.12-.26A2,2,0,0,1,28.61,39.21ZM40.54,7a3.61,3.61,0,0,1,1.12.23c.42-.26.51-.59.67-.61s.17.33.11.65c0,0-.59.13-1,.19a7.22,7.22,0,0,1-1.22.13H40a.43.43,0,0,1-.24-.07h0a.85.85,0,0,1,0-.27A1.56,1.56,0,0,1,40.54,7Zm-.77-.43c0-.09.06-.18.1-.28a.71.71,0,0,1,.67-.46,2,2,0,0,1,1.28.65l.25.25a5.55,5.55,0,0,0-1.53-.31A1.86,1.86,0,0,0,39.77,6.55Zm7.77,28.29,1.07-.36.53-.19.3-.1h0a2.6,2.6,0,0,1,2-1.16c.72,0,1.4.46,1.74,1.64l-.75-.16c0,.77-.25,1-.64,1h0l-.26,0-.34-.06a4.94,4.94,0,0,0-.83-.15.36.36,0,0,0-.38.26h0c-.1.29.19.47.55.55a1.38,1.38,0,0,1,1.21,1.65,2.06,2.06,0,0,1-.2.59c0,.09-.09.18-.15.27h0l-.86-.53a.63.63,0,0,1-.44.18,1,1,0,0,1-.77-.44.14.14,0,0,1,0-.06,1.41,1.41,0,0,1-.12-.64c0-.12,0-.24,0-.35a1.06,1.06,0,0,0,0-.32.51.51,0,0,0-.32-.32.45.45,0,0,0-.16,0,.42.42,0,0,0-.26.08.56.56,0,0,0-.18.61h0a.93.93,0,0,1-.06.66l0,0-.17.18s-.22.16-.22.2l.09,1.07a1.74,1.74,0,0,1-1.48-.67,1.35,1.35,0,0,1-.14-.37A7.31,7.31,0,0,1,46,36.34a2.2,2.2,0,0,1-.66-.4,1.81,1.81,0,0,1-.54-.8,9.6,9.6,0,0,1-.17-4.6,31.2,31.2,0,0,1-4.89-.93c-.06-.63-.14-1.24-.21-1.8a1.45,1.45,0,0,1,0-.3,1.27,1.27,0,0,0,.63.17,1.18,1.18,0,0,0,.55-.14,1.25,1.25,0,0,0,.66-.9,1.22,1.22,0,0,0-.08-.73v0c.27-.05.57-.09.9-.13a13.8,13.8,0,0,1,1.51-.08c4.3,0,4.65,2.35,4.65,2.35A3.19,3.19,0,0,1,47,31.68S46.52,34,47.54,34.84ZM37,38.09a2.49,2.49,0,0,0,.42,1.19,4.55,4.55,0,0,0-.59-.1,2.12,2.12,0,0,0-2.11-1.43,3,3,0,0,0-2.09.86l-.58.08a6.82,6.82,0,0,1,0-1.4.58.58,0,0,1,.48-.53c1.48-.22,2.49-.36,2.86-.38a4.67,4.67,0,0,0,3.11-1.13,4.44,4.44,0,0,0,1.14-1.81,6.83,6.83,0,0,0,.26-2.09q0-.53,0-1.05l.53.15c.45.11,1,.23,1.78.36s1.34.21,1.81.27a10,10,0,0,0,.29,4.26,2.55,2.55,0,0,0,1.2,1.41,4.61,4.61,0,0,0,.21,1.3,4.33,4.33,0,0,0-1.94-.49,3.49,3.49,0,0,0-1,.13l-.57.18a7.18,7.18,0,0,1-2,.41,3.7,3.7,0,0,1-2.16-.74l-1-.7ZM40.63,26a.66.66,0,0,1-.24.95.58.58,0,0,1-.26.06.66.66,0,0,1-.55-.31,2.46,2.46,0,0,1,.09-.34,3.18,3.18,0,0,1,.46-.87,3.37,3.37,0,0,1,1.1-1l.24-.13a4.56,4.56,0,0,0-.63.9h0c-.13.24-.19.43-.28.61Zm4-3.89.33-.3.23.12a5.08,5.08,0,0,1,1.33.92,2.35,2.35,0,0,0-.62,2,1.6,1.6,0,0,0,.19.47,8.68,8.68,0,0,0-2.44-.31h0l-2,.14a8.74,8.74,0,0,1,.78-.9l1.37-1.44,0,0h0C44.11,22.62,44.39,22.39,44.66,22.15ZM35.74,43.54a5.18,5.18,0,0,1-3.85,1.61A6.18,6.18,0,0,1,26,41a15.16,15.16,0,0,0,2.77.59,1.91,1.91,0,0,0,.13,1.15,2.31,2.31,0,0,0,1.62,1.12l.71.17.07-.72.06-.68.19-.14a1.27,1.27,0,0,0,.06.18,1.47,1.47,0,0,0,1.31,1h.19l.42.38.47.41.41-.46a2.26,2.26,0,0,0,.68-2,1.79,1.79,0,0,0-.24-.59,1.29,1.29,0,0,0,1-.4,1.72,1.72,0,0,0,.24-.34h0l1,.4-.11-1s0-.07,0-.11a8.86,8.86,0,0,1,1.61.49l.29.12.14.05-.61.36a5.16,5.16,0,0,0-1.94,2Zm7.41-2.17a4.38,4.38,0,0,1-2.51.77,4.67,4.67,0,0,0-3.72,2.57,1.89,1.89,0,0,1,0-1.53,4.6,4.6,0,0,1,1.81-1.83,13.11,13.11,0,0,1,2.67-1.25l-.7,0A5,5,0,0,1,39.35,40a4.37,4.37,0,0,1-.56-.22,2.13,2.13,0,0,1-1.21-1.68,4.3,4.3,0,0,0,2.51.85,10.09,10.09,0,0,0,2.78-.61,2.85,2.85,0,0,1,.8-.11,3.79,3.79,0,0,1,1.77.48,3.64,3.64,0,0,0-1.18,1.13,5.33,5.33,0,0,0-.32.56A5.22,5.22,0,0,1,43.15,41.37Zm4.39-.91a2.67,2.67,0,0,0-2.07,1.69,5,5,0,0,0-.11,1.72,2.37,2.37,0,0,1-.88-3.18,3.93,3.93,0,0,1,.31-.55,3.18,3.18,0,0,1,.8-.83l.31-.17.29-.14a2.7,2.7,0,0,0,1.6.54l.73.05-.06-.72-.06-.76a3.08,3.08,0,0,0,.24-.26h0a2,2,0,0,0,.12.26,1.61,1.61,0,0,0,1.31.76,1.49,1.49,0,0,0,.43-.07l.34.2-.08.06A5.68,5.68,0,0,1,47.54,40.46Zm28.37,3.48s.54-2.39-.62-3.15c-1.83-1.2-2.82-.17-4.88-1.74L70.34,39a7.82,7.82,0,0,0-3-1.92c-.67.1-1.41.18-2.23.22l.49,0a6.59,6.59,0,0,1,.92.16,6.24,6.24,0,0,1,3.38,1.94,1.14,1.14,0,0,0,.11.11,3.14,3.14,0,0,1,.93,2.75,5.73,5.73,0,0,0-4.09-2.18,6.45,6.45,0,0,0-2.7.64l-.39.21-.38-.21a6.53,6.53,0,0,0-2.7-.64,5.76,5.76,0,0,0-4.1,2.18,3.17,3.17,0,0,1,.94-2.75l.1-.11A7.45,7.45,0,0,1,59.46,38,7,7,0,0,1,61,37.47a6.59,6.59,0,0,1,.92-.16l.49,0c-.82,0-1.56-.12-2.23-.22a7.63,7.63,0,0,0-3,1.92l-.08.08c-2.05,1.57-3,.54-4.88,1.74-1.15.76-.61,3.15-.61,3.15a2.76,2.76,0,0,1-.23-4.27,8.07,8.07,0,0,1,1.43-1.21,6.44,6.44,0,0,1,.58-.37A3.66,3.66,0,0,1,53,38l-.5-.1-.1,0a2.09,2.09,0,0,0-.09-1.22,2.22,2.22,0,0,0-.25-.42,13.47,13.47,0,0,0,3.45.46,13.51,13.51,0,0,0,1.6-.18,5.93,5.93,0,0,1,.61,0h.21a13.86,13.86,0,0,1-1.4-.52,7,7,0,0,1-1,.1,12.26,12.26,0,0,1-2.8-.32,1.18,1.18,0,0,0,.3-.5h0l.09,0,1,.22-.28-1c-.55-1.89-1.83-2.1-2.35-2.1a3.21,3.21,0,0,0-2.39,1.26h0l-1.3.44a3.75,3.75,0,0,1-.19-2.05,4.33,4.33,0,0,0,.86-.89,3.86,3.86,0,0,0,.52-3.27,3.08,3.08,0,0,0-1.07-1.65l.15-.49.13-.43a1.28,1.28,0,0,0,.49-.33h0a1.53,1.53,0,0,0,1,.83l.07.38.11.66.65-.13a1.81,1.81,0,0,0,1.62-1.49,1.73,1.73,0,0,0-.16-1,1.63,1.63,0,0,0,.88-.56l.85.48.09-1a2.21,2.21,0,0,0-.54-1.76,1.92,1.92,0,0,0-1.42-.61h-.17a.75.75,0,0,0,0-.16,1.4,1.4,0,0,0,0-.5l.29-.27.63-.6-.75-.44a2.29,2.29,0,0,0-1.2-.35,2,2,0,0,0-1.85,1.29h0a7.05,7.05,0,0,1-.6-.83l-.27-.45L47.56,18h0a8.47,8.47,0,0,0-.17-4.52l1.23-1.17h0a1.58,1.58,0,0,0,.43.34,1.43,1.43,0,0,0,.68.17h.67V12l.07-.06a1.16,1.16,0,0,0,.32-.62H52l0-.6a1.71,1.71,0,0,0,0-.51h.82l0-.6a1.9,1.9,0,0,0-.12-.76h.67l0-.65a1.66,1.66,0,0,0-.69-1.28,2.28,2.28,0,0,0-1.12-.4V5H76V6.49a2.3,2.3,0,0,0-1.15.41h0a1.69,1.69,0,0,0-.69,1.28v.65h.66a1.9,1.9,0,0,0-.12.76l0,.6h.82a1.71,1.71,0,0,0,0,.51l0,.6h1.2a1.11,1.11,0,0,0,.33.62l.07.06v.8h.66a1.4,1.4,0,0,0,.68-.17,1.76,1.76,0,0,0,.43-.33l1.23,1.16a8.48,8.48,0,0,0-.18,4.52h0c-.11.17-.21.35-.31.52s-.18.3-.28.45a6.06,6.06,0,0,1-.6.83h0a2,2,0,0,0-1.85-1.29,2.43,2.43,0,0,0-1.2.34l-.75.45.64.6.29.27a1.4,1.4,0,0,0,0,.5.75.75,0,0,0,0,.16h-.17a1.94,1.94,0,0,0-1.43.61,2.25,2.25,0,0,0-.53,1.76l.08,1,.85-.48a1.66,1.66,0,0,0,.89.56,1.73,1.73,0,0,0-.16,1,1.81,1.81,0,0,0,1.61,1.49l.66.13.11-.66.07-.38a1.58,1.58,0,0,0,1-.83,1.32,1.32,0,0,0,.48.33l.11.36,0,.07.15.49a3,3,0,0,0-1.07,1.65,3.79,3.79,0,0,0,.52,3.27,4.08,4.08,0,0,0,.86.89,3.85,3.85,0,0,1-.19,2.05l-1.31-.44h0a3.19,3.19,0,0,0-2.38-1.26,2.46,2.46,0,0,0-2.35,2.1l-.29,1,1-.22.09,0h0a1.16,1.16,0,0,0,.29.5,12.1,12.1,0,0,1-2.79.32,7,7,0,0,1-1-.1,13.64,13.64,0,0,1-1.39.52h.19a6.13,6.13,0,0,1,.62,0,13.28,13.28,0,0,0,1.6.18,13.53,13.53,0,0,0,3.45-.46,1.79,1.79,0,0,0-.25.42,2,2,0,0,0-.09,1.22l-.11,0-.49.1a4,4,0,0,1-.43.06,6.44,6.44,0,0,1,.58.37,8,8,0,0,1,1.42,1.21A2.76,2.76,0,0,1,75.91,43.94Zm6.24-.07A5,5,0,0,0,82,42.15,2.65,2.65,0,0,0,80,40.46a5.74,5.74,0,0,1-3.24-1.41L76.66,39l.33-.2a1.55,1.55,0,0,0,.43.07,1.61,1.61,0,0,0,1.32-.76,1.83,1.83,0,0,0,.11-.26h0a2,2,0,0,0,.24.26l-.07.76-.05.72.72-.05A2.73,2.73,0,0,0,81.32,39l.28.14.31.17a3.21,3.21,0,0,1,.81.83,5.3,5.3,0,0,1,.31.55A2.37,2.37,0,0,1,82.15,43.87Zm8.43.84a4.67,4.67,0,0,0-3.71-2.57,4.41,4.41,0,0,1-2.52-.77,5.63,5.63,0,0,1-.78-1,5.45,5.45,0,0,0-.33-.56,3.61,3.61,0,0,0-1.17-1.13,3.75,3.75,0,0,1,1.77-.48,2.78,2.78,0,0,1,.79.11,10.24,10.24,0,0,0,2.79.61,4.3,4.3,0,0,0,2.51-.85,2.16,2.16,0,0,1-1.21,1.68,4.54,4.54,0,0,1-.57.22,4.82,4.82,0,0,1-1.37.17l-.7,0a13.38,13.38,0,0,1,2.67,1.25,4.67,4.67,0,0,1,1.81,1.83A1.89,1.89,0,0,1,90.58,44.71Zm5,.44a5.17,5.17,0,0,1-3.85-1.61l-.69-.72a5.16,5.16,0,0,0-1.94-2l-.61-.36.14-.05.28-.12a9.1,9.1,0,0,1,1.61-.49s0,.07,0,.11l-.11,1,1-.4h0a1.76,1.76,0,0,0,.25.34,1.29,1.29,0,0,0,1,.4,1.81,1.81,0,0,0-.25.59,2.29,2.29,0,0,0,.68,2l.42.46L94,44l.43-.38h.18a1.5,1.5,0,0,0,1.32-1,1.21,1.21,0,0,0,.05-.18l.2.14.06.68.07.72.71-.17a2.31,2.31,0,0,0,1.62-1.12,2,2,0,0,0,.13-1.15,14.92,14.92,0,0,0,2.76-.59A6.17,6.17,0,0,1,95.62,45.15ZM41.18,2.9a5.32,5.32,0,0,1-2.07,0A5.59,5.59,0,0,1,40,4C41,4.07,41.18,3.47,41.18,2.9Zm45.15,0c0,.57.21,1.17,1.13,1.13a6.11,6.11,0,0,1,.93-1.11A5.28,5.28,0,0,1,86.33,2.9Zm.55,12.32c.16-.27.32-.53.48-.81A13,13,0,0,0,88.07,13c.2-.48.36-1,.52-1.45s.3-1,.44-1.46c-.22.46-.44.92-.67,1.37s-.47.89-.74,1.31A10.15,10.15,0,0,1,86.74,14c-.28.35-.57.69-.87,1A4.14,4.14,0,0,1,86.88,15.22ZM39.44,13a12.9,12.9,0,0,0,.7,1.39c.16.28.32.54.48.81a4.23,4.23,0,0,1,1-.21l-.87-1a11.42,11.42,0,0,1-.88-1.19c-.26-.42-.5-.86-.73-1.31s-.45-.91-.68-1.37c.15.49.29,1,.45,1.46S39.24,12.54,39.44,13Zm-.15,2.9a33.75,33.75,0,0,1-2.13-3.43,18,18,0,0,1-.88-2,15.52,15.52,0,0,1-.6-2.12A16.39,16.39,0,0,0,36,10.55a16.08,16.08,0,0,0,.67,2.14c.27.7.57,1.39.9,2.06s.53,1.05.8,1.57A4.62,4.62,0,0,0,39.29,15.92Zm49.8.4c.28-.52.55-1,.8-1.57s.64-1.36.91-2.06a16,16,0,0,0,.66-2.14,16.42,16.42,0,0,0,.37-2.19,17.13,17.13,0,0,1-.61,2.12,14.93,14.93,0,0,1-.88,2,32.07,32.07,0,0,1-2.13,3.43A4.92,4.92,0,0,0,89.09,16.32Z" style="fill:#e30613"/><path d="M38.49,51.56a1.92,1.92,0,0,0-1.74.9,1.72,1.72,0,0,0-1.61-.9,1.81,1.81,0,0,0-1.62.83v-.68H32.29v5.67h1.23V54.21a1.6,1.6,0,0,1,.35-1.12,1.17,1.17,0,0,1,.91-.38,1,1,0,0,1,.79.32,1.4,1.4,0,0,1,.28.92v3.43h1.22V54.21a1.62,1.62,0,0,1,.34-1.13,1.13,1.13,0,0,1,.9-.37,1,1,0,0,1,.8.32,1.31,1.31,0,0,1,.3.92v3.43h1.23V53.87a2.34,2.34,0,0,0-.59-1.68A2.06,2.06,0,0,0,38.49,51.56Z" style="fill:#e30613"/><path d="M104.11,51.56a1.91,1.91,0,0,0-1.76.88v-3h-1.23v7.94h1.23v-3a1.71,1.71,0,0,1,.39-1.23,1.42,1.42,0,0,1,1.05-.4,1.25,1.25,0,0,1,.93.34,1.3,1.3,0,0,1,.34,1v3.36h1.22V53.9a2.34,2.34,0,0,0-.6-1.71A2.06,2.06,0,0,0,104.11,51.56Z" style="fill:#e30613"/><path d="M20.93,54.44h2.66a2.18,2.18,0,0,1-.85,1.33,2.78,2.78,0,0,1-1.72.49,2.88,2.88,0,0,1-2.13-.81,2.73,2.73,0,0,1-.81-2,2.79,2.79,0,0,1,2.86-2.86,2.85,2.85,0,0,1,1.4.35,2.36,2.36,0,0,1,.94.91l.9-1A3.86,3.86,0,0,0,23,49.8a4.11,4.11,0,0,0-2-.51,4.08,4.08,0,0,0-4.16,4.12A4,4,0,0,0,18,56.34a4.15,4.15,0,0,0,3,1.19,3.87,3.87,0,0,0,2.82-1,3.56,3.56,0,0,0,1.07-2.67v-.54h-4Z" style="fill:#e30613"/><path d="M110.57,52.89V51.71h-1.41V50.12h-1.22v1.59h-1v1.18h1v2.72a1.71,1.71,0,0,0,.61,1.53,3,3,0,0,0,2,.24v-1.1a7,7,0,0,1-.78,0,.72.72,0,0,1-.47-.17.66.66,0,0,1-.16-.51V52.89Z" style="fill:#e30613"/><path d="M28.6,51.56a2.88,2.88,0,0,0-2.15.86,3.12,3.12,0,0,0,0,4.27,3,3,0,0,0,2.23.84,2.83,2.83,0,0,0,2.31-1l-.83-.83a1.67,1.67,0,0,1-1.47.71,2,2,0,0,1-1.19-.35,1.57,1.57,0,0,1-.62-1h4.52a3.64,3.64,0,0,0,0-.51,3,3,0,0,0-.8-2.12A2.64,2.64,0,0,0,28.6,51.56Zm-1.72,2.51a1.64,1.64,0,0,1,.58-1,1.71,1.71,0,0,1,1.13-.38,1.63,1.63,0,0,1,1.05.36,1.6,1.6,0,0,1,.57,1Z" style="fill:#e30613"/><path d="M44.47,51.56a3,3,0,0,0-2.15,5.13,3,3,0,0,0,2.24.84,2.81,2.81,0,0,0,2.3-1L46,55.7a1.65,1.65,0,0,1-1.46.71,2,2,0,0,1-1.19-.35,1.54,1.54,0,0,1-.63-1h4.52a3.92,3.92,0,0,0,0-.51,3,3,0,0,0-.8-2.12A2.65,2.65,0,0,0,44.47,51.56Zm-1.73,2.51a1.69,1.69,0,0,1,.58-1,1.72,1.72,0,0,1,1.14-.38,1.59,1.59,0,0,1,1.62,1.4Z" style="fill:#e30613"/><path d="M50.87,51.56a3,3,0,0,0-2.14,5.13,3,3,0,0,0,2.24.84,2.81,2.81,0,0,0,2.3-1l-.83-.83a1.65,1.65,0,0,1-1.46.71,2,2,0,0,1-1.2-.35,1.57,1.57,0,0,1-.62-1h4.52a3.64,3.64,0,0,0,0-.51,3,3,0,0,0-.8-2.12A2.62,2.62,0,0,0,50.87,51.56Zm-1.72,2.51a1.69,1.69,0,0,1,.58-1,1.71,1.71,0,0,1,1.13-.38,1.63,1.63,0,0,1,1,.36,1.65,1.65,0,0,1,.58,1Z" style="fill:#e30613"/><path d="M67.52,51.56a3,3,0,0,0-2.14,5.13,3,3,0,0,0,2.23.84,2.83,2.83,0,0,0,2.31-1l-.83-.83a1.68,1.68,0,0,1-1.47.71,2,2,0,0,1-1.19-.35,1.57,1.57,0,0,1-.62-1h4.51a3.92,3.92,0,0,0,.05-.51,3,3,0,0,0-.8-2.12A2.64,2.64,0,0,0,67.52,51.56ZM65.8,54.07a1.68,1.68,0,0,1,.57-1,1.76,1.76,0,0,1,1.14-.38,1.63,1.63,0,0,1,1,.36,1.6,1.6,0,0,1,.57,1Z" style="fill:#e30613"/><path d="M91.47,51.56a3,3,0,0,0-2.14,5.13,3,3,0,0,0,2.23.84,2.82,2.82,0,0,0,2.31-1L93,55.7a1.67,1.67,0,0,1-1.46.71,2,2,0,0,1-1.2-.35,1.57,1.57,0,0,1-.62-1h4.52a3.64,3.64,0,0,0,0-.51,3,3,0,0,0-.8-2.12A2.62,2.62,0,0,0,91.47,51.56Zm-1.72,2.51a1.69,1.69,0,0,1,.58-1,1.71,1.71,0,0,1,1.13-.38,1.63,1.63,0,0,1,1.05.36,1.65,1.65,0,0,1,.58,1Z" style="fill:#e30613"/><path d="M62.64,50.12H61.42v1.59H60.37v1.18h1.05v2.72A1.71,1.71,0,0,0,62,57.14a3,3,0,0,0,2,.24v-1.1a7,7,0,0,1-.78,0,.72.72,0,0,1-.47-.17.66.66,0,0,1-.16-.51V52.89h1.41V51.71H62.64Z" style="fill:#e30613"/><path d="M78.53,54.67a1.59,1.59,0,0,1-.42,1.16,1.71,1.71,0,0,1-1.28.43,1.68,1.68,0,0,1-1.27-.43,1.55,1.55,0,0,1-.43-1.16V49.44H73.82v5.31a2.6,2.6,0,0,0,.84,2,3.51,3.51,0,0,0,4.34,0,2.6,2.6,0,0,0,.84-2V49.44H78.53Z" style="fill:#e30613"/><path d="M82.89,50.12H81.66v1.59h-1v1.18h1v2.72a1.71,1.71,0,0,0,.62,1.53,3,3,0,0,0,2,.24v-1.1a7,7,0,0,1-.78,0,.7.7,0,0,1-.47-.17.66.66,0,0,1-.16-.51V52.89H84.3V51.71H82.89Z" style="fill:#e30613"/><path d="M57.59,51.56a1.91,1.91,0,0,0-1.76.88v-.73H54.6v5.67h1.23v-3a1.71,1.71,0,0,1,.39-1.23,1.42,1.42,0,0,1,1.05-.4,1.25,1.25,0,0,1,.93.34,1.3,1.3,0,0,1,.34,1v3.36h1.23V53.9a2.35,2.35,0,0,0-.61-1.71A2.06,2.06,0,0,0,57.59,51.56Z" style="fill:#e30613"/><path d="M86.53,52.66v-.95H85.3v5.67h1.23V54.52a1.43,1.43,0,0,1,.52-1.25,1.79,1.79,0,0,1,1.23-.33V51.61A1.74,1.74,0,0,0,86.53,52.66Z" style="fill:#e30613"/><path d="M99.52,55.41a1.76,1.76,0,0,1-1.37,1h0l-.25,0h0a1.88,1.88,0,0,1,0-3.75h0l.25,0h0a1.74,1.74,0,0,1,1.36,1l.83-.83a3,3,0,0,0-2.47-1.27,3,3,0,1,0,2.48,4.68Z" style="fill:#e30613"/></svg>