<svg id="svg" version="1.1" xmlns="http://www.w3.org/2000/svg" xmlns:xlink="http://www.w3.org/1999/xlink" width="400"
     height="77.59914255091104" viewBox="0, 0, 400,77.59914255091104">
    <g id="svgg">
        <path id="path0"
              d="M83.111 32.278 C 83.050 32.339,83.000 38.939,83.000 46.944 L 83.000 61.500 90.330 61.500 C 97.169 61.500,99.587 61.380,100.339 61.004 C 100.479 60.933,100.846 60.820,101.153 60.753 C 107.297 59.404,108.895 49.909,103.384 47.493 C 102.944 47.299,102.247 46.990,101.837 46.804 L 101.090 46.467 101.670 46.183 C 104.884 44.611,105.900 43.045,105.894 39.667 C 105.888 36.138,104.408 34.102,100.917 32.818 C 99.363 32.247,83.620 31.769,83.111 32.278 M116.778 32.278 C 116.717 32.339,116.667 38.939,116.667 46.944 L 116.667 61.500 120.498 61.500 L 124.329 61.500 124.373 55.792 L 124.417 50.083 126.037 50.036 C 127.392 49.996,127.764 50.043,128.312 50.323 C 129.541 50.949,130.562 52.592,131.428 55.333 C 131.587 55.837,131.818 56.486,131.942 56.775 C 132.066 57.064,132.167 57.392,132.167 57.503 C 132.167 57.741,132.978 60.282,133.189 60.706 C 133.268 60.865,133.333 61.109,133.333 61.248 C 133.333 61.466,133.881 61.500,137.405 61.500 L 141.477 61.500 141.322 61.000 C 140.988 59.925,140.865 59.565,140.666 59.083 C 140.292 58.182,140.196 57.927,139.911 57.083 C 139.522 55.929,138.978 54.418,137.842 51.333 C 137.064 49.221,136.739 48.660,135.804 47.813 C 135.009 47.093,134.861 46.667,135.405 46.667 C 138.400 46.667,141.032 41.286,139.883 37.515 C 139.034 34.730,137.277 33.344,133.508 32.487 C 132.080 32.162,117.081 31.975,116.778 32.278 M158.533 32.367 C 158.423 32.477,158.333 32.672,158.333 32.800 C 158.333 32.928,158.230 33.269,158.103 33.558 C 157.976 33.847,157.777 34.346,157.661 34.667 C 157.545 34.987,157.358 35.475,157.245 35.750 C 157.132 36.025,156.944 36.512,156.828 36.833 C 156.712 37.154,156.525 37.642,156.412 37.917 C 156.300 38.192,155.891 39.279,155.504 40.333 C 155.117 41.387,154.702 42.475,154.583 42.750 C 154.464 43.025,154.254 43.587,154.116 44.000 C 153.978 44.413,153.773 44.975,153.662 45.250 C 153.550 45.525,153.402 45.900,153.333 46.083 C 152.837 47.394,152.613 47.954,152.483 48.206 C 152.401 48.365,152.333 48.579,152.333 48.681 C 152.333 48.783,152.230 49.103,152.103 49.391 C 151.976 49.680,151.777 50.179,151.661 50.500 C 151.545 50.821,151.359 51.308,151.248 51.583 C 151.027 52.129,150.534 53.387,150.334 53.917 C 150.265 54.100,150.117 54.475,150.005 54.750 C 149.893 55.025,149.689 55.587,149.551 56.000 C 149.413 56.413,149.204 56.975,149.086 57.250 C 148.969 57.525,148.777 58.012,148.661 58.333 C 148.545 58.654,148.361 59.142,148.252 59.417 C 148.144 59.692,147.977 60.142,147.881 60.417 C 147.786 60.692,147.653 61.048,147.586 61.208 C 147.472 61.481,147.720 61.500,151.482 61.500 C 155.053 61.500,155.500 61.470,155.500 61.234 C 155.500 61.087,155.605 60.731,155.734 60.442 C 155.862 60.153,156.168 59.354,156.413 58.667 C 157.063 56.842,157.340 56.135,157.590 55.667 L 157.812 55.250 163.114 55.210 C 169.226 55.163,168.692 55.016,169.345 56.927 C 169.624 57.747,169.900 58.529,169.958 58.667 C 170.016 58.804,170.255 59.479,170.490 60.167 L 170.917 61.417 175.208 61.461 C 177.569 61.486,179.500 61.466,179.500 61.417 C 179.500 61.369,179.433 61.199,179.350 61.039 C 179.220 60.787,179.048 60.357,178.500 58.917 C 178.280 58.338,177.796 57.103,177.586 56.583 C 177.474 56.308,177.288 55.821,177.172 55.500 C 177.056 55.179,176.857 54.680,176.730 54.391 C 176.604 54.103,176.500 53.783,176.500 53.681 C 176.500 53.579,176.427 53.365,176.339 53.206 C 176.250 53.047,175.762 51.829,175.253 50.500 C 174.745 49.171,174.255 47.953,174.164 47.794 C 174.074 47.635,174.000 47.390,174.000 47.250 C 174.000 47.110,173.929 46.865,173.841 46.706 C 173.634 46.327,173.356 45.640,172.512 43.417 C 172.129 42.408,171.626 41.096,171.393 40.500 C 171.015 39.533,170.730 38.794,170.333 37.750 C 170.264 37.567,170.076 37.079,169.917 36.667 C 169.757 36.254,169.570 35.767,169.500 35.583 C 168.952 34.143,168.780 33.713,168.650 33.461 C 168.567 33.301,168.500 33.063,168.500 32.931 C 168.500 32.210,168.209 32.167,163.355 32.167 C 159.983 32.167,158.679 32.221,158.533 32.367 M187.611 32.278 C 187.550 32.339,187.500 38.939,187.500 46.944 L 187.500 61.500 191.088 61.500 L 194.677 61.500 194.630 51.806 C 194.599 45.449,194.641 42.095,194.750 42.060 C 194.842 42.031,195.337 42.849,195.850 43.879 C 196.363 44.908,197.403 46.950,198.162 48.417 C 200.268 52.488,201.167 54.301,201.167 54.478 C 201.167 54.566,201.226 54.664,201.299 54.694 C 201.371 54.725,201.943 55.762,202.569 57.000 C 203.194 58.237,203.965 59.756,204.281 60.375 L 204.856 61.500 209.762 61.500 L 214.668 61.500 214.626 46.875 L 214.583 32.250 211.083 32.250 L 207.583 32.250 207.583 41.833 C 207.583 47.104,207.519 51.517,207.439 51.640 C 207.341 51.792,205.749 48.754,202.399 42.015 L 197.502 32.167 192.612 32.167 C 189.923 32.167,187.672 32.217,187.611 32.278 M226.111 32.278 C 226.050 32.339,226.000 38.939,226.000 46.944 L 226.000 61.500 232.939 61.500 C 239.746 61.500,240.703 61.444,243.250 60.896 C 245.120 60.493,247.811 59.417,248.652 58.736 C 248.797 58.618,249.254 58.270,249.665 57.962 C 251.034 56.938,253.006 54.038,253.380 52.500 C 255.776 42.634,252.785 35.560,245.250 33.276 C 242.193 32.349,240.108 32.167,232.562 32.167 C 229.075 32.167,226.172 32.217,226.111 32.278 M261.439 32.296 C 261.395 32.368,261.467 32.912,261.599 33.505 C 261.730 34.098,261.909 34.921,261.996 35.333 C 262.082 35.746,262.274 36.608,262.422 37.250 C 262.569 37.892,262.755 38.754,262.834 39.167 C 262.974 39.900,263.218 40.997,263.500 42.167 C 263.783 43.341,264.026 44.434,264.166 45.167 C 264.245 45.579,264.428 46.404,264.574 47.000 C 264.719 47.596,264.905 48.421,264.987 48.833 C 265.126 49.537,265.278 50.218,265.933 53.083 C 266.080 53.725,266.263 54.550,266.340 54.917 C 266.417 55.283,266.600 56.108,266.747 56.750 C 267.169 58.588,267.294 59.172,267.521 60.375 L 267.734 61.500 272.774 61.500 C 278.414 61.500,278.014 61.598,278.186 60.167 C 278.246 59.663,278.384 58.762,278.492 58.167 C 278.600 57.571,278.752 56.708,278.830 56.250 C 278.909 55.792,279.061 54.967,279.168 54.417 C 279.275 53.867,279.398 53.042,279.443 52.583 C 279.487 52.125,279.587 51.600,279.665 51.417 C 279.743 51.233,279.852 50.650,279.906 50.120 C 279.960 49.589,280.075 48.839,280.161 48.453 C 280.247 48.066,280.393 47.262,280.486 46.667 C 281.322 41.306,281.841 39.027,282.055 39.775 C 282.173 40.188,282.602 42.198,282.814 43.333 C 282.908 43.837,283.072 44.700,283.179 45.250 C 283.358 46.169,283.495 46.952,283.746 48.500 C 283.799 48.821,283.957 49.683,284.097 50.417 C 284.238 51.150,284.419 52.125,284.500 52.583 C 284.581 53.042,284.761 54.017,284.902 54.750 C 285.042 55.483,285.198 56.308,285.248 56.583 C 285.298 56.858,285.455 57.683,285.598 58.417 C 285.741 59.150,285.909 60.125,285.971 60.583 L 286.083 61.417 291.111 61.461 L 296.139 61.505 296.317 60.961 C 296.415 60.662,296.570 60.042,296.661 59.583 C 296.752 59.125,296.948 58.225,297.097 57.583 C 297.245 56.942,297.429 56.117,297.506 55.750 C 297.583 55.383,297.767 54.558,297.914 53.917 C 298.061 53.275,298.244 52.450,298.321 52.083 C 298.398 51.717,298.591 50.854,298.750 50.167 C 298.909 49.479,299.091 48.614,299.155 48.244 C 299.218 47.874,299.319 47.492,299.378 47.395 C 299.438 47.299,299.568 46.776,299.667 46.235 C 299.888 45.028,300.051 44.262,300.411 42.750 C 300.666 41.677,300.981 40.268,301.342 38.583 C 301.421 38.217,301.605 37.392,301.752 36.750 C 301.899 36.108,302.083 35.246,302.162 34.833 C 302.240 34.421,302.386 33.872,302.486 33.614 C 302.585 33.356,302.667 32.925,302.667 32.656 L 302.667 32.167 299.010 32.167 C 294.935 32.167,295.189 32.084,294.995 33.475 C 294.922 33.993,294.737 35.129,294.583 36.000 C 294.430 36.871,294.239 37.996,294.161 38.500 C 294.082 39.004,293.896 40.092,293.749 40.917 C 293.601 41.742,293.414 42.867,293.334 43.417 C 293.254 43.967,293.102 44.867,292.997 45.417 C 292.892 45.967,292.743 46.792,292.665 47.250 C 292.588 47.708,292.409 48.758,292.268 49.583 C 292.127 50.408,291.969 51.346,291.917 51.667 C 291.304 55.454,291.249 55.346,289.918 47.750 C 289.773 46.925,289.589 45.950,289.508 45.583 C 289.427 45.217,289.237 44.167,289.085 43.250 C 288.933 42.333,288.739 41.353,288.654 41.072 C 288.569 40.790,288.500 40.332,288.500 40.055 C 288.500 39.777,288.425 39.332,288.334 39.067 C 288.183 38.626,288.083 38.087,287.685 35.583 C 287.548 34.716,287.166 32.737,287.067 32.375 C 287.024 32.214,285.885 32.167,282.092 32.167 L 277.173 32.167 277.095 32.542 C 277.051 32.748,276.979 33.179,276.933 33.500 C 276.887 33.821,276.734 34.721,276.592 35.500 C 276.451 36.279,276.261 37.428,276.171 38.052 C 276.080 38.677,275.965 39.255,275.914 39.337 C 275.864 39.419,275.752 39.958,275.667 40.535 C 275.434 42.114,275.347 42.634,275.090 44.000 C 274.961 44.688,274.769 45.775,274.665 46.417 C 274.390 48.109,274.001 50.302,273.823 51.167 C 273.738 51.579,273.620 52.350,273.561 52.880 C 273.406 54.263,272.672 54.249,272.663 52.863 C 272.661 52.526,272.586 51.950,272.497 51.583 C 272.408 51.217,272.262 50.467,272.174 49.917 C 272.085 49.367,271.893 48.204,271.748 47.333 C 271.602 46.462,271.420 45.337,271.344 44.833 C 271.268 44.329,271.126 43.504,271.029 43.000 C 270.933 42.496,270.770 41.521,270.668 40.833 C 270.566 40.146,270.376 39.021,270.245 38.333 C 270.115 37.646,269.970 36.821,269.923 36.500 C 269.669 34.759,269.482 33.667,269.317 32.958 L 269.133 32.167 265.327 32.167 C 263.233 32.167,261.484 32.225,261.439 32.296 M311.333 46.832 L 311.333 61.500 321.917 61.500 L 332.500 61.500 332.500 58.833 L 332.500 56.167 326.072 56.167 C 321.960 56.167,319.529 56.105,319.322 55.994 C 318.909 55.773,318.818 49.859,319.223 49.523 C 319.374 49.397,321.331 49.324,325.348 49.294 L 331.250 49.250 331.250 46.583 L 331.250 43.917 325.348 43.873 C 321.331 43.843,319.374 43.770,319.223 43.644 C 318.901 43.377,318.901 38.123,319.223 37.856 C 319.375 37.729,321.417 37.657,325.681 37.627 L 331.917 37.583 331.917 34.917 L 331.917 32.250 321.625 32.207 L 311.333 32.164 311.333 46.832 M343.112 32.277 C 343.051 32.338,343.000 38.939,343.000 46.944 L 343.000 61.500 353.667 61.500 L 364.333 61.500 364.333 58.835 L 364.333 56.170 357.708 56.127 L 351.083 56.083 351.083 52.750 L 351.083 49.417 356.992 49.373 C 361.464 49.340,362.932 49.279,363.031 49.123 C 363.183 48.883,363.210 44.761,363.062 44.210 L 362.962 43.838 357.023 43.794 L 351.083 43.750 351.083 40.750 L 351.083 37.750 357.417 37.662 C 360.900 37.613,363.771 37.557,363.796 37.537 C 363.821 37.516,363.821 36.319,363.796 34.875 L 363.750 32.250 353.487 32.207 C 347.843 32.183,343.174 32.215,343.112 32.277 M374.944 32.278 C 374.883 32.339,374.833 38.939,374.833 46.944 L 374.833 61.500 378.748 61.500 L 382.662 61.500 382.706 55.792 L 382.750 50.083 384.299 50.035 C 387.147 49.947,388.345 51.171,389.731 55.583 C 389.990 56.408,390.306 57.330,390.434 57.631 C 390.562 57.932,390.667 58.350,390.667 58.561 C 390.667 58.772,390.715 58.993,390.775 59.052 C 390.934 59.212,391.488 60.871,391.495 61.208 C 391.500 61.478,391.808 61.500,395.595 61.500 L 399.689 61.500 399.581 61.125 C 399.411 60.532,398.658 58.469,398.401 57.891 C 398.272 57.603,398.167 57.251,398.167 57.110 C 398.167 56.968,398.100 56.812,398.019 56.762 C 397.938 56.712,397.834 56.464,397.788 56.210 C 397.708 55.774,397.008 53.799,396.679 53.083 C 396.595 52.900,396.400 52.375,396.245 51.917 C 395.794 50.577,395.749 50.464,395.255 49.451 C 394.994 48.915,394.463 48.202,394.059 47.847 C 393.213 47.102,393.165 46.886,393.792 46.659 C 399.538 44.572,400.040 36.102,394.574 33.433 C 392.083 32.216,391.623 32.167,382.677 32.167 C 378.485 32.167,375.006 32.217,374.944 32.278 M95.783 37.901 C 98.911 38.734,99.143 42.044,96.167 43.375 C 95.186 43.813,91.056 44.024,90.818 43.647 C 90.654 43.389,90.610 38.342,90.768 37.930 C 90.902 37.580,94.499 37.559,95.783 37.901 M129.583 37.947 C 132.736 38.721,133.489 42.369,130.787 43.776 C 129.440 44.477,125.154 44.797,124.595 44.238 C 124.278 43.921,124.205 38.551,124.511 37.980 C 124.707 37.612,128.130 37.590,129.583 37.947 M387.695 37.936 C 391.025 38.787,391.759 41.977,389.041 43.789 C 388.143 44.387,383.351 44.784,382.867 44.300 C 382.651 44.084,382.568 37.988,382.778 37.778 C 383.006 37.549,386.638 37.666,387.695 37.936 M240.011 38.256 C 244.752 39.596,247.227 44.340,245.908 49.559 C 245.171 52.474,242.514 55.333,240.543 55.333 C 240.373 55.333,240.156 55.411,240.062 55.505 C 239.786 55.781,234.403 55.932,234.090 55.672 C 233.827 55.454,233.679 38.929,233.934 38.264 C 234.078 37.889,238.691 37.883,240.011 38.256 M163.652 39.042 C 163.807 39.442,164.501 41.658,164.944 43.167 C 165.092 43.671,165.267 44.233,165.333 44.417 C 165.453 44.749,165.759 45.766,166.261 47.500 C 166.407 48.004,166.596 48.589,166.680 48.800 C 167.035 49.685,167.108 49.667,163.278 49.667 C 159.131 49.667,159.262 49.727,159.995 48.167 C 160.060 48.029,160.249 47.467,160.416 46.917 C 160.874 45.406,163.015 38.943,163.107 38.796 C 163.256 38.553,163.507 38.666,163.652 39.042 M96.517 49.442 C 99.511 50.406,99.915 54.154,97.167 55.465 C 95.853 56.091,91.350 56.450,90.867 55.967 C 90.578 55.678,90.585 49.484,90.875 49.184 C 91.152 48.897,95.433 49.093,96.517 49.442 "
              stroke="none" fill="#261e26" fill-rule="evenodd"></path>
        <path id="path2"
              d="M31.078 1.722 C 24.462 8.580,22.169 16.341,24.621 23.577 C 25.528 26.253,26.943 28.726,30.331 33.554 C 31.468 35.175,31.840 35.799,32.633 37.417 C 32.858 37.875,33.136 38.438,33.250 38.667 C 36.260 44.695,35.501 52.235,31.303 58.023 C 30.324 59.373,30.324 59.297,31.292 59.952 C 33.154 61.213,33.214 61.206,35.917 59.396 C 42.448 55.021,47.236 48.750,49.834 41.167 C 50.588 38.965,51.500 34.120,51.500 32.316 L 51.500 31.496 50.400 30.993 C 49.093 30.394,46.560 29.500,46.171 29.500 C 45.922 29.500,45.896 29.834,45.906 32.792 C 45.913 35.003,45.845 36.357,45.698 36.917 C 45.100 39.203,44.932 39.763,44.805 39.908 C 44.729 39.995,44.667 40.172,44.667 40.300 C 44.667 41.038,41.919 45.652,41.643 45.376 C 41.569 45.302,41.590 44.831,41.691 44.329 C 42.474 40.415,41.726 35.462,39.844 32.100 C 39.685 31.816,39.307 31.133,39.004 30.583 C 38.701 30.033,37.515 28.160,36.367 26.420 C 32.432 20.454,31.713 19.170,30.950 16.750 C 29.317 11.570,29.724 7.775,32.528 2.023 C 33.075 0.902,33.163 0.600,32.979 0.483 C 32.571 0.225,32.437 0.313,31.078 1.722 M39.378 17.635 C 39.229 17.730,39.389 18.109,39.962 19.020 C 41.619 21.657,42.037 22.156,42.667 22.253 C 44.775 22.580,47.580 23.189,49.583 23.756 C 53.361 24.826,57.734 26.782,57.916 27.483 C 58.271 28.861,57.259 36.551,56.323 39.583 C 55.058 43.678,53.054 48.387,51.969 49.814 C 51.505 50.424,51.940 51.336,53.330 52.667 C 53.377 52.712,53.979 53.387,54.667 54.166 C 55.354 54.945,56.160 55.845,56.457 56.166 C 56.754 56.487,56.998 56.806,56.999 56.875 C 57.014 58.245,60.181 52.909,61.968 48.500 C 62.358 47.538,62.750 46.620,62.839 46.461 C 62.927 46.301,63.000 46.035,63.000 45.869 C 63.000 45.703,63.065 45.495,63.145 45.408 C 63.225 45.321,63.421 44.800,63.581 44.250 C 63.741 43.700,63.971 42.950,64.093 42.583 C 64.519 41.296,65.292 37.702,65.754 34.853 C 66.118 32.608,66.449 26.554,66.227 26.198 C 65.801 25.515,61.888 23.202,59.292 22.099 C 58.948 21.953,58.423 21.729,58.125 21.602 C 57.827 21.475,56.983 21.169,56.250 20.922 C 55.517 20.675,54.767 20.410,54.583 20.333 C 54.400 20.257,54.063 20.149,53.833 20.093 C 53.604 20.037,53.004 19.875,52.500 19.733 C 51.108 19.339,49.658 18.974,48.917 18.829 C 43.890 17.849,39.840 17.342,39.378 17.635 M18.167 18.659 C 17.938 18.732,17.150 18.919,16.417 19.074 C 15.683 19.229,14.896 19.417,14.667 19.492 C 14.438 19.568,13.762 19.758,13.167 19.916 C 12.571 20.074,11.933 20.264,11.750 20.338 C 11.567 20.412,10.817 20.675,10.083 20.922 C 8.613 21.418,8.121 21.617,5.833 22.647 C 4.562 23.219,2.645 24.304,1.295 25.214 L 0.006 26.083 0.003 28.285 C 0.001 29.496,0.112 31.258,0.249 32.202 C 0.386 33.145,0.581 34.517,0.682 35.250 C 0.783 35.983,1.014 37.296,1.196 38.167 C 1.378 39.037,1.564 39.938,1.611 40.167 C 1.657 40.396,1.793 40.921,1.913 41.333 C 2.032 41.746,2.257 42.533,2.412 43.083 C 2.835 44.585,2.898 44.765,4.006 47.583 C 5.088 50.335,6.349 52.895,7.784 55.250 C 7.896 55.433,8.040 55.696,8.104 55.833 C 8.794 57.308,8.974 57.278,10.586 55.417 C 11.300 54.592,12.354 53.392,12.928 52.750 C 14.823 50.629,14.872 50.534,14.420 49.888 C 12.614 47.310,10.161 40.860,9.265 36.333 C 8.599 32.970,8.166 27.958,8.489 27.355 C 8.850 26.679,16.447 23.500,17.699 23.500 C 18.245 23.500,18.833 23.120,18.836 22.765 C 18.838 22.573,18.992 21.742,19.180 20.917 C 19.780 18.274,19.783 18.498,19.144 18.513 C 18.836 18.520,18.396 18.586,18.167 18.659 M18.000 30.171 C 17.496 30.350,16.933 30.564,16.750 30.645 C 16.567 30.727,16.102 30.924,15.718 31.084 C 15.334 31.244,14.983 31.472,14.937 31.590 C 14.730 32.131,15.184 35.834,15.826 38.833 C 15.995 39.623,16.637 41.625,17.082 42.750 C 17.227 43.117,17.391 43.554,17.446 43.723 C 17.576 44.120,19.134 47.176,19.753 48.250 C 21.385 51.079,24.376 54.563,27.215 56.940 C 28.989 58.426,29.005 58.427,29.395 57.125 C 29.566 56.552,29.768 55.896,29.843 55.667 C 30.818 52.703,30.256 48.278,28.421 44.462 C 27.179 41.879,27.059 41.688,23.987 37.333 C 21.982 34.493,20.467 32.003,19.906 30.626 C 19.534 29.714,19.386 29.679,18.000 30.171 M82.874 32.138 C 82.708 32.243,82.674 35.312,82.707 46.927 L 82.750 61.583 90.917 61.572 C 98.928 61.562,100.012 61.501,101.250 60.994 C 104.263 59.760,105.689 58.448,106.585 56.083 C 107.014 54.952,107.030 51.347,106.610 50.583 C 106.459 50.308,106.335 49.996,106.334 49.888 C 106.334 49.781,105.960 49.285,105.504 48.786 C 104.737 47.946,104.014 47.490,102.275 46.744 L 101.634 46.469 102.104 46.225 C 104.994 44.726,106.257 42.716,106.223 39.667 C 106.181 35.793,104.125 33.398,99.932 32.334 C 98.543 31.982,83.394 31.808,82.874 32.138 M116.577 32.208 C 116.533 32.323,116.517 38.979,116.540 47.000 L 116.583 61.583 120.623 61.628 L 124.662 61.673 124.706 55.961 L 124.750 50.250 125.974 50.201 C 128.766 50.088,130.122 51.552,131.422 56.083 C 131.580 56.633,131.775 57.155,131.855 57.242 C 131.935 57.329,132.000 57.595,132.000 57.833 C 132.000 58.072,132.060 58.338,132.132 58.425 C 132.205 58.512,132.400 59.033,132.565 59.583 C 132.731 60.133,132.970 60.827,133.097 61.125 L 133.328 61.667 137.505 61.667 L 141.682 61.667 141.571 61.042 C 141.510 60.698,141.394 60.345,141.313 60.258 C 141.233 60.171,141.167 59.995,141.167 59.867 C 141.167 59.739,141.061 59.397,140.933 59.109 C 140.699 58.584,140.117 56.994,139.581 55.417 C 139.425 54.958,139.240 54.433,139.169 54.250 C 138.629 52.857,138.474 52.439,138.081 51.333 C 137.425 49.482,136.880 48.488,136.151 47.811 C 135.385 47.098,135.346 46.908,135.938 46.760 C 140.522 45.609,141.945 37.871,138.213 34.386 C 137.375 33.604,135.671 32.695,134.615 32.468 C 134.231 32.386,133.617 32.250,133.250 32.166 C 132.155 31.917,116.673 31.956,116.577 32.208 M158.458 32.179 C 158.298 32.273,158.167 32.456,158.167 32.586 C 158.167 32.716,158.044 33.106,157.894 33.453 C 157.743 33.800,157.565 34.233,157.498 34.417 C 157.430 34.600,157.285 34.972,157.175 35.243 C 157.065 35.514,156.822 36.189,156.634 36.743 C 156.446 37.297,156.226 37.821,156.146 37.908 C 156.066 37.995,156.000 38.203,156.000 38.369 C 156.000 38.535,155.930 38.801,155.844 38.961 C 155.490 39.618,155.167 40.398,155.167 40.595 C 155.167 40.711,155.060 41.019,154.930 41.278 C 154.516 42.101,153.832 43.907,153.833 44.175 C 153.833 44.317,153.771 44.505,153.695 44.592 C 153.619 44.679,153.311 45.425,153.010 46.250 C 152.709 47.075,152.406 47.900,152.335 48.083 C 152.264 48.267,152.076 48.754,151.917 49.167 C 151.757 49.579,151.570 50.067,151.500 50.250 C 151.154 51.160,150.765 52.136,150.561 52.609 C 150.436 52.897,150.333 53.217,150.333 53.319 C 150.333 53.421,150.266 53.635,150.184 53.794 C 150.053 54.046,149.881 54.476,149.333 55.917 C 149.264 56.100,149.076 56.587,148.917 57.000 C 148.757 57.413,148.570 57.900,148.500 58.083 C 148.430 58.267,148.258 58.717,148.118 59.083 C 147.491 60.718,147.333 61.189,147.333 61.423 C 147.333 61.639,147.883 61.667,151.429 61.628 L 155.524 61.583 155.863 60.750 C 156.384 59.468,156.444 59.310,156.748 58.417 C 156.904 57.958,157.126 57.358,157.241 57.083 C 157.356 56.808,157.545 56.340,157.662 56.042 L 157.874 55.500 163.177 55.500 C 167.237 55.500,168.512 55.549,168.614 55.708 C 168.769 55.951,169.150 56.935,169.275 57.417 C 169.375 57.805,169.516 58.175,169.894 59.047 C 170.044 59.394,170.167 59.789,170.167 59.925 C 170.167 60.060,170.234 60.301,170.315 60.461 C 170.397 60.620,170.546 60.956,170.645 61.208 L 170.826 61.667 175.246 61.667 C 179.511 61.667,179.667 61.655,179.667 61.343 C 179.667 61.165,179.592 60.973,179.500 60.917 C 179.408 60.860,179.333 60.698,179.333 60.557 C 179.333 60.416,179.230 60.064,179.103 59.775 C 178.976 59.486,178.777 58.987,178.661 58.667 C 178.545 58.346,178.359 57.858,178.248 57.583 C 178.037 57.064,177.553 55.829,177.333 55.250 C 177.264 55.067,177.076 54.579,176.917 54.167 C 176.757 53.754,176.570 53.267,176.500 53.083 C 176.280 52.505,175.796 51.269,175.586 50.750 C 175.474 50.475,175.289 49.987,175.173 49.667 C 174.924 48.975,174.208 47.123,173.916 46.417 C 173.802 46.142,173.575 45.542,173.410 45.083 C 173.246 44.625,173.049 44.179,172.972 44.092 C 172.896 44.005,172.833 43.797,172.833 43.631 C 172.833 43.465,172.762 43.199,172.675 43.039 C 172.491 42.704,172.131 41.837,171.828 41.000 C 171.712 40.679,171.526 40.192,171.414 39.917 C 171.194 39.371,170.701 38.113,170.501 37.583 C 170.432 37.400,170.283 37.025,170.172 36.750 C 170.060 36.475,169.856 35.912,169.718 35.500 C 169.580 35.087,169.371 34.525,169.253 34.250 C 169.136 33.975,168.894 33.375,168.716 32.917 L 168.392 32.083 163.571 32.045 C 160.501 32.021,158.644 32.070,158.458 32.179 M187.444 32.111 C 187.383 32.172,187.333 38.849,187.333 46.948 L 187.333 61.673 191.042 61.628 L 194.750 61.583 194.684 52.042 C 194.645 46.457,194.679 42.502,194.767 42.504 C 194.849 42.507,195.299 43.275,195.766 44.213 C 196.233 45.150,197.237 47.117,197.997 48.583 C 198.757 50.050,199.558 51.625,199.777 52.083 C 199.996 52.542,200.250 53.050,200.342 53.214 C 200.595 53.662,203.651 59.613,204.191 60.708 L 204.664 61.667 209.750 61.667 L 214.835 61.667 214.793 46.875 L 214.750 32.083 211.083 32.083 L 207.417 32.083 207.374 41.750 L 207.331 51.416 205.729 48.166 C 204.848 46.379,204.005 44.654,203.856 44.333 C 203.706 44.012,203.546 43.712,203.500 43.667 C 203.454 43.621,203.277 43.283,203.106 42.917 C 202.935 42.550,202.678 42.025,202.535 41.750 C 202.392 41.475,202.213 41.119,202.137 40.958 C 202.062 40.798,201.920 40.509,201.822 40.317 C 201.724 40.125,201.230 39.131,200.723 38.109 C 200.217 37.087,199.684 36.025,199.539 35.750 C 199.393 35.475,199.213 35.119,199.137 34.958 C 199.062 34.798,198.921 34.511,198.824 34.321 C 198.728 34.131,198.490 33.662,198.297 33.279 C 197.601 31.904,198.037 32.000,192.502 32.000 C 189.781 32.000,187.506 32.050,187.444 32.111 M225.955 32.101 C 225.888 32.168,225.833 38.847,225.833 46.944 L 225.833 61.667 233.331 61.667 C 237.455 61.667,241.148 61.596,241.539 61.510 C 241.930 61.424,242.850 61.224,243.583 61.066 C 244.317 60.907,244.988 60.715,245.075 60.639 C 245.162 60.562,245.339 60.500,245.468 60.500 C 247.406 60.500,253.000 55.635,253.000 53.950 C 253.000 53.805,253.068 53.644,253.151 53.593 C 253.318 53.490,253.668 52.362,254.082 50.594 C 254.455 48.999,254.455 44.338,254.082 42.734 C 252.638 36.525,249.660 33.867,242.417 32.318 C 241.310 32.082,226.174 31.882,225.955 32.101 M261.221 32.179 C 261.093 32.307,261.112 32.653,261.288 33.388 C 261.424 33.954,261.594 34.679,261.667 35.000 C 261.740 35.321,261.893 35.958,262.006 36.417 C 262.120 36.875,262.271 37.587,262.342 38.000 C 262.412 38.412,262.597 39.275,262.752 39.917 C 262.906 40.558,263.093 41.383,263.167 41.750 C 263.240 42.117,263.423 42.942,263.572 43.583 C 263.722 44.225,263.907 45.087,263.984 45.500 C 264.061 45.913,264.216 46.625,264.329 47.083 C 264.704 48.609,265.033 50.070,265.343 51.583 C 265.418 51.950,265.600 52.775,265.747 53.417 C 265.894 54.058,266.079 54.883,266.158 55.250 C 266.236 55.617,266.422 56.442,266.570 57.083 C 266.718 57.725,266.909 58.587,266.993 59.000 C 267.078 59.413,267.254 60.163,267.384 60.667 L 267.621 61.583 272.890 61.627 L 278.159 61.671 278.238 61.294 C 278.282 61.086,278.351 60.654,278.392 60.333 C 278.434 60.012,278.594 59.038,278.748 58.167 C 278.903 57.296,279.063 56.358,279.106 56.083 C 279.205 55.435,279.629 52.985,279.826 51.917 C 279.910 51.458,280.103 50.333,280.254 49.417 C 280.405 48.500,280.597 47.479,280.681 47.147 C 280.765 46.816,280.834 46.291,280.835 45.981 C 280.836 45.670,280.949 45.048,281.085 44.599 C 281.222 44.149,281.333 43.503,281.333 43.165 C 281.333 42.827,281.403 42.332,281.488 42.067 C 281.573 41.801,281.695 41.208,281.759 40.750 L 281.877 39.917 282.116 41.000 C 282.247 41.596,282.422 42.496,282.504 43.000 C 282.878 45.298,282.974 45.823,283.083 46.167 C 283.148 46.369,283.261 46.921,283.334 47.392 C 283.601 49.092,283.837 50.429,283.987 51.083 C 284.070 51.450,284.265 52.500,284.418 53.417 C 284.571 54.333,284.759 55.346,284.835 55.667 C 284.988 56.311,285.286 57.919,285.515 59.333 C 285.596 59.837,285.721 60.550,285.793 60.917 L 285.922 61.583 291.075 61.627 C 293.910 61.652,296.287 61.613,296.359 61.541 C 296.483 61.417,296.858 59.937,297.171 58.333 C 297.251 57.921,297.435 57.096,297.580 56.500 C 297.725 55.904,297.906 55.079,297.984 54.667 C 298.061 54.254,298.216 53.542,298.329 53.083 C 298.627 51.869,298.768 51.241,299.078 49.750 C 299.230 49.017,299.417 48.192,299.494 47.917 C 299.570 47.642,299.759 46.817,299.913 46.083 C 300.171 44.860,300.477 43.493,300.827 42.000 C 300.948 41.484,301.168 40.496,301.661 38.250 C 301.741 37.883,301.919 37.096,302.056 36.500 C 302.193 35.904,302.431 34.817,302.584 34.083 C 302.737 33.350,302.896 32.643,302.937 32.513 C 303.077 32.068,302.579 32.005,298.895 32.003 C 294.763 32.000,294.934 31.948,294.771 33.250 C 294.582 34.761,294.023 38.192,293.833 39.000 C 293.682 39.648,293.372 41.428,293.167 42.833 C 293.094 43.337,292.907 44.462,292.752 45.333 C 292.597 46.204,292.405 47.329,292.324 47.833 C 292.244 48.337,292.061 49.425,291.918 50.250 C 291.775 51.075,291.616 52.087,291.566 52.500 C 291.424 53.651,291.295 53.832,291.146 53.083 C 290.910 51.892,290.486 49.603,290.343 48.750 C 290.266 48.292,290.117 47.467,290.011 46.917 C 289.905 46.367,289.751 45.542,289.670 45.083 C 289.588 44.625,289.432 43.837,289.322 43.333 C 289.212 42.829,289.065 42.042,288.995 41.583 C 288.811 40.369,288.517 38.694,288.338 37.833 C 288.072 36.553,287.803 35.148,287.656 34.264 C 287.578 33.798,287.454 33.117,287.379 32.750 L 287.244 32.083 282.228 32.039 C 276.499 31.989,276.982 31.847,276.679 33.667 C 276.565 34.354,276.394 35.279,276.299 35.721 C 276.205 36.163,276.066 36.951,275.990 37.471 C 275.914 37.991,275.730 39.092,275.580 39.917 C 275.430 40.742,275.245 41.792,275.169 42.250 C 275.093 42.708,274.906 43.721,274.754 44.500 C 274.602 45.279,274.412 46.404,274.332 47.000 C 274.253 47.596,274.117 48.383,274.032 48.750 C 273.894 49.344,273.697 50.497,273.414 52.367 C 273.259 53.393,272.894 52.977,272.680 51.531 C 272.575 50.826,272.430 49.875,272.356 49.417 C 272.282 48.958,272.128 47.983,272.013 47.250 C 271.899 46.517,271.743 45.654,271.667 45.333 C 271.527 44.737,271.226 42.973,270.986 41.333 C 270.912 40.829,270.736 39.742,270.595 38.917 C 270.454 38.092,270.263 36.929,270.171 36.333 C 270.078 35.737,269.928 34.950,269.838 34.583 C 269.748 34.217,269.673 33.652,269.671 33.329 C 269.662 32.007,269.637 32.000,265.274 32.000 C 262.733 32.000,261.338 32.062,261.221 32.179 M311.278 32.111 C 311.217 32.172,311.167 38.847,311.167 46.944 L 311.167 61.667 321.917 61.667 L 332.667 61.667 332.667 58.833 C 332.667 57.275,332.648 55.984,332.625 55.965 C 332.602 55.946,329.621 55.890,326.000 55.840 L 319.417 55.750 319.417 52.750 L 319.417 49.750 325.372 49.706 L 331.328 49.662 331.420 49.290 C 331.471 49.084,331.491 47.754,331.464 46.333 L 331.417 43.750 325.417 43.667 L 319.417 43.583 319.369 41.083 C 319.343 39.708,319.363 38.415,319.413 38.210 L 319.505 37.837 325.878 37.794 L 332.250 37.750 332.296 35.012 C 332.331 32.934,332.291 32.242,332.129 32.140 C 331.875 31.979,311.438 31.951,311.278 32.111 M342.916 32.374 C 342.866 32.581,342.846 39.237,342.871 47.167 L 342.917 61.583 353.708 61.626 L 364.500 61.669 364.500 58.835 C 364.500 57.276,364.481 55.983,364.458 55.963 C 364.435 55.943,361.454 55.887,357.833 55.838 L 351.250 55.750 351.205 52.708 L 351.159 49.667 357.059 49.667 C 361.878 49.667,362.994 49.624,363.150 49.436 C 363.282 49.278,363.327 48.348,363.296 46.478 L 363.250 43.750 357.250 43.667 L 351.250 43.583 351.250 40.750 L 351.250 37.917 357.583 37.833 L 363.917 37.750 363.917 34.917 L 363.917 32.083 353.462 32.040 L 343.007 31.997 342.916 32.374 M374.778 32.111 C 374.717 32.172,374.667 38.847,374.667 46.944 L 374.667 61.667 378.748 61.667 L 382.829 61.667 382.873 55.958 L 382.917 50.250 384.233 50.201 C 387.193 50.090,388.236 51.376,390.088 57.417 C 390.341 58.242,390.749 59.517,390.995 60.250 L 391.442 61.583 395.721 61.628 C 399.916 61.671,400.000 61.666,400.000 61.336 C 400.000 61.151,399.925 61.000,399.833 61.000 C 399.742 61.000,399.667 60.853,399.667 60.672 C 399.667 60.492,399.544 60.061,399.394 59.714 C 399.009 58.825,398.901 58.538,398.564 57.500 C 398.400 56.996,398.206 56.512,398.133 56.425 C 398.060 56.338,398.000 56.150,397.999 56.008 C 397.998 55.866,397.886 55.535,397.749 55.273 C 397.612 55.010,397.500 54.669,397.500 54.514 C 397.500 54.360,397.434 54.162,397.354 54.075 C 397.274 53.988,397.054 53.464,396.866 52.910 C 396.678 52.356,396.435 51.681,396.325 51.410 C 396.215 51.139,396.074 50.767,396.010 50.583 C 395.662 49.573,394.732 48.028,394.248 47.656 C 393.579 47.141,393.639 47.025,394.877 46.424 C 396.757 45.513,397.991 43.791,398.436 41.460 C 399.310 36.876,396.960 33.446,392.139 32.271 C 390.989 31.990,375.045 31.844,374.778 32.111 M99.167 32.431 C 100.786 32.734,100.893 32.768,102.250 33.425 C 104.771 34.645,105.889 36.560,105.894 39.667 C 105.900 43.045,104.884 44.611,101.670 46.183 L 101.090 46.467 101.837 46.804 C 102.247 46.990,102.944 47.299,103.384 47.493 C 108.895 49.909,107.297 59.404,101.153 60.753 C 100.846 60.820,100.479 60.933,100.339 61.004 C 99.587 61.380,97.169 61.500,90.330 61.500 L 83.000 61.500 83.000 46.944 C 83.000 38.939,83.050 32.339,83.111 32.278 C 83.369 32.020,97.700 32.157,99.167 32.431 M133.508 32.487 C 137.277 33.344,139.034 34.730,139.883 37.515 C 141.032 41.286,138.400 46.667,135.405 46.667 C 134.861 46.667,135.009 47.093,135.804 47.813 C 136.739 48.660,137.064 49.221,137.842 51.333 C 138.978 54.418,139.522 55.929,139.911 57.083 C 140.196 57.927,140.292 58.182,140.666 59.083 C 140.865 59.565,140.988 59.925,141.322 61.000 L 141.477 61.500 137.405 61.500 C 133.881 61.500,133.333 61.466,133.333 61.248 C 133.333 61.109,133.268 60.865,133.189 60.706 C 132.978 60.282,132.167 57.741,132.167 57.503 C 132.167 57.392,132.066 57.064,131.942 56.775 C 131.818 56.486,131.587 55.837,131.428 55.333 C 130.562 52.592,129.541 50.949,128.312 50.323 C 127.764 50.043,127.392 49.996,126.037 50.036 L 124.417 50.083 124.373 55.792 L 124.329 61.500 120.498 61.500 L 116.667 61.500 116.667 46.944 C 116.667 38.939,116.717 32.339,116.778 32.278 C 117.081 31.975,132.080 32.162,133.508 32.487 M168.238 32.429 C 168.382 32.573,168.500 32.799,168.500 32.931 C 168.500 33.063,168.567 33.301,168.650 33.461 C 168.780 33.713,168.952 34.143,169.500 35.583 C 169.570 35.767,169.757 36.254,169.917 36.667 C 170.076 37.079,170.264 37.567,170.333 37.750 C 170.730 38.794,171.015 39.533,171.393 40.500 C 171.626 41.096,172.129 42.408,172.512 43.417 C 173.356 45.640,173.634 46.327,173.841 46.706 C 173.929 46.865,174.000 47.110,174.000 47.250 C 174.000 47.390,174.074 47.635,174.164 47.794 C 174.255 47.953,174.745 49.171,175.253 50.500 C 175.762 51.829,176.250 53.047,176.339 53.206 C 176.427 53.365,176.500 53.579,176.500 53.681 C 176.500 53.783,176.604 54.103,176.730 54.391 C 176.857 54.680,177.056 55.179,177.172 55.500 C 177.288 55.821,177.474 56.308,177.586 56.583 C 177.796 57.103,178.280 58.338,178.500 58.917 C 179.048 60.357,179.220 60.787,179.350 61.039 C 179.433 61.199,179.500 61.369,179.500 61.417 C 179.500 61.466,177.569 61.486,175.208 61.461 L 170.917 61.417 170.490 60.167 C 170.255 59.479,170.016 58.804,169.958 58.667 C 169.900 58.529,169.624 57.747,169.345 56.927 C 168.692 55.016,169.226 55.163,163.114 55.210 L 157.812 55.250 157.590 55.667 C 157.340 56.135,157.063 56.842,156.413 58.667 C 156.168 59.354,155.862 60.153,155.734 60.442 C 155.605 60.731,155.500 61.087,155.500 61.234 C 155.500 61.470,155.053 61.500,151.482 61.500 C 147.720 61.500,147.472 61.481,147.586 61.208 C 147.653 61.048,147.786 60.692,147.881 60.417 C 147.977 60.142,148.144 59.692,148.252 59.417 C 148.361 59.142,148.545 58.654,148.661 58.333 C 148.777 58.012,148.969 57.525,149.086 57.250 C 149.204 56.975,149.413 56.413,149.551 56.000 C 149.689 55.587,149.893 55.025,150.005 54.750 C 150.117 54.475,150.265 54.100,150.334 53.917 C 150.534 53.387,151.027 52.129,151.248 51.583 C 151.359 51.308,151.545 50.821,151.661 50.500 C 151.777 50.179,151.976 49.680,152.103 49.391 C 152.230 49.103,152.333 48.783,152.333 48.681 C 152.333 48.579,152.401 48.365,152.483 48.206 C 152.613 47.954,152.837 47.394,153.333 46.083 C 153.402 45.900,153.550 45.525,153.662 45.250 C 153.773 44.975,153.978 44.413,154.116 44.000 C 154.254 43.587,154.464 43.025,154.583 42.750 C 154.702 42.475,155.117 41.387,155.504 40.333 C 155.891 39.279,156.300 38.192,156.412 37.917 C 156.525 37.642,156.712 37.154,156.828 36.833 C 156.944 36.512,157.132 36.025,157.245 35.750 C 157.358 35.475,157.545 34.987,157.661 34.667 C 157.777 34.346,157.976 33.847,158.103 33.558 C 158.230 33.269,158.333 32.928,158.333 32.800 C 158.333 32.207,158.652 32.167,163.355 32.167 C 167.334 32.167,168.013 32.203,168.238 32.429 M202.399 42.015 C 205.749 48.754,207.341 51.792,207.439 51.640 C 207.519 51.517,207.583 47.104,207.583 41.833 L 207.583 32.250 211.083 32.250 L 214.583 32.250 214.626 46.875 L 214.668 61.500 209.762 61.500 L 204.856 61.500 204.281 60.375 C 203.965 59.756,203.194 58.237,202.569 57.000 C 201.943 55.762,201.371 54.725,201.299 54.694 C 201.226 54.664,201.167 54.566,201.167 54.478 C 201.167 54.301,200.268 52.488,198.162 48.417 C 197.403 46.950,196.363 44.908,195.850 43.879 C 195.337 42.849,194.842 42.031,194.750 42.060 C 194.641 42.095,194.599 45.449,194.630 51.806 L 194.677 61.500 191.088 61.500 L 187.500 61.500 187.500 46.944 C 187.500 38.939,187.550 32.339,187.611 32.278 C 187.672 32.217,189.923 32.167,192.612 32.167 L 197.502 32.167 202.399 42.015 M240.993 32.421 C 243.066 32.673,243.643 32.788,245.250 33.276 C 252.785 35.560,255.776 42.634,253.380 52.500 C 253.006 54.038,251.034 56.938,249.665 57.962 C 249.254 58.270,248.797 58.618,248.652 58.736 C 247.811 59.417,245.120 60.493,243.250 60.896 C 240.703 61.444,239.746 61.500,232.939 61.500 L 226.000 61.500 226.000 46.944 C 226.000 38.939,226.050 32.339,226.111 32.278 C 226.350 32.039,238.837 32.159,240.993 32.421 M269.317 32.958 C 269.482 33.667,269.669 34.759,269.923 36.500 C 269.970 36.821,270.115 37.646,270.245 38.333 C 270.376 39.021,270.566 40.146,270.668 40.833 C 270.770 41.521,270.933 42.496,271.029 43.000 C 271.126 43.504,271.268 44.329,271.344 44.833 C 271.420 45.337,271.602 46.462,271.748 47.333 C 271.893 48.204,272.085 49.367,272.174 49.917 C 272.262 50.467,272.408 51.217,272.497 51.583 C 272.586 51.950,272.661 52.526,272.663 52.863 C 272.672 54.249,273.406 54.263,273.561 52.880 C 273.620 52.350,273.738 51.579,273.823 51.167 C 274.001 50.302,274.390 48.109,274.665 46.417 C 274.769 45.775,274.961 44.688,275.090 44.000 C 275.347 42.634,275.434 42.114,275.667 40.535 C 275.752 39.958,275.864 39.419,275.914 39.337 C 275.965 39.255,276.080 38.677,276.171 38.052 C 276.261 37.428,276.451 36.279,276.592 35.500 C 276.734 34.721,276.887 33.821,276.933 33.500 C 276.979 33.179,277.051 32.748,277.095 32.542 L 277.173 32.167 282.092 32.167 C 285.885 32.167,287.024 32.214,287.067 32.375 C 287.166 32.737,287.548 34.716,287.685 35.583 C 288.083 38.087,288.183 38.626,288.334 39.067 C 288.425 39.332,288.500 39.777,288.500 40.055 C 288.500 40.332,288.569 40.790,288.654 41.072 C 288.739 41.353,288.933 42.333,289.085 43.250 C 289.237 44.167,289.427 45.217,289.508 45.583 C 289.589 45.950,289.773 46.925,289.918 47.750 C 290.654 51.953,291.071 53.960,291.244 54.133 C 291.458 54.347,291.519 54.124,291.917 51.667 C 291.969 51.346,292.127 50.408,292.268 49.583 C 292.409 48.758,292.588 47.708,292.665 47.250 C 292.743 46.792,292.892 45.967,292.997 45.417 C 293.102 44.867,293.254 43.967,293.334 43.417 C 293.414 42.867,293.601 41.742,293.749 40.917 C 293.896 40.092,294.082 39.004,294.161 38.500 C 294.239 37.996,294.430 36.871,294.583 36.000 C 294.737 35.129,294.922 33.993,294.995 33.475 C 295.189 32.084,294.935 32.167,299.010 32.167 L 302.667 32.167 302.667 32.656 C 302.667 32.925,302.585 33.356,302.486 33.614 C 302.386 33.872,302.240 34.421,302.162 34.833 C 302.083 35.246,301.899 36.108,301.752 36.750 C 301.605 37.392,301.421 38.217,301.342 38.583 C 300.981 40.268,300.666 41.677,300.411 42.750 C 300.051 44.262,299.888 45.028,299.667 46.235 C 299.568 46.776,299.438 47.299,299.378 47.395 C 299.319 47.492,299.218 47.874,299.155 48.244 C 299.091 48.614,298.909 49.479,298.750 50.167 C 298.591 50.854,298.398 51.717,298.321 52.083 C 298.244 52.450,298.061 53.275,297.914 53.917 C 297.767 54.558,297.583 55.383,297.506 55.750 C 297.429 56.117,297.245 56.942,297.097 57.583 C 296.948 58.225,296.752 59.125,296.661 59.583 C 296.570 60.042,296.415 60.662,296.317 60.961 L 296.139 61.505 291.111 61.461 L 286.083 61.417 285.971 60.583 C 285.909 60.125,285.741 59.150,285.598 58.417 C 285.455 57.683,285.298 56.858,285.248 56.583 C 285.198 56.308,285.042 55.483,284.902 54.750 C 284.761 54.017,284.581 53.042,284.500 52.583 C 284.419 52.125,284.238 51.150,284.097 50.417 C 283.957 49.683,283.799 48.821,283.746 48.500 C 283.495 46.952,283.358 46.169,283.179 45.250 C 283.072 44.700,282.908 43.837,282.814 43.333 C 282.602 42.198,282.173 40.188,282.055 39.775 C 281.841 39.027,281.322 41.306,280.486 46.667 C 280.393 47.262,280.247 48.066,280.161 48.453 C 280.075 48.839,279.960 49.589,279.906 50.120 C 279.852 50.650,279.743 51.233,279.665 51.417 C 279.587 51.600,279.487 52.125,279.443 52.583 C 279.398 53.042,279.275 53.867,279.168 54.417 C 279.061 54.967,278.909 55.792,278.830 56.250 C 278.752 56.708,278.600 57.571,278.492 58.167 C 278.384 58.762,278.246 59.663,278.186 60.167 C 278.014 61.598,278.414 61.500,272.774 61.500 L 267.734 61.500 267.521 60.375 C 267.294 59.172,267.169 58.588,266.747 56.750 C 266.600 56.108,266.417 55.283,266.340 54.917 C 266.263 54.550,266.080 53.725,265.933 53.083 C 265.278 50.218,265.126 49.537,264.987 48.833 C 264.905 48.421,264.719 47.596,264.574 47.000 C 264.428 46.404,264.245 45.579,264.166 45.167 C 264.026 44.434,263.783 43.341,263.500 42.167 C 263.218 40.997,262.974 39.900,262.834 39.167 C 262.755 38.754,262.569 37.892,262.422 37.250 C 262.274 36.608,262.082 35.746,261.996 35.333 C 261.909 34.921,261.730 34.098,261.599 33.505 C 261.281 32.073,261.020 32.167,265.327 32.167 L 269.133 32.167 269.317 32.958 M331.917 34.917 L 331.917 37.583 325.681 37.627 C 321.417 37.657,319.375 37.729,319.223 37.856 C 318.901 38.123,318.901 43.377,319.223 43.644 C 319.374 43.770,321.331 43.843,325.348 43.873 L 331.250 43.917 331.250 46.583 L 331.250 49.250 325.348 49.294 C 321.331 49.324,319.374 49.397,319.223 49.523 C 318.818 49.859,318.909 55.773,319.322 55.994 C 319.529 56.105,321.960 56.167,326.072 56.167 L 332.500 56.167 332.500 58.833 L 332.500 61.500 321.917 61.500 L 311.333 61.500 311.333 46.832 L 311.333 32.164 321.625 32.207 L 331.917 32.250 331.917 34.917 M363.796 34.875 C 363.821 36.319,363.821 37.516,363.796 37.537 C 363.771 37.557,360.900 37.613,357.417 37.662 L 351.083 37.750 351.083 40.750 L 351.083 43.750 357.023 43.794 L 362.962 43.838 363.062 44.210 C 363.210 44.761,363.183 48.883,363.031 49.123 C 362.932 49.279,361.464 49.340,356.992 49.373 L 351.083 49.417 351.083 52.750 L 351.083 56.083 357.708 56.127 L 364.333 56.170 364.333 58.835 L 364.333 61.500 353.667 61.500 L 343.000 61.500 343.000 46.944 C 343.000 38.939,343.051 32.338,343.112 32.277 C 343.174 32.215,347.843 32.183,353.487 32.207 L 363.750 32.250 363.796 34.875 M391.607 32.426 C 392.327 32.568,393.067 32.744,393.250 32.816 C 396.863 34.248,398.249 36.152,398.237 39.667 C 398.224 43.465,396.915 45.525,393.792 46.659 C 393.165 46.886,393.213 47.102,394.059 47.847 C 394.463 48.202,394.994 48.915,395.255 49.451 C 395.749 50.464,395.794 50.577,396.245 51.917 C 396.400 52.375,396.595 52.900,396.679 53.083 C 397.008 53.799,397.708 55.774,397.788 56.210 C 397.834 56.464,397.938 56.712,398.019 56.762 C 398.100 56.812,398.167 56.968,398.167 57.110 C 398.167 57.251,398.272 57.603,398.401 57.891 C 398.658 58.469,399.411 60.532,399.581 61.125 L 399.689 61.500 395.595 61.500 C 391.808 61.500,391.500 61.478,391.495 61.208 C 391.488 60.871,390.934 59.212,390.775 59.052 C 390.715 58.993,390.667 58.772,390.667 58.561 C 390.667 58.350,390.562 57.932,390.434 57.631 C 390.306 57.330,389.990 56.408,389.731 55.583 C 388.345 51.171,387.147 49.947,384.299 50.035 L 382.750 50.083 382.706 55.792 L 382.662 61.500 378.748 61.500 L 374.833 61.500 374.833 46.944 C 374.833 38.939,374.883 32.339,374.944 32.278 C 375.199 32.023,390.246 32.157,391.607 32.426 M90.768 37.930 C 90.610 38.342,90.654 43.389,90.818 43.647 C 91.056 44.024,95.186 43.813,96.167 43.375 C 99.143 42.044,98.911 38.734,95.783 37.901 C 94.499 37.559,90.902 37.580,90.768 37.930 M124.511 37.980 C 124.205 38.551,124.278 43.921,124.595 44.238 C 125.154 44.797,129.440 44.477,130.787 43.776 C 132.958 42.645,132.937 39.525,130.750 38.374 C 129.421 37.674,124.830 37.384,124.511 37.980 M382.778 37.778 C 382.568 37.988,382.651 44.084,382.867 44.300 C 383.351 44.784,388.143 44.387,389.041 43.789 C 391.759 41.977,391.025 38.787,387.695 37.936 C 386.638 37.666,383.006 37.549,382.778 37.778 M95.581 38.094 C 97.490 38.434,98.453 40.041,97.754 41.716 C 97.240 42.945,95.343 43.667,92.626 43.667 L 91.000 43.667 91.000 40.736 L 91.000 37.805 92.958 37.890 C 94.035 37.937,95.216 38.029,95.581 38.094 M128.740 38.014 C 131.127 38.440,132.074 39.295,132.059 41.010 C 132.037 43.376,130.992 44.042,127.265 44.067 L 124.750 44.083 124.702 41.333 C 124.638 37.586,124.526 37.833,126.285 37.833 C 127.080 37.833,128.184 37.914,128.740 38.014 M387.000 38.061 C 389.366 38.478,390.333 39.327,390.333 40.986 C 390.333 43.293,389.146 44.042,385.446 44.066 L 382.917 44.083 382.869 41.333 C 382.804 37.600,382.704 37.833,384.378 37.837 C 385.133 37.838,386.313 37.939,387.000 38.061 M233.934 38.264 C 233.679 38.929,233.827 55.454,234.090 55.672 C 234.403 55.932,239.786 55.781,240.062 55.505 C 240.156 55.411,240.373 55.333,240.543 55.333 C 240.713 55.333,241.306 55.108,241.861 54.833 C 247.670 51.951,247.729 41.943,241.955 39.035 C 239.909 38.004,234.243 37.460,233.934 38.264 M239.711 38.435 C 240.715 38.694,242.363 39.395,242.792 39.746 C 245.343 41.831,246.468 45.179,245.815 48.740 C 244.941 53.505,242.263 55.501,236.667 55.558 L 234.250 55.583 234.207 46.875 L 234.164 38.167 236.418 38.167 C 237.947 38.167,239.006 38.253,239.711 38.435 M163.107 38.796 C 163.015 38.943,160.874 45.406,160.416 46.917 C 160.249 47.467,160.060 48.029,159.995 48.167 C 159.262 49.727,159.131 49.667,163.278 49.667 C 167.108 49.667,167.035 49.685,166.680 48.800 C 166.596 48.589,166.407 48.004,166.261 47.500 C 165.759 45.766,165.453 44.749,165.333 44.417 C 165.267 44.233,165.092 43.671,164.944 43.167 C 163.686 38.880,163.430 38.272,163.107 38.796 M163.667 39.603 C 163.667 39.751,163.779 40.219,163.917 40.644 C 164.054 41.069,164.354 41.992,164.583 42.695 C 164.812 43.398,165.000 44.092,165.000 44.239 C 165.000 44.385,165.070 44.635,165.155 44.794 C 165.240 44.953,165.428 45.496,165.573 46.000 C 166.214 48.224,166.384 48.768,166.521 49.039 C 166.601 49.199,166.667 49.367,166.667 49.414 C 166.667 49.461,165.137 49.500,163.268 49.500 L 159.868 49.500 160.006 48.958 C 160.248 48.010,160.585 47.026,160.711 46.900 C 160.778 46.833,160.833 46.580,160.833 46.339 C 160.833 46.097,160.893 45.829,160.966 45.742 C 161.039 45.655,161.233 45.133,161.399 44.583 C 161.564 44.033,161.805 43.337,161.933 43.036 C 162.062 42.735,162.167 42.354,162.167 42.189 C 162.167 42.024,162.215 41.840,162.275 41.781 C 162.434 41.621,162.988 39.963,162.995 39.625 C 163.002 39.248,163.667 39.226,163.667 39.603 M90.875 49.184 C 90.585 49.484,90.578 55.678,90.867 55.967 C 91.350 56.450,95.853 56.091,97.167 55.465 C 99.915 54.154,99.511 50.406,96.517 49.442 C 95.433 49.093,91.152 48.897,90.875 49.184 M96.080 49.575 C 98.154 50.116,99.105 51.504,98.664 53.345 C 98.243 55.098,97.075 55.655,93.542 55.788 L 91.000 55.884 91.000 52.608 L 91.000 49.333 93.075 49.333 C 94.352 49.333,95.508 49.426,96.080 49.575 M20.269 60.735 C 18.534 62.640,16.347 65.190,16.160 65.524 C 15.600 66.527,24.820 73.564,29.769 75.912 C 30.492 76.255,31.301 76.640,31.567 76.768 C 31.833 76.895,32.133 77.000,32.234 77.001 C 32.334 77.002,32.623 77.110,32.875 77.241 C 33.127 77.373,33.333 77.427,33.333 77.363 C 33.333 77.298,33.727 77.106,34.208 76.935 C 38.627 75.371,45.626 70.656,49.531 66.612 C 50.332 65.782,50.377 65.556,49.846 65.000 C 49.278 64.405,48.201 63.195,47.249 62.084 C 46.700 61.442,45.970 60.617,45.627 60.250 C 45.284 59.883,45.003 59.527,45.002 59.458 C 44.998 59.181,44.498 59.360,44.054 59.798 C 40.988 62.819,34.473 67.240,33.143 67.203 C 31.761 67.163,25.694 63.056,22.535 60.021 C 21.621 59.143,21.757 59.100,20.269 60.735 "
              stroke="none" fill="#ccac55" fill-rule="evenodd"></path>
    </g>
</svg>
